<svg width="360" height="252" viewBox="0 0 360 252" fill="none" xmlns="http://www.w3.org/2000/svg">
<rect width="360" height="252" rx="24" fill="#15B2F5"/>
<path d="M99.7553 58V40.12H102.875L109.571 49.216H108.083L114.635 40.12H117.755V58H114.467V43.84L115.739 44.152L108.947 53.2H108.563L101.939 44.152L103.019 43.84V58H99.7553ZM127.297 58.288C126.017 58.288 124.849 57.992 123.793 57.4C122.753 56.808 121.921 56 121.297 54.976C120.689 53.952 120.385 52.784 120.385 51.472C120.385 50.16 120.689 48.992 121.297 47.968C121.921 46.944 122.753 46.136 123.793 45.544C124.833 44.952 126.001 44.656 127.297 44.656C128.577 44.656 129.737 44.952 130.777 45.544C131.817 46.136 132.641 46.944 133.249 47.968C133.873 48.976 134.185 50.144 134.185 51.472C134.185 52.784 133.873 53.952 133.249 54.976C132.625 56 131.793 56.808 130.753 57.4C129.713 57.992 128.561 58.288 127.297 58.288ZM127.297 55.408C128.001 55.408 128.617 55.24 129.145 54.904C129.689 54.568 130.113 54.104 130.417 53.512C130.737 52.904 130.897 52.224 130.897 51.472C130.897 50.704 130.737 50.032 130.417 49.456C130.113 48.864 129.689 48.4 129.145 48.064C128.617 47.712 128.001 47.536 127.297 47.536C126.577 47.536 125.945 47.712 125.401 48.064C124.857 48.4 124.425 48.864 124.105 49.456C123.801 50.032 123.649 50.704 123.649 51.472C123.649 52.224 123.801 52.904 124.105 53.512C124.425 54.104 124.857 54.568 125.401 54.904C125.945 55.24 126.577 55.408 127.297 55.408ZM136.569 58V44.944H139.521V47.848L139.281 47.416C139.585 46.44 140.057 45.76 140.697 45.376C141.353 44.992 142.137 44.8 143.049 44.8H143.817V47.584H142.689C141.793 47.584 141.073 47.864 140.529 48.424C139.985 48.968 139.713 49.736 139.713 50.728V58H136.569ZM151.738 58.288C150.394 58.288 149.218 57.984 148.21 57.376C147.202 56.768 146.418 55.944 145.858 54.904C145.298 53.864 145.018 52.712 145.018 51.448C145.018 50.136 145.298 48.976 145.858 47.968C146.434 46.944 147.21 46.136 148.186 45.544C149.178 44.952 150.282 44.656 151.498 44.656C152.522 44.656 153.418 44.824 154.186 45.16C154.97 45.496 155.634 45.96 156.178 46.552C156.722 47.144 157.138 47.824 157.426 48.592C157.714 49.344 157.858 50.16 157.858 51.04C157.858 51.264 157.842 51.496 157.81 51.736C157.794 51.976 157.754 52.184 157.69 52.36H147.61V49.96H155.914L154.426 51.088C154.57 50.352 154.53 49.696 154.306 49.12C154.098 48.544 153.746 48.088 153.25 47.752C152.77 47.416 152.186 47.248 151.498 47.248C150.842 47.248 150.258 47.416 149.746 47.752C149.234 48.072 148.842 48.552 148.57 49.192C148.314 49.816 148.218 50.576 148.282 51.472C148.218 52.272 148.322 52.984 148.594 53.608C148.882 54.216 149.298 54.688 149.842 55.024C150.402 55.36 151.042 55.528 151.762 55.528C152.482 55.528 153.09 55.376 153.586 55.072C154.098 54.768 154.498 54.36 154.786 53.848L157.33 55.096C157.074 55.72 156.674 56.272 156.13 56.752C155.586 57.232 154.938 57.608 154.186 57.88C153.45 58.152 152.634 58.288 151.738 58.288ZM169.475 58.288C168.083 58.288 166.867 57.96 165.827 57.304C164.803 56.632 164.099 55.728 163.715 54.592L166.067 53.464C166.403 54.2 166.867 54.776 167.459 55.192C168.067 55.608 168.739 55.816 169.475 55.816C170.051 55.816 170.507 55.688 170.843 55.432C171.179 55.176 171.347 54.84 171.347 54.424C171.347 54.168 171.275 53.96 171.131 53.8C171.003 53.624 170.819 53.48 170.579 53.368C170.355 53.24 170.107 53.136 169.835 53.056L167.699 52.456C166.595 52.136 165.755 51.648 165.179 50.992C164.619 50.336 164.339 49.56 164.339 48.664C164.339 47.864 164.539 47.168 164.939 46.576C165.355 45.968 165.923 45.496 166.643 45.16C167.379 44.824 168.219 44.656 169.163 44.656C170.395 44.656 171.483 44.952 172.427 45.544C173.371 46.136 174.043 46.968 174.443 48.04L172.043 49.168C171.819 48.576 171.443 48.104 170.915 47.752C170.387 47.4 169.795 47.224 169.139 47.224C168.611 47.224 168.195 47.344 167.891 47.584C167.587 47.824 167.435 48.136 167.435 48.52C167.435 48.76 167.499 48.968 167.627 49.144C167.755 49.32 167.931 49.464 168.155 49.576C168.395 49.688 168.667 49.792 168.971 49.888L171.059 50.512C172.131 50.832 172.955 51.312 173.531 51.952C174.123 52.592 174.419 53.376 174.419 54.304C174.419 55.088 174.211 55.784 173.795 56.392C173.379 56.984 172.803 57.448 172.067 57.784C171.331 58.12 170.467 58.288 169.475 58.288ZM183.027 58.288C181.683 58.288 180.507 57.984 179.499 57.376C178.491 56.768 177.707 55.944 177.147 54.904C176.587 53.864 176.307 52.712 176.307 51.448C176.307 50.136 176.587 48.976 177.147 47.968C177.723 46.944 178.499 46.136 179.475 45.544C180.467 44.952 181.571 44.656 182.787 44.656C183.811 44.656 184.707 44.824 185.475 45.16C186.259 45.496 186.923 45.96 187.467 46.552C188.011 47.144 188.427 47.824 188.715 48.592C189.003 49.344 189.147 50.16 189.147 51.04C189.147 51.264 189.131 51.496 189.099 51.736C189.083 51.976 189.043 52.184 188.979 52.36H178.899V49.96H187.203L185.715 51.088C185.859 50.352 185.819 49.696 185.595 49.12C185.387 48.544 185.035 48.088 184.539 47.752C184.059 47.416 183.475 47.248 182.787 47.248C182.131 47.248 181.547 47.416 181.035 47.752C180.523 48.072 180.131 48.552 179.859 49.192C179.603 49.816 179.507 50.576 179.571 51.472C179.507 52.272 179.611 52.984 179.883 53.608C180.171 54.216 180.587 54.688 181.131 55.024C181.691 55.36 182.331 55.528 183.051 55.528C183.771 55.528 184.379 55.376 184.875 55.072C185.387 54.768 185.787 54.36 186.075 53.848L188.619 55.096C188.363 55.72 187.963 56.272 187.419 56.752C186.875 57.232 186.227 57.608 185.475 57.88C184.739 58.152 183.923 58.288 183.027 58.288ZM191.53 58V44.944H194.482V47.848L194.242 47.416C194.546 46.44 195.018 45.76 195.658 45.376C196.314 44.992 197.098 44.8 198.01 44.8H198.778V47.584H197.65C196.754 47.584 196.034 47.864 195.49 48.424C194.946 48.968 194.674 49.736 194.674 50.728V58H191.53ZM204.443 58L199.307 44.944H202.739L206.459 55.216H205.187L208.931 44.944H212.363L207.227 58H204.443ZM214.101 58V44.944H217.245V58H214.101ZM214.101 43.48V40.12H217.245V43.48H214.101ZM226.436 58.288C225.14 58.288 223.972 57.992 222.932 57.4C221.908 56.792 221.1 55.976 220.508 54.952C219.916 53.912 219.62 52.744 219.62 51.448C219.62 50.152 219.916 48.992 220.508 47.968C221.1 46.944 221.908 46.136 222.932 45.544C223.972 44.952 225.14 44.656 226.436 44.656C227.364 44.656 228.228 44.824 229.028 45.16C229.828 45.48 230.516 45.928 231.092 46.504C231.684 47.064 232.108 47.736 232.364 48.52L229.604 49.72C229.364 49.064 228.956 48.536 228.38 48.136C227.82 47.736 227.172 47.536 226.436 47.536C225.748 47.536 225.132 47.704 224.588 48.04C224.06 48.376 223.644 48.84 223.34 49.432C223.036 50.024 222.884 50.704 222.884 51.472C222.884 52.24 223.036 52.92 223.34 53.512C223.644 54.104 224.06 54.568 224.588 54.904C225.132 55.24 225.748 55.408 226.436 55.408C227.188 55.408 227.844 55.208 228.404 54.808C228.964 54.408 229.364 53.872 229.604 53.2L232.364 54.448C232.108 55.184 231.692 55.848 231.116 56.44C230.54 57.016 229.852 57.472 229.052 57.808C228.252 58.128 227.38 58.288 226.436 58.288ZM240.941 58.288C239.597 58.288 238.421 57.984 237.413 57.376C236.405 56.768 235.621 55.944 235.061 54.904C234.501 53.864 234.221 52.712 234.221 51.448C234.221 50.136 234.501 48.976 235.061 47.968C235.637 46.944 236.413 46.136 237.389 45.544C238.381 44.952 239.485 44.656 240.701 44.656C241.725 44.656 242.621 44.824 243.389 45.16C244.173 45.496 244.837 45.96 245.381 46.552C245.925 47.144 246.341 47.824 246.629 48.592C246.917 49.344 247.061 50.16 247.061 51.04C247.061 51.264 247.045 51.496 247.013 51.736C246.997 51.976 246.957 52.184 246.893 52.36H236.813V49.96H245.117L243.629 51.088C243.773 50.352 243.733 49.696 243.509 49.12C243.301 48.544 242.949 48.088 242.453 47.752C241.973 47.416 241.389 47.248 240.701 47.248C240.045 47.248 239.461 47.416 238.949 47.752C238.437 48.072 238.045 48.552 237.773 49.192C237.517 49.816 237.421 50.576 237.485 51.472C237.421 52.272 237.525 52.984 237.797 53.608C238.085 54.216 238.501 54.688 239.045 55.024C239.605 55.36 240.245 55.528 240.965 55.528C241.685 55.528 242.293 55.376 242.789 55.072C243.301 54.768 243.701 54.36 243.989 53.848L246.533 55.096C246.277 55.72 245.877 56.272 245.333 56.752C244.789 57.232 244.141 57.608 243.389 57.88C242.653 58.152 241.837 58.288 240.941 58.288ZM253.044 52.576V52.096C253.044 51.392 253.148 50.768 253.356 50.224C253.58 49.68 253.86 49.2 254.196 48.784C254.532 48.352 254.884 47.96 255.252 47.608C255.748 47.112 256.188 46.656 256.572 46.24C256.972 45.808 257.172 45.304 257.172 44.728C257.172 44.376 257.084 44.048 256.908 43.744C256.732 43.44 256.468 43.2 256.116 43.024C255.78 42.848 255.364 42.76 254.868 42.76C254.196 42.76 253.612 42.968 253.116 43.384C252.636 43.8 252.34 44.352 252.228 45.04L249.3 44.32C249.444 43.424 249.764 42.64 250.26 41.968C250.772 41.296 251.428 40.776 252.228 40.408C253.044 40.024 253.948 39.832 254.94 39.832C256.108 39.832 257.1 40.064 257.916 40.528C258.748 40.992 259.38 41.592 259.812 42.328C260.244 43.064 260.46 43.84 260.46 44.656C260.46 45.296 260.332 45.864 260.076 46.36C259.82 46.856 259.5 47.312 259.116 47.728C258.748 48.128 258.364 48.528 257.964 48.928C257.452 49.408 257.004 49.912 256.62 50.44C256.236 50.968 256.044 51.584 256.044 52.288V52.576H253.044ZM252.972 58V54.64H256.164V58H252.972Z" fill="white"/>
<path d="M44.8774 89V82.772L40.1794 75.59H41.7814L45.8854 81.836H45.3094L49.3954 75.59H50.9974L46.3174 82.772V89H44.8774ZM55.3073 89.216C54.3953 89.216 53.5673 89 52.8233 88.568C52.0793 88.124 51.4853 87.524 51.0413 86.768C50.6093 86 50.3933 85.13 50.3933 84.158C50.3933 83.198 50.6093 82.34 51.0413 81.584C51.4733 80.828 52.0553 80.234 52.7873 79.802C53.5313 79.358 54.3713 79.136 55.3073 79.136C56.2433 79.136 57.0773 79.352 57.8093 79.784C58.5533 80.216 59.1353 80.81 59.5553 81.566C59.9873 82.322 60.2033 83.186 60.2033 84.158C60.2033 85.142 59.9813 86.018 59.5373 86.786C59.0933 87.542 58.4993 88.136 57.7553 88.568C57.0233 89 56.2073 89.216 55.3073 89.216ZM55.3073 87.866C55.9553 87.866 56.5373 87.704 57.0533 87.38C57.5813 87.056 57.9953 86.612 58.2953 86.048C58.6073 85.484 58.7633 84.854 58.7633 84.158C58.7633 83.462 58.6073 82.838 58.2953 82.286C57.9953 81.734 57.5813 81.296 57.0533 80.972C56.5373 80.648 55.9553 80.486 55.3073 80.486C54.6593 80.486 54.0713 80.648 53.5433 80.972C53.0273 81.296 52.6133 81.734 52.3013 82.286C51.9893 82.838 51.8333 83.462 51.8333 84.158C51.8333 84.854 51.9893 85.484 52.3013 86.048C52.6133 86.612 53.0273 87.056 53.5433 87.38C54.0713 87.704 54.6593 87.866 55.3073 87.866ZM66.0042 89.216C65.3322 89.216 64.7202 89.06 64.1682 88.748C63.6162 88.424 63.1782 87.98 62.8542 87.416C62.5422 86.84 62.3862 86.18 62.3862 85.436V79.352H63.7362V85.274C63.7362 85.79 63.8382 86.246 64.0422 86.642C64.2582 87.026 64.5522 87.326 64.9242 87.542C65.3082 87.758 65.7462 87.866 66.2382 87.866C66.7302 87.866 67.1682 87.758 67.5522 87.542C67.9362 87.314 68.2362 86.996 68.4522 86.588C68.6682 86.168 68.7762 85.67 68.7762 85.094V79.352H70.1262V89H68.7762V87.128L69.0822 87.2C68.8542 87.824 68.4642 88.316 67.9122 88.676C67.3602 89.036 66.7242 89.216 66.0042 89.216ZM80.3712 89.216C79.4232 89.216 78.5892 88.994 77.8692 88.55C77.1492 88.106 76.5852 87.506 76.1772 86.75C75.7692 85.982 75.5652 85.118 75.5652 84.158C75.5652 83.198 75.7692 82.34 76.1772 81.584C76.5852 80.828 77.1492 80.234 77.8692 79.802C78.5892 79.358 79.4232 79.136 80.3712 79.136C80.9712 79.136 81.5352 79.244 82.0632 79.46C82.5912 79.676 83.0592 79.97 83.4672 80.342C83.8752 80.702 84.1812 81.122 84.3852 81.602L83.1612 82.232C82.9212 81.716 82.5552 81.296 82.0632 80.972C81.5712 80.648 81.0072 80.486 80.3712 80.486C79.7352 80.486 79.1592 80.648 78.6432 80.972C78.1392 81.284 77.7372 81.722 77.4372 82.286C77.1492 82.838 77.0052 83.468 77.0052 84.176C77.0052 84.872 77.1492 85.502 77.4372 86.066C77.7372 86.618 78.1392 87.056 78.6432 87.38C79.1592 87.704 79.7352 87.866 80.3712 87.866C81.0072 87.866 81.5652 87.704 82.0452 87.38C82.5372 87.056 82.9092 86.624 83.1612 86.084L84.3852 86.75C84.1812 87.218 83.8752 87.638 83.4672 88.01C83.0592 88.382 82.5912 88.676 82.0632 88.892C81.5352 89.108 80.9712 89.216 80.3712 89.216ZM89.3684 89.216C88.7564 89.216 88.2104 89.102 87.7304 88.874C87.2504 88.634 86.8724 88.31 86.5964 87.902C86.3204 87.494 86.1824 87.026 86.1824 86.498C86.1824 85.994 86.2904 85.538 86.5064 85.13C86.7224 84.71 87.0584 84.356 87.5144 84.068C87.9704 83.78 88.5524 83.576 89.2604 83.456L93.0404 82.826V84.05L89.5844 84.626C88.8884 84.746 88.3844 84.968 88.0724 85.292C87.7724 85.616 87.6224 86 87.6224 86.444C87.6224 86.876 87.7904 87.242 88.1264 87.542C88.4744 87.842 88.9184 87.992 89.4584 87.992C90.1184 87.992 90.6944 87.854 91.1864 87.578C91.6784 87.29 92.0624 86.906 92.3384 86.426C92.6144 85.946 92.7524 85.412 92.7524 84.824V82.376C92.7524 81.8 92.5424 81.332 92.1224 80.972C91.7024 80.612 91.1564 80.432 90.4844 80.432C89.8964 80.432 89.3804 80.582 88.9364 80.882C88.4924 81.17 88.1624 81.548 87.9464 82.016L86.7224 81.35C86.9024 80.942 87.1844 80.57 87.5684 80.234C87.9644 79.898 88.4144 79.634 88.9184 79.442C89.4224 79.238 89.9444 79.136 90.4844 79.136C91.1924 79.136 91.8164 79.274 92.3564 79.55C92.9084 79.826 93.3344 80.21 93.6344 80.702C93.9464 81.182 94.1024 81.74 94.1024 82.376V89H92.7524V87.074L92.9504 87.272C92.7824 87.632 92.5184 87.962 92.1584 88.262C91.8104 88.55 91.3964 88.784 90.9164 88.964C90.4484 89.132 89.9324 89.216 89.3684 89.216ZM96.8792 89V79.352H98.2292V81.224L97.9232 81.152C98.1632 80.528 98.5532 80.036 99.0932 79.676C99.6452 79.316 100.281 79.136 101.001 79.136C101.685 79.136 102.297 79.292 102.837 79.604C103.389 79.916 103.821 80.348 104.133 80.9C104.457 81.44 104.619 82.052 104.619 82.736V89H103.269V83.258C103.269 82.67 103.161 82.172 102.945 81.764C102.741 81.356 102.447 81.044 102.063 80.828C101.691 80.6 101.259 80.486 100.767 80.486C100.275 80.486 99.8372 80.6 99.4532 80.828C99.0692 81.044 98.7692 81.362 98.5532 81.782C98.3372 82.19 98.2292 82.682 98.2292 83.258V89H96.8792ZM113.946 89.108C113.082 89.108 112.416 88.856 111.948 88.352C111.48 87.848 111.246 87.128 111.246 86.192V80.702H109.464V79.352H109.914C110.322 79.352 110.646 79.22 110.886 78.956C111.126 78.68 111.246 78.338 111.246 77.93V77.12H112.596V79.352H114.72V80.702H112.596V86.192C112.596 86.516 112.644 86.804 112.74 87.056C112.836 87.296 112.998 87.488 113.226 87.632C113.466 87.776 113.784 87.848 114.18 87.848C114.276 87.848 114.39 87.842 114.522 87.83C114.654 87.818 114.768 87.806 114.864 87.794V89C114.72 89.036 114.558 89.06 114.378 89.072C114.198 89.096 114.054 89.108 113.946 89.108ZM121.275 89.216C120.375 89.216 119.559 89 118.827 88.568C118.107 88.124 117.537 87.518 117.117 86.75C116.697 85.982 116.487 85.112 116.487 84.14C116.487 83.168 116.691 82.31 117.099 81.566C117.507 80.81 118.059 80.216 118.755 79.784C119.463 79.352 120.255 79.136 121.131 79.136C121.827 79.136 122.445 79.268 122.985 79.532C123.537 79.784 124.005 80.132 124.389 80.576C124.773 81.008 125.067 81.5 125.271 82.052C125.475 82.592 125.577 83.15 125.577 83.726C125.577 83.846 125.571 83.984 125.559 84.14C125.547 84.284 125.529 84.434 125.505 84.59H117.351V83.33H124.731L124.083 83.87C124.191 83.21 124.113 82.622 123.849 82.106C123.597 81.578 123.231 81.164 122.751 80.864C122.271 80.552 121.731 80.396 121.131 80.396C120.531 80.396 119.973 80.552 119.457 80.864C118.953 81.176 118.557 81.614 118.269 82.178C117.981 82.73 117.867 83.39 117.927 84.158C117.867 84.926 117.987 85.598 118.287 86.174C118.599 86.738 119.019 87.176 119.547 87.488C120.087 87.8 120.663 87.956 121.275 87.956C121.983 87.956 122.577 87.788 123.057 87.452C123.537 87.116 123.927 86.696 124.227 86.192L125.379 86.804C125.187 87.236 124.893 87.638 124.497 88.01C124.101 88.37 123.627 88.664 123.075 88.892C122.535 89.108 121.935 89.216 121.275 89.216ZM127.957 89V75.374H129.307V89H127.957ZM132.071 89V75.374H133.421V89H132.071ZM142.662 89.216C141.99 89.216 141.378 89.06 140.826 88.748C140.274 88.424 139.836 87.98 139.512 87.416C139.2 86.84 139.044 86.18 139.044 85.436V79.352H140.394V85.274C140.394 85.79 140.496 86.246 140.7 86.642C140.916 87.026 141.21 87.326 141.582 87.542C141.966 87.758 142.404 87.866 142.896 87.866C143.388 87.866 143.826 87.758 144.21 87.542C144.594 87.314 144.894 86.996 145.11 86.588C145.326 86.168 145.434 85.67 145.434 85.094V79.352H146.784V89H145.434V87.128L145.74 87.2C145.512 87.824 145.122 88.316 144.57 88.676C144.018 89.036 143.382 89.216 142.662 89.216ZM152.909 89.216C151.985 89.216 151.175 88.982 150.479 88.514C149.783 88.046 149.279 87.41 148.967 86.606L150.101 86.066C150.377 86.654 150.761 87.122 151.253 87.47C151.757 87.818 152.309 87.992 152.909 87.992C153.485 87.992 153.971 87.854 154.367 87.578C154.763 87.29 154.961 86.918 154.961 86.462C154.961 86.126 154.865 85.862 154.673 85.67C154.481 85.466 154.259 85.31 154.007 85.202C153.755 85.094 153.533 85.016 153.341 84.968L151.955 84.572C151.067 84.32 150.425 83.966 150.029 83.51C149.633 83.054 149.435 82.526 149.435 81.926C149.435 81.362 149.579 80.87 149.867 80.45C150.155 80.03 150.545 79.706 151.037 79.478C151.529 79.25 152.075 79.136 152.675 79.136C153.491 79.136 154.229 79.352 154.889 79.784C155.561 80.204 156.035 80.792 156.311 81.548L155.159 82.088C154.919 81.548 154.571 81.128 154.115 80.828C153.671 80.516 153.173 80.36 152.621 80.36C152.081 80.36 151.649 80.498 151.325 80.774C151.001 81.05 150.839 81.398 150.839 81.818C150.839 82.142 150.923 82.4 151.091 82.592C151.259 82.784 151.451 82.928 151.667 83.024C151.895 83.12 152.093 83.192 152.261 83.24L153.863 83.708C154.643 83.936 155.249 84.29 155.681 84.77C156.125 85.25 156.347 85.814 156.347 86.462C156.347 86.99 156.197 87.464 155.897 87.884C155.609 88.304 155.207 88.634 154.691 88.874C154.175 89.102 153.581 89.216 152.909 89.216ZM163.902 89L160.59 79.352H162.12L164.856 87.794H164.316L166.89 79.352H168.24L170.814 87.794H170.274L173.028 79.352H174.54L171.228 89H169.878L167.376 80.738H167.754L165.252 89H163.902ZM176.121 89V75.374H177.471V81.224L177.165 81.152C177.405 80.528 177.795 80.036 178.335 79.676C178.887 79.316 179.523 79.136 180.243 79.136C180.927 79.136 181.539 79.292 182.079 79.604C182.631 79.916 183.063 80.348 183.375 80.9C183.699 81.44 183.861 82.052 183.861 82.736V89H182.511V83.258C182.511 82.67 182.403 82.172 182.187 81.764C181.971 81.356 181.671 81.044 181.287 80.828C180.915 80.6 180.489 80.486 180.009 80.486C179.529 80.486 179.097 80.6 178.713 80.828C178.329 81.044 178.023 81.362 177.795 81.782C177.579 82.19 177.471 82.682 177.471 83.258V89H176.121ZM189.23 89.216C188.618 89.216 188.072 89.102 187.592 88.874C187.112 88.634 186.734 88.31 186.458 87.902C186.182 87.494 186.044 87.026 186.044 86.498C186.044 85.994 186.152 85.538 186.368 85.13C186.584 84.71 186.92 84.356 187.376 84.068C187.832 83.78 188.414 83.576 189.122 83.456L192.902 82.826V84.05L189.446 84.626C188.75 84.746 188.246 84.968 187.934 85.292C187.634 85.616 187.484 86 187.484 86.444C187.484 86.876 187.652 87.242 187.988 87.542C188.336 87.842 188.78 87.992 189.32 87.992C189.98 87.992 190.556 87.854 191.048 87.578C191.54 87.29 191.924 86.906 192.2 86.426C192.476 85.946 192.614 85.412 192.614 84.824V82.376C192.614 81.8 192.404 81.332 191.984 80.972C191.564 80.612 191.018 80.432 190.346 80.432C189.758 80.432 189.242 80.582 188.798 80.882C188.354 81.17 188.024 81.548 187.808 82.016L186.584 81.35C186.764 80.942 187.046 80.57 187.43 80.234C187.826 79.898 188.276 79.634 188.78 79.442C189.284 79.238 189.806 79.136 190.346 79.136C191.054 79.136 191.678 79.274 192.218 79.55C192.77 79.826 193.196 80.21 193.496 80.702C193.808 81.182 193.964 81.74 193.964 82.376V89H192.614V87.074L192.812 87.272C192.644 87.632 192.38 87.962 192.02 88.262C191.672 88.55 191.258 88.784 190.778 88.964C190.31 89.132 189.794 89.216 189.23 89.216ZM200.255 89.108C199.391 89.108 198.725 88.856 198.257 88.352C197.789 87.848 197.555 87.128 197.555 86.192V80.702H195.773V79.352H196.223C196.631 79.352 196.955 79.22 197.195 78.956C197.435 78.68 197.555 78.338 197.555 77.93V77.12H198.905V79.352H201.029V80.702H198.905V86.192C198.905 86.516 198.953 86.804 199.049 87.056C199.145 87.296 199.307 87.488 199.535 87.632C199.775 87.776 200.093 87.848 200.489 87.848C200.585 87.848 200.699 87.842 200.831 87.83C200.963 87.818 201.077 87.806 201.173 87.794V89C201.029 89.036 200.867 89.06 200.687 89.072C200.507 89.096 200.363 89.108 200.255 89.108ZM206.8 92.96C206.608 92.96 206.41 92.942 206.206 92.906C206.014 92.882 205.822 92.834 205.63 92.762V91.502C205.75 91.514 205.9 91.532 206.08 91.556C206.272 91.592 206.464 91.61 206.656 91.61C207.244 91.61 207.694 91.484 208.006 91.232C208.318 90.992 208.624 90.524 208.924 89.828L209.536 88.388L209.5 89.576L205.414 79.352H206.872L210.22 87.794H209.842L213.172 79.352H214.666L210.256 90.224C210.064 90.692 209.818 91.136 209.518 91.556C209.23 91.976 208.864 92.312 208.42 92.564C207.976 92.828 207.436 92.96 206.8 92.96ZM220.594 89.216C219.682 89.216 218.854 89 218.11 88.568C217.366 88.124 216.772 87.524 216.328 86.768C215.896 86 215.68 85.13 215.68 84.158C215.68 83.198 215.896 82.34 216.328 81.584C216.76 80.828 217.342 80.234 218.074 79.802C218.818 79.358 219.658 79.136 220.594 79.136C221.53 79.136 222.364 79.352 223.096 79.784C223.84 80.216 224.422 80.81 224.842 81.566C225.274 82.322 225.49 83.186 225.49 84.158C225.49 85.142 225.268 86.018 224.824 86.786C224.38 87.542 223.786 88.136 223.042 88.568C222.31 89 221.494 89.216 220.594 89.216ZM220.594 87.866C221.242 87.866 221.824 87.704 222.34 87.38C222.868 87.056 223.282 86.612 223.582 86.048C223.894 85.484 224.05 84.854 224.05 84.158C224.05 83.462 223.894 82.838 223.582 82.286C223.282 81.734 222.868 81.296 222.34 80.972C221.824 80.648 221.242 80.486 220.594 80.486C219.946 80.486 219.358 80.648 218.83 80.972C218.314 81.296 217.9 81.734 217.588 82.286C217.276 82.838 217.12 83.462 217.12 84.158C217.12 84.854 217.276 85.484 217.588 86.048C217.9 86.612 218.314 87.056 218.83 87.38C219.358 87.704 219.946 87.866 220.594 87.866ZM231.291 89.216C230.619 89.216 230.007 89.06 229.455 88.748C228.903 88.424 228.465 87.98 228.141 87.416C227.829 86.84 227.673 86.18 227.673 85.436V79.352H229.023V85.274C229.023 85.79 229.125 86.246 229.329 86.642C229.545 87.026 229.839 87.326 230.211 87.542C230.595 87.758 231.033 87.866 231.525 87.866C232.017 87.866 232.455 87.758 232.839 87.542C233.223 87.314 233.523 86.996 233.739 86.588C233.955 86.168 234.063 85.67 234.063 85.094V79.352H235.413V89H234.063V87.128L234.369 87.2C234.141 87.824 233.751 88.316 233.199 88.676C232.647 89.036 232.011 89.216 231.291 89.216ZM241.248 89V79.352H242.598V81.224L242.292 81.152C242.532 80.528 242.922 80.036 243.462 79.676C244.014 79.316 244.65 79.136 245.37 79.136C246.054 79.136 246.666 79.292 247.206 79.604C247.758 79.916 248.19 80.348 248.502 80.9C248.826 81.44 248.988 82.052 248.988 82.736V89H247.638V83.258C247.638 82.67 247.53 82.172 247.314 81.764C247.11 81.356 246.816 81.044 246.432 80.828C246.06 80.6 245.628 80.486 245.136 80.486C244.644 80.486 244.206 80.6 243.822 80.828C243.438 81.044 243.138 81.362 242.922 81.782C242.706 82.19 242.598 82.682 242.598 83.258V89H241.248ZM255.959 89.216C255.059 89.216 254.243 89 253.511 88.568C252.791 88.124 252.221 87.518 251.801 86.75C251.381 85.982 251.171 85.112 251.171 84.14C251.171 83.168 251.375 82.31 251.783 81.566C252.191 80.81 252.743 80.216 253.439 79.784C254.147 79.352 254.939 79.136 255.815 79.136C256.511 79.136 257.129 79.268 257.669 79.532C258.221 79.784 258.689 80.132 259.073 80.576C259.457 81.008 259.751 81.5 259.955 82.052C260.159 82.592 260.261 83.15 260.261 83.726C260.261 83.846 260.255 83.984 260.243 84.14C260.231 84.284 260.213 84.434 260.189 84.59H252.035V83.33H259.415L258.767 83.87C258.875 83.21 258.797 82.622 258.533 82.106C258.281 81.578 257.915 81.164 257.435 80.864C256.955 80.552 256.415 80.396 255.815 80.396C255.215 80.396 254.657 80.552 254.141 80.864C253.637 81.176 253.241 81.614 252.953 82.178C252.665 82.73 252.551 83.39 252.611 84.158C252.551 84.926 252.671 85.598 252.971 86.174C253.283 86.738 253.703 87.176 254.231 87.488C254.771 87.8 255.347 87.956 255.959 87.956C256.667 87.956 257.261 87.788 257.741 87.452C258.221 87.116 258.611 86.696 258.911 86.192L260.063 86.804C259.871 87.236 259.577 87.638 259.181 88.01C258.785 88.37 258.311 88.664 257.759 88.892C257.219 89.108 256.619 89.216 255.959 89.216ZM267.033 89.216C266.133 89.216 265.317 89 264.585 88.568C263.865 88.124 263.295 87.518 262.875 86.75C262.455 85.982 262.245 85.112 262.245 84.14C262.245 83.168 262.449 82.31 262.857 81.566C263.265 80.81 263.817 80.216 264.513 79.784C265.221 79.352 266.013 79.136 266.889 79.136C267.585 79.136 268.203 79.268 268.743 79.532C269.295 79.784 269.763 80.132 270.147 80.576C270.531 81.008 270.825 81.5 271.029 82.052C271.233 82.592 271.335 83.15 271.335 83.726C271.335 83.846 271.329 83.984 271.317 84.14C271.305 84.284 271.287 84.434 271.263 84.59H263.109V83.33H270.489L269.841 83.87C269.949 83.21 269.871 82.622 269.607 82.106C269.355 81.578 268.989 81.164 268.509 80.864C268.029 80.552 267.489 80.396 266.889 80.396C266.289 80.396 265.731 80.552 265.215 80.864C264.711 81.176 264.315 81.614 264.027 82.178C263.739 82.73 263.625 83.39 263.685 84.158C263.625 84.926 263.745 85.598 264.045 86.174C264.357 86.738 264.777 87.176 265.305 87.488C265.845 87.8 266.421 87.956 267.033 87.956C267.741 87.956 268.335 87.788 268.815 87.452C269.295 87.116 269.685 86.696 269.985 86.192L271.137 86.804C270.945 87.236 270.651 87.638 270.255 88.01C269.859 88.37 269.385 88.664 268.833 88.892C268.293 89.108 267.693 89.216 267.033 89.216ZM278.071 89.216C277.171 89.216 276.361 89 275.641 88.568C274.921 88.124 274.351 87.524 273.931 86.768C273.523 86 273.319 85.136 273.319 84.176C273.319 83.204 273.523 82.34 273.931 81.584C274.351 80.828 274.915 80.234 275.623 79.802C276.343 79.358 277.159 79.136 278.071 79.136C278.899 79.136 279.637 79.316 280.285 79.676C280.933 80.036 281.443 80.522 281.815 81.134L281.599 81.512V75.374H282.949V89H281.599V86.84L281.815 87.038C281.479 87.734 280.975 88.274 280.303 88.658C279.643 89.03 278.899 89.216 278.071 89.216ZM278.143 87.866C278.791 87.866 279.373 87.704 279.889 87.38C280.417 87.056 280.831 86.618 281.131 86.066C281.443 85.502 281.599 84.872 281.599 84.176C281.599 83.48 281.443 82.856 281.131 82.304C280.831 81.74 280.417 81.296 279.889 80.972C279.373 80.648 278.791 80.486 278.143 80.486C277.507 80.486 276.931 80.648 276.415 80.972C275.899 81.296 275.491 81.734 275.191 82.286C274.903 82.838 274.759 83.468 274.759 84.176C274.759 84.872 274.903 85.502 275.191 86.066C275.491 86.618 275.893 87.056 276.397 87.38C276.913 87.704 277.495 87.866 278.143 87.866ZM291.57 89.216C290.958 89.216 290.412 89.102 289.932 88.874C289.452 88.634 289.074 88.31 288.798 87.902C288.522 87.494 288.384 87.026 288.384 86.498C288.384 85.994 288.492 85.538 288.708 85.13C288.924 84.71 289.26 84.356 289.716 84.068C290.172 83.78 290.754 83.576 291.462 83.456L295.242 82.826V84.05L291.786 84.626C291.09 84.746 290.586 84.968 290.274 85.292C289.974 85.616 289.824 86 289.824 86.444C289.824 86.876 289.992 87.242 290.328 87.542C290.676 87.842 291.12 87.992 291.66 87.992C292.32 87.992 292.896 87.854 293.388 87.578C293.88 87.29 294.264 86.906 294.54 86.426C294.816 85.946 294.954 85.412 294.954 84.824V82.376C294.954 81.8 294.744 81.332 294.324 80.972C293.904 80.612 293.358 80.432 292.686 80.432C292.098 80.432 291.582 80.582 291.138 80.882C290.694 81.17 290.364 81.548 290.148 82.016L288.924 81.35C289.104 80.942 289.386 80.57 289.77 80.234C290.166 79.898 290.616 79.634 291.12 79.442C291.624 79.238 292.146 79.136 292.686 79.136C293.394 79.136 294.018 79.274 294.558 79.55C295.11 79.826 295.536 80.21 295.836 80.702C296.148 81.182 296.304 81.74 296.304 82.376V89H294.954V87.074L295.152 87.272C294.984 87.632 294.72 87.962 294.36 88.262C294.012 88.55 293.598 88.784 293.118 88.964C292.65 89.132 292.134 89.216 291.57 89.216ZM299.08 89V79.352H300.43V81.224L300.124 81.152C300.364 80.528 300.754 80.036 301.294 79.676C301.846 79.316 302.482 79.136 303.202 79.136C303.886 79.136 304.498 79.292 305.038 79.604C305.59 79.916 306.022 80.348 306.334 80.9C306.658 81.44 306.82 82.052 306.82 82.736V89H305.47V83.258C305.47 82.67 305.362 82.172 305.146 81.764C304.942 81.356 304.648 81.044 304.264 80.828C303.892 80.6 303.46 80.486 302.968 80.486C302.476 80.486 302.038 80.6 301.654 80.828C301.27 81.044 300.97 81.362 300.754 81.782C300.538 82.19 300.43 82.682 300.43 83.258V89H299.08ZM313.755 89.216C312.855 89.216 312.045 89 311.325 88.568C310.605 88.124 310.035 87.524 309.615 86.768C309.207 86 309.003 85.136 309.003 84.176C309.003 83.204 309.207 82.34 309.615 81.584C310.035 80.828 310.599 80.234 311.307 79.802C312.027 79.358 312.843 79.136 313.755 79.136C314.583 79.136 315.321 79.316 315.969 79.676C316.617 80.036 317.127 80.522 317.499 81.134L317.283 81.512V75.374H318.633V89H317.283V86.84L317.499 87.038C317.163 87.734 316.659 88.274 315.987 88.658C315.327 89.03 314.583 89.216 313.755 89.216ZM313.827 87.866C314.475 87.866 315.057 87.704 315.573 87.38C316.101 87.056 316.515 86.618 316.815 86.066C317.127 85.502 317.283 84.872 317.283 84.176C317.283 83.48 317.127 82.856 316.815 82.304C316.515 81.74 316.101 81.296 315.573 80.972C315.057 80.648 314.475 80.486 313.827 80.486C313.191 80.486 312.615 80.648 312.099 80.972C311.583 81.296 311.175 81.734 310.875 82.286C310.587 82.838 310.443 83.468 310.443 84.176C310.443 84.872 310.587 85.502 310.875 86.066C311.175 86.618 311.577 87.056 312.081 87.38C312.597 87.704 313.179 87.866 313.827 87.866ZM130.916 117L127.604 107.352H129.134L131.87 115.794H131.33L133.904 107.352H135.254L137.828 115.794H137.288L140.042 107.352H141.554L138.242 117H136.892L134.39 108.738H134.768L132.266 117H130.916ZM147.352 117.216C146.452 117.216 145.636 117 144.904 116.568C144.184 116.124 143.614 115.518 143.194 114.75C142.774 113.982 142.564 113.112 142.564 112.14C142.564 111.168 142.768 110.31 143.176 109.566C143.584 108.81 144.136 108.216 144.832 107.784C145.54 107.352 146.332 107.136 147.208 107.136C147.904 107.136 148.522 107.268 149.062 107.532C149.614 107.784 150.082 108.132 150.466 108.576C150.85 109.008 151.144 109.5 151.348 110.052C151.552 110.592 151.654 111.15 151.654 111.726C151.654 111.846 151.648 111.984 151.636 112.14C151.624 112.284 151.606 112.434 151.582 112.59H143.428V111.33H150.808L150.16 111.87C150.268 111.21 150.19 110.622 149.926 110.106C149.674 109.578 149.308 109.164 148.828 108.864C148.348 108.552 147.808 108.396 147.208 108.396C146.608 108.396 146.05 108.552 145.534 108.864C145.03 109.176 144.634 109.614 144.346 110.178C144.058 110.73 143.944 111.39 144.004 112.158C143.944 112.926 144.064 113.598 144.364 114.174C144.676 114.738 145.096 115.176 145.624 115.488C146.164 115.8 146.74 115.956 147.352 115.956C148.06 115.956 148.654 115.788 149.134 115.452C149.614 115.116 150.004 114.696 150.304 114.192L151.456 114.804C151.264 115.236 150.97 115.638 150.574 116.01C150.178 116.37 149.704 116.664 149.152 116.892C148.612 117.108 148.012 117.216 147.352 117.216ZM161.503 117.216C160.555 117.216 159.721 116.994 159.001 116.55C158.281 116.106 157.717 115.506 157.309 114.75C156.901 113.982 156.697 113.118 156.697 112.158C156.697 111.198 156.901 110.34 157.309 109.584C157.717 108.828 158.281 108.234 159.001 107.802C159.721 107.358 160.555 107.136 161.503 107.136C162.103 107.136 162.667 107.244 163.195 107.46C163.723 107.676 164.191 107.97 164.599 108.342C165.007 108.702 165.313 109.122 165.517 109.602L164.293 110.232C164.053 109.716 163.687 109.296 163.195 108.972C162.703 108.648 162.139 108.486 161.503 108.486C160.867 108.486 160.291 108.648 159.775 108.972C159.271 109.284 158.869 109.722 158.569 110.286C158.281 110.838 158.137 111.468 158.137 112.176C158.137 112.872 158.281 113.502 158.569 114.066C158.869 114.618 159.271 115.056 159.775 115.38C160.291 115.704 160.867 115.866 161.503 115.866C162.139 115.866 162.697 115.704 163.177 115.38C163.669 115.056 164.041 114.624 164.293 114.084L165.517 114.75C165.313 115.218 165.007 115.638 164.599 116.01C164.191 116.382 163.723 116.676 163.195 116.892C162.667 117.108 162.103 117.216 161.503 117.216ZM170.5 117.216C169.888 117.216 169.342 117.102 168.862 116.874C168.382 116.634 168.004 116.31 167.728 115.902C167.452 115.494 167.314 115.026 167.314 114.498C167.314 113.994 167.422 113.538 167.638 113.13C167.854 112.71 168.19 112.356 168.646 112.068C169.102 111.78 169.684 111.576 170.392 111.456L174.172 110.826V112.05L170.716 112.626C170.02 112.746 169.516 112.968 169.204 113.292C168.904 113.616 168.754 114 168.754 114.444C168.754 114.876 168.922 115.242 169.258 115.542C169.606 115.842 170.05 115.992 170.59 115.992C171.25 115.992 171.826 115.854 172.318 115.578C172.81 115.29 173.194 114.906 173.47 114.426C173.746 113.946 173.884 113.412 173.884 112.824V110.376C173.884 109.8 173.674 109.332 173.254 108.972C172.834 108.612 172.288 108.432 171.616 108.432C171.028 108.432 170.512 108.582 170.068 108.882C169.624 109.17 169.294 109.548 169.078 110.016L167.854 109.35C168.034 108.942 168.316 108.57 168.7 108.234C169.096 107.898 169.546 107.634 170.05 107.442C170.554 107.238 171.076 107.136 171.616 107.136C172.324 107.136 172.948 107.274 173.488 107.55C174.04 107.826 174.466 108.21 174.766 108.702C175.078 109.182 175.234 109.74 175.234 110.376V117H173.884V115.074L174.082 115.272C173.914 115.632 173.65 115.962 173.29 116.262C172.942 116.55 172.528 116.784 172.048 116.964C171.58 117.132 171.064 117.216 170.5 117.216ZM178.011 117V107.352H179.361V109.224L179.055 109.152C179.295 108.528 179.685 108.036 180.225 107.676C180.777 107.316 181.413 107.136 182.133 107.136C182.817 107.136 183.429 107.292 183.969 107.604C184.521 107.916 184.953 108.348 185.265 108.9C185.589 109.44 185.751 110.052 185.751 110.736V117H184.401V111.258C184.401 110.67 184.293 110.172 184.077 109.764C183.873 109.356 183.579 109.044 183.195 108.828C182.823 108.6 182.391 108.486 181.899 108.486C181.407 108.486 180.969 108.6 180.585 108.828C180.201 109.044 179.901 109.362 179.685 109.782C179.469 110.19 179.361 110.682 179.361 111.258V117H178.011ZM191.388 117V103.374H192.738V109.224L192.432 109.152C192.672 108.528 193.062 108.036 193.602 107.676C194.154 107.316 194.79 107.136 195.51 107.136C196.194 107.136 196.806 107.292 197.346 107.604C197.898 107.916 198.33 108.348 198.642 108.9C198.966 109.44 199.128 110.052 199.128 110.736V117H197.778V111.258C197.778 110.67 197.67 110.172 197.454 109.764C197.238 109.356 196.938 109.044 196.554 108.828C196.182 108.6 195.756 108.486 195.276 108.486C194.796 108.486 194.364 108.6 193.98 108.828C193.596 109.044 193.29 109.362 193.062 109.782C192.846 110.19 192.738 110.682 192.738 111.258V117H191.388ZM206.098 117.216C205.198 117.216 204.382 117 203.65 116.568C202.93 116.124 202.36 115.518 201.94 114.75C201.52 113.982 201.31 113.112 201.31 112.14C201.31 111.168 201.514 110.31 201.922 109.566C202.33 108.81 202.882 108.216 203.578 107.784C204.286 107.352 205.078 107.136 205.954 107.136C206.65 107.136 207.268 107.268 207.808 107.532C208.36 107.784 208.828 108.132 209.212 108.576C209.596 109.008 209.89 109.5 210.094 110.052C210.298 110.592 210.4 111.15 210.4 111.726C210.4 111.846 210.394 111.984 210.382 112.14C210.37 112.284 210.352 112.434 210.328 112.59H202.174V111.33H209.554L208.906 111.87C209.014 111.21 208.936 110.622 208.672 110.106C208.42 109.578 208.054 109.164 207.574 108.864C207.094 108.552 206.554 108.396 205.954 108.396C205.354 108.396 204.796 108.552 204.28 108.864C203.776 109.176 203.38 109.614 203.092 110.178C202.804 110.73 202.69 111.39 202.75 112.158C202.69 112.926 202.81 113.598 203.11 114.174C203.422 114.738 203.842 115.176 204.37 115.488C204.91 115.8 205.486 115.956 206.098 115.956C206.806 115.956 207.4 115.788 207.88 115.452C208.36 115.116 208.75 114.696 209.05 114.192L210.202 114.804C210.01 115.236 209.716 115.638 209.32 116.01C208.924 116.37 208.45 116.664 207.898 116.892C207.358 117.108 206.758 117.216 206.098 117.216ZM212.781 117V103.374H214.131V117H212.781ZM216.894 120.6V107.352H218.244V109.512L218.028 109.134C218.412 108.522 218.922 108.036 219.558 107.676C220.206 107.316 220.944 107.136 221.772 107.136C222.684 107.136 223.494 107.358 224.202 107.802C224.922 108.234 225.486 108.828 225.894 109.584C226.314 110.34 226.524 111.204 226.524 112.176C226.524 113.136 226.314 114 225.894 114.768C225.486 115.524 224.922 116.124 224.202 116.568C223.494 117 222.684 117.216 221.772 117.216C220.944 117.216 220.194 117.03 219.522 116.658C218.862 116.274 218.364 115.734 218.028 115.038L218.244 114.84V120.6H216.894ZM221.7 115.866C222.348 115.866 222.924 115.704 223.428 115.38C223.944 115.056 224.346 114.618 224.634 114.066C224.934 113.502 225.084 112.872 225.084 112.176C225.084 111.468 224.934 110.838 224.634 110.286C224.346 109.734 223.944 109.296 223.428 108.972C222.924 108.648 222.348 108.486 221.7 108.486C221.052 108.486 220.464 108.648 219.936 108.972C219.42 109.296 219.006 109.74 218.694 110.304C218.394 110.856 218.244 111.48 218.244 112.176C218.244 112.872 218.394 113.502 218.694 114.066C219.006 114.618 219.42 115.056 219.936 115.38C220.464 115.704 221.052 115.866 221.7 115.866ZM229.422 113.148L229.332 103.59H230.772L230.682 113.148H229.422ZM229.332 117V115.02H230.772V117H229.332Z" fill="white"/>
<rect x="32" y="156" width="296" height="64" rx="32" fill="white"/>
<path d="M121.628 198.288C120.348 198.288 119.164 198.056 118.076 197.592C117.004 197.128 116.06 196.48 115.244 195.648C114.444 194.816 113.82 193.84 113.372 192.72C112.924 191.6 112.7 190.376 112.7 189.048C112.7 187.72 112.916 186.496 113.348 185.376C113.796 184.24 114.42 183.264 115.22 182.448C116.036 181.616 116.988 180.976 118.076 180.528C119.164 180.064 120.348 179.832 121.628 179.832C122.908 179.832 124.052 180.048 125.06 180.48C126.084 180.912 126.948 181.488 127.652 182.208C128.356 182.912 128.86 183.688 129.164 184.536L126.236 185.904C125.9 185.008 125.332 184.272 124.532 183.696C123.732 183.104 122.764 182.808 121.628 182.808C120.508 182.808 119.516 183.072 118.652 183.6C117.804 184.128 117.14 184.856 116.66 185.784C116.196 186.712 115.964 187.8 115.964 189.048C115.964 190.296 116.196 191.392 116.66 192.336C117.14 193.264 117.804 193.992 118.652 194.52C119.516 195.048 120.508 195.312 121.628 195.312C122.764 195.312 123.732 195.024 124.532 194.448C125.332 193.856 125.9 193.112 126.236 192.216L129.164 193.584C128.86 194.432 128.356 195.216 127.652 195.936C126.948 196.64 126.084 197.208 125.06 197.64C124.052 198.072 122.908 198.288 121.628 198.288ZM135.276 198.288C134.364 198.288 133.572 198.136 132.9 197.832C132.228 197.528 131.708 197.096 131.34 196.536C130.972 195.96 130.788 195.296 130.788 194.544C130.788 193.824 130.948 193.184 131.268 192.624C131.588 192.048 132.084 191.568 132.756 191.184C133.428 190.8 134.276 190.528 135.3 190.368L139.572 189.672V192.072L135.9 192.696C135.276 192.808 134.812 193.008 134.508 193.296C134.204 193.584 134.052 193.96 134.052 194.424C134.052 194.872 134.22 195.232 134.556 195.504C134.908 195.76 135.34 195.888 135.852 195.888C136.508 195.888 137.084 195.752 137.58 195.48C138.092 195.192 138.484 194.8 138.756 194.304C139.044 193.808 139.188 193.264 139.188 192.672V189.312C139.188 188.752 138.964 188.288 138.516 187.92C138.084 187.536 137.508 187.344 136.788 187.344C136.116 187.344 135.516 187.528 134.988 187.896C134.476 188.248 134.1 188.72 133.86 189.312L131.292 188.064C131.548 187.376 131.948 186.784 132.492 186.288C133.052 185.776 133.708 185.376 134.46 185.088C135.212 184.8 136.028 184.656 136.908 184.656C137.98 184.656 138.924 184.856 139.74 185.256C140.556 185.64 141.188 186.184 141.636 186.888C142.1 187.576 142.332 188.384 142.332 189.312V198H139.356V195.768L140.028 195.72C139.692 196.28 139.292 196.752 138.828 197.136C138.364 197.504 137.836 197.792 137.244 198C136.652 198.192 135.996 198.288 135.276 198.288ZM145.237 198V179.832H148.381V198H145.237ZM151.284 198V179.832H154.428V198H151.284ZM168.749 198.288C167.373 198.288 166.149 198 165.077 197.424C164.021 196.848 163.189 196.056 162.581 195.048C161.973 194.04 161.669 192.896 161.669 191.616V180.12H164.933V191.448C164.933 192.184 165.093 192.848 165.413 193.44C165.749 194.032 166.205 194.496 166.781 194.832C167.357 195.152 168.013 195.312 168.749 195.312C169.501 195.312 170.157 195.152 170.717 194.832C171.293 194.496 171.741 194.032 172.061 193.44C172.397 192.848 172.565 192.184 172.565 191.448V180.12H175.829V191.616C175.829 192.896 175.525 194.04 174.917 195.048C174.309 196.056 173.469 196.848 172.397 197.424C171.341 198 170.125 198.288 168.749 198.288ZM183.791 198.288C182.399 198.288 181.183 197.96 180.143 197.304C179.119 196.632 178.415 195.728 178.031 194.592L180.383 193.464C180.719 194.2 181.183 194.776 181.775 195.192C182.383 195.608 183.055 195.816 183.791 195.816C184.367 195.816 184.823 195.688 185.159 195.432C185.495 195.176 185.663 194.84 185.663 194.424C185.663 194.168 185.591 193.96 185.447 193.8C185.319 193.624 185.135 193.48 184.895 193.368C184.671 193.24 184.423 193.136 184.151 193.056L182.015 192.456C180.911 192.136 180.071 191.648 179.495 190.992C178.935 190.336 178.655 189.56 178.655 188.664C178.655 187.864 178.855 187.168 179.255 186.576C179.671 185.968 180.239 185.496 180.959 185.16C181.695 184.824 182.535 184.656 183.479 184.656C184.711 184.656 185.799 184.952 186.743 185.544C187.687 186.136 188.359 186.968 188.759 188.04L186.359 189.168C186.135 188.576 185.759 188.104 185.231 187.752C184.703 187.4 184.111 187.224 183.455 187.224C182.927 187.224 182.511 187.344 182.207 187.584C181.903 187.824 181.751 188.136 181.751 188.52C181.751 188.76 181.815 188.968 181.943 189.144C182.071 189.32 182.247 189.464 182.471 189.576C182.711 189.688 182.983 189.792 183.287 189.888L185.375 190.512C186.447 190.832 187.271 191.312 187.847 191.952C188.439 192.592 188.735 193.376 188.735 194.304C188.735 195.088 188.527 195.784 188.111 196.392C187.695 196.984 187.119 197.448 186.383 197.784C185.647 198.12 184.783 198.288 183.791 198.288ZM195.681 198V180.12H198.225L208.065 193.368L206.745 193.632V180.12H210.009V198H207.441L197.745 184.656L198.945 184.392V198H195.681ZM219.59 198.288C218.31 198.288 217.142 197.992 216.086 197.4C215.046 196.808 214.214 196 213.59 194.976C212.982 193.952 212.678 192.784 212.678 191.472C212.678 190.16 212.982 188.992 213.59 187.968C214.214 186.944 215.046 186.136 216.086 185.544C217.126 184.952 218.294 184.656 219.59 184.656C220.87 184.656 222.03 184.952 223.07 185.544C224.11 186.136 224.934 186.944 225.542 187.968C226.166 188.976 226.478 190.144 226.478 191.472C226.478 192.784 226.166 193.952 225.542 194.976C224.918 196 224.086 196.808 223.046 197.4C222.006 197.992 220.854 198.288 219.59 198.288ZM219.59 195.408C220.294 195.408 220.91 195.24 221.438 194.904C221.982 194.568 222.406 194.104 222.71 193.512C223.03 192.904 223.19 192.224 223.19 191.472C223.19 190.704 223.03 190.032 222.71 189.456C222.406 188.864 221.982 188.4 221.438 188.064C220.91 187.712 220.294 187.536 219.59 187.536C218.87 187.536 218.238 187.712 217.694 188.064C217.15 188.4 216.718 188.864 216.398 189.456C216.094 190.032 215.942 190.704 215.942 191.472C215.942 192.224 216.094 192.904 216.398 193.512C216.718 194.104 217.15 194.568 217.694 194.904C218.238 195.24 218.87 195.408 219.59 195.408ZM231.916 198L227.428 184.944H230.74L234.028 194.856L232.876 194.832L236.38 184.944H239.164L242.644 194.832L241.492 194.856L244.78 184.944H248.092L243.604 198H240.796L237.244 187.656H238.3L234.7 198H231.916Z" fill="#15B2F5"/>
</svg>
