<svg width="360" height="244" viewBox="0 0 360 244" fill="none" xmlns="http://www.w3.org/2000/svg">
<rect x="32" y="32" width="64" height="64" rx="20" fill="#142257"/>
<path d="M78.721 46.959H75.1954C74.9727 46.959 74.7696 47.0847 74.6698 47.2838L71.6698 53.2841L68.6698 47.2838C68.5699 47.0847 68.3668 46.959 68.1441 46.959H55.2168C54.892 46.959 54.6292 47.2221 54.6292 47.5466V62.9291L49.0688 59.3905C48.8369 59.2433 48.5328 59.2755 48.3377 59.4708L45.3997 62.4089C45.1799 62.6289 45.169 62.9821 45.3761 63.2148L54.6292 73.6247V80.4525C54.6292 80.777 54.892 81.0401 55.2168 81.0401H61.6805V71.6384C61.6805 71.3139 61.9433 71.0508 62.2681 71.0508C62.5929 71.0508 62.8557 71.3139 62.8557 71.6384V81.0401H78.721C79.0458 81.0401 79.3086 80.777 79.3086 80.4525V47.5466C79.3086 47.2221 79.0458 46.959 78.721 46.959ZM62.8557 68.1128C62.8557 68.4373 62.5929 68.7004 62.2681 68.7004C61.9433 68.7004 61.6805 68.4373 61.6805 68.1128V66.9376C61.6805 66.6131 61.9433 66.35 62.2681 66.35C62.5929 66.35 62.8557 66.6131 62.8557 66.9376V68.1128Z" fill="white"/>
<path d="M36.896 138V123H32.264V120.12H44.744V123H40.184V138H36.896ZM45.0421 138V124.944H47.9941V127.848L47.7541 127.416C48.0581 126.44 48.5301 125.76 49.1701 125.376C49.8261 124.992 50.6101 124.8 51.5221 124.8H52.2901V127.584H51.1621C50.2661 127.584 49.5461 127.864 49.0021 128.424C48.4581 128.968 48.1861 129.736 48.1861 130.728V138H45.0421ZM60.2107 138.288C58.8667 138.288 57.6907 137.984 56.6827 137.376C55.6747 136.768 54.8907 135.944 54.3307 134.904C53.7707 133.864 53.4907 132.712 53.4907 131.448C53.4907 130.136 53.7707 128.976 54.3307 127.968C54.9067 126.944 55.6827 126.136 56.6587 125.544C57.6507 124.952 58.7547 124.656 59.9707 124.656C60.9947 124.656 61.8907 124.824 62.6587 125.16C63.4427 125.496 64.1067 125.96 64.6507 126.552C65.1947 127.144 65.6107 127.824 65.8987 128.592C66.1867 129.344 66.3307 130.16 66.3307 131.04C66.3307 131.264 66.3147 131.496 66.2827 131.736C66.2667 131.976 66.2267 132.184 66.1627 132.36H56.0827V129.96H64.3867L62.8987 131.088C63.0427 130.352 63.0027 129.696 62.7787 129.12C62.5707 128.544 62.2187 128.088 61.7227 127.752C61.2427 127.416 60.6587 127.248 59.9707 127.248C59.3147 127.248 58.7307 127.416 58.2187 127.752C57.7067 128.072 57.3147 128.552 57.0427 129.192C56.7867 129.816 56.6907 130.576 56.7547 131.472C56.6907 132.272 56.7947 132.984 57.0667 133.608C57.3547 134.216 57.7707 134.688 58.3147 135.024C58.8747 135.36 59.5147 135.528 60.2347 135.528C60.9547 135.528 61.5627 135.376 62.0587 135.072C62.5707 134.768 62.9707 134.36 63.2587 133.848L65.8027 135.096C65.5467 135.72 65.1467 136.272 64.6027 136.752C64.0587 137.232 63.4107 137.608 62.6587 137.88C61.9227 138.152 61.1067 138.288 60.2107 138.288ZM74.906 138.288C73.562 138.288 72.386 137.984 71.378 137.376C70.37 136.768 69.586 135.944 69.026 134.904C68.466 133.864 68.186 132.712 68.186 131.448C68.186 130.136 68.466 128.976 69.026 127.968C69.602 126.944 70.378 126.136 71.354 125.544C72.346 124.952 73.45 124.656 74.666 124.656C75.69 124.656 76.586 124.824 77.354 125.16C78.138 125.496 78.802 125.96 79.346 126.552C79.89 127.144 80.306 127.824 80.594 128.592C80.882 129.344 81.026 130.16 81.026 131.04C81.026 131.264 81.01 131.496 80.978 131.736C80.962 131.976 80.922 132.184 80.858 132.36H70.778V129.96H79.082L77.594 131.088C77.738 130.352 77.698 129.696 77.474 129.12C77.266 128.544 76.914 128.088 76.418 127.752C75.938 127.416 75.354 127.248 74.666 127.248C74.01 127.248 73.426 127.416 72.914 127.752C72.402 128.072 72.01 128.552 71.738 129.192C71.482 129.816 71.386 130.576 71.45 131.472C71.386 132.272 71.49 132.984 71.762 133.608C72.05 134.216 72.466 134.688 73.01 135.024C73.57 135.36 74.21 135.528 74.93 135.528C75.65 135.528 76.258 135.376 76.754 135.072C77.266 134.768 77.666 134.36 77.954 133.848L80.498 135.096C80.242 135.72 79.842 136.272 79.298 136.752C78.754 137.232 78.106 137.608 77.354 137.88C76.618 138.152 75.802 138.288 74.906 138.288ZM91.1069 138V123H86.4749V120.12H98.9549V123H94.3949V138H91.1069ZM99.2531 138V124.944H102.205V127.848L101.965 127.416C102.269 126.44 102.741 125.76 103.381 125.376C104.037 124.992 104.821 124.8 105.733 124.8H106.501V127.584H105.373C104.477 127.584 103.757 127.864 103.213 128.424C102.669 128.968 102.397 129.736 102.397 130.728V138H99.2531ZM108.23 138V124.944H111.374V138H108.23ZM108.23 123.48V120.12H111.374V123.48H108.23ZM114.277 138V124.944H117.229V127.968L116.893 127.464C117.133 126.52 117.613 125.816 118.333 125.352C119.053 124.888 119.901 124.656 120.877 124.656C121.949 124.656 122.893 124.936 123.709 125.496C124.525 126.056 125.053 126.792 125.293 127.704L124.405 127.776C124.805 126.736 125.405 125.96 126.205 125.448C127.005 124.92 127.925 124.656 128.965 124.656C129.893 124.656 130.717 124.864 131.437 125.28C132.173 125.696 132.749 126.28 133.165 127.032C133.581 127.768 133.789 128.624 133.789 129.6V138H130.645V130.344C130.645 129.768 130.541 129.272 130.333 128.856C130.125 128.44 129.837 128.12 129.469 127.896C129.101 127.656 128.653 127.536 128.125 127.536C127.629 127.536 127.189 127.656 126.805 127.896C126.421 128.12 126.125 128.44 125.917 128.856C125.709 129.272 125.605 129.768 125.605 130.344V138H122.461V130.344C122.461 129.768 122.357 129.272 122.149 128.856C121.941 128.44 121.645 128.12 121.261 127.896C120.893 127.656 120.453 127.536 119.941 127.536C119.445 127.536 119.005 127.656 118.621 127.896C118.237 128.12 117.941 128.44 117.733 128.856C117.525 129.272 117.421 129.768 117.421 130.344V138H114.277ZM136.448 138V124.944H139.4V127.968L139.064 127.464C139.304 126.52 139.784 125.816 140.504 125.352C141.224 124.888 142.072 124.656 143.048 124.656C144.12 124.656 145.064 124.936 145.88 125.496C146.696 126.056 147.224 126.792 147.464 127.704L146.576 127.776C146.976 126.736 147.576 125.96 148.376 125.448C149.176 124.92 150.096 124.656 151.136 124.656C152.064 124.656 152.888 124.864 153.608 125.28C154.344 125.696 154.92 126.28 155.336 127.032C155.752 127.768 155.96 128.624 155.96 129.6V138H152.816V130.344C152.816 129.768 152.712 129.272 152.504 128.856C152.296 128.44 152.008 128.12 151.64 127.896C151.272 127.656 150.824 127.536 150.296 127.536C149.8 127.536 149.36 127.656 148.976 127.896C148.592 128.12 148.296 128.44 148.088 128.856C147.88 129.272 147.776 129.768 147.776 130.344V138H144.632V130.344C144.632 129.768 144.528 129.272 144.32 128.856C144.112 128.44 143.816 128.12 143.432 127.896C143.064 127.656 142.624 127.536 142.112 127.536C141.616 127.536 141.176 127.656 140.792 127.896C140.408 128.12 140.112 128.44 139.904 128.856C139.696 129.272 139.592 129.768 139.592 130.344V138H136.448ZM158.62 138V124.944H161.764V138H158.62ZM158.62 123.48V120.12H161.764V123.48H158.62ZM164.667 138V124.944H167.619V127.512L167.379 127.056C167.683 126.272 168.179 125.68 168.867 125.28C169.571 124.864 170.387 124.656 171.315 124.656C172.275 124.656 173.123 124.864 173.859 125.28C174.611 125.696 175.195 126.28 175.611 127.032C176.027 127.768 176.235 128.624 176.235 129.6V138H173.091V130.344C173.091 129.768 172.979 129.272 172.755 128.856C172.531 128.44 172.219 128.12 171.819 127.896C171.435 127.656 170.979 127.536 170.451 127.536C169.939 127.536 169.483 127.656 169.083 127.896C168.683 128.12 168.371 128.44 168.147 128.856C167.923 129.272 167.811 129.768 167.811 130.344V138H164.667ZM185.23 143.28C184.254 143.28 183.35 143.12 182.518 142.8C181.686 142.48 180.966 142.032 180.358 141.456C179.766 140.896 179.334 140.232 179.062 139.464L181.99 138.36C182.182 138.968 182.558 139.456 183.118 139.824C183.694 140.208 184.398 140.4 185.23 140.4C185.87 140.4 186.43 140.28 186.91 140.04C187.406 139.8 187.79 139.448 188.062 138.984C188.334 138.536 188.47 137.992 188.47 137.352V134.376L189.07 135.096C188.622 135.88 188.022 136.472 187.27 136.872C186.518 137.272 185.662 137.472 184.702 137.472C183.486 137.472 182.398 137.192 181.438 136.632C180.478 136.072 179.726 135.304 179.182 134.328C178.638 133.352 178.366 132.256 178.366 131.04C178.366 129.808 178.638 128.712 179.182 127.752C179.726 126.792 180.47 126.04 181.414 125.496C182.358 124.936 183.43 124.656 184.63 124.656C185.606 124.656 186.462 124.864 187.198 125.28C187.95 125.68 188.574 126.264 189.07 127.032L188.638 127.824V124.944H191.614V137.352C191.614 138.488 191.334 139.504 190.774 140.4C190.23 141.296 189.478 142 188.518 142.512C187.574 143.024 186.478 143.28 185.23 143.28ZM185.086 134.568C185.758 134.568 186.342 134.424 186.838 134.136C187.35 133.832 187.75 133.416 188.038 132.888C188.326 132.36 188.47 131.752 188.47 131.064C188.47 130.392 188.318 129.792 188.014 129.264C187.726 128.72 187.326 128.296 186.814 127.992C186.318 127.688 185.742 127.536 185.086 127.536C184.43 127.536 183.838 127.688 183.31 127.992C182.782 128.296 182.366 128.72 182.062 129.264C181.774 129.792 181.63 130.392 181.63 131.064C181.63 131.736 181.774 132.336 182.062 132.864C182.366 133.392 182.774 133.808 183.286 134.112C183.814 134.416 184.414 134.568 185.086 134.568Z" fill="#171921"/>
<path d="M35.906 177V164.94H32.198V163.59H41.018V164.94H37.346V177H35.906ZM41.5247 177V167.352H42.8747V168.936L42.6947 168.702C42.9227 168.246 43.2647 167.886 43.7207 167.622C44.1887 167.358 44.7527 167.226 45.4127 167.226H46.0247V168.576H45.1787C44.4827 168.576 43.9247 168.792 43.5047 169.224C43.0847 169.656 42.8747 170.268 42.8747 171.06V177H41.5247ZM47.6067 177V167.352H48.9567V177H47.6067ZM47.6067 165.57V163.59H48.9567V165.57H47.6067ZM51.72 177V167.352H53.07V169.188L52.854 168.918C53.118 168.354 53.508 167.916 54.024 167.604C54.552 167.292 55.128 167.136 55.752 167.136C56.496 167.136 57.168 167.346 57.768 167.766C58.368 168.186 58.794 168.732 59.046 169.404L58.668 169.422C58.908 168.678 59.322 168.114 59.91 167.73C60.51 167.334 61.17 167.136 61.89 167.136C62.538 167.136 63.132 167.292 63.672 167.604C64.224 167.916 64.662 168.348 64.986 168.9C65.322 169.44 65.49 170.052 65.49 170.736V177H64.14V171.258C64.14 170.67 64.032 170.172 63.816 169.764C63.612 169.356 63.33 169.044 62.97 168.828C62.61 168.6 62.196 168.486 61.728 168.486C61.272 168.486 60.858 168.6 60.486 168.828C60.114 169.044 59.82 169.362 59.604 169.782C59.388 170.19 59.28 170.682 59.28 171.258V177H57.93V171.258C57.93 170.67 57.822 170.172 57.606 169.764C57.402 169.356 57.12 169.044 56.76 168.828C56.4 168.6 55.986 168.486 55.518 168.486C55.05 168.486 54.63 168.6 54.258 168.828C53.898 169.044 53.61 169.362 53.394 169.782C53.178 170.19 53.07 170.682 53.07 171.258V177H51.72ZM68.0676 177V167.352H69.4176V169.188L69.2016 168.918C69.4656 168.354 69.8556 167.916 70.3716 167.604C70.8996 167.292 71.4756 167.136 72.0996 167.136C72.8436 167.136 73.5156 167.346 74.1156 167.766C74.7156 168.186 75.1416 168.732 75.3936 169.404L75.0156 169.422C75.2556 168.678 75.6696 168.114 76.2576 167.73C76.8576 167.334 77.5176 167.136 78.2376 167.136C78.8856 167.136 79.4796 167.292 80.0196 167.604C80.5716 167.916 81.0096 168.348 81.3336 168.9C81.6696 169.44 81.8376 170.052 81.8376 170.736V177H80.4876V171.258C80.4876 170.67 80.3796 170.172 80.1636 169.764C79.9596 169.356 79.6776 169.044 79.3176 168.828C78.9576 168.6 78.5436 168.486 78.0756 168.486C77.6196 168.486 77.2056 168.6 76.8336 168.828C76.4616 169.044 76.1676 169.362 75.9516 169.782C75.7356 170.19 75.6276 170.682 75.6276 171.258V177H74.2776V171.258C74.2776 170.67 74.1696 170.172 73.9536 169.764C73.7496 169.356 73.4676 169.044 73.1076 168.828C72.7476 168.6 72.3336 168.486 71.8656 168.486C71.3976 168.486 70.9776 168.6 70.6056 168.828C70.2456 169.044 69.9576 169.362 69.7416 169.782C69.5256 170.19 69.4176 170.682 69.4176 171.258V177H68.0676ZM84.4153 177V167.352H85.7653V177H84.4153ZM84.4153 165.57V163.59H85.7653V165.57H84.4153ZM88.5286 177V167.352H89.8786V169.224L89.5726 169.152C89.8126 168.528 90.2026 168.036 90.7426 167.676C91.2946 167.316 91.9306 167.136 92.6506 167.136C93.3346 167.136 93.9466 167.292 94.4866 167.604C95.0386 167.916 95.4706 168.348 95.7826 168.9C96.1066 169.44 96.2686 170.052 96.2686 170.736V177H94.9186V171.258C94.9186 170.67 94.8106 170.172 94.5946 169.764C94.3906 169.356 94.0966 169.044 93.7126 168.828C93.3406 168.6 92.9086 168.486 92.4166 168.486C91.9246 168.486 91.4866 168.6 91.1026 168.828C90.7186 169.044 90.4186 169.362 90.2026 169.782C89.9866 170.19 89.8786 170.682 89.8786 171.258V177H88.5286ZM103.419 180.96C102.759 180.96 102.147 180.858 101.583 180.654C101.031 180.45 100.551 180.168 100.143 179.808C99.7469 179.46 99.4409 179.052 99.2249 178.584L100.467 177.918C100.659 178.374 101.001 178.77 101.493 179.106C101.985 179.442 102.615 179.61 103.383 179.61C103.971 179.61 104.511 179.496 105.003 179.268C105.495 179.04 105.891 178.704 106.191 178.26C106.491 177.816 106.641 177.27 106.641 176.622V174.48L106.857 174.678C106.521 175.374 106.023 175.914 105.363 176.298C104.703 176.67 103.983 176.856 103.203 176.856C102.303 176.856 101.493 176.64 100.773 176.208C100.053 175.776 99.4829 175.194 99.0629 174.462C98.6549 173.718 98.4509 172.896 98.4509 171.996C98.4509 171.084 98.6549 170.262 99.0629 169.53C99.4829 168.798 100.047 168.216 100.755 167.784C101.475 167.352 102.291 167.136 103.203 167.136C103.983 167.136 104.691 167.316 105.327 167.676C105.975 168.036 106.485 168.522 106.857 169.134L106.641 169.512V167.352H107.991V176.622C107.991 177.45 107.793 178.188 107.397 178.836C107.013 179.496 106.473 180.012 105.777 180.384C105.093 180.768 104.307 180.96 103.419 180.96ZM103.275 175.506C103.899 175.506 104.463 175.35 104.967 175.038C105.471 174.714 105.873 174.288 106.173 173.76C106.485 173.22 106.641 172.632 106.641 171.996C106.641 171.36 106.485 170.778 106.173 170.25C105.873 169.71 105.471 169.284 104.967 168.972C104.463 168.648 103.899 168.486 103.275 168.486C102.639 168.486 102.063 168.648 101.547 168.972C101.031 169.284 100.623 169.704 100.323 170.232C100.035 170.76 99.8909 171.348 99.8909 171.996C99.8909 172.632 100.035 173.22 100.323 173.76C100.623 174.288 101.025 174.714 101.529 175.038C102.045 175.35 102.627 175.506 103.275 175.506ZM116.614 177.216C116.002 177.216 115.456 177.102 114.976 176.874C114.496 176.634 114.118 176.31 113.842 175.902C113.566 175.494 113.428 175.026 113.428 174.498C113.428 173.994 113.536 173.538 113.752 173.13C113.968 172.71 114.304 172.356 114.76 172.068C115.216 171.78 115.798 171.576 116.506 171.456L120.286 170.826V172.05L116.83 172.626C116.134 172.746 115.63 172.968 115.318 173.292C115.018 173.616 114.868 174 114.868 174.444C114.868 174.876 115.036 175.242 115.372 175.542C115.72 175.842 116.164 175.992 116.704 175.992C117.364 175.992 117.94 175.854 118.432 175.578C118.924 175.29 119.308 174.906 119.584 174.426C119.86 173.946 119.998 173.412 119.998 172.824V170.376C119.998 169.8 119.788 169.332 119.368 168.972C118.948 168.612 118.402 168.432 117.729 168.432C117.142 168.432 116.626 168.582 116.182 168.882C115.738 169.17 115.408 169.548 115.192 170.016L113.968 169.35C114.148 168.942 114.43 168.57 114.813 168.234C115.21 167.898 115.66 167.634 116.164 167.442C116.668 167.238 117.19 167.136 117.729 167.136C118.438 167.136 119.062 167.274 119.602 167.55C120.154 167.826 120.58 168.21 120.88 168.702C121.192 169.182 121.348 169.74 121.348 170.376V177H119.998V175.074L120.196 175.272C120.028 175.632 119.764 175.962 119.404 176.262C119.056 176.55 118.642 176.784 118.162 176.964C117.694 177.132 117.178 177.216 116.614 177.216ZM124.124 177V167.352H125.474V169.224L125.168 169.152C125.408 168.528 125.798 168.036 126.338 167.676C126.89 167.316 127.526 167.136 128.246 167.136C128.93 167.136 129.542 167.292 130.082 167.604C130.634 167.916 131.066 168.348 131.378 168.9C131.702 169.44 131.864 170.052 131.864 170.736V177H130.514V171.258C130.514 170.67 130.406 170.172 130.19 169.764C129.986 169.356 129.692 169.044 129.308 168.828C128.936 168.6 128.504 168.486 128.012 168.486C127.52 168.486 127.082 168.6 126.698 168.828C126.314 169.044 126.014 169.362 125.798 169.782C125.582 170.19 125.474 170.682 125.474 171.258V177H124.124ZM138.799 177.216C137.899 177.216 137.089 177 136.369 176.568C135.649 176.124 135.079 175.524 134.659 174.768C134.251 174 134.047 173.136 134.047 172.176C134.047 171.204 134.251 170.34 134.659 169.584C135.079 168.828 135.643 168.234 136.351 167.802C137.071 167.358 137.887 167.136 138.799 167.136C139.627 167.136 140.365 167.316 141.013 167.676C141.661 168.036 142.171 168.522 142.543 169.134L142.327 169.512V163.374H143.677V177H142.327V174.84L142.543 175.038C142.207 175.734 141.703 176.274 141.031 176.658C140.371 177.03 139.627 177.216 138.799 177.216ZM138.871 175.866C139.519 175.866 140.101 175.704 140.617 175.38C141.145 175.056 141.559 174.618 141.859 174.066C142.171 173.502 142.327 172.872 142.327 172.176C142.327 171.48 142.171 170.856 141.859 170.304C141.559 169.74 141.145 169.296 140.617 168.972C140.101 168.648 139.519 168.486 138.871 168.486C138.235 168.486 137.659 168.648 137.143 168.972C136.627 169.296 136.219 169.734 135.919 170.286C135.631 170.838 135.487 171.468 135.487 172.176C135.487 172.872 135.631 173.502 135.919 174.066C136.219 174.618 136.621 175.056 137.125 175.38C137.641 175.704 138.223 175.866 138.871 175.866ZM153.917 177.216C152.969 177.216 152.135 176.994 151.415 176.55C150.695 176.106 150.131 175.506 149.723 174.75C149.315 173.982 149.111 173.118 149.111 172.158C149.111 171.198 149.315 170.34 149.723 169.584C150.131 168.828 150.695 168.234 151.415 167.802C152.135 167.358 152.969 167.136 153.917 167.136C154.517 167.136 155.081 167.244 155.609 167.46C156.137 167.676 156.605 167.97 157.013 168.342C157.421 168.702 157.727 169.122 157.931 169.602L156.707 170.232C156.467 169.716 156.101 169.296 155.609 168.972C155.117 168.648 154.553 168.486 153.917 168.486C153.281 168.486 152.705 168.648 152.189 168.972C151.685 169.284 151.283 169.722 150.983 170.286C150.695 170.838 150.551 171.468 150.551 172.176C150.551 172.872 150.695 173.502 150.983 174.066C151.283 174.618 151.685 175.056 152.189 175.38C152.705 175.704 153.281 175.866 153.917 175.866C154.553 175.866 155.111 175.704 155.591 175.38C156.083 175.056 156.455 174.624 156.707 174.084L157.931 174.75C157.727 175.218 157.421 175.638 157.013 176.01C156.605 176.382 156.137 176.676 155.609 176.892C155.081 177.108 154.517 177.216 153.917 177.216ZM160.3 177V163.374H161.65V177H160.3ZM168.805 177.216C167.905 177.216 167.089 177 166.357 176.568C165.637 176.124 165.067 175.518 164.647 174.75C164.227 173.982 164.017 173.112 164.017 172.14C164.017 171.168 164.221 170.31 164.629 169.566C165.037 168.81 165.589 168.216 166.285 167.784C166.993 167.352 167.785 167.136 168.661 167.136C169.357 167.136 169.975 167.268 170.515 167.532C171.067 167.784 171.535 168.132 171.919 168.576C172.303 169.008 172.597 169.5 172.801 170.052C173.005 170.592 173.107 171.15 173.107 171.726C173.107 171.846 173.101 171.984 173.089 172.14C173.077 172.284 173.059 172.434 173.035 172.59H164.881V171.33H172.261L171.613 171.87C171.721 171.21 171.643 170.622 171.379 170.106C171.127 169.578 170.761 169.164 170.281 168.864C169.801 168.552 169.261 168.396 168.661 168.396C168.061 168.396 167.503 168.552 166.987 168.864C166.483 169.176 166.087 169.614 165.799 170.178C165.511 170.73 165.397 171.39 165.457 172.158C165.397 172.926 165.517 173.598 165.817 174.174C166.129 174.738 166.549 175.176 167.077 175.488C167.617 175.8 168.193 175.956 168.805 175.956C169.513 175.956 170.107 175.788 170.587 175.452C171.067 175.116 171.457 174.696 171.757 174.192L172.909 174.804C172.717 175.236 172.423 175.638 172.027 176.01C171.631 176.37 171.157 176.664 170.605 176.892C170.065 177.108 169.465 177.216 168.805 177.216ZM178.102 177.216C177.49 177.216 176.944 177.102 176.464 176.874C175.984 176.634 175.606 176.31 175.33 175.902C175.054 175.494 174.916 175.026 174.916 174.498C174.916 173.994 175.024 173.538 175.24 173.13C175.456 172.71 175.792 172.356 176.248 172.068C176.704 171.78 177.286 171.576 177.994 171.456L181.774 170.826V172.05L178.318 172.626C177.622 172.746 177.118 172.968 176.806 173.292C176.506 173.616 176.356 174 176.356 174.444C176.356 174.876 176.524 175.242 176.86 175.542C177.208 175.842 177.652 175.992 178.192 175.992C178.852 175.992 179.428 175.854 179.92 175.578C180.412 175.29 180.796 174.906 181.072 174.426C181.348 173.946 181.486 173.412 181.486 172.824V170.376C181.486 169.8 181.276 169.332 180.856 168.972C180.436 168.612 179.89 168.432 179.218 168.432C178.63 168.432 178.114 168.582 177.67 168.882C177.226 169.17 176.896 169.548 176.68 170.016L175.456 169.35C175.636 168.942 175.918 168.57 176.302 168.234C176.698 167.898 177.148 167.634 177.652 167.442C178.156 167.238 178.678 167.136 179.218 167.136C179.926 167.136 180.55 167.274 181.09 167.55C181.642 167.826 182.068 168.21 182.368 168.702C182.68 169.182 182.836 169.74 182.836 170.376V177H181.486V175.074L181.684 175.272C181.516 175.632 181.252 175.962 180.892 176.262C180.544 176.55 180.13 176.784 179.65 176.964C179.182 177.132 178.666 177.216 178.102 177.216ZM185.613 177V167.352H186.963V169.224L186.657 169.152C186.897 168.528 187.287 168.036 187.827 167.676C188.379 167.316 189.015 167.136 189.735 167.136C190.419 167.136 191.031 167.292 191.571 167.604C192.123 167.916 192.555 168.348 192.867 168.9C193.191 169.44 193.353 170.052 193.353 170.736V177H192.003V171.258C192.003 170.67 191.895 170.172 191.679 169.764C191.475 169.356 191.181 169.044 190.797 168.828C190.425 168.6 189.993 168.486 189.501 168.486C189.009 168.486 188.571 168.6 188.187 168.828C187.803 169.044 187.503 169.362 187.287 169.782C187.071 170.19 186.963 170.682 186.963 171.258V177H185.613ZM195.931 177V167.352H197.281V177H195.931ZM195.931 165.57V163.59H197.281V165.57H195.931ZM200.044 177V167.352H201.394V169.224L201.088 169.152C201.328 168.528 201.718 168.036 202.258 167.676C202.81 167.316 203.446 167.136 204.166 167.136C204.85 167.136 205.462 167.292 206.002 167.604C206.554 167.916 206.986 168.348 207.298 168.9C207.622 169.44 207.784 170.052 207.784 170.736V177H206.434V171.258C206.434 170.67 206.326 170.172 206.11 169.764C205.906 169.356 205.612 169.044 205.228 168.828C204.856 168.6 204.424 168.486 203.932 168.486C203.44 168.486 203.002 168.6 202.618 168.828C202.234 169.044 201.934 169.362 201.718 169.782C201.502 170.19 201.394 170.682 201.394 171.258V177H200.044ZM214.935 180.96C214.275 180.96 213.663 180.858 213.099 180.654C212.547 180.45 212.067 180.168 211.659 179.808C211.263 179.46 210.957 179.052 210.741 178.584L211.983 177.918C212.175 178.374 212.517 178.77 213.009 179.106C213.501 179.442 214.131 179.61 214.899 179.61C215.487 179.61 216.027 179.496 216.519 179.268C217.011 179.04 217.407 178.704 217.707 178.26C218.007 177.816 218.157 177.27 218.157 176.622V174.48L218.373 174.678C218.037 175.374 217.539 175.914 216.879 176.298C216.219 176.67 215.499 176.856 214.719 176.856C213.819 176.856 213.009 176.64 212.289 176.208C211.569 175.776 210.999 175.194 210.579 174.462C210.171 173.718 209.967 172.896 209.967 171.996C209.967 171.084 210.171 170.262 210.579 169.53C210.999 168.798 211.563 168.216 212.271 167.784C212.991 167.352 213.807 167.136 214.719 167.136C215.499 167.136 216.207 167.316 216.843 167.676C217.491 168.036 218.001 168.522 218.373 169.134L218.157 169.512V167.352H219.507V176.622C219.507 177.45 219.309 178.188 218.913 178.836C218.529 179.496 217.989 180.012 217.293 180.384C216.609 180.768 215.823 180.96 214.935 180.96ZM214.791 175.506C215.415 175.506 215.979 175.35 216.483 175.038C216.987 174.714 217.389 174.288 217.689 173.76C218.001 173.22 218.157 172.632 218.157 171.996C218.157 171.36 218.001 170.778 217.689 170.25C217.389 169.71 216.987 169.284 216.483 168.972C215.979 168.648 215.415 168.486 214.791 168.486C214.155 168.486 213.579 168.648 213.063 168.972C212.547 169.284 212.139 169.704 211.839 170.232C211.551 170.76 211.407 171.348 211.407 171.996C211.407 172.632 211.551 173.22 211.839 173.76C212.139 174.288 212.541 174.714 213.045 175.038C213.561 175.35 214.143 175.506 214.791 175.506ZM222.335 179.34V178.71C222.695 178.614 222.959 178.428 223.127 178.152C223.295 177.876 223.379 177.492 223.379 177H222.695V175.02H224.135V176.532C224.135 177.312 223.985 177.936 223.685 178.404C223.385 178.884 222.935 179.196 222.335 179.34ZM230.389 177V163.59H234.799C236.131 163.59 237.289 163.866 238.273 164.418C239.257 164.958 240.019 165.732 240.559 166.74C241.099 167.736 241.369 168.918 241.369 170.286C241.369 171.642 241.099 172.824 240.559 173.832C240.019 174.84 239.257 175.62 238.273 176.172C237.289 176.724 236.131 177 234.799 177H230.389ZM231.829 175.65H234.799C235.831 175.65 236.725 175.434 237.481 175.002C238.237 174.558 238.819 173.934 239.227 173.13C239.647 172.326 239.857 171.378 239.857 170.286C239.857 169.194 239.647 168.252 239.227 167.46C238.807 166.656 238.219 166.038 237.463 165.606C236.707 165.162 235.819 164.94 234.799 164.94H231.829V175.65ZM247.942 177.216C247.042 177.216 246.226 177 245.494 176.568C244.774 176.124 244.204 175.518 243.784 174.75C243.364 173.982 243.154 173.112 243.154 172.14C243.154 171.168 243.358 170.31 243.766 169.566C244.174 168.81 244.726 168.216 245.422 167.784C246.13 167.352 246.922 167.136 247.798 167.136C248.494 167.136 249.112 167.268 249.652 167.532C250.204 167.784 250.672 168.132 251.056 168.576C251.44 169.008 251.734 169.5 251.938 170.052C252.142 170.592 252.244 171.15 252.244 171.726C252.244 171.846 252.238 171.984 252.226 172.14C252.214 172.284 252.196 172.434 252.172 172.59H244.018V171.33H251.398L250.75 171.87C250.858 171.21 250.78 170.622 250.516 170.106C250.264 169.578 249.898 169.164 249.418 168.864C248.938 168.552 248.398 168.396 247.798 168.396C247.198 168.396 246.64 168.552 246.124 168.864C245.62 169.176 245.224 169.614 244.936 170.178C244.648 170.73 244.534 171.39 244.594 172.158C244.534 172.926 244.654 173.598 244.954 174.174C245.266 174.738 245.686 175.176 246.214 175.488C246.754 175.8 247.33 175.956 247.942 175.956C248.65 175.956 249.244 175.788 249.724 175.452C250.204 175.116 250.594 174.696 250.894 174.192L252.046 174.804C251.854 175.236 251.56 175.638 251.164 176.01C250.768 176.37 250.294 176.664 249.742 176.892C249.202 177.108 248.602 177.216 247.942 177.216ZM257.239 177.216C256.627 177.216 256.081 177.102 255.601 176.874C255.121 176.634 254.743 176.31 254.467 175.902C254.191 175.494 254.053 175.026 254.053 174.498C254.053 173.994 254.161 173.538 254.377 173.13C254.593 172.71 254.929 172.356 255.385 172.068C255.841 171.78 256.423 171.576 257.131 171.456L260.911 170.826V172.05L257.455 172.626C256.759 172.746 256.255 172.968 255.943 173.292C255.643 173.616 255.493 174 255.493 174.444C255.493 174.876 255.661 175.242 255.997 175.542C256.345 175.842 256.789 175.992 257.329 175.992C257.989 175.992 258.565 175.854 259.057 175.578C259.549 175.29 259.933 174.906 260.209 174.426C260.485 173.946 260.623 173.412 260.623 172.824V170.376C260.623 169.8 260.413 169.332 259.993 168.972C259.573 168.612 259.027 168.432 258.354 168.432C257.767 168.432 257.251 168.582 256.807 168.882C256.363 169.17 256.033 169.548 255.817 170.016L254.593 169.35C254.773 168.942 255.055 168.57 255.438 168.234C255.835 167.898 256.285 167.634 256.789 167.442C257.293 167.238 257.815 167.136 258.354 167.136C259.063 167.136 259.687 167.274 260.227 167.55C260.779 167.826 261.205 168.21 261.505 168.702C261.817 169.182 261.973 169.74 261.973 170.376V177H260.623V175.074L260.821 175.272C260.653 175.632 260.389 175.962 260.029 176.262C259.681 176.55 259.267 176.784 258.787 176.964C258.319 177.132 257.803 177.216 257.239 177.216ZM269.105 177.216C268.205 177.216 267.395 177 266.675 176.568C265.955 176.124 265.385 175.524 264.965 174.768C264.557 174 264.353 173.136 264.353 172.176C264.353 171.204 264.557 170.34 264.965 169.584C265.385 168.828 265.949 168.234 266.657 167.802C267.377 167.358 268.193 167.136 269.105 167.136C269.933 167.136 270.671 167.316 271.319 167.676C271.967 168.036 272.477 168.522 272.849 169.134L272.633 169.512V163.374H273.983V177H272.633V174.84L272.849 175.038C272.513 175.734 272.009 176.274 271.337 176.658C270.677 177.03 269.933 177.216 269.105 177.216ZM269.177 175.866C269.825 175.866 270.407 175.704 270.923 175.38C271.451 175.056 271.865 174.618 272.165 174.066C272.477 173.502 272.633 172.872 272.633 172.176C272.633 171.48 272.477 170.856 272.165 170.304C271.865 169.74 271.451 169.296 270.923 168.972C270.407 168.648 269.825 168.486 269.177 168.486C268.541 168.486 267.965 168.648 267.449 168.972C266.933 169.296 266.525 169.734 266.225 170.286C265.937 170.838 265.793 171.468 265.793 172.176C265.793 172.872 265.937 173.502 266.225 174.066C266.525 174.618 266.927 175.056 267.431 175.38C267.947 175.704 268.529 175.866 269.177 175.866ZM278.879 177L275.567 167.352H277.097L279.833 175.794H279.293L281.867 167.352H283.217L285.791 175.794H285.251L288.005 167.352H289.517L286.205 177H284.855L282.353 168.738H282.731L280.229 177H278.879ZM295.441 177.216C294.529 177.216 293.701 177 292.957 176.568C292.213 176.124 291.619 175.524 291.175 174.768C290.743 174 290.527 173.13 290.527 172.158C290.527 171.198 290.743 170.34 291.175 169.584C291.607 168.828 292.189 168.234 292.921 167.802C293.665 167.358 294.505 167.136 295.441 167.136C296.377 167.136 297.211 167.352 297.943 167.784C298.687 168.216 299.269 168.81 299.689 169.566C300.121 170.322 300.337 171.186 300.337 172.158C300.337 173.142 300.115 174.018 299.671 174.786C299.227 175.542 298.633 176.136 297.889 176.568C297.157 177 296.341 177.216 295.441 177.216ZM295.441 175.866C296.089 175.866 296.671 175.704 297.187 175.38C297.715 175.056 298.129 174.612 298.429 174.048C298.741 173.484 298.897 172.854 298.897 172.158C298.897 171.462 298.741 170.838 298.429 170.286C298.129 169.734 297.715 169.296 297.187 168.972C296.671 168.648 296.089 168.486 295.441 168.486C294.793 168.486 294.205 168.648 293.677 168.972C293.161 169.296 292.747 169.734 292.435 170.286C292.123 170.838 291.967 171.462 291.967 172.158C291.967 172.854 292.123 173.484 292.435 174.048C292.747 174.612 293.161 175.056 293.677 175.38C294.205 175.704 294.793 175.866 295.441 175.866ZM307.236 177.216C306.324 177.216 305.496 177 304.752 176.568C304.008 176.124 303.414 175.524 302.97 174.768C302.538 174 302.322 173.13 302.322 172.158C302.322 171.198 302.538 170.34 302.97 169.584C303.402 168.828 303.984 168.234 304.716 167.802C305.46 167.358 306.3 167.136 307.236 167.136C308.172 167.136 309.006 167.352 309.738 167.784C310.482 168.216 311.064 168.81 311.484 169.566C311.916 170.322 312.132 171.186 312.132 172.158C312.132 173.142 311.91 174.018 311.466 174.786C311.022 175.542 310.428 176.136 309.684 176.568C308.952 177 308.136 177.216 307.236 177.216ZM307.236 175.866C307.884 175.866 308.466 175.704 308.982 175.38C309.51 175.056 309.924 174.612 310.224 174.048C310.536 173.484 310.692 172.854 310.692 172.158C310.692 171.462 310.536 170.838 310.224 170.286C309.924 169.734 309.51 169.296 308.982 168.972C308.466 168.648 307.884 168.486 307.236 168.486C306.588 168.486 306 168.648 305.472 168.972C304.956 169.296 304.542 169.734 304.23 170.286C303.918 170.838 303.762 171.462 303.762 172.158C303.762 172.854 303.918 173.484 304.23 174.048C304.542 174.612 304.956 175.056 305.472 175.38C306 175.704 306.588 175.866 307.236 175.866ZM318.869 177.216C317.969 177.216 317.159 177 316.439 176.568C315.719 176.124 315.149 175.524 314.729 174.768C314.321 174 314.117 173.136 314.117 172.176C314.117 171.204 314.321 170.34 314.729 169.584C315.149 168.828 315.713 168.234 316.421 167.802C317.141 167.358 317.957 167.136 318.869 167.136C319.697 167.136 320.435 167.316 321.083 167.676C321.731 168.036 322.241 168.522 322.613 169.134L322.397 169.512V163.374H323.747V177H322.397V174.84L322.613 175.038C322.277 175.734 321.773 176.274 321.101 176.658C320.441 177.03 319.697 177.216 318.869 177.216ZM318.941 175.866C319.589 175.866 320.171 175.704 320.687 175.38C321.215 175.056 321.629 174.618 321.929 174.066C322.241 173.502 322.397 172.872 322.397 172.176C322.397 171.48 322.241 170.856 321.929 170.304C321.629 169.74 321.215 169.296 320.687 168.972C320.171 168.648 319.589 168.486 318.941 168.486C318.305 168.486 317.729 168.648 317.213 168.972C316.697 169.296 316.289 169.734 315.989 170.286C315.701 170.838 315.557 171.468 315.557 172.176C315.557 172.872 315.701 173.502 315.989 174.066C316.289 174.618 316.691 175.056 317.195 175.38C317.711 175.704 318.293 175.866 318.941 175.866ZM33.386 205V195.352H34.736V196.936L34.556 196.702C34.784 196.246 35.126 195.886 35.582 195.622C36.05 195.358 36.614 195.226 37.274 195.226H37.886V196.576H37.04C36.344 196.576 35.786 196.792 35.366 197.224C34.946 197.656 34.736 198.268 34.736 199.06V205H33.386ZM43.86 205.216C42.96 205.216 42.144 205 41.412 204.568C40.692 204.124 40.122 203.518 39.702 202.75C39.282 201.982 39.072 201.112 39.072 200.14C39.072 199.168 39.276 198.31 39.684 197.566C40.092 196.81 40.644 196.216 41.34 195.784C42.048 195.352 42.84 195.136 43.716 195.136C44.412 195.136 45.03 195.268 45.57 195.532C46.122 195.784 46.59 196.132 46.974 196.576C47.358 197.008 47.652 197.5 47.856 198.052C48.06 198.592 48.162 199.15 48.162 199.726C48.162 199.846 48.156 199.984 48.144 200.14C48.132 200.284 48.114 200.434 48.09 200.59H39.936V199.33H47.316L46.668 199.87C46.776 199.21 46.698 198.622 46.434 198.106C46.182 197.578 45.816 197.164 45.336 196.864C44.856 196.552 44.316 196.396 43.716 196.396C43.116 196.396 42.558 196.552 42.042 196.864C41.538 197.176 41.142 197.614 40.854 198.178C40.566 198.73 40.452 199.39 40.512 200.158C40.452 200.926 40.572 201.598 40.872 202.174C41.184 202.738 41.604 203.176 42.132 203.488C42.672 203.8 43.248 203.956 43.86 203.956C44.568 203.956 45.162 203.788 45.642 203.452C46.122 203.116 46.512 202.696 46.812 202.192L47.964 202.804C47.772 203.236 47.478 203.638 47.082 204.01C46.686 204.37 46.212 204.664 45.66 204.892C45.12 205.108 44.52 205.216 43.86 205.216ZM50.5423 205V195.352H51.8923V197.188L51.6763 196.918C51.9403 196.354 52.3303 195.916 52.8463 195.604C53.3743 195.292 53.9503 195.136 54.5743 195.136C55.3183 195.136 55.9903 195.346 56.5903 195.766C57.1903 196.186 57.6163 196.732 57.8683 197.404L57.4903 197.422C57.7303 196.678 58.1443 196.114 58.7323 195.73C59.3323 195.334 59.9923 195.136 60.7123 195.136C61.3603 195.136 61.9543 195.292 62.4943 195.604C63.0463 195.916 63.4843 196.348 63.8083 196.9C64.1443 197.44 64.3123 198.052 64.3123 198.736V205H62.9623V199.258C62.9623 198.67 62.8543 198.172 62.6383 197.764C62.4343 197.356 62.1523 197.044 61.7923 196.828C61.4323 196.6 61.0183 196.486 60.5503 196.486C60.0943 196.486 59.6803 196.6 59.3083 196.828C58.9363 197.044 58.6423 197.362 58.4263 197.782C58.2103 198.19 58.1023 198.682 58.1023 199.258V205H56.7523V199.258C56.7523 198.67 56.6443 198.172 56.4283 197.764C56.2243 197.356 55.9423 197.044 55.5823 196.828C55.2223 196.6 54.8083 196.486 54.3403 196.486C53.8723 196.486 53.4523 196.6 53.0803 196.828C52.7203 197.044 52.4323 197.362 52.2163 197.782C52.0003 198.19 51.8923 198.682 51.8923 199.258V205H50.5423ZM71.4079 205.216C70.4959 205.216 69.6679 205 68.9239 204.568C68.1799 204.124 67.5859 203.524 67.1419 202.768C66.7099 202 66.4939 201.13 66.4939 200.158C66.4939 199.198 66.7099 198.34 67.1419 197.584C67.5739 196.828 68.1559 196.234 68.8879 195.802C69.6319 195.358 70.4719 195.136 71.4079 195.136C72.3439 195.136 73.1779 195.352 73.9099 195.784C74.6539 196.216 75.2359 196.81 75.6559 197.566C76.0879 198.322 76.3039 199.186 76.3039 200.158C76.3039 201.142 76.0819 202.018 75.6379 202.786C75.1939 203.542 74.5999 204.136 73.8559 204.568C73.1239 205 72.3079 205.216 71.4079 205.216ZM71.4079 203.866C72.0559 203.866 72.6379 203.704 73.1539 203.38C73.6819 203.056 74.0959 202.612 74.3959 202.048C74.7079 201.484 74.8639 200.854 74.8639 200.158C74.8639 199.462 74.7079 198.838 74.3959 198.286C74.0959 197.734 73.6819 197.296 73.1539 196.972C72.6379 196.648 72.0559 196.486 71.4079 196.486C70.7599 196.486 70.1719 196.648 69.6439 196.972C69.1279 197.296 68.7139 197.734 68.4019 198.286C68.0899 198.838 67.9339 199.462 67.9339 200.158C67.9339 200.854 68.0899 201.484 68.4019 202.048C68.7139 202.612 69.1279 203.056 69.6439 203.38C70.1719 203.704 70.7599 203.866 71.4079 203.866ZM81.083 205L77.321 195.352H78.833L82.001 203.812H81.515L84.701 195.352H86.231L82.433 205H81.083ZM90.2463 205.216C89.6343 205.216 89.0883 205.102 88.6083 204.874C88.1283 204.634 87.7503 204.31 87.4743 203.902C87.1983 203.494 87.0603 203.026 87.0603 202.498C87.0603 201.994 87.1683 201.538 87.3843 201.13C87.6003 200.71 87.9363 200.356 88.3923 200.068C88.8483 199.78 89.4303 199.576 90.1383 199.456L93.9183 198.826V200.05L90.4623 200.626C89.7663 200.746 89.2623 200.968 88.9503 201.292C88.6503 201.616 88.5003 202 88.5003 202.444C88.5003 202.876 88.6683 203.242 89.0043 203.542C89.3523 203.842 89.7963 203.992 90.3363 203.992C90.9963 203.992 91.5723 203.854 92.0643 203.578C92.5563 203.29 92.9403 202.906 93.2163 202.426C93.4923 201.946 93.6303 201.412 93.6303 200.824V198.376C93.6303 197.8 93.4203 197.332 93.0003 196.972C92.5803 196.612 92.0343 196.432 91.3623 196.432C90.7743 196.432 90.2583 196.582 89.8143 196.882C89.3703 197.17 89.0403 197.548 88.8243 198.016L87.6003 197.35C87.7803 196.942 88.0623 196.57 88.4463 196.234C88.8423 195.898 89.2923 195.634 89.7963 195.442C90.3003 195.238 90.8223 195.136 91.3623 195.136C92.0703 195.136 92.6943 195.274 93.2343 195.55C93.7863 195.826 94.2123 196.21 94.5123 196.702C94.8243 197.182 94.9803 197.74 94.9803 198.376V205H93.6303V203.074L93.8283 203.272C93.6603 203.632 93.3963 203.962 93.0363 204.262C92.6883 204.55 92.2743 204.784 91.7943 204.964C91.3263 205.132 90.8103 205.216 90.2463 205.216ZM97.7571 205V191.374H99.1071V205H97.7571ZM101.924 207.34V206.71C102.284 206.614 102.548 206.428 102.716 206.152C102.884 205.876 102.968 205.492 102.968 205H102.284V203.02H103.724V204.532C103.724 205.312 103.574 205.936 103.274 206.404C102.974 206.884 102.524 207.196 101.924 207.34ZM112.301 205V192.94H108.593V191.59H117.413V192.94H113.741V205H112.301ZM117.919 205V195.352H119.269V196.936L119.089 196.702C119.317 196.246 119.659 195.886 120.115 195.622C120.583 195.358 121.147 195.226 121.807 195.226H122.419V196.576H121.573C120.877 196.576 120.319 196.792 119.899 197.224C119.479 197.656 119.269 198.268 119.269 199.06V205H117.919ZM128.393 205.216C127.493 205.216 126.677 205 125.945 204.568C125.225 204.124 124.655 203.518 124.235 202.75C123.815 201.982 123.605 201.112 123.605 200.14C123.605 199.168 123.809 198.31 124.217 197.566C124.625 196.81 125.177 196.216 125.873 195.784C126.581 195.352 127.373 195.136 128.249 195.136C128.945 195.136 129.563 195.268 130.103 195.532C130.655 195.784 131.123 196.132 131.507 196.576C131.891 197.008 132.185 197.5 132.389 198.052C132.593 198.592 132.695 199.15 132.695 199.726C132.695 199.846 132.689 199.984 132.677 200.14C132.665 200.284 132.647 200.434 132.623 200.59H124.469V199.33H131.849L131.201 199.87C131.309 199.21 131.231 198.622 130.967 198.106C130.715 197.578 130.349 197.164 129.869 196.864C129.389 196.552 128.849 196.396 128.249 196.396C127.649 196.396 127.091 196.552 126.575 196.864C126.071 197.176 125.675 197.614 125.387 198.178C125.099 198.73 124.985 199.39 125.045 200.158C124.985 200.926 125.105 201.598 125.405 202.174C125.717 202.738 126.137 203.176 126.665 203.488C127.205 203.8 127.781 203.956 128.393 203.956C129.101 203.956 129.695 203.788 130.175 203.452C130.655 203.116 131.045 202.696 131.345 202.192L132.497 202.804C132.305 203.236 132.011 203.638 131.615 204.01C131.219 204.37 130.745 204.664 130.193 204.892C129.653 205.108 129.053 205.216 128.393 205.216ZM139.467 205.216C138.567 205.216 137.751 205 137.019 204.568C136.299 204.124 135.729 203.518 135.309 202.75C134.889 201.982 134.679 201.112 134.679 200.14C134.679 199.168 134.883 198.31 135.291 197.566C135.699 196.81 136.251 196.216 136.947 195.784C137.655 195.352 138.447 195.136 139.323 195.136C140.019 195.136 140.637 195.268 141.177 195.532C141.729 195.784 142.197 196.132 142.581 196.576C142.965 197.008 143.259 197.5 143.463 198.052C143.667 198.592 143.769 199.15 143.769 199.726C143.769 199.846 143.763 199.984 143.751 200.14C143.739 200.284 143.721 200.434 143.697 200.59H135.543V199.33H142.923L142.275 199.87C142.383 199.21 142.305 198.622 142.041 198.106C141.789 197.578 141.423 197.164 140.943 196.864C140.463 196.552 139.923 196.396 139.323 196.396C138.723 196.396 138.165 196.552 137.649 196.864C137.145 197.176 136.749 197.614 136.461 198.178C136.173 198.73 136.059 199.39 136.119 200.158C136.059 200.926 136.179 201.598 136.479 202.174C136.791 202.738 137.211 203.176 137.739 203.488C138.279 203.8 138.855 203.956 139.467 203.956C140.175 203.956 140.769 203.788 141.249 203.452C141.729 203.116 142.119 202.696 142.419 202.192L143.571 202.804C143.379 203.236 143.085 203.638 142.689 204.01C142.293 204.37 141.819 204.664 141.267 204.892C140.727 205.108 140.127 205.216 139.467 205.216ZM152.556 205.216C151.632 205.216 150.822 204.982 150.126 204.514C149.43 204.046 148.926 203.41 148.614 202.606L149.748 202.066C150.024 202.654 150.408 203.122 150.9 203.47C151.404 203.818 151.956 203.992 152.556 203.992C153.132 203.992 153.618 203.854 154.014 203.578C154.41 203.29 154.608 202.918 154.608 202.462C154.608 202.126 154.512 201.862 154.32 201.67C154.128 201.466 153.906 201.31 153.654 201.202C153.402 201.094 153.18 201.016 152.988 200.968L151.602 200.572C150.714 200.32 150.072 199.966 149.676 199.51C149.28 199.054 149.082 198.526 149.082 197.926C149.082 197.362 149.226 196.87 149.514 196.45C149.802 196.03 150.192 195.706 150.684 195.478C151.176 195.25 151.722 195.136 152.322 195.136C153.138 195.136 153.876 195.352 154.536 195.784C155.208 196.204 155.682 196.792 155.958 197.548L154.806 198.088C154.566 197.548 154.218 197.128 153.762 196.828C153.318 196.516 152.82 196.36 152.268 196.36C151.728 196.36 151.296 196.498 150.972 196.774C150.648 197.05 150.486 197.398 150.486 197.818C150.486 198.142 150.57 198.4 150.738 198.592C150.906 198.784 151.098 198.928 151.314 199.024C151.542 199.12 151.74 199.192 151.908 199.24L153.51 199.708C154.29 199.936 154.896 200.29 155.328 200.77C155.772 201.25 155.994 201.814 155.994 202.462C155.994 202.99 155.844 203.464 155.544 203.884C155.256 204.304 154.854 204.634 154.338 204.874C153.822 205.102 153.228 205.216 152.556 205.216ZM158.366 205V191.374H159.716V197.224L159.41 197.152C159.65 196.528 160.04 196.036 160.58 195.676C161.132 195.316 161.768 195.136 162.488 195.136C163.172 195.136 163.784 195.292 164.324 195.604C164.876 195.916 165.308 196.348 165.62 196.9C165.944 197.44 166.106 198.052 166.106 198.736V205H164.756V199.258C164.756 198.67 164.648 198.172 164.432 197.764C164.216 197.356 163.916 197.044 163.532 196.828C163.16 196.6 162.734 196.486 162.254 196.486C161.774 196.486 161.342 196.6 160.958 196.828C160.574 197.044 160.268 197.362 160.04 197.782C159.824 198.19 159.716 198.682 159.716 199.258V205H158.366ZM171.475 205.216C170.863 205.216 170.317 205.102 169.837 204.874C169.357 204.634 168.979 204.31 168.703 203.902C168.427 203.494 168.289 203.026 168.289 202.498C168.289 201.994 168.397 201.538 168.613 201.13C168.829 200.71 169.165 200.356 169.621 200.068C170.077 199.78 170.659 199.576 171.367 199.456L175.147 198.826V200.05L171.691 200.626C170.995 200.746 170.491 200.968 170.179 201.292C169.879 201.616 169.729 202 169.729 202.444C169.729 202.876 169.897 203.242 170.233 203.542C170.581 203.842 171.025 203.992 171.565 203.992C172.225 203.992 172.801 203.854 173.293 203.578C173.785 203.29 174.169 202.906 174.445 202.426C174.721 201.946 174.859 201.412 174.859 200.824V198.376C174.859 197.8 174.649 197.332 174.229 196.972C173.809 196.612 173.263 196.432 172.591 196.432C172.003 196.432 171.487 196.582 171.043 196.882C170.599 197.17 170.269 197.548 170.053 198.016L168.829 197.35C169.009 196.942 169.291 196.57 169.675 196.234C170.071 195.898 170.521 195.634 171.025 195.442C171.529 195.238 172.051 195.136 172.591 195.136C173.299 195.136 173.923 195.274 174.463 195.55C175.015 195.826 175.441 196.21 175.741 196.702C176.053 197.182 176.209 197.74 176.209 198.376V205H174.859V203.074L175.057 203.272C174.889 203.632 174.625 203.962 174.265 204.262C173.917 204.55 173.503 204.784 173.023 204.964C172.555 205.132 172.039 205.216 171.475 205.216ZM178.986 208.6V195.352H180.336V197.512L180.12 197.134C180.504 196.522 181.014 196.036 181.65 195.676C182.298 195.316 183.036 195.136 183.864 195.136C184.776 195.136 185.586 195.358 186.294 195.802C187.014 196.234 187.578 196.828 187.986 197.584C188.406 198.34 188.616 199.204 188.616 200.176C188.616 201.136 188.406 202 187.986 202.768C187.578 203.524 187.014 204.124 186.294 204.568C185.586 205 184.776 205.216 183.864 205.216C183.036 205.216 182.286 205.03 181.614 204.658C180.954 204.274 180.456 203.734 180.12 203.038L180.336 202.84V208.6H178.986ZM183.792 203.866C184.44 203.866 185.016 203.704 185.52 203.38C186.036 203.056 186.438 202.618 186.726 202.066C187.026 201.502 187.176 200.872 187.176 200.176C187.176 199.468 187.026 198.838 186.726 198.286C186.438 197.734 186.036 197.296 185.52 196.972C185.016 196.648 184.44 196.486 183.792 196.486C183.144 196.486 182.556 196.648 182.028 196.972C181.512 197.296 181.098 197.74 180.786 198.304C180.486 198.856 180.336 199.48 180.336 200.176C180.336 200.872 180.486 201.502 180.786 202.066C181.098 202.618 181.512 203.056 182.028 203.38C182.556 203.704 183.144 203.866 183.792 203.866ZM190.991 205V195.352H192.341V205H190.991ZM190.991 193.57V191.59H192.341V193.57H190.991ZM195.105 205V195.352H196.455V197.224L196.149 197.152C196.389 196.528 196.779 196.036 197.319 195.676C197.871 195.316 198.507 195.136 199.227 195.136C199.911 195.136 200.523 195.292 201.063 195.604C201.615 195.916 202.047 196.348 202.359 196.9C202.683 197.44 202.845 198.052 202.845 198.736V205H201.495V199.258C201.495 198.67 201.387 198.172 201.171 197.764C200.967 197.356 200.673 197.044 200.289 196.828C199.917 196.6 199.485 196.486 198.993 196.486C198.501 196.486 198.063 196.6 197.679 196.828C197.295 197.044 196.995 197.362 196.779 197.782C196.563 198.19 196.455 198.682 196.455 199.258V205H195.105ZM209.995 208.96C209.335 208.96 208.723 208.858 208.159 208.654C207.607 208.45 207.127 208.168 206.719 207.808C206.323 207.46 206.017 207.052 205.801 206.584L207.043 205.918C207.235 206.374 207.577 206.77 208.069 207.106C208.561 207.442 209.191 207.61 209.959 207.61C210.547 207.61 211.087 207.496 211.579 207.268C212.071 207.04 212.467 206.704 212.767 206.26C213.067 205.816 213.217 205.27 213.217 204.622V202.48L213.433 202.678C213.097 203.374 212.599 203.914 211.939 204.298C211.279 204.67 210.559 204.856 209.779 204.856C208.879 204.856 208.069 204.64 207.349 204.208C206.629 203.776 206.059 203.194 205.639 202.462C205.231 201.718 205.027 200.896 205.027 199.996C205.027 199.084 205.231 198.262 205.639 197.53C206.059 196.798 206.623 196.216 207.331 195.784C208.051 195.352 208.867 195.136 209.779 195.136C210.559 195.136 211.267 195.316 211.903 195.676C212.551 196.036 213.061 196.522 213.433 197.134L213.217 197.512V195.352H214.567V204.622C214.567 205.45 214.369 206.188 213.973 206.836C213.589 207.496 213.049 208.012 212.353 208.384C211.669 208.768 210.883 208.96 209.995 208.96ZM209.851 203.506C210.475 203.506 211.039 203.35 211.543 203.038C212.047 202.714 212.449 202.288 212.749 201.76C213.061 201.22 213.217 200.632 213.217 199.996C213.217 199.36 213.061 198.778 212.749 198.25C212.449 197.71 212.047 197.284 211.543 196.972C211.039 196.648 210.475 196.486 209.851 196.486C209.215 196.486 208.639 196.648 208.123 196.972C207.607 197.284 207.199 197.704 206.899 198.232C206.611 198.76 206.467 199.348 206.467 199.996C206.467 200.632 206.611 201.22 206.899 201.76C207.199 202.288 207.601 202.714 208.105 203.038C208.621 203.35 209.203 203.506 209.851 203.506Z" fill="#545971"/>
</svg>
