<svg width="360" height="244" viewBox="0 0 360 244" fill="none" xmlns="http://www.w3.org/2000/svg">
<rect x="32" y="32" width="64" height="64" rx="20" fill="#142257"/>
<path d="M81.5 65.25H46.5C46.1685 65.25 45.8505 65.3817 45.6161 65.6161C45.3817 65.8505 45.25 66.1685 45.25 66.5V72.75C45.252 74.7385 46.0428 76.645 47.4489 78.0511C48.855 79.4572 50.7615 80.248 52.75 80.25H54V82.75C54 83.0815 54.1317 83.3995 54.3661 83.6339C54.6005 83.8683 54.9185 84 55.25 84C55.5815 84 55.8995 83.8683 56.1339 83.6339C56.3683 83.3995 56.5 83.0815 56.5 82.75V80.25H71.5V82.75C71.5 83.0815 71.6317 83.3995 71.8661 83.6339C72.1005 83.8683 72.4185 84 72.75 84C73.0815 84 73.3995 83.8683 73.6339 83.6339C73.8683 83.3995 74 83.0815 74 82.75V80.25H75.25C77.2385 80.248 79.145 79.4572 80.5511 78.0511C81.9572 76.645 82.748 74.7385 82.75 72.75V66.5C82.75 66.1685 82.6183 65.8505 82.3839 65.6161C82.1495 65.3817 81.8315 65.25 81.5 65.25Z" fill="white"/>
<path d="M64 51.625V50.25C64 49.2554 64.3951 48.3016 65.0983 47.5983C65.8016 46.8951 66.7554 46.5 67.75 46.5C68.7446 46.5 69.6984 46.8951 70.4017 47.5983C71.1049 48.3016 71.5 49.2554 71.5 50.25V62.75H74V50.25C74 48.5924 73.3415 47.0027 72.1694 45.8306C70.9973 44.6585 69.4076 44 67.75 44C66.0924 44 64.5027 44.6585 63.3306 45.8306C62.1585 47.0027 61.5 48.5924 61.5 50.25V51.625C60.0893 51.9151 58.8217 52.6827 57.9109 53.7984C57.0001 54.9141 56.5018 56.3097 56.5 57.75C56.5 58.0815 56.6317 58.3995 56.8661 58.6339C57.1005 58.8683 57.4185 59 57.75 59H67.75C68.0815 59 68.3995 58.8683 68.6339 58.6339C68.8683 58.3995 69 58.0815 69 57.75C68.9982 56.3097 68.4999 54.9141 67.5891 53.7984C66.6783 52.6827 65.4107 51.9151 64 51.625Z" fill="white"/>
<path d="M33.728 138V120.12H41.264C42.448 120.12 43.456 120.328 44.288 120.744C45.136 121.144 45.784 121.72 46.232 122.472C46.696 123.208 46.928 124.104 46.928 125.16C46.928 125.976 46.704 126.744 46.256 127.464C45.824 128.168 45.128 128.752 44.168 129.216V127.704C45.048 128.04 45.744 128.456 46.256 128.952C46.768 129.448 47.128 130 47.336 130.608C47.544 131.216 47.648 131.856 47.648 132.528C47.648 134.24 47.08 135.584 45.944 136.56C44.824 137.52 43.264 138 41.264 138H33.728ZM36.992 135.12H41.6C42.448 135.12 43.12 134.888 43.616 134.424C44.128 133.944 44.384 133.312 44.384 132.528C44.384 131.744 44.128 131.112 43.616 130.632C43.12 130.152 42.448 129.912 41.6 129.912H36.992V135.12ZM36.992 127.056H41.432C42.104 127.056 42.64 126.864 43.04 126.48C43.44 126.08 43.64 125.568 43.64 124.944C43.64 124.32 43.44 123.824 43.04 123.456C42.64 123.088 42.104 122.904 41.432 122.904H36.992V127.056ZM54.0178 138.288C53.1058 138.288 52.3138 138.136 51.6418 137.832C50.9698 137.528 50.4498 137.096 50.0818 136.536C49.7138 135.96 49.5298 135.296 49.5298 134.544C49.5298 133.824 49.6898 133.184 50.0098 132.624C50.3298 132.048 50.8258 131.568 51.4978 131.184C52.1698 130.8 53.0178 130.528 54.0418 130.368L58.3138 129.672V132.072L54.6418 132.696C54.0178 132.808 53.5538 133.008 53.2498 133.296C52.9458 133.584 52.7938 133.96 52.7938 134.424C52.7938 134.872 52.9618 135.232 53.2978 135.504C53.6498 135.76 54.0818 135.888 54.5938 135.888C55.2498 135.888 55.8258 135.752 56.3218 135.48C56.8338 135.192 57.2258 134.8 57.4978 134.304C57.7858 133.808 57.9298 133.264 57.9298 132.672V129.312C57.9298 128.752 57.7058 128.288 57.2578 127.92C56.8258 127.536 56.2498 127.344 55.5298 127.344C54.8578 127.344 54.2578 127.528 53.7298 127.896C53.2178 128.248 52.8418 128.72 52.6018 129.312L50.0338 128.064C50.2898 127.376 50.6898 126.784 51.2338 126.288C51.7938 125.776 52.4498 125.376 53.2018 125.088C53.9538 124.8 54.7698 124.656 55.6497 124.656C56.7218 124.656 57.6658 124.856 58.4818 125.256C59.2978 125.64 59.9298 126.184 60.3778 126.888C60.8418 127.576 61.0738 128.384 61.0738 129.312V138H58.0978V135.768L58.7698 135.72C58.4338 136.28 58.0338 136.752 57.5698 137.136C57.1058 137.504 56.5778 137.792 55.9858 138C55.3938 138.192 54.7378 138.288 54.0178 138.288ZM69.6973 138.144C68.2253 138.144 67.0813 137.744 66.2653 136.944C65.4653 136.128 65.0653 134.984 65.0653 133.512V127.752H62.8093V124.944H63.0493C63.6893 124.944 64.1853 124.776 64.5373 124.44C64.8893 124.104 65.0653 123.616 65.0653 122.976V121.968H68.2093V124.944H71.2093V127.752H68.2093V133.344C68.2093 133.776 68.2813 134.144 68.4253 134.448C68.5853 134.752 68.8253 134.984 69.1453 135.144C69.4813 135.304 69.9053 135.384 70.4173 135.384C70.5293 135.384 70.6573 135.376 70.8013 135.36C70.9613 135.344 71.1133 135.328 71.2573 135.312V138C71.0333 138.032 70.7773 138.064 70.4893 138.096C70.2013 138.128 69.9373 138.144 69.6973 138.144ZM73.6593 138V119.832H76.8033V127.512L76.3713 127.056C76.6753 126.272 77.1713 125.68 77.8593 125.28C78.5633 124.864 79.3793 124.656 80.3073 124.656C81.2673 124.656 82.1153 124.864 82.8513 125.28C83.6033 125.696 84.1873 126.28 84.6033 127.032C85.0193 127.768 85.2273 128.624 85.2273 129.6V138H82.0833V130.344C82.0833 129.768 81.9713 129.272 81.7473 128.856C81.5233 128.44 81.2113 128.12 80.8113 127.896C80.4273 127.656 79.9713 127.536 79.4433 127.536C78.9313 127.536 78.4753 127.656 78.0753 127.896C77.6753 128.12 77.3633 128.44 77.1393 128.856C76.9153 129.272 76.8033 129.768 76.8033 130.344V138H73.6593ZM87.8859 138V124.944H90.8379V127.848L90.5979 127.416C90.9019 126.44 91.3739 125.76 92.0139 125.376C92.6699 124.992 93.4539 124.8 94.3659 124.8H95.1339V127.584H94.0059C93.1099 127.584 92.3899 127.864 91.8459 128.424C91.3019 128.968 91.0299 129.736 91.0299 130.728V138H87.8859ZM103.246 138.288C101.966 138.288 100.798 137.992 99.7424 137.4C98.7024 136.808 97.8704 136 97.2464 134.976C96.6384 133.952 96.3344 132.784 96.3344 131.472C96.3344 130.16 96.6384 128.992 97.2464 127.968C97.8704 126.944 98.7024 126.136 99.7424 125.544C100.782 124.952 101.95 124.656 103.246 124.656C104.526 124.656 105.686 124.952 106.726 125.544C107.766 126.136 108.59 126.944 109.198 127.968C109.822 128.976 110.134 130.144 110.134 131.472C110.134 132.784 109.822 133.952 109.198 134.976C108.574 136 107.742 136.808 106.702 137.4C105.662 137.992 104.51 138.288 103.246 138.288ZM103.246 135.408C103.95 135.408 104.566 135.24 105.094 134.904C105.638 134.568 106.062 134.104 106.366 133.512C106.686 132.904 106.846 132.224 106.846 131.472C106.846 130.704 106.686 130.032 106.366 129.456C106.062 128.864 105.638 128.4 105.094 128.064C104.566 127.712 103.95 127.536 103.246 127.536C102.526 127.536 101.894 127.712 101.35 128.064C100.806 128.4 100.374 128.864 100.054 129.456C99.7504 130.032 99.5984 130.704 99.5984 131.472C99.5984 132.224 99.7504 132.904 100.054 133.512C100.374 134.104 100.806 134.568 101.35 134.904C101.894 135.24 102.526 135.408 103.246 135.408ZM118.903 138.288C117.623 138.288 116.455 137.992 115.399 137.4C114.359 136.808 113.527 136 112.903 134.976C112.295 133.952 111.991 132.784 111.991 131.472C111.991 130.16 112.295 128.992 112.903 127.968C113.527 126.944 114.359 126.136 115.399 125.544C116.439 124.952 117.607 124.656 118.903 124.656C120.183 124.656 121.343 124.952 122.383 125.544C123.423 126.136 124.247 126.944 124.855 127.968C125.479 128.976 125.791 130.144 125.791 131.472C125.791 132.784 125.479 133.952 124.855 134.976C124.231 136 123.399 136.808 122.359 137.4C121.319 137.992 120.167 138.288 118.903 138.288ZM118.903 135.408C119.607 135.408 120.223 135.24 120.751 134.904C121.295 134.568 121.719 134.104 122.023 133.512C122.343 132.904 122.503 132.224 122.503 131.472C122.503 130.704 122.343 130.032 122.023 129.456C121.719 128.864 121.295 128.4 120.751 128.064C120.223 127.712 119.607 127.536 118.903 127.536C118.183 127.536 117.551 127.712 117.007 128.064C116.463 128.4 116.031 128.864 115.711 129.456C115.407 130.032 115.255 130.704 115.255 131.472C115.255 132.224 115.407 132.904 115.711 133.512C116.031 134.104 116.463 134.568 117.007 134.904C117.551 135.24 118.183 135.408 118.903 135.408ZM128.175 138V124.944H131.127V127.968L130.791 127.464C131.031 126.52 131.511 125.816 132.231 125.352C132.951 124.888 133.799 124.656 134.775 124.656C135.847 124.656 136.791 124.936 137.607 125.496C138.423 126.056 138.951 126.792 139.191 127.704L138.303 127.776C138.703 126.736 139.303 125.96 140.103 125.448C140.903 124.92 141.823 124.656 142.863 124.656C143.791 124.656 144.615 124.864 145.335 125.28C146.071 125.696 146.647 126.28 147.063 127.032C147.479 127.768 147.687 128.624 147.687 129.6V138H144.543V130.344C144.543 129.768 144.439 129.272 144.231 128.856C144.023 128.44 143.735 128.12 143.367 127.896C142.999 127.656 142.551 127.536 142.023 127.536C141.527 127.536 141.087 127.656 140.703 127.896C140.319 128.12 140.023 128.44 139.815 128.856C139.607 129.272 139.503 129.768 139.503 130.344V138H136.359V130.344C136.359 129.768 136.255 129.272 136.047 128.856C135.839 128.44 135.543 128.12 135.159 127.896C134.791 127.656 134.351 127.536 133.839 127.536C133.343 127.536 132.903 127.656 132.519 127.896C132.135 128.12 131.839 128.44 131.631 128.856C131.423 129.272 131.319 129.768 131.319 130.344V138H128.175ZM154.876 138V120.12H161.524C162.74 120.12 163.812 120.344 164.74 120.792C165.684 121.224 166.42 121.864 166.948 122.712C167.476 123.544 167.74 124.56 167.74 125.76C167.74 126.992 167.444 128.04 166.852 128.904C166.276 129.768 165.492 130.408 164.5 130.824L168.604 138H164.908L160.516 130.152L162.628 131.4H158.14V138H154.876ZM158.14 128.52H161.572C162.164 128.52 162.676 128.408 163.108 128.184C163.54 127.944 163.876 127.616 164.116 127.2C164.356 126.784 164.476 126.304 164.476 125.76C164.476 125.2 164.356 124.72 164.116 124.32C163.876 123.904 163.54 123.584 163.108 123.36C162.676 123.12 162.164 123 161.572 123H158.14V128.52ZM175.945 138.288C174.601 138.288 173.425 137.984 172.417 137.376C171.409 136.768 170.625 135.944 170.065 134.904C169.505 133.864 169.225 132.712 169.225 131.448C169.225 130.136 169.505 128.976 170.065 127.968C170.641 126.944 171.417 126.136 172.393 125.544C173.385 124.952 174.489 124.656 175.705 124.656C176.729 124.656 177.625 124.824 178.393 125.16C179.177 125.496 179.841 125.96 180.385 126.552C180.929 127.144 181.345 127.824 181.633 128.592C181.921 129.344 182.065 130.16 182.065 131.04C182.065 131.264 182.049 131.496 182.017 131.736C182.001 131.976 181.961 132.184 181.897 132.36H171.817V129.96H180.121L178.633 131.088C178.777 130.352 178.737 129.696 178.513 129.12C178.305 128.544 177.953 128.088 177.457 127.752C176.977 127.416 176.393 127.248 175.705 127.248C175.049 127.248 174.465 127.416 173.953 127.752C173.441 128.072 173.049 128.552 172.777 129.192C172.521 129.816 172.425 130.576 172.489 131.472C172.425 132.272 172.529 132.984 172.801 133.608C173.089 134.216 173.505 134.688 174.049 135.024C174.609 135.36 175.249 135.528 175.969 135.528C176.689 135.528 177.297 135.376 177.793 135.072C178.305 134.768 178.705 134.36 178.993 133.848L181.537 135.096C181.281 135.72 180.881 136.272 180.337 136.752C179.793 137.232 179.145 137.608 178.393 137.88C177.657 138.152 176.841 138.288 175.945 138.288ZM184.448 138V124.944H187.4V127.968L187.064 127.464C187.304 126.52 187.784 125.816 188.504 125.352C189.224 124.888 190.072 124.656 191.048 124.656C192.12 124.656 193.064 124.936 193.88 125.496C194.696 126.056 195.224 126.792 195.464 127.704L194.576 127.776C194.976 126.736 195.576 125.96 196.376 125.448C197.176 124.92 198.096 124.656 199.136 124.656C200.064 124.656 200.888 124.864 201.608 125.28C202.344 125.696 202.92 126.28 203.336 127.032C203.752 127.768 203.96 128.624 203.96 129.6V138H200.816V130.344C200.816 129.768 200.712 129.272 200.504 128.856C200.296 128.44 200.008 128.12 199.64 127.896C199.272 127.656 198.824 127.536 198.296 127.536C197.8 127.536 197.36 127.656 196.976 127.896C196.592 128.12 196.296 128.44 196.088 128.856C195.88 129.272 195.776 129.768 195.776 130.344V138H192.632V130.344C192.632 129.768 192.528 129.272 192.32 128.856C192.112 128.44 191.816 128.12 191.432 127.896C191.064 127.656 190.624 127.536 190.112 127.536C189.616 127.536 189.176 127.656 188.792 127.896C188.408 128.12 188.112 128.44 187.904 128.856C187.696 129.272 187.592 129.768 187.592 130.344V138H184.448ZM213.004 138.288C211.724 138.288 210.556 137.992 209.5 137.4C208.46 136.808 207.628 136 207.004 134.976C206.396 133.952 206.092 132.784 206.092 131.472C206.092 130.16 206.396 128.992 207.004 127.968C207.628 126.944 208.46 126.136 209.5 125.544C210.54 124.952 211.708 124.656 213.004 124.656C214.284 124.656 215.444 124.952 216.484 125.544C217.524 126.136 218.348 126.944 218.956 127.968C219.58 128.976 219.892 130.144 219.892 131.472C219.892 132.784 219.58 133.952 218.956 134.976C218.332 136 217.5 136.808 216.46 137.4C215.42 137.992 214.268 138.288 213.004 138.288ZM213.004 135.408C213.708 135.408 214.324 135.24 214.852 134.904C215.396 134.568 215.82 134.104 216.124 133.512C216.444 132.904 216.604 132.224 216.604 131.472C216.604 130.704 216.444 130.032 216.124 129.456C215.82 128.864 215.396 128.4 214.852 128.064C214.324 127.712 213.708 127.536 213.004 127.536C212.284 127.536 211.652 127.712 211.108 128.064C210.564 128.4 210.132 128.864 209.812 129.456C209.508 130.032 209.356 130.704 209.356 131.472C209.356 132.224 209.508 132.904 209.812 133.512C210.132 134.104 210.564 134.568 211.108 134.904C211.652 135.24 212.284 135.408 213.004 135.408ZM228.349 138.288C227.085 138.288 225.957 137.992 224.965 137.4C223.973 136.792 223.189 135.968 222.613 134.928C222.037 133.888 221.749 132.736 221.749 131.472C221.749 130.192 222.037 129.04 222.613 128.016C223.189 126.992 223.973 126.176 224.965 125.568C225.973 124.96 227.093 124.656 228.325 124.656C229.317 124.656 230.197 124.856 230.965 125.256C231.749 125.64 232.365 126.184 232.812 126.888L232.333 127.536V119.832H235.477V138H232.501V135.48L232.837 136.104C232.389 136.808 231.765 137.352 230.965 137.736C230.165 138.104 229.293 138.288 228.349 138.288ZM228.685 135.408C229.405 135.408 230.037 135.24 230.581 134.904C231.125 134.568 231.549 134.104 231.853 133.512C232.173 132.92 232.333 132.24 232.333 131.472C232.333 130.72 232.173 130.048 231.853 129.456C231.549 128.848 231.125 128.376 230.581 128.04C230.037 127.704 229.405 127.536 228.685 127.536C227.981 127.536 227.349 127.712 226.789 128.064C226.229 128.4 225.789 128.864 225.469 129.456C225.165 130.032 225.013 130.704 225.013 131.472C225.013 132.24 225.165 132.92 225.469 133.512C225.789 134.104 226.229 134.568 226.789 134.904C227.349 135.24 227.981 135.408 228.685 135.408ZM244.594 138.288C243.25 138.288 242.074 137.984 241.066 137.376C240.058 136.768 239.274 135.944 238.714 134.904C238.154 133.864 237.874 132.712 237.874 131.448C237.874 130.136 238.154 128.976 238.714 127.968C239.29 126.944 240.066 126.136 241.042 125.544C242.034 124.952 243.138 124.656 244.354 124.656C245.378 124.656 246.274 124.824 247.042 125.16C247.826 125.496 248.49 125.96 249.034 126.552C249.578 127.144 249.994 127.824 250.282 128.592C250.57 129.344 250.714 130.16 250.714 131.04C250.714 131.264 250.698 131.496 250.666 131.736C250.65 131.976 250.61 132.184 250.546 132.36H240.465V129.96H248.77L247.282 131.088C247.426 130.352 247.386 129.696 247.162 129.12C246.954 128.544 246.602 128.088 246.106 127.752C245.626 127.416 245.042 127.248 244.354 127.248C243.698 127.248 243.114 127.416 242.602 127.752C242.09 128.072 241.698 128.552 241.426 129.192C241.17 129.816 241.074 130.576 241.138 131.472C241.074 132.272 241.178 132.984 241.45 133.608C241.738 134.216 242.154 134.688 242.698 135.024C243.258 135.36 243.898 135.528 244.618 135.528C245.338 135.528 245.946 135.376 246.442 135.072C246.954 134.768 247.354 134.36 247.642 133.848L250.186 135.096C249.93 135.72 249.53 136.272 248.986 136.752C248.442 137.232 247.794 137.608 247.042 137.88C246.306 138.152 245.49 138.288 244.594 138.288ZM253.097 138V119.832H256.241V138H253.097ZM259.144 138V124.944H262.288V138H259.144ZM259.144 123.48V120.12H262.288V123.48H259.144ZM265.191 138V124.944H268.143V127.512L267.903 127.056C268.207 126.272 268.703 125.68 269.391 125.28C270.095 124.864 270.911 124.656 271.839 124.656C272.799 124.656 273.647 124.864 274.383 125.28C275.135 125.696 275.719 126.28 276.135 127.032C276.551 127.768 276.759 128.624 276.759 129.6V138H273.615V130.344C273.615 129.768 273.503 129.272 273.279 128.856C273.055 128.44 272.743 128.12 272.343 127.896C271.959 127.656 271.503 127.536 270.975 127.536C270.463 127.536 270.007 127.656 269.607 127.896C269.207 128.12 268.895 128.44 268.671 128.856C268.447 129.272 268.335 129.768 268.335 130.344V138H265.191ZM285.753 143.28C284.777 143.28 283.873 143.12 283.041 142.8C282.209 142.48 281.489 142.032 280.881 141.456C280.289 140.896 279.857 140.232 279.585 139.464L282.513 138.36C282.705 138.968 283.081 139.456 283.641 139.824C284.217 140.208 284.921 140.4 285.753 140.4C286.393 140.4 286.953 140.28 287.433 140.04C287.929 139.8 288.313 139.448 288.585 138.984C288.857 138.536 288.993 137.992 288.993 137.352V134.376L289.593 135.096C289.145 135.88 288.545 136.472 287.793 136.872C287.041 137.272 286.185 137.472 285.225 137.472C284.009 137.472 282.921 137.192 281.961 136.632C281.001 136.072 280.249 135.304 279.705 134.328C279.161 133.352 278.889 132.256 278.889 131.04C278.889 129.808 279.161 128.712 279.705 127.752C280.249 126.792 280.993 126.04 281.937 125.496C282.881 124.936 283.953 124.656 285.153 124.656C286.129 124.656 286.985 124.864 287.721 125.28C288.473 125.68 289.097 126.264 289.593 127.032L289.161 127.824V124.944H292.137V137.352C292.137 138.488 291.857 139.504 291.297 140.4C290.753 141.296 290.001 142 289.041 142.512C288.097 143.024 287.001 143.28 285.753 143.28ZM285.609 134.568C286.281 134.568 286.865 134.424 287.361 134.136C287.873 133.832 288.273 133.416 288.561 132.888C288.849 132.36 288.993 131.752 288.993 131.064C288.993 130.392 288.841 129.792 288.537 129.264C288.249 128.72 287.849 128.296 287.337 127.992C286.841 127.688 286.265 127.536 285.609 127.536C284.953 127.536 284.361 127.688 283.833 127.992C283.305 128.296 282.889 128.72 282.585 129.264C282.297 129.792 282.153 130.392 282.153 131.064C282.153 131.736 282.297 132.336 282.585 132.864C282.889 133.392 283.297 133.808 283.809 134.112C284.337 134.416 284.937 134.568 285.609 134.568Z" fill="#171921"/>
<path d="M33.584 177V163.59H37.994C39.326 163.59 40.484 163.866 41.468 164.418C42.452 164.958 43.214 165.732 43.754 166.74C44.294 167.736 44.564 168.918 44.564 170.286C44.564 171.642 44.294 172.824 43.754 173.832C43.214 174.84 42.452 175.62 41.468 176.172C40.484 176.724 39.326 177 37.994 177H33.584ZM35.024 175.65H37.994C39.026 175.65 39.92 175.434 40.676 175.002C41.432 174.558 42.014 173.934 42.422 173.13C42.842 172.326 43.052 171.378 43.052 170.286C43.052 169.194 42.842 168.252 42.422 167.46C42.002 166.656 41.414 166.038 40.658 165.606C39.902 165.162 39.014 164.94 37.994 164.94H35.024V175.65ZM51.1374 177.216C50.2374 177.216 49.4214 177 48.6894 176.568C47.9694 176.124 47.3994 175.518 46.9794 174.75C46.5594 173.982 46.3494 173.112 46.3494 172.14C46.3494 171.168 46.5534 170.31 46.9614 169.566C47.3694 168.81 47.9214 168.216 48.6174 167.784C49.3254 167.352 50.1174 167.136 50.9934 167.136C51.6894 167.136 52.3074 167.268 52.8474 167.532C53.3994 167.784 53.8674 168.132 54.2514 168.576C54.6354 169.008 54.9294 169.5 55.1334 170.052C55.3374 170.592 55.4394 171.15 55.4394 171.726C55.4394 171.846 55.4334 171.984 55.4214 172.14C55.4094 172.284 55.3914 172.434 55.3674 172.59H47.2134V171.33H54.5934L53.9454 171.87C54.0534 171.21 53.9754 170.622 53.7114 170.106C53.4594 169.578 53.0934 169.164 52.6134 168.864C52.1334 168.552 51.5934 168.396 50.9934 168.396C50.3934 168.396 49.8354 168.552 49.3194 168.864C48.8154 169.176 48.4194 169.614 48.1314 170.178C47.8434 170.73 47.7294 171.39 47.7894 172.158C47.7294 172.926 47.8494 173.598 48.1494 174.174C48.4614 174.738 48.8814 175.176 49.4094 175.488C49.9494 175.8 50.5254 175.956 51.1374 175.956C51.8454 175.956 52.4394 175.788 52.9194 175.452C53.3994 175.116 53.7894 174.696 54.0894 174.192L55.2414 174.804C55.0494 175.236 54.7554 175.638 54.3594 176.01C53.9634 176.37 53.4894 176.664 52.9374 176.892C52.3974 177.108 51.7974 177.216 51.1374 177.216ZM61.1676 177.216C60.2436 177.216 59.4336 176.982 58.7376 176.514C58.0416 176.046 57.5376 175.41 57.2256 174.606L58.3596 174.066C58.6356 174.654 59.0196 175.122 59.5116 175.47C60.0156 175.818 60.5676 175.992 61.1676 175.992C61.7436 175.992 62.2296 175.854 62.6256 175.578C63.0216 175.29 63.2196 174.918 63.2196 174.462C63.2196 174.126 63.1236 173.862 62.9316 173.67C62.7396 173.466 62.5176 173.31 62.2656 173.202C62.0136 173.094 61.7916 173.016 61.5996 172.968L60.2136 172.572C59.3256 172.32 58.6836 171.966 58.2876 171.51C57.8916 171.054 57.6936 170.526 57.6936 169.926C57.6936 169.362 57.8376 168.87 58.1256 168.45C58.4136 168.03 58.8036 167.706 59.2956 167.478C59.7876 167.25 60.3336 167.136 60.9336 167.136C61.7496 167.136 62.4876 167.352 63.1476 167.784C63.8196 168.204 64.2936 168.792 64.5696 169.548L63.4176 170.088C63.1776 169.548 62.8296 169.128 62.3736 168.828C61.9296 168.516 61.4316 168.36 60.8796 168.36C60.3396 168.36 59.9076 168.498 59.5836 168.774C59.2596 169.05 59.0976 169.398 59.0976 169.818C59.0976 170.142 59.1816 170.4 59.3496 170.592C59.5176 170.784 59.7096 170.928 59.9256 171.024C60.1536 171.12 60.3516 171.192 60.5196 171.24L62.1216 171.708C62.9016 171.936 63.5076 172.29 63.9396 172.77C64.3836 173.25 64.6056 173.814 64.6056 174.462C64.6056 174.99 64.4556 175.464 64.1556 175.884C63.8676 176.304 63.4656 176.634 62.9496 176.874C62.4336 177.102 61.8396 177.216 61.1676 177.216ZM66.9778 177V167.352H68.3278V177H66.9778ZM66.9778 165.57V163.59H68.3278V165.57H66.9778ZM75.6631 180.96C75.0031 180.96 74.3911 180.858 73.8271 180.654C73.2751 180.45 72.7951 180.168 72.3871 179.808C71.9911 179.46 71.6851 179.052 71.4691 178.584L72.7111 177.918C72.9031 178.374 73.2451 178.77 73.7371 179.106C74.2291 179.442 74.8591 179.61 75.6271 179.61C76.2151 179.61 76.7551 179.496 77.2471 179.268C77.7391 179.04 78.1351 178.704 78.4351 178.26C78.7351 177.816 78.8851 177.27 78.8851 176.622V174.48L79.1011 174.678C78.7651 175.374 78.2671 175.914 77.6071 176.298C76.9471 176.67 76.2271 176.856 75.4471 176.856C74.5471 176.856 73.7371 176.64 73.0171 176.208C72.2971 175.776 71.7271 175.194 71.3071 174.462C70.8991 173.718 70.6951 172.896 70.6951 171.996C70.6951 171.084 70.8991 170.262 71.3071 169.53C71.7271 168.798 72.2911 168.216 72.9991 167.784C73.7191 167.352 74.5351 167.136 75.4471 167.136C76.2271 167.136 76.9351 167.316 77.5711 167.676C78.2191 168.036 78.7291 168.522 79.1011 169.134L78.8851 169.512V167.352H80.2351V176.622C80.2351 177.45 80.0371 178.188 79.6411 178.836C79.2571 179.496 78.7171 180.012 78.0211 180.384C77.3371 180.768 76.5511 180.96 75.6631 180.96ZM75.5191 175.506C76.1431 175.506 76.7071 175.35 77.2111 175.038C77.7151 174.714 78.1171 174.288 78.4171 173.76C78.7291 173.22 78.8851 172.632 78.8851 171.996C78.8851 171.36 78.7291 170.778 78.4171 170.25C78.1171 169.71 77.7151 169.284 77.2111 168.972C76.7071 168.648 76.1431 168.486 75.5191 168.486C74.8831 168.486 74.3071 168.648 73.7911 168.972C73.2751 169.284 72.8671 169.704 72.5671 170.232C72.2791 170.76 72.1351 171.348 72.1351 171.996C72.1351 172.632 72.2791 173.22 72.5671 173.76C72.8671 174.288 73.2691 174.714 73.7731 175.038C74.2891 175.35 74.8711 175.506 75.5191 175.506ZM83.009 177V167.352H84.359V169.224L84.053 169.152C84.293 168.528 84.683 168.036 85.223 167.676C85.775 167.316 86.411 167.136 87.131 167.136C87.815 167.136 88.427 167.292 88.967 167.604C89.519 167.916 89.951 168.348 90.263 168.9C90.587 169.44 90.749 170.052 90.749 170.736V177H89.399V171.258C89.399 170.67 89.291 170.172 89.075 169.764C88.871 169.356 88.577 169.044 88.193 168.828C87.821 168.6 87.389 168.486 86.897 168.486C86.405 168.486 85.967 168.6 85.583 168.828C85.199 169.044 84.899 169.362 84.683 169.782C84.467 170.19 84.359 170.682 84.359 171.258V177H83.009ZM99.176 177.216C98.564 177.216 98.018 177.102 97.538 176.874C97.058 176.634 96.68 176.31 96.404 175.902C96.128 175.494 95.99 175.026 95.99 174.498C95.99 173.994 96.098 173.538 96.314 173.13C96.53 172.71 96.866 172.356 97.322 172.068C97.778 171.78 98.36 171.576 99.068 171.456L102.848 170.826V172.05L99.392 172.626C98.696 172.746 98.192 172.968 97.88 173.292C97.58 173.616 97.43 174 97.43 174.444C97.43 174.876 97.598 175.242 97.934 175.542C98.282 175.842 98.726 175.992 99.266 175.992C99.926 175.992 100.502 175.854 100.994 175.578C101.486 175.29 101.87 174.906 102.146 174.426C102.422 173.946 102.56 173.412 102.56 172.824V170.376C102.56 169.8 102.35 169.332 101.93 168.972C101.51 168.612 100.964 168.432 100.292 168.432C99.704 168.432 99.188 168.582 98.744 168.882C98.3 169.17 97.97 169.548 97.754 170.016L96.53 169.35C96.71 168.942 96.992 168.57 97.376 168.234C97.772 167.898 98.222 167.634 98.726 167.442C99.23 167.238 99.752 167.136 100.292 167.136C101 167.136 101.624 167.274 102.164 167.55C102.716 167.826 103.142 168.21 103.442 168.702C103.754 169.182 103.91 169.74 103.91 170.376V177H102.56V175.074L102.758 175.272C102.59 175.632 102.326 175.962 101.966 176.262C101.618 176.55 101.204 176.784 100.724 176.964C100.256 177.132 99.74 177.216 99.176 177.216ZM106.687 177V167.352H108.037V169.224L107.731 169.152C107.971 168.528 108.361 168.036 108.901 167.676C109.453 167.316 110.089 167.136 110.809 167.136C111.493 167.136 112.105 167.292 112.645 167.604C113.197 167.916 113.629 168.348 113.941 168.9C114.265 169.44 114.427 170.052 114.427 170.736V177H113.077V171.258C113.077 170.67 112.969 170.172 112.753 169.764C112.549 169.356 112.255 169.044 111.871 168.828C111.499 168.6 111.067 168.486 110.575 168.486C110.083 168.486 109.645 168.6 109.261 168.828C108.877 169.044 108.577 169.362 108.361 169.782C108.145 170.19 108.037 170.682 108.037 171.258V177H106.687ZM121.361 177.216C120.461 177.216 119.651 177 118.931 176.568C118.211 176.124 117.641 175.524 117.221 174.768C116.813 174 116.609 173.136 116.609 172.176C116.609 171.204 116.813 170.34 117.221 169.584C117.641 168.828 118.205 168.234 118.913 167.802C119.633 167.358 120.449 167.136 121.361 167.136C122.189 167.136 122.927 167.316 123.575 167.676C124.223 168.036 124.733 168.522 125.105 169.134L124.889 169.512V163.374H126.239V177H124.889V174.84L125.105 175.038C124.769 175.734 124.265 176.274 123.593 176.658C122.933 177.03 122.189 177.216 121.361 177.216ZM121.433 175.866C122.081 175.866 122.663 175.704 123.179 175.38C123.707 175.056 124.121 174.618 124.421 174.066C124.733 173.502 124.889 172.872 124.889 172.176C124.889 171.48 124.733 170.856 124.421 170.304C124.121 169.74 123.707 169.296 123.179 168.972C122.663 168.648 122.081 168.486 121.433 168.486C120.797 168.486 120.221 168.648 119.705 168.972C119.189 169.296 118.781 169.734 118.481 170.286C118.193 170.838 118.049 171.468 118.049 172.176C118.049 172.872 118.193 173.502 118.481 174.066C118.781 174.618 119.183 175.056 119.687 175.38C120.203 175.704 120.785 175.866 121.433 175.866ZM138.388 177.216C137.44 177.216 136.57 177.048 135.778 176.712C134.986 176.364 134.296 175.884 133.708 175.272C133.132 174.648 132.682 173.916 132.358 173.076C132.034 172.236 131.872 171.312 131.872 170.304C131.872 169.296 132.034 168.372 132.358 167.532C132.682 166.692 133.132 165.96 133.708 165.336C134.296 164.712 134.986 164.232 135.778 163.896C136.57 163.548 137.44 163.374 138.388 163.374C139.3 163.374 140.116 163.536 140.836 163.86C141.568 164.184 142.18 164.604 142.672 165.12C143.176 165.624 143.536 166.158 143.752 166.722L142.402 167.316C142.066 166.536 141.55 165.912 140.854 165.444C140.17 164.964 139.348 164.724 138.388 164.724C137.404 164.724 136.528 164.958 135.76 165.426C134.992 165.894 134.392 166.548 133.96 167.388C133.528 168.216 133.312 169.188 133.312 170.304C133.312 171.408 133.528 172.38 133.96 173.22C134.392 174.06 134.992 174.714 135.76 175.182C136.528 175.638 137.404 175.866 138.388 175.866C139.348 175.866 140.17 175.632 140.854 175.164C141.55 174.696 142.066 174.072 142.402 173.292L143.752 173.886C143.536 174.438 143.176 174.972 142.672 175.488C142.18 175.992 141.568 176.406 140.836 176.73C140.116 177.054 139.3 177.216 138.388 177.216ZM150.474 177.216C149.562 177.216 148.734 177 147.99 176.568C147.246 176.124 146.652 175.524 146.208 174.768C145.776 174 145.56 173.13 145.56 172.158C145.56 171.198 145.776 170.34 146.208 169.584C146.64 168.828 147.222 168.234 147.954 167.802C148.698 167.358 149.538 167.136 150.474 167.136C151.41 167.136 152.244 167.352 152.976 167.784C153.72 168.216 154.302 168.81 154.722 169.566C155.154 170.322 155.37 171.186 155.37 172.158C155.37 173.142 155.148 174.018 154.704 174.786C154.26 175.542 153.666 176.136 152.922 176.568C152.19 177 151.374 177.216 150.474 177.216ZM150.474 175.866C151.122 175.866 151.704 175.704 152.22 175.38C152.748 175.056 153.162 174.612 153.462 174.048C153.774 173.484 153.93 172.854 153.93 172.158C153.93 171.462 153.774 170.838 153.462 170.286C153.162 169.734 152.748 169.296 152.22 168.972C151.704 168.648 151.122 168.486 150.474 168.486C149.826 168.486 149.238 168.648 148.71 168.972C148.194 169.296 147.78 169.734 147.468 170.286C147.156 170.838 147 171.462 147 172.158C147 172.854 147.156 173.484 147.468 174.048C147.78 174.612 148.194 175.056 148.71 175.38C149.238 175.704 149.826 175.866 150.474 175.866ZM157.751 177V167.352H159.101V169.224L158.795 169.152C159.035 168.528 159.425 168.036 159.965 167.676C160.517 167.316 161.153 167.136 161.873 167.136C162.557 167.136 163.169 167.292 163.709 167.604C164.261 167.916 164.693 168.348 165.005 168.9C165.329 169.44 165.491 170.052 165.491 170.736V177H164.141V171.258C164.141 170.67 164.033 170.172 163.817 169.764C163.613 169.356 163.319 169.044 162.935 168.828C162.563 168.6 162.131 168.486 161.639 168.486C161.147 168.486 160.709 168.6 160.325 168.828C159.941 169.044 159.641 169.362 159.425 169.782C159.209 170.19 159.101 170.682 159.101 171.258V177H157.751ZM171.418 177.216C170.494 177.216 169.684 176.982 168.988 176.514C168.292 176.046 167.788 175.41 167.476 174.606L168.61 174.066C168.886 174.654 169.27 175.122 169.762 175.47C170.266 175.818 170.818 175.992 171.418 175.992C171.994 175.992 172.48 175.854 172.876 175.578C173.272 175.29 173.47 174.918 173.47 174.462C173.47 174.126 173.374 173.862 173.182 173.67C172.99 173.466 172.768 173.31 172.516 173.202C172.264 173.094 172.042 173.016 171.85 172.968L170.464 172.572C169.576 172.32 168.934 171.966 168.538 171.51C168.142 171.054 167.944 170.526 167.944 169.926C167.944 169.362 168.088 168.87 168.376 168.45C168.664 168.03 169.054 167.706 169.546 167.478C170.038 167.25 170.584 167.136 171.184 167.136C172 167.136 172.738 167.352 173.398 167.784C174.07 168.204 174.544 168.792 174.82 169.548L173.668 170.088C173.428 169.548 173.08 169.128 172.624 168.828C172.18 168.516 171.682 168.36 171.13 168.36C170.59 168.36 170.158 168.498 169.834 168.774C169.51 169.05 169.348 169.398 169.348 169.818C169.348 170.142 169.432 170.4 169.6 170.592C169.768 170.784 169.96 170.928 170.176 171.024C170.404 171.12 170.602 171.192 170.77 171.24L172.372 171.708C173.152 171.936 173.758 172.29 174.19 172.77C174.634 173.25 174.856 173.814 174.856 174.462C174.856 174.99 174.706 175.464 174.406 175.884C174.118 176.304 173.716 176.634 173.2 176.874C172.684 177.102 172.09 177.216 171.418 177.216ZM180.648 177.216C179.976 177.216 179.364 177.06 178.812 176.748C178.26 176.424 177.822 175.98 177.498 175.416C177.186 174.84 177.03 174.18 177.03 173.436V167.352H178.38V173.274C178.38 173.79 178.482 174.246 178.686 174.642C178.902 175.026 179.196 175.326 179.568 175.542C179.952 175.758 180.39 175.866 180.882 175.866C181.374 175.866 181.812 175.758 182.196 175.542C182.58 175.314 182.88 174.996 183.096 174.588C183.312 174.168 183.42 173.67 183.42 173.094V167.352H184.77V177H183.42V175.128L183.726 175.2C183.498 175.824 183.108 176.316 182.556 176.676C182.004 177.036 181.368 177.216 180.648 177.216ZM187.546 177V163.374H188.896V177H187.546ZM195.349 177.108C194.485 177.108 193.819 176.856 193.351 176.352C192.883 175.848 192.649 175.128 192.649 174.192V168.702H190.867V167.352H191.317C191.725 167.352 192.049 167.22 192.289 166.956C192.529 166.68 192.649 166.338 192.649 165.93V165.12H193.999V167.352H196.123V168.702H193.999V174.192C193.999 174.516 194.047 174.804 194.143 175.056C194.239 175.296 194.401 175.488 194.629 175.632C194.869 175.776 195.187 175.848 195.583 175.848C195.679 175.848 195.793 175.842 195.925 175.83C196.057 175.818 196.171 175.806 196.267 175.794V177C196.123 177.036 195.961 177.06 195.781 177.072C195.601 177.096 195.457 177.108 195.349 177.108ZM198.638 177V167.352H199.988V177H198.638ZM198.638 165.57V163.59H199.988V165.57H198.638ZM202.751 177V167.352H204.101V169.224L203.795 169.152C204.035 168.528 204.425 168.036 204.965 167.676C205.517 167.316 206.153 167.136 206.873 167.136C207.557 167.136 208.169 167.292 208.709 167.604C209.261 167.916 209.693 168.348 210.005 168.9C210.329 169.44 210.491 170.052 210.491 170.736V177H209.141V171.258C209.141 170.67 209.033 170.172 208.817 169.764C208.613 169.356 208.319 169.044 207.935 168.828C207.563 168.6 207.131 168.486 206.639 168.486C206.147 168.486 205.709 168.6 205.325 168.828C204.941 169.044 204.641 169.362 204.425 169.782C204.209 170.19 204.101 170.682 204.101 171.258V177H202.751ZM217.642 180.96C216.982 180.96 216.37 180.858 215.806 180.654C215.254 180.45 214.774 180.168 214.366 179.808C213.97 179.46 213.664 179.052 213.448 178.584L214.69 177.918C214.882 178.374 215.224 178.77 215.716 179.106C216.208 179.442 216.838 179.61 217.606 179.61C218.194 179.61 218.734 179.496 219.226 179.268C219.718 179.04 220.114 178.704 220.414 178.26C220.714 177.816 220.864 177.27 220.864 176.622V174.48L221.08 174.678C220.744 175.374 220.246 175.914 219.586 176.298C218.926 176.67 218.206 176.856 217.426 176.856C216.526 176.856 215.716 176.64 214.996 176.208C214.276 175.776 213.706 175.194 213.286 174.462C212.878 173.718 212.674 172.896 212.674 171.996C212.674 171.084 212.878 170.262 213.286 169.53C213.706 168.798 214.27 168.216 214.978 167.784C215.698 167.352 216.514 167.136 217.426 167.136C218.206 167.136 218.914 167.316 219.55 167.676C220.198 168.036 220.708 168.522 221.08 169.134L220.864 169.512V167.352H222.214V176.622C222.214 177.45 222.016 178.188 221.62 178.836C221.236 179.496 220.696 180.012 220 180.384C219.316 180.768 218.53 180.96 217.642 180.96ZM217.498 175.506C218.122 175.506 218.686 175.35 219.19 175.038C219.694 174.714 220.096 174.288 220.396 173.76C220.708 173.22 220.864 172.632 220.864 171.996C220.864 171.36 220.708 170.778 220.396 170.25C220.096 169.71 219.694 169.284 219.19 168.972C218.686 168.648 218.122 168.486 217.498 168.486C216.862 168.486 216.286 168.648 215.77 168.972C215.254 169.284 214.846 169.704 214.546 170.232C214.258 170.76 214.114 171.348 214.114 171.996C214.114 172.632 214.258 173.22 214.546 173.76C214.846 174.288 215.248 174.714 215.752 175.038C216.268 175.35 216.85 175.506 217.498 175.506ZM225.042 179.34V178.71C225.402 178.614 225.666 178.428 225.834 178.152C226.002 177.876 226.086 177.492 226.086 177H225.402V175.02H226.842V176.532C226.842 177.312 226.692 177.936 226.392 178.404C226.092 178.884 225.642 179.196 225.042 179.34ZM33.386 205V195.352H34.736V205H33.386ZM33.386 193.57V191.59H34.736V193.57H33.386ZM37.4993 205V195.352H38.8493V197.224L38.5433 197.152C38.7833 196.528 39.1733 196.036 39.7133 195.676C40.2653 195.316 40.9013 195.136 41.6213 195.136C42.3053 195.136 42.9173 195.292 43.4573 195.604C44.0093 195.916 44.4413 196.348 44.7533 196.9C45.0773 197.44 45.2393 198.052 45.2393 198.736V205H43.8893V199.258C43.8893 198.67 43.7813 198.172 43.5653 197.764C43.3613 197.356 43.0673 197.044 42.6833 196.828C42.3113 196.6 41.8793 196.486 41.3873 196.486C40.8953 196.486 40.4573 196.6 40.0733 196.828C39.6893 197.044 39.3893 197.362 39.1733 197.782C38.9573 198.19 38.8493 198.682 38.8493 199.258V205H37.4993ZM51.1656 205.216C50.2416 205.216 49.4316 204.982 48.7356 204.514C48.0396 204.046 47.5356 203.41 47.2236 202.606L48.3576 202.066C48.6336 202.654 49.0176 203.122 49.5096 203.47C50.0136 203.818 50.5656 203.992 51.1656 203.992C51.7416 203.992 52.2276 203.854 52.6236 203.578C53.0196 203.29 53.2176 202.918 53.2176 202.462C53.2176 202.126 53.1216 201.862 52.9296 201.67C52.7376 201.466 52.5156 201.31 52.2636 201.202C52.0116 201.094 51.7896 201.016 51.5976 200.968L50.2116 200.572C49.3236 200.32 48.6816 199.966 48.2856 199.51C47.8896 199.054 47.6916 198.526 47.6916 197.926C47.6916 197.362 47.8356 196.87 48.1236 196.45C48.4116 196.03 48.8016 195.706 49.2936 195.478C49.7856 195.25 50.3316 195.136 50.9316 195.136C51.7476 195.136 52.4856 195.352 53.1456 195.784C53.8176 196.204 54.2916 196.792 54.5676 197.548L53.4156 198.088C53.1756 197.548 52.8276 197.128 52.3716 196.828C51.9276 196.516 51.4296 196.36 50.8776 196.36C50.3376 196.36 49.9056 196.498 49.5816 196.774C49.2576 197.05 49.0956 197.398 49.0956 197.818C49.0956 198.142 49.1796 198.4 49.3476 198.592C49.5156 198.784 49.7076 198.928 49.9236 199.024C50.1516 199.12 50.3496 199.192 50.5176 199.24L52.1196 199.708C52.8996 199.936 53.5056 200.29 53.9376 200.77C54.3816 201.25 54.6036 201.814 54.6036 202.462C54.6036 202.99 54.4536 203.464 54.1536 203.884C53.8656 204.304 53.4636 204.634 52.9476 204.874C52.4316 205.102 51.8376 205.216 51.1656 205.216ZM60.6658 205.108C59.8018 205.108 59.1358 204.856 58.6678 204.352C58.1998 203.848 57.9658 203.128 57.9658 202.192V196.702H56.1838V195.352H56.6338C57.0418 195.352 57.3658 195.22 57.6058 194.956C57.8458 194.68 57.9658 194.338 57.9658 193.93V193.12H59.3158V195.352H61.4398V196.702H59.3158V202.192C59.3158 202.516 59.3638 202.804 59.4598 203.056C59.5558 203.296 59.7178 203.488 59.9458 203.632C60.1858 203.776 60.5038 203.848 60.8998 203.848C60.9958 203.848 61.1098 203.842 61.2418 203.83C61.3738 203.818 61.4878 203.806 61.5838 203.794V205C61.4398 205.036 61.2778 205.06 61.0978 205.072C60.9178 205.096 60.7738 205.108 60.6658 205.108ZM66.5686 205.216C65.9566 205.216 65.4106 205.102 64.9306 204.874C64.4506 204.634 64.0726 204.31 63.7966 203.902C63.5206 203.494 63.3826 203.026 63.3826 202.498C63.3826 201.994 63.4906 201.538 63.7066 201.13C63.9226 200.71 64.2586 200.356 64.7146 200.068C65.1706 199.78 65.7526 199.576 66.4606 199.456L70.2406 198.826V200.05L66.7846 200.626C66.0886 200.746 65.5846 200.968 65.2726 201.292C64.9726 201.616 64.8226 202 64.8226 202.444C64.8226 202.876 64.9906 203.242 65.3266 203.542C65.6746 203.842 66.1186 203.992 66.6586 203.992C67.3186 203.992 67.8946 203.854 68.3866 203.578C68.8786 203.29 69.2626 202.906 69.5386 202.426C69.8146 201.946 69.9526 201.412 69.9526 200.824V198.376C69.9526 197.8 69.7426 197.332 69.3226 196.972C68.9026 196.612 68.3566 196.432 67.6846 196.432C67.0966 196.432 66.5806 196.582 66.1366 196.882C65.6926 197.17 65.3626 197.548 65.1466 198.016L63.9226 197.35C64.1026 196.942 64.3846 196.57 64.7686 196.234C65.1646 195.898 65.6146 195.634 66.1186 195.442C66.6226 195.238 67.1446 195.136 67.6846 195.136C68.3926 195.136 69.0166 195.274 69.5566 195.55C70.1086 195.826 70.5346 196.21 70.8346 196.702C71.1466 197.182 71.3026 197.74 71.3026 198.376V205H69.9526V203.074L70.1506 203.272C69.9826 203.632 69.7186 203.962 69.3586 204.262C69.0106 204.55 68.5966 204.784 68.1166 204.964C67.6486 205.132 67.1326 205.216 66.5686 205.216ZM74.0794 205V191.374H75.4294V205H74.0794ZM78.1926 205V191.374H79.5426V205H78.1926ZM85.0959 205.216C84.4839 205.216 83.9379 205.102 83.4579 204.874C82.9779 204.634 82.5999 204.31 82.3239 203.902C82.0479 203.494 81.9099 203.026 81.9099 202.498C81.9099 201.994 82.0179 201.538 82.2339 201.13C82.4499 200.71 82.7859 200.356 83.2419 200.068C83.6979 199.78 84.2799 199.576 84.9879 199.456L88.7679 198.826V200.05L85.3119 200.626C84.6159 200.746 84.1119 200.968 83.7999 201.292C83.4999 201.616 83.3499 202 83.3499 202.444C83.3499 202.876 83.5179 203.242 83.8539 203.542C84.2019 203.842 84.6459 203.992 85.1859 203.992C85.8459 203.992 86.4219 203.854 86.9139 203.578C87.4059 203.29 87.7899 202.906 88.0659 202.426C88.3419 201.946 88.4799 201.412 88.4799 200.824V198.376C88.4799 197.8 88.2699 197.332 87.8499 196.972C87.4299 196.612 86.8839 196.432 86.2119 196.432C85.6239 196.432 85.1079 196.582 84.6639 196.882C84.2199 197.17 83.8899 197.548 83.6739 198.016L82.4499 197.35C82.6299 196.942 82.9119 196.57 83.2959 196.234C83.6919 195.898 84.1419 195.634 84.6459 195.442C85.1499 195.238 85.6719 195.136 86.2119 195.136C86.9199 195.136 87.5439 195.274 88.0839 195.55C88.6359 195.826 89.0619 196.21 89.3619 196.702C89.6739 197.182 89.8299 197.74 89.8299 198.376V205H88.4799V203.074L88.6779 203.272C88.5099 203.632 88.2459 203.962 87.8859 204.262C87.5379 204.55 87.1239 204.784 86.6439 204.964C86.1759 205.132 85.6599 205.216 85.0959 205.216ZM96.1209 205.108C95.2569 205.108 94.5909 204.856 94.1229 204.352C93.6549 203.848 93.4209 203.128 93.4209 202.192V196.702H91.6389V195.352H92.0889C92.4969 195.352 92.8209 195.22 93.0609 194.956C93.3009 194.68 93.4209 194.338 93.4209 193.93V193.12H94.7709V195.352H96.8949V196.702H94.7709V202.192C94.7709 202.516 94.8189 202.804 94.9149 203.056C95.0109 203.296 95.1729 203.488 95.4009 203.632C95.6409 203.776 95.9589 203.848 96.3549 203.848C96.4509 203.848 96.5649 203.842 96.6969 203.83C96.8289 203.818 96.9429 203.806 97.0389 203.794V205C96.8949 205.036 96.7329 205.06 96.5529 205.072C96.3729 205.096 96.2289 205.108 96.1209 205.108ZM99.4094 205V195.352H100.759V205H99.4094ZM99.4094 193.57V191.59H100.759V193.57H99.4094ZM108.041 205.216C107.129 205.216 106.301 205 105.557 204.568C104.813 204.124 104.219 203.524 103.775 202.768C103.343 202 103.127 201.13 103.127 200.158C103.127 199.198 103.343 198.34 103.775 197.584C104.207 196.828 104.789 196.234 105.521 195.802C106.265 195.358 107.105 195.136 108.041 195.136C108.977 195.136 109.811 195.352 110.543 195.784C111.287 196.216 111.869 196.81 112.289 197.566C112.721 198.322 112.937 199.186 112.937 200.158C112.937 201.142 112.715 202.018 112.271 202.786C111.827 203.542 111.233 204.136 110.489 204.568C109.757 205 108.941 205.216 108.041 205.216ZM108.041 203.866C108.689 203.866 109.271 203.704 109.787 203.38C110.315 203.056 110.729 202.612 111.029 202.048C111.341 201.484 111.497 200.854 111.497 200.158C111.497 199.462 111.341 198.838 111.029 198.286C110.729 197.734 110.315 197.296 109.787 196.972C109.271 196.648 108.689 196.486 108.041 196.486C107.393 196.486 106.805 196.648 106.277 196.972C105.761 197.296 105.347 197.734 105.035 198.286C104.723 198.838 104.567 199.462 104.567 200.158C104.567 200.854 104.723 201.484 105.035 202.048C105.347 202.612 105.761 203.056 106.277 203.38C106.805 203.704 107.393 203.866 108.041 203.866ZM115.318 205V195.352H116.668V197.224L116.362 197.152C116.602 196.528 116.992 196.036 117.532 195.676C118.084 195.316 118.72 195.136 119.44 195.136C120.124 195.136 120.736 195.292 121.276 195.604C121.828 195.916 122.26 196.348 122.572 196.9C122.896 197.44 123.058 198.052 123.058 198.736V205H121.708V199.258C121.708 198.67 121.6 198.172 121.384 197.764C121.18 197.356 120.886 197.044 120.502 196.828C120.13 196.6 119.698 196.486 119.206 196.486C118.714 196.486 118.276 196.6 117.892 196.828C117.508 197.044 117.208 197.362 116.992 197.782C116.776 198.19 116.668 198.682 116.668 199.258V205H115.318ZM125.69 207.34V206.71C126.05 206.614 126.314 206.428 126.482 206.152C126.65 205.876 126.734 205.492 126.734 205H126.05V203.02H127.49V204.532C127.49 205.312 127.34 205.936 127.04 206.404C126.74 206.884 126.29 207.196 125.69 207.34ZM133.744 205V191.59H138.352C139.228 191.59 139.996 191.764 140.656 192.112C141.316 192.448 141.826 192.928 142.186 193.552C142.558 194.164 142.744 194.878 142.744 195.694C142.744 196.642 142.492 197.452 141.988 198.124C141.496 198.796 140.824 199.27 139.972 199.546L143.104 205H141.412L138.136 199.222L139.108 199.78H135.184V205H133.744ZM135.184 198.43H138.424C139 198.43 139.504 198.322 139.936 198.106C140.368 197.878 140.704 197.56 140.944 197.152C141.184 196.732 141.304 196.24 141.304 195.676C141.304 195.112 141.184 194.626 140.944 194.218C140.704 193.81 140.368 193.498 139.936 193.282C139.504 193.054 139 192.94 138.424 192.94H135.184V198.43ZM148.924 205.216C148.024 205.216 147.208 205 146.476 204.568C145.756 204.124 145.186 203.518 144.766 202.75C144.346 201.982 144.136 201.112 144.136 200.14C144.136 199.168 144.34 198.31 144.748 197.566C145.156 196.81 145.708 196.216 146.404 195.784C147.112 195.352 147.904 195.136 148.78 195.136C149.476 195.136 150.094 195.268 150.634 195.532C151.186 195.784 151.654 196.132 152.038 196.576C152.422 197.008 152.716 197.5 152.92 198.052C153.124 198.592 153.226 199.15 153.226 199.726C153.226 199.846 153.22 199.984 153.208 200.14C153.196 200.284 153.178 200.434 153.154 200.59H145V199.33H152.38L151.732 199.87C151.84 199.21 151.762 198.622 151.498 198.106C151.246 197.578 150.88 197.164 150.4 196.864C149.92 196.552 149.38 196.396 148.78 196.396C148.18 196.396 147.622 196.552 147.106 196.864C146.602 197.176 146.206 197.614 145.918 198.178C145.63 198.73 145.516 199.39 145.576 200.158C145.516 200.926 145.636 201.598 145.936 202.174C146.248 202.738 146.668 203.176 147.196 203.488C147.736 203.8 148.312 203.956 148.924 203.956C149.632 203.956 150.226 203.788 150.706 203.452C151.186 203.116 151.576 202.696 151.876 202.192L153.028 202.804C152.836 203.236 152.542 203.638 152.146 204.01C151.75 204.37 151.276 204.664 150.724 204.892C150.184 205.108 149.584 205.216 148.924 205.216ZM155.607 208.6V195.352H156.957V197.512L156.741 197.134C157.125 196.522 157.635 196.036 158.271 195.676C158.919 195.316 159.657 195.136 160.485 195.136C161.397 195.136 162.207 195.358 162.915 195.802C163.635 196.234 164.199 196.828 164.607 197.584C165.027 198.34 165.237 199.204 165.237 200.176C165.237 201.136 165.027 202 164.607 202.768C164.199 203.524 163.635 204.124 162.915 204.568C162.207 205 161.397 205.216 160.485 205.216C159.657 205.216 158.907 205.03 158.235 204.658C157.575 204.274 157.077 203.734 156.741 203.038L156.957 202.84V208.6H155.607ZM160.413 203.866C161.061 203.866 161.637 203.704 162.141 203.38C162.657 203.056 163.059 202.618 163.347 202.066C163.647 201.502 163.797 200.872 163.797 200.176C163.797 199.468 163.647 198.838 163.347 198.286C163.059 197.734 162.657 197.296 162.141 196.972C161.637 196.648 161.061 196.486 160.413 196.486C159.765 196.486 159.177 196.648 158.649 196.972C158.133 197.296 157.719 197.74 157.407 198.304C157.107 198.856 156.957 199.48 156.957 200.176C156.957 200.872 157.107 201.502 157.407 202.066C157.719 202.618 158.133 203.056 158.649 203.38C159.177 203.704 159.765 203.866 160.413 203.866ZM170.403 205.216C169.791 205.216 169.245 205.102 168.765 204.874C168.285 204.634 167.907 204.31 167.631 203.902C167.355 203.494 167.217 203.026 167.217 202.498C167.217 201.994 167.325 201.538 167.541 201.13C167.757 200.71 168.093 200.356 168.549 200.068C169.005 199.78 169.587 199.576 170.295 199.456L174.075 198.826V200.05L170.619 200.626C169.923 200.746 169.419 200.968 169.107 201.292C168.807 201.616 168.657 202 168.657 202.444C168.657 202.876 168.825 203.242 169.161 203.542C169.509 203.842 169.953 203.992 170.493 203.992C171.153 203.992 171.729 203.854 172.221 203.578C172.713 203.29 173.097 202.906 173.373 202.426C173.649 201.946 173.787 201.412 173.787 200.824V198.376C173.787 197.8 173.577 197.332 173.157 196.972C172.737 196.612 172.191 196.432 171.519 196.432C170.931 196.432 170.415 196.582 169.971 196.882C169.527 197.17 169.197 197.548 168.981 198.016L167.757 197.35C167.937 196.942 168.219 196.57 168.603 196.234C168.999 195.898 169.449 195.634 169.953 195.442C170.457 195.238 170.979 195.136 171.519 195.136C172.227 195.136 172.851 195.274 173.391 195.55C173.943 195.826 174.369 196.21 174.669 196.702C174.981 197.182 175.137 197.74 175.137 198.376V205H173.787V203.074L173.985 203.272C173.817 203.632 173.553 203.962 173.193 204.262C172.845 204.55 172.431 204.784 171.951 204.964C171.483 205.132 170.967 205.216 170.403 205.216ZM177.913 205V195.352H179.263V205H177.913ZM177.913 193.57V191.59H179.263V193.57H177.913ZM182.027 205V195.352H183.377V196.936L183.197 196.702C183.425 196.246 183.767 195.886 184.223 195.622C184.691 195.358 185.255 195.226 185.915 195.226H186.527V196.576H185.681C184.985 196.576 184.427 196.792 184.007 197.224C183.587 197.656 183.377 198.268 183.377 199.06V205H182.027ZM188.109 205V195.352H189.459V205H188.109ZM188.109 193.57V191.59H189.459V193.57H188.109ZM192.222 205V195.352H193.572V197.224L193.266 197.152C193.506 196.528 193.896 196.036 194.436 195.676C194.988 195.316 195.624 195.136 196.344 195.136C197.028 195.136 197.64 195.292 198.18 195.604C198.732 195.916 199.164 196.348 199.476 196.9C199.8 197.44 199.962 198.052 199.962 198.736V205H198.612V199.258C198.612 198.67 198.504 198.172 198.288 197.764C198.084 197.356 197.79 197.044 197.406 196.828C197.034 196.6 196.602 196.486 196.11 196.486C195.618 196.486 195.18 196.6 194.796 196.828C194.412 197.044 194.112 197.362 193.896 197.782C193.68 198.19 193.572 198.682 193.572 199.258V205H192.222ZM207.112 208.96C206.452 208.96 205.84 208.858 205.276 208.654C204.724 208.45 204.244 208.168 203.836 207.808C203.44 207.46 203.134 207.052 202.918 206.584L204.16 205.918C204.352 206.374 204.694 206.77 205.186 207.106C205.678 207.442 206.308 207.61 207.076 207.61C207.664 207.61 208.204 207.496 208.696 207.268C209.188 207.04 209.584 206.704 209.884 206.26C210.184 205.816 210.334 205.27 210.334 204.622V202.48L210.55 202.678C210.214 203.374 209.716 203.914 209.056 204.298C208.396 204.67 207.676 204.856 206.896 204.856C205.996 204.856 205.186 204.64 204.466 204.208C203.746 203.776 203.176 203.194 202.756 202.462C202.348 201.718 202.144 200.896 202.144 199.996C202.144 199.084 202.348 198.262 202.756 197.53C203.176 196.798 203.74 196.216 204.448 195.784C205.168 195.352 205.984 195.136 206.896 195.136C207.676 195.136 208.384 195.316 209.02 195.676C209.668 196.036 210.178 196.522 210.55 197.134L210.334 197.512V195.352H211.684V204.622C211.684 205.45 211.486 206.188 211.09 206.836C210.706 207.496 210.166 208.012 209.47 208.384C208.786 208.768 208 208.96 207.112 208.96ZM206.968 203.506C207.592 203.506 208.156 203.35 208.66 203.038C209.164 202.714 209.566 202.288 209.866 201.76C210.178 201.22 210.334 200.632 210.334 199.996C210.334 199.36 210.178 198.778 209.866 198.25C209.566 197.71 209.164 197.284 208.66 196.972C208.156 196.648 207.592 196.486 206.968 196.486C206.332 196.486 205.756 196.648 205.24 196.972C204.724 197.284 204.316 197.704 204.016 198.232C203.728 198.76 203.584 199.348 203.584 199.996C203.584 200.632 203.728 201.22 204.016 201.76C204.316 202.288 204.718 202.714 205.222 203.038C205.738 203.35 206.32 203.506 206.968 203.506ZM214.512 207.34V206.71C214.872 206.614 215.136 206.428 215.304 206.152C215.472 205.876 215.556 205.492 215.556 205H214.872V203.02H216.312V204.532C216.312 205.312 216.162 205.936 215.862 206.404C215.562 206.884 215.112 207.196 214.512 207.34ZM226.058 205.108C225.194 205.108 224.528 204.856 224.06 204.352C223.592 203.848 223.358 203.128 223.358 202.192V196.702H221.576V195.352H222.026C222.434 195.352 222.758 195.22 222.998 194.956C223.238 194.68 223.358 194.338 223.358 193.93V193.12H224.708V195.352H226.832V196.702H224.708V202.192C224.708 202.516 224.756 202.804 224.852 203.056C224.948 203.296 225.11 203.488 225.338 203.632C225.578 203.776 225.896 203.848 226.292 203.848C226.388 203.848 226.502 203.842 226.634 203.83C226.766 203.818 226.88 203.806 226.976 203.794V205C226.832 205.036 226.67 205.06 226.49 205.072C226.31 205.096 226.166 205.108 226.058 205.108ZM229.347 205V195.352H230.697V205H229.347ZM229.347 193.57V191.59H230.697V193.57H229.347ZM233.46 205V191.374H234.81V205H233.46ZM241.966 205.216C241.066 205.216 240.25 205 239.518 204.568C238.798 204.124 238.228 203.518 237.808 202.75C237.388 201.982 237.178 201.112 237.178 200.14C237.178 199.168 237.382 198.31 237.79 197.566C238.198 196.81 238.75 196.216 239.446 195.784C240.154 195.352 240.946 195.136 241.822 195.136C242.518 195.136 243.136 195.268 243.676 195.532C244.228 195.784 244.696 196.132 245.08 196.576C245.464 197.008 245.758 197.5 245.962 198.052C246.166 198.592 246.268 199.15 246.268 199.726C246.268 199.846 246.262 199.984 246.25 200.14C246.238 200.284 246.22 200.434 246.196 200.59H238.042V199.33H245.422L244.774 199.87C244.882 199.21 244.804 198.622 244.54 198.106C244.288 197.578 243.922 197.164 243.442 196.864C242.962 196.552 242.422 196.396 241.822 196.396C241.222 196.396 240.664 196.552 240.148 196.864C239.644 197.176 239.248 197.614 238.96 198.178C238.672 198.73 238.558 199.39 238.618 200.158C238.558 200.926 238.678 201.598 238.978 202.174C239.29 202.738 239.71 203.176 240.238 203.488C240.778 203.8 241.354 203.956 241.966 203.956C242.674 203.956 243.268 203.788 243.748 203.452C244.228 203.116 244.618 202.696 244.918 202.192L246.07 202.804C245.878 203.236 245.584 203.638 245.188 204.01C244.792 204.37 244.318 204.664 243.766 204.892C243.226 205.108 242.626 205.216 241.966 205.216ZM251.706 205V195.352H253.056V196.936L252.876 196.702C253.104 196.246 253.446 195.886 253.902 195.622C254.37 195.358 254.934 195.226 255.594 195.226H256.206V196.576H255.36C254.664 196.576 254.106 196.792 253.686 197.224C253.266 197.656 253.056 198.268 253.056 199.06V205H251.706ZM262.18 205.216C261.28 205.216 260.464 205 259.732 204.568C259.012 204.124 258.442 203.518 258.022 202.75C257.602 201.982 257.392 201.112 257.392 200.14C257.392 199.168 257.596 198.31 258.004 197.566C258.412 196.81 258.964 196.216 259.66 195.784C260.368 195.352 261.16 195.136 262.036 195.136C262.732 195.136 263.35 195.268 263.89 195.532C264.442 195.784 264.91 196.132 265.294 196.576C265.678 197.008 265.972 197.5 266.176 198.052C266.38 198.592 266.482 199.15 266.482 199.726C266.482 199.846 266.476 199.984 266.464 200.14C266.452 200.284 266.434 200.434 266.41 200.59H258.256V199.33H265.636L264.988 199.87C265.096 199.21 265.018 198.622 264.754 198.106C264.502 197.578 264.136 197.164 263.656 196.864C263.176 196.552 262.636 196.396 262.036 196.396C261.436 196.396 260.878 196.552 260.362 196.864C259.858 197.176 259.462 197.614 259.174 198.178C258.886 198.73 258.772 199.39 258.832 200.158C258.772 200.926 258.892 201.598 259.192 202.174C259.504 202.738 259.924 203.176 260.452 203.488C260.992 203.8 261.568 203.956 262.18 203.956C262.888 203.956 263.482 203.788 263.962 203.452C264.442 203.116 264.832 202.696 265.132 202.192L266.284 202.804C266.092 203.236 265.798 203.638 265.402 204.01C265.006 204.37 264.532 204.664 263.98 204.892C263.44 205.108 262.84 205.216 262.18 205.216ZM268.863 208.6V195.352H270.213V197.512L269.997 197.134C270.381 196.522 270.891 196.036 271.527 195.676C272.175 195.316 272.913 195.136 273.741 195.136C274.653 195.136 275.463 195.358 276.171 195.802C276.891 196.234 277.455 196.828 277.863 197.584C278.283 198.34 278.493 199.204 278.493 200.176C278.493 201.136 278.283 202 277.863 202.768C277.455 203.524 276.891 204.124 276.171 204.568C275.463 205 274.653 205.216 273.741 205.216C272.913 205.216 272.163 205.03 271.491 204.658C270.831 204.274 270.333 203.734 269.997 203.038L270.213 202.84V208.6H268.863ZM273.669 203.866C274.317 203.866 274.893 203.704 275.397 203.38C275.913 203.056 276.315 202.618 276.603 202.066C276.903 201.502 277.053 200.872 277.053 200.176C277.053 199.468 276.903 198.838 276.603 198.286C276.315 197.734 275.913 197.296 275.397 196.972C274.893 196.648 274.317 196.486 273.669 196.486C273.021 196.486 272.433 196.648 271.905 196.972C271.389 197.296 270.975 197.74 270.663 198.304C270.363 198.856 270.213 199.48 270.213 200.176C270.213 200.872 270.363 201.502 270.663 202.066C270.975 202.618 271.389 203.056 271.905 203.38C272.433 203.704 273.021 203.866 273.669 203.866ZM283.658 205.216C283.046 205.216 282.5 205.102 282.02 204.874C281.54 204.634 281.162 204.31 280.886 203.902C280.61 203.494 280.472 203.026 280.472 202.498C280.472 201.994 280.58 201.538 280.796 201.13C281.012 200.71 281.348 200.356 281.804 200.068C282.26 199.78 282.842 199.576 283.55 199.456L287.33 198.826V200.05L283.874 200.626C283.178 200.746 282.674 200.968 282.362 201.292C282.062 201.616 281.912 202 281.912 202.444C281.912 202.876 282.08 203.242 282.416 203.542C282.764 203.842 283.208 203.992 283.748 203.992C284.408 203.992 284.984 203.854 285.476 203.578C285.968 203.29 286.352 202.906 286.628 202.426C286.904 201.946 287.042 201.412 287.042 200.824V198.376C287.042 197.8 286.832 197.332 286.412 196.972C285.992 196.612 285.446 196.432 284.774 196.432C284.186 196.432 283.67 196.582 283.226 196.882C282.782 197.17 282.452 197.548 282.236 198.016L281.012 197.35C281.192 196.942 281.474 196.57 281.858 196.234C282.254 195.898 282.704 195.634 283.208 195.442C283.712 195.238 284.234 195.136 284.774 195.136C285.482 195.136 286.106 195.274 286.646 195.55C287.198 195.826 287.624 196.21 287.924 196.702C288.236 197.182 288.392 197.74 288.392 198.376V205H287.042V203.074L287.24 203.272C287.072 203.632 286.808 203.962 286.448 204.262C286.1 204.55 285.686 204.784 285.206 204.964C284.738 205.132 284.222 205.216 283.658 205.216ZM291.169 205V195.352H292.519V205H291.169ZM291.169 193.57V191.59H292.519V193.57H291.169ZM295.282 205V195.352H296.632V196.936L296.452 196.702C296.68 196.246 297.022 195.886 297.478 195.622C297.946 195.358 298.51 195.226 299.17 195.226H299.782V196.576H298.936C298.24 196.576 297.682 196.792 297.262 197.224C296.842 197.656 296.632 198.268 296.632 199.06V205H295.282Z" fill="#545971"/>
</svg>
