<svg width="360" height="244" viewBox="0 0 360 244" fill="none" xmlns="http://www.w3.org/2000/svg">
<rect x="32" y="32" width="64" height="64" rx="20" fill="#142257"/>
<path d="M72.6798 51.9547C72.1228 52.5341 71.8191 53.3107 71.8355 54.1136C71.8697 55.7856 73.2549 57.1134 74.9294 57.0793C75.7335 57.0629 76.4981 56.7282 77.0551 56.1488L81.0855 51.9566C81.8824 53.5389 82.1685 55.329 81.9043 57.0804C81.6401 58.8318 80.8387 60.4584 79.6103 61.7361C78.3819 63.0138 76.7871 63.8798 75.0454 64.2149C73.3036 64.55 71.5007 64.3376 69.8849 63.6071C67.7516 62.0192 66.8051 61.0993 65.5095 59.413C64.7126 57.8307 64.4265 56.0405 64.6907 54.2891C64.9549 52.5377 65.7564 50.9112 66.9847 49.6335C68.2131 48.3558 69.808 47.4898 71.5497 47.1547C73.2914 46.8196 75.0943 47.0319 76.7102 47.7625L72.6798 51.9547Z" fill="white"/>
<path d="M57.6158 67.7865L62.0138 71.9566L55.4846 78.8827C54.9276 79.462 54.1629 79.7967 53.3588 79.8131C52.5547 79.8295 51.777 79.5263 51.1968 78.9701C50.6166 78.4139 50.2814 77.6504 50.265 76.8474C50.2486 76.0445 50.5522 75.2679 51.1092 74.6886L57.6158 67.7865Z" fill="white"/>
<path d="M63.1656 60.3031L77.4581 73.8549C78.8708 75.1944 78.946 77.4181 77.6269 78.8497C76.2781 80.3136 73.99 80.3907 72.5454 79.021L58.2529 65.4692C57.0889 64.3655 56.8329 62.6618 57.5166 61.2953L50.8816 54.8991L49.6513 56.1289L46 51.2104L48.2583 48.7162L53.5381 52.244L52.3177 53.4638L58.9038 59.8128C60.2384 59.0304 61.9841 59.1828 63.1656 60.3031Z" fill="white"/>
<path d="M32.264 138L38.432 120.12H42.656L48.824 138H45.272L44 134.16H37.088L35.792 138H32.264ZM38.024 131.28H43.064L40.088 122.376H41L38.024 131.28ZM50.5499 142.8V124.944H53.5019V127.536L53.2139 126.888C53.6619 126.184 54.2699 125.64 55.0379 125.256C55.8059 124.856 56.6939 124.656 57.7019 124.656C58.9339 124.656 60.0459 124.96 61.0379 125.568C62.0299 126.176 62.8139 126.992 63.3899 128.016C63.9819 129.04 64.2779 130.192 64.2779 131.472C64.2779 132.736 63.9899 133.888 63.4139 134.928C62.8379 135.968 62.0539 136.792 61.0619 137.4C60.0699 137.992 58.9419 138.288 57.6779 138.288C56.7339 138.288 55.8619 138.104 55.0619 137.736C54.2779 137.352 53.6539 136.808 53.1899 136.104L53.6939 135.48V142.8H50.5499ZM57.3179 135.408C58.0379 135.408 58.6779 135.24 59.2379 134.904C59.7979 134.568 60.2299 134.104 60.5339 133.512C60.8539 132.92 61.0139 132.24 61.0139 131.472C61.0139 130.704 60.8539 130.032 60.5339 129.456C60.2299 128.864 59.7979 128.4 59.2379 128.064C58.6779 127.712 58.0379 127.536 57.3179 127.536C56.6299 127.536 56.0059 127.704 55.4459 128.04C54.9019 128.376 54.4699 128.848 54.1499 129.456C53.8459 130.048 53.6939 130.72 53.6939 131.472C53.6939 132.24 53.8459 132.92 54.1499 133.512C54.4699 134.104 54.9019 134.568 55.4459 134.904C56.0059 135.24 56.6299 135.408 57.3179 135.408ZM66.6749 142.8V124.944H69.6269V127.536L69.3389 126.888C69.7869 126.184 70.3949 125.64 71.1629 125.256C71.9309 124.856 72.8189 124.656 73.8269 124.656C75.0589 124.656 76.1709 124.96 77.1629 125.568C78.1549 126.176 78.9389 126.992 79.5149 128.016C80.1069 129.04 80.4029 130.192 80.4029 131.472C80.4029 132.736 80.1149 133.888 79.5389 134.928C78.9629 135.968 78.1789 136.792 77.1869 137.4C76.1949 137.992 75.0669 138.288 73.8029 138.288C72.8589 138.288 71.9869 138.104 71.1869 137.736C70.4029 137.352 69.7789 136.808 69.3149 136.104L69.8189 135.48V142.8H66.6749ZM73.4429 135.408C74.1629 135.408 74.8029 135.24 75.3629 134.904C75.9229 134.568 76.3549 134.104 76.6589 133.512C76.9789 132.92 77.1389 132.24 77.1389 131.472C77.1389 130.704 76.9789 130.032 76.6589 129.456C76.3549 128.864 75.9229 128.4 75.3629 128.064C74.8029 127.712 74.1629 127.536 73.4429 127.536C72.7549 127.536 72.1309 127.704 71.5709 128.04C71.0269 128.376 70.5949 128.848 70.2749 129.456C69.9709 130.048 69.8189 130.72 69.8189 131.472C69.8189 132.24 69.9709 132.92 70.2749 133.512C70.5949 134.104 71.0269 134.568 71.5709 134.904C72.1309 135.24 72.7549 135.408 73.4429 135.408ZM82.7999 138V119.832H85.9439V138H82.7999ZM88.8468 138V124.944H91.9908V138H88.8468ZM88.8468 123.48V120.12H91.9908V123.48H88.8468ZM98.8537 138.288C97.9417 138.288 97.1497 138.136 96.4777 137.832C95.8057 137.528 95.2857 137.096 94.9177 136.536C94.5497 135.96 94.3657 135.296 94.3657 134.544C94.3657 133.824 94.5257 133.184 94.8457 132.624C95.1657 132.048 95.6617 131.568 96.3337 131.184C97.0057 130.8 97.8537 130.528 98.8777 130.368L103.15 129.672V132.072L99.4777 132.696C98.8537 132.808 98.3897 133.008 98.0857 133.296C97.7817 133.584 97.6297 133.96 97.6297 134.424C97.6297 134.872 97.7977 135.232 98.1337 135.504C98.4857 135.76 98.9177 135.888 99.4297 135.888C100.086 135.888 100.662 135.752 101.158 135.48C101.67 135.192 102.062 134.8 102.334 134.304C102.622 133.808 102.766 133.264 102.766 132.672V129.312C102.766 128.752 102.542 128.288 102.094 127.92C101.662 127.536 101.086 127.344 100.366 127.344C99.6937 127.344 99.0937 127.528 98.5657 127.896C98.0537 128.248 97.6777 128.72 97.4377 129.312L94.8697 128.064C95.1257 127.376 95.5257 126.784 96.0697 126.288C96.6297 125.776 97.2857 125.376 98.0377 125.088C98.7897 124.8 99.6057 124.656 100.486 124.656C101.558 124.656 102.502 124.856 103.318 125.256C104.134 125.64 104.766 126.184 105.214 126.888C105.678 127.576 105.91 128.384 105.91 129.312V138H102.934V135.768L103.606 135.72C103.27 136.28 102.87 136.752 102.406 137.136C101.942 137.504 101.414 137.792 100.822 138C100.23 138.192 99.5737 138.288 98.8537 138.288ZM108.816 138V124.944H111.768V127.512L111.528 127.056C111.832 126.272 112.328 125.68 113.016 125.28C113.72 124.864 114.536 124.656 115.464 124.656C116.424 124.656 117.272 124.864 118.008 125.28C118.76 125.696 119.344 126.28 119.76 127.032C120.176 127.768 120.384 128.624 120.384 129.6V138H117.24V130.344C117.24 129.768 117.128 129.272 116.904 128.856C116.68 128.44 116.368 128.12 115.968 127.896C115.584 127.656 115.128 127.536 114.6 127.536C114.088 127.536 113.632 127.656 113.232 127.896C112.832 128.12 112.52 128.44 112.296 128.856C112.072 129.272 111.96 129.768 111.96 130.344V138H108.816ZM129.33 138.288C128.034 138.288 126.866 137.992 125.826 137.4C124.802 136.792 123.994 135.976 123.402 134.952C122.81 133.912 122.514 132.744 122.514 131.448C122.514 130.152 122.81 128.992 123.402 127.968C123.994 126.944 124.802 126.136 125.826 125.544C126.866 124.952 128.034 124.656 129.33 124.656C130.258 124.656 131.122 124.824 131.922 125.16C132.722 125.48 133.41 125.928 133.986 126.504C134.578 127.064 135.002 127.736 135.258 128.52L132.498 129.72C132.258 129.064 131.85 128.536 131.274 128.136C130.714 127.736 130.066 127.536 129.33 127.536C128.642 127.536 128.026 127.704 127.482 128.04C126.954 128.376 126.538 128.84 126.234 129.432C125.93 130.024 125.778 130.704 125.778 131.472C125.778 132.24 125.93 132.92 126.234 133.512C126.538 134.104 126.954 134.568 127.482 134.904C128.026 135.24 128.642 135.408 129.33 135.408C130.082 135.408 130.738 135.208 131.298 134.808C131.858 134.408 132.258 133.872 132.498 133.2L135.258 134.448C135.002 135.184 134.586 135.848 134.01 136.44C133.434 137.016 132.746 137.472 131.946 137.808C131.146 138.128 130.274 138.288 129.33 138.288ZM143.836 138.288C142.492 138.288 141.316 137.984 140.308 137.376C139.3 136.768 138.516 135.944 137.956 134.904C137.396 133.864 137.116 132.712 137.116 131.448C137.116 130.136 137.396 128.976 137.956 127.968C138.532 126.944 139.308 126.136 140.284 125.544C141.276 124.952 142.38 124.656 143.596 124.656C144.62 124.656 145.516 124.824 146.284 125.16C147.068 125.496 147.732 125.96 148.276 126.552C148.82 127.144 149.236 127.824 149.524 128.592C149.812 129.344 149.956 130.16 149.956 131.04C149.956 131.264 149.94 131.496 149.908 131.736C149.892 131.976 149.852 132.184 149.788 132.36H139.708V129.96H148.012L146.524 131.088C146.668 130.352 146.628 129.696 146.404 129.12C146.196 128.544 145.844 128.088 145.348 127.752C144.868 127.416 144.284 127.248 143.596 127.248C142.94 127.248 142.356 127.416 141.844 127.752C141.332 128.072 140.94 128.552 140.668 129.192C140.412 129.816 140.316 130.576 140.38 131.472C140.316 132.272 140.42 132.984 140.692 133.608C140.98 134.216 141.396 134.688 141.94 135.024C142.5 135.36 143.14 135.528 143.86 135.528C144.58 135.528 145.188 135.376 145.684 135.072C146.196 134.768 146.596 134.36 146.884 133.848L149.428 135.096C149.172 135.72 148.772 136.272 148.228 136.752C147.684 137.232 147.036 137.608 146.284 137.88C145.548 138.152 144.732 138.288 143.836 138.288ZM156.869 138V120.12H163.517C164.733 120.12 165.805 120.344 166.733 120.792C167.677 121.224 168.413 121.864 168.941 122.712C169.469 123.544 169.733 124.56 169.733 125.76C169.733 126.992 169.437 128.04 168.845 128.904C168.269 129.768 167.485 130.408 166.493 130.824L170.597 138H166.901L162.509 130.152L164.621 131.4H160.133V138H156.869ZM160.133 128.52H163.565C164.157 128.52 164.669 128.408 165.101 128.184C165.533 127.944 165.869 127.616 166.109 127.2C166.349 126.784 166.469 126.304 166.469 125.76C166.469 125.2 166.349 124.72 166.109 124.32C165.869 123.904 165.533 123.584 165.101 123.36C164.669 123.12 164.157 123 163.565 123H160.133V128.52ZM177.937 138.288C176.593 138.288 175.417 137.984 174.409 137.376C173.401 136.768 172.617 135.944 172.057 134.904C171.497 133.864 171.217 132.712 171.217 131.448C171.217 130.136 171.497 128.976 172.057 127.968C172.633 126.944 173.409 126.136 174.385 125.544C175.377 124.952 176.481 124.656 177.697 124.656C178.721 124.656 179.617 124.824 180.385 125.16C181.169 125.496 181.833 125.96 182.377 126.552C182.921 127.144 183.337 127.824 183.625 128.592C183.913 129.344 184.057 130.16 184.057 131.04C184.057 131.264 184.041 131.496 184.009 131.736C183.993 131.976 183.953 132.184 183.889 132.36H173.809V129.96H182.113L180.625 131.088C180.769 130.352 180.729 129.696 180.505 129.12C180.297 128.544 179.945 128.088 179.449 127.752C178.969 127.416 178.385 127.248 177.697 127.248C177.041 127.248 176.457 127.416 175.945 127.752C175.433 128.072 175.041 128.552 174.769 129.192C174.513 129.816 174.417 130.576 174.481 131.472C174.417 132.272 174.521 132.984 174.793 133.608C175.081 134.216 175.497 134.688 176.041 135.024C176.601 135.36 177.241 135.528 177.961 135.528C178.681 135.528 179.289 135.376 179.785 135.072C180.297 134.768 180.697 134.36 180.985 133.848L183.529 135.096C183.273 135.72 182.873 136.272 182.329 136.752C181.785 137.232 181.137 137.608 180.385 137.88C179.649 138.152 178.833 138.288 177.937 138.288ZM186.441 142.8V124.944H189.393V127.536L189.105 126.888C189.553 126.184 190.161 125.64 190.929 125.256C191.697 124.856 192.585 124.656 193.593 124.656C194.825 124.656 195.937 124.96 196.929 125.568C197.921 126.176 198.705 126.992 199.281 128.016C199.873 129.04 200.169 130.192 200.169 131.472C200.169 132.736 199.881 133.888 199.305 134.928C198.729 135.968 197.945 136.792 196.953 137.4C195.961 137.992 194.833 138.288 193.569 138.288C192.625 138.288 191.753 138.104 190.953 137.736C190.169 137.352 189.545 136.808 189.081 136.104L189.585 135.48V142.8H186.441ZM193.209 135.408C193.929 135.408 194.569 135.24 195.129 134.904C195.689 134.568 196.121 134.104 196.425 133.512C196.745 132.92 196.905 132.24 196.905 131.472C196.905 130.704 196.745 130.032 196.425 129.456C196.121 128.864 195.689 128.4 195.129 128.064C194.569 127.712 193.929 127.536 193.209 127.536C192.521 127.536 191.897 127.704 191.337 128.04C190.793 128.376 190.361 128.848 190.041 129.456C189.737 130.048 189.585 130.72 189.585 131.472C189.585 132.24 189.737 132.92 190.041 133.512C190.361 134.104 190.793 134.568 191.337 134.904C191.897 135.24 192.521 135.408 193.209 135.408ZM206.526 138.288C205.614 138.288 204.822 138.136 204.15 137.832C203.478 137.528 202.958 137.096 202.59 136.536C202.222 135.96 202.038 135.296 202.038 134.544C202.038 133.824 202.198 133.184 202.518 132.624C202.838 132.048 203.334 131.568 204.006 131.184C204.678 130.8 205.526 130.528 206.55 130.368L210.822 129.672V132.072L207.15 132.696C206.526 132.808 206.062 133.008 205.758 133.296C205.454 133.584 205.302 133.96 205.302 134.424C205.302 134.872 205.47 135.232 205.806 135.504C206.158 135.76 206.59 135.888 207.102 135.888C207.758 135.888 208.334 135.752 208.83 135.48C209.342 135.192 209.734 134.8 210.006 134.304C210.294 133.808 210.438 133.264 210.438 132.672V129.312C210.438 128.752 210.214 128.288 209.766 127.92C209.334 127.536 208.758 127.344 208.038 127.344C207.366 127.344 206.766 127.528 206.238 127.896C205.726 128.248 205.35 128.72 205.11 129.312L202.542 128.064C202.798 127.376 203.198 126.784 203.742 126.288C204.302 125.776 204.958 125.376 205.71 125.088C206.462 124.8 207.278 124.656 208.158 124.656C209.23 124.656 210.174 124.856 210.99 125.256C211.806 125.64 212.438 126.184 212.886 126.888C213.35 127.576 213.582 128.384 213.582 129.312V138H210.606V135.768L211.278 135.72C210.942 136.28 210.542 136.752 210.078 137.136C209.614 137.504 209.086 137.792 208.494 138C207.902 138.192 207.246 138.288 206.526 138.288ZM216.487 138V124.944H219.631V138H216.487ZM216.487 123.48V120.12H219.631V123.48H216.487ZM222.534 138V124.944H225.486V127.848L225.246 127.416C225.55 126.44 226.022 125.76 226.662 125.376C227.318 124.992 228.102 124.8 229.014 124.8H229.782V127.584H228.654C227.758 127.584 227.038 127.864 226.494 128.424C225.95 128.968 225.678 129.736 225.678 130.728V138H222.534Z" fill="#171921"/>
<path d="M33.386 177V167.352H34.736V168.936L34.556 168.702C34.784 168.246 35.126 167.886 35.582 167.622C36.05 167.358 36.614 167.226 37.274 167.226H37.886V168.576H37.04C36.344 168.576 35.786 168.792 35.366 169.224C34.946 169.656 34.736 170.268 34.736 171.06V177H33.386ZM43.86 177.216C42.96 177.216 42.144 177 41.412 176.568C40.692 176.124 40.122 175.518 39.702 174.75C39.282 173.982 39.072 173.112 39.072 172.14C39.072 171.168 39.276 170.31 39.684 169.566C40.092 168.81 40.644 168.216 41.34 167.784C42.048 167.352 42.84 167.136 43.716 167.136C44.412 167.136 45.03 167.268 45.57 167.532C46.122 167.784 46.59 168.132 46.974 168.576C47.358 169.008 47.652 169.5 47.856 170.052C48.06 170.592 48.162 171.15 48.162 171.726C48.162 171.846 48.156 171.984 48.144 172.14C48.132 172.284 48.114 172.434 48.09 172.59H39.936V171.33H47.316L46.668 171.87C46.776 171.21 46.698 170.622 46.434 170.106C46.182 169.578 45.816 169.164 45.336 168.864C44.856 168.552 44.316 168.396 43.716 168.396C43.116 168.396 42.558 168.552 42.042 168.864C41.538 169.176 41.142 169.614 40.854 170.178C40.566 170.73 40.452 171.39 40.512 172.158C40.452 172.926 40.572 173.598 40.872 174.174C41.184 174.738 41.604 175.176 42.132 175.488C42.672 175.8 43.248 175.956 43.86 175.956C44.568 175.956 45.162 175.788 45.642 175.452C46.122 175.116 46.512 174.696 46.812 174.192L47.964 174.804C47.772 175.236 47.478 175.638 47.082 176.01C46.686 176.37 46.212 176.664 45.66 176.892C45.12 177.108 44.52 177.216 43.86 177.216ZM50.5423 180.6V167.352H51.8923V169.512L51.6763 169.134C52.0603 168.522 52.5703 168.036 53.2063 167.676C53.8543 167.316 54.5923 167.136 55.4203 167.136C56.3323 167.136 57.1423 167.358 57.8503 167.802C58.5703 168.234 59.1343 168.828 59.5423 169.584C59.9623 170.34 60.1723 171.204 60.1723 172.176C60.1723 173.136 59.9623 174 59.5423 174.768C59.1343 175.524 58.5703 176.124 57.8503 176.568C57.1423 177 56.3323 177.216 55.4203 177.216C54.5923 177.216 53.8423 177.03 53.1703 176.658C52.5103 176.274 52.0123 175.734 51.6763 175.038L51.8923 174.84V180.6H50.5423ZM55.3483 175.866C55.9963 175.866 56.5723 175.704 57.0763 175.38C57.5923 175.056 57.9943 174.618 58.2823 174.066C58.5823 173.502 58.7323 172.872 58.7323 172.176C58.7323 171.468 58.5823 170.838 58.2823 170.286C57.9943 169.734 57.5923 169.296 57.0763 168.972C56.5723 168.648 55.9963 168.486 55.3483 168.486C54.7003 168.486 54.1123 168.648 53.5843 168.972C53.0683 169.296 52.6543 169.74 52.3423 170.304C52.0423 170.856 51.8923 171.48 51.8923 172.176C51.8923 172.872 52.0423 173.502 52.3423 174.066C52.6543 174.618 53.0683 175.056 53.5843 175.38C54.1123 175.704 54.7003 175.866 55.3483 175.866ZM65.3381 177.216C64.7261 177.216 64.1801 177.102 63.7001 176.874C63.2201 176.634 62.8421 176.31 62.5661 175.902C62.2901 175.494 62.1521 175.026 62.1521 174.498C62.1521 173.994 62.2601 173.538 62.4761 173.13C62.6921 172.71 63.0281 172.356 63.4841 172.068C63.9401 171.78 64.5221 171.576 65.2301 171.456L69.0101 170.826V172.05L65.5541 172.626C64.8581 172.746 64.3541 172.968 64.0421 173.292C63.7421 173.616 63.5921 174 63.5921 174.444C63.5921 174.876 63.7601 175.242 64.0961 175.542C64.4441 175.842 64.8881 175.992 65.4281 175.992C66.0881 175.992 66.6641 175.854 67.1561 175.578C67.6481 175.29 68.0321 174.906 68.3081 174.426C68.5841 173.946 68.7221 173.412 68.7221 172.824V170.376C68.7221 169.8 68.5121 169.332 68.0921 168.972C67.6721 168.612 67.1261 168.432 66.4541 168.432C65.8661 168.432 65.3501 168.582 64.9061 168.882C64.4621 169.17 64.1321 169.548 63.9161 170.016L62.6921 169.35C62.8721 168.942 63.1541 168.57 63.5381 168.234C63.9341 167.898 64.3841 167.634 64.8881 167.442C65.3921 167.238 65.9141 167.136 66.4541 167.136C67.1621 167.136 67.7861 167.274 68.3261 167.55C68.8781 167.826 69.3041 168.21 69.6041 168.702C69.9161 169.182 70.0721 169.74 70.0721 170.376V177H68.7221V175.074L68.9201 175.272C68.7521 175.632 68.4881 175.962 68.1281 176.262C67.7801 176.55 67.3661 176.784 66.8861 176.964C66.4181 177.132 65.9021 177.216 65.3381 177.216ZM72.8489 177V167.352H74.1989V177H72.8489ZM72.8489 165.57V163.59H74.1989V165.57H72.8489ZM76.9622 177V167.352H78.3122V168.936L78.1322 168.702C78.3602 168.246 78.7022 167.886 79.1582 167.622C79.6262 167.358 80.1902 167.226 80.8502 167.226H81.4622V168.576H80.6162C79.9202 168.576 79.3622 168.792 78.9422 169.224C78.5222 169.656 78.3122 170.268 78.3122 171.06V177H76.9622ZM90.6208 177.216C89.7088 177.216 88.8808 177 88.1368 176.568C87.3928 176.124 86.7988 175.524 86.3548 174.768C85.9228 174 85.7068 173.13 85.7068 172.158C85.7068 171.198 85.9228 170.34 86.3548 169.584C86.7868 168.828 87.3688 168.234 88.1008 167.802C88.8448 167.358 89.6848 167.136 90.6208 167.136C91.5568 167.136 92.3908 167.352 93.1228 167.784C93.8668 168.216 94.4488 168.81 94.8688 169.566C95.3008 170.322 95.5168 171.186 95.5168 172.158C95.5168 173.142 95.2948 174.018 94.8508 174.786C94.4068 175.542 93.8128 176.136 93.0688 176.568C92.3368 177 91.5208 177.216 90.6208 177.216ZM90.6208 175.866C91.2688 175.866 91.8508 175.704 92.3668 175.38C92.8948 175.056 93.3088 174.612 93.6088 174.048C93.9208 173.484 94.0768 172.854 94.0768 172.158C94.0768 171.462 93.9208 170.838 93.6088 170.286C93.3088 169.734 92.8948 169.296 92.3668 168.972C91.8508 168.648 91.2688 168.486 90.6208 168.486C89.9728 168.486 89.3848 168.648 88.8568 168.972C88.3408 169.296 87.9268 169.734 87.6148 170.286C87.3028 170.838 87.1468 171.462 87.1468 172.158C87.1468 172.854 87.3028 173.484 87.6148 174.048C87.9268 174.612 88.3408 175.056 88.8568 175.38C89.3848 175.704 89.9728 175.866 90.6208 175.866ZM98.5362 177V168.702H96.6102V167.352H98.5362V166.488C98.5362 165.816 98.6862 165.252 98.9862 164.796C99.2862 164.328 99.6822 163.974 100.174 163.734C100.666 163.494 101.194 163.374 101.758 163.374C101.878 163.374 102.016 163.386 102.172 163.41C102.328 163.422 102.454 163.44 102.55 163.464V164.688C102.466 164.664 102.352 164.652 102.208 164.652C102.064 164.64 101.962 164.634 101.902 164.634C101.326 164.634 100.846 164.772 100.462 165.048C100.078 165.324 99.8862 165.804 99.8862 166.488V167.352H102.244V168.702H99.8862V177H98.5362ZM109.795 177L106.483 167.352H108.013L110.749 175.794H110.209L112.783 167.352H114.133L116.707 175.794H116.167L118.921 167.352H120.433L117.121 177H115.771L113.269 168.738H113.647L111.145 177H109.795ZM124.453 177.216C123.841 177.216 123.295 177.102 122.815 176.874C122.335 176.634 121.957 176.31 121.681 175.902C121.405 175.494 121.267 175.026 121.267 174.498C121.267 173.994 121.375 173.538 121.591 173.13C121.807 172.71 122.143 172.356 122.599 172.068C123.055 171.78 123.637 171.576 124.345 171.456L128.125 170.826V172.05L124.669 172.626C123.973 172.746 123.469 172.968 123.157 173.292C122.857 173.616 122.707 174 122.707 174.444C122.707 174.876 122.875 175.242 123.211 175.542C123.559 175.842 124.003 175.992 124.543 175.992C125.203 175.992 125.779 175.854 126.271 175.578C126.763 175.29 127.147 174.906 127.423 174.426C127.699 173.946 127.837 173.412 127.837 172.824V170.376C127.837 169.8 127.627 169.332 127.207 168.972C126.787 168.612 126.241 168.432 125.569 168.432C124.981 168.432 124.465 168.582 124.021 168.882C123.577 169.17 123.247 169.548 123.031 170.016L121.807 169.35C121.987 168.942 122.269 168.57 122.653 168.234C123.049 167.898 123.499 167.634 124.003 167.442C124.507 167.238 125.029 167.136 125.569 167.136C126.277 167.136 126.901 167.274 127.441 167.55C127.993 167.826 128.419 168.21 128.719 168.702C129.031 169.182 129.187 169.74 129.187 170.376V177H127.837V175.074L128.035 175.272C127.867 175.632 127.603 175.962 127.243 176.262C126.895 176.55 126.481 176.784 126.001 176.964C125.533 177.132 125.017 177.216 124.453 177.216ZM135.312 177.216C134.388 177.216 133.578 176.982 132.882 176.514C132.186 176.046 131.682 175.41 131.37 174.606L132.504 174.066C132.78 174.654 133.164 175.122 133.656 175.47C134.16 175.818 134.712 175.992 135.312 175.992C135.888 175.992 136.374 175.854 136.77 175.578C137.166 175.29 137.364 174.918 137.364 174.462C137.364 174.126 137.268 173.862 137.076 173.67C136.884 173.466 136.662 173.31 136.41 173.202C136.158 173.094 135.936 173.016 135.744 172.968L134.358 172.572C133.47 172.32 132.828 171.966 132.432 171.51C132.036 171.054 131.838 170.526 131.838 169.926C131.838 169.362 131.982 168.87 132.27 168.45C132.558 168.03 132.948 167.706 133.44 167.478C133.932 167.25 134.478 167.136 135.078 167.136C135.894 167.136 136.632 167.352 137.292 167.784C137.964 168.204 138.438 168.792 138.714 169.548L137.562 170.088C137.322 169.548 136.974 169.128 136.518 168.828C136.074 168.516 135.576 168.36 135.024 168.36C134.484 168.36 134.052 168.498 133.728 168.774C133.404 169.05 133.242 169.398 133.242 169.818C133.242 170.142 133.326 170.4 133.494 170.592C133.662 170.784 133.854 170.928 134.07 171.024C134.298 171.12 134.496 171.192 134.664 171.24L136.266 171.708C137.046 171.936 137.652 172.29 138.084 172.77C138.528 173.25 138.75 173.814 138.75 174.462C138.75 174.99 138.6 175.464 138.3 175.884C138.012 176.304 137.61 176.634 137.094 176.874C136.578 177.102 135.984 177.216 135.312 177.216ZM141.122 177V163.374H142.472V169.224L142.166 169.152C142.406 168.528 142.796 168.036 143.336 167.676C143.888 167.316 144.524 167.136 145.244 167.136C145.928 167.136 146.54 167.292 147.08 167.604C147.632 167.916 148.064 168.348 148.376 168.9C148.7 169.44 148.862 170.052 148.862 170.736V177H147.512V171.258C147.512 170.67 147.404 170.172 147.188 169.764C146.972 169.356 146.672 169.044 146.288 168.828C145.916 168.6 145.49 168.486 145.01 168.486C144.53 168.486 144.098 168.6 143.714 168.828C143.33 169.044 143.024 169.362 142.796 169.782C142.58 170.19 142.472 170.682 142.472 171.258V177H141.122ZM151.441 177V167.352H152.791V177H151.441ZM151.441 165.57V163.59H152.791V165.57H151.441ZM155.554 177V167.352H156.904V169.224L156.598 169.152C156.838 168.528 157.228 168.036 157.768 167.676C158.32 167.316 158.956 167.136 159.676 167.136C160.36 167.136 160.972 167.292 161.512 167.604C162.064 167.916 162.496 168.348 162.808 168.9C163.132 169.44 163.294 170.052 163.294 170.736V177H161.944V171.258C161.944 170.67 161.836 170.172 161.62 169.764C161.416 169.356 161.122 169.044 160.738 168.828C160.366 168.6 159.934 168.486 159.442 168.486C158.95 168.486 158.512 168.6 158.128 168.828C157.744 169.044 157.444 169.362 157.228 169.782C157.012 170.19 156.904 170.682 156.904 171.258V177H155.554ZM170.444 180.96C169.784 180.96 169.172 180.858 168.608 180.654C168.056 180.45 167.576 180.168 167.168 179.808C166.772 179.46 166.466 179.052 166.25 178.584L167.492 177.918C167.684 178.374 168.026 178.77 168.518 179.106C169.01 179.442 169.64 179.61 170.408 179.61C170.996 179.61 171.536 179.496 172.028 179.268C172.52 179.04 172.916 178.704 173.216 178.26C173.516 177.816 173.666 177.27 173.666 176.622V174.48L173.882 174.678C173.546 175.374 173.048 175.914 172.388 176.298C171.728 176.67 171.008 176.856 170.228 176.856C169.328 176.856 168.518 176.64 167.798 176.208C167.078 175.776 166.508 175.194 166.088 174.462C165.68 173.718 165.476 172.896 165.476 171.996C165.476 171.084 165.68 170.262 166.088 169.53C166.508 168.798 167.072 168.216 167.78 167.784C168.5 167.352 169.316 167.136 170.228 167.136C171.008 167.136 171.716 167.316 172.352 167.676C173 168.036 173.51 168.522 173.882 169.134L173.666 169.512V167.352H175.016V176.622C175.016 177.45 174.818 178.188 174.422 178.836C174.038 179.496 173.498 180.012 172.802 180.384C172.118 180.768 171.332 180.96 170.444 180.96ZM170.3 175.506C170.924 175.506 171.488 175.35 171.992 175.038C172.496 174.714 172.898 174.288 173.198 173.76C173.51 173.22 173.666 172.632 173.666 171.996C173.666 171.36 173.51 170.778 173.198 170.25C172.898 169.71 172.496 169.284 171.992 168.972C171.488 168.648 170.924 168.486 170.3 168.486C169.664 168.486 169.088 168.648 168.572 168.972C168.056 169.284 167.648 169.704 167.348 170.232C167.06 170.76 166.916 171.348 166.916 171.996C166.916 172.632 167.06 173.22 167.348 173.76C167.648 174.288 168.05 174.714 168.554 175.038C169.07 175.35 169.652 175.506 170.3 175.506ZM180.849 177V167.352H182.199V169.188L181.983 168.918C182.247 168.354 182.637 167.916 183.153 167.604C183.681 167.292 184.257 167.136 184.881 167.136C185.625 167.136 186.297 167.346 186.897 167.766C187.497 168.186 187.923 168.732 188.175 169.404L187.797 169.422C188.037 168.678 188.451 168.114 189.039 167.73C189.639 167.334 190.299 167.136 191.019 167.136C191.667 167.136 192.261 167.292 192.801 167.604C193.353 167.916 193.791 168.348 194.115 168.9C194.451 169.44 194.619 170.052 194.619 170.736V177H193.269V171.258C193.269 170.67 193.161 170.172 192.945 169.764C192.741 169.356 192.459 169.044 192.099 168.828C191.739 168.6 191.325 168.486 190.857 168.486C190.401 168.486 189.987 168.6 189.615 168.828C189.243 169.044 188.949 169.362 188.733 169.782C188.517 170.19 188.409 170.682 188.409 171.258V177H187.059V171.258C187.059 170.67 186.951 170.172 186.735 169.764C186.531 169.356 186.249 169.044 185.889 168.828C185.529 168.6 185.115 168.486 184.647 168.486C184.179 168.486 183.759 168.6 183.387 168.828C183.027 169.044 182.739 169.362 182.523 169.782C182.307 170.19 182.199 170.682 182.199 171.258V177H180.849ZM199.987 177.216C199.375 177.216 198.829 177.102 198.349 176.874C197.869 176.634 197.491 176.31 197.215 175.902C196.939 175.494 196.801 175.026 196.801 174.498C196.801 173.994 196.909 173.538 197.125 173.13C197.341 172.71 197.677 172.356 198.133 172.068C198.589 171.78 199.171 171.576 199.879 171.456L203.659 170.826V172.05L200.203 172.626C199.507 172.746 199.003 172.968 198.691 173.292C198.391 173.616 198.241 174 198.241 174.444C198.241 174.876 198.409 175.242 198.745 175.542C199.093 175.842 199.537 175.992 200.077 175.992C200.737 175.992 201.313 175.854 201.805 175.578C202.297 175.29 202.681 174.906 202.957 174.426C203.233 173.946 203.371 173.412 203.371 172.824V170.376C203.371 169.8 203.161 169.332 202.741 168.972C202.321 168.612 201.775 168.432 201.103 168.432C200.515 168.432 199.999 168.582 199.555 168.882C199.111 169.17 198.781 169.548 198.565 170.016L197.341 169.35C197.521 168.942 197.803 168.57 198.187 168.234C198.583 167.898 199.033 167.634 199.537 167.442C200.041 167.238 200.563 167.136 201.103 167.136C201.811 167.136 202.435 167.274 202.975 167.55C203.527 167.826 203.953 168.21 204.253 168.702C204.565 169.182 204.721 169.74 204.721 170.376V177H203.371V175.074L203.569 175.272C203.401 175.632 203.137 175.962 202.777 176.262C202.429 176.55 202.015 176.784 201.535 176.964C201.067 177.132 200.551 177.216 199.987 177.216ZM211.907 177.216C210.959 177.216 210.125 176.994 209.405 176.55C208.685 176.106 208.121 175.506 207.713 174.75C207.305 173.982 207.101 173.118 207.101 172.158C207.101 171.198 207.305 170.34 207.713 169.584C208.121 168.828 208.685 168.234 209.405 167.802C210.125 167.358 210.959 167.136 211.907 167.136C212.507 167.136 213.071 167.244 213.599 167.46C214.127 167.676 214.595 167.97 215.003 168.342C215.411 168.702 215.717 169.122 215.921 169.602L214.697 170.232C214.457 169.716 214.091 169.296 213.599 168.972C213.107 168.648 212.543 168.486 211.907 168.486C211.271 168.486 210.695 168.648 210.179 168.972C209.675 169.284 209.273 169.722 208.973 170.286C208.685 170.838 208.541 171.468 208.541 172.176C208.541 172.872 208.685 173.502 208.973 174.066C209.273 174.618 209.675 175.056 210.179 175.38C210.695 175.704 211.271 175.866 211.907 175.866C212.543 175.866 213.101 175.704 213.581 175.38C214.073 175.056 214.445 174.624 214.697 174.084L215.921 174.75C215.717 175.218 215.411 175.638 215.003 176.01C214.595 176.382 214.127 176.676 213.599 176.892C213.071 177.108 212.507 177.216 211.907 177.216ZM218.29 177V163.374H219.64V169.224L219.334 169.152C219.574 168.528 219.964 168.036 220.504 167.676C221.056 167.316 221.692 167.136 222.412 167.136C223.096 167.136 223.708 167.292 224.248 167.604C224.8 167.916 225.232 168.348 225.544 168.9C225.868 169.44 226.03 170.052 226.03 170.736V177H224.68V171.258C224.68 170.67 224.572 170.172 224.356 169.764C224.14 169.356 223.84 169.044 223.456 168.828C223.084 168.6 222.658 168.486 222.178 168.486C221.698 168.486 221.266 168.6 220.882 168.828C220.498 169.044 220.192 169.362 219.964 169.782C219.748 170.19 219.64 170.682 219.64 171.258V177H218.29ZM228.609 177V167.352H229.959V177H228.609ZM228.609 165.57V163.59H229.959V165.57H228.609ZM232.722 177V167.352H234.072V169.224L233.766 169.152C234.006 168.528 234.396 168.036 234.936 167.676C235.488 167.316 236.124 167.136 236.844 167.136C237.528 167.136 238.14 167.292 238.68 167.604C239.232 167.916 239.664 168.348 239.976 168.9C240.3 169.44 240.462 170.052 240.462 170.736V177H239.112V171.258C239.112 170.67 239.004 170.172 238.788 169.764C238.584 169.356 238.29 169.044 237.906 168.828C237.534 168.6 237.102 168.486 236.61 168.486C236.118 168.486 235.68 168.6 235.296 168.828C234.912 169.044 234.612 169.362 234.396 169.782C234.18 170.19 234.072 170.682 234.072 171.258V177H232.722ZM247.432 177.216C246.532 177.216 245.716 177 244.984 176.568C244.264 176.124 243.694 175.518 243.274 174.75C242.854 173.982 242.644 173.112 242.644 172.14C242.644 171.168 242.848 170.31 243.256 169.566C243.664 168.81 244.216 168.216 244.912 167.784C245.62 167.352 246.412 167.136 247.288 167.136C247.984 167.136 248.602 167.268 249.142 167.532C249.694 167.784 250.162 168.132 250.546 168.576C250.93 169.008 251.224 169.5 251.428 170.052C251.632 170.592 251.734 171.15 251.734 171.726C251.734 171.846 251.728 171.984 251.716 172.14C251.704 172.284 251.686 172.434 251.662 172.59H243.508V171.33H250.888L250.24 171.87C250.348 171.21 250.27 170.622 250.006 170.106C249.754 169.578 249.388 169.164 248.908 168.864C248.428 168.552 247.888 168.396 247.288 168.396C246.688 168.396 246.13 168.552 245.614 168.864C245.11 169.176 244.714 169.614 244.426 170.178C244.138 170.73 244.024 171.39 244.084 172.158C244.024 172.926 244.144 173.598 244.444 174.174C244.756 174.738 245.176 175.176 245.704 175.488C246.244 175.8 246.82 175.956 247.432 175.956C248.14 175.956 248.734 175.788 249.214 175.452C249.694 175.116 250.084 174.696 250.384 174.192L251.536 174.804C251.344 175.236 251.05 175.638 250.654 176.01C250.258 176.37 249.784 176.664 249.232 176.892C248.692 177.108 248.092 177.216 247.432 177.216ZM257.463 177.216C256.539 177.216 255.729 176.982 255.033 176.514C254.337 176.046 253.833 175.41 253.521 174.606L254.655 174.066C254.931 174.654 255.315 175.122 255.807 175.47C256.311 175.818 256.863 175.992 257.463 175.992C258.039 175.992 258.525 175.854 258.921 175.578C259.317 175.29 259.515 174.918 259.515 174.462C259.515 174.126 259.419 173.862 259.227 173.67C259.035 173.466 258.813 173.31 258.561 173.202C258.309 173.094 258.087 173.016 257.895 172.968L256.509 172.572C255.621 172.32 254.979 171.966 254.583 171.51C254.187 171.054 253.989 170.526 253.989 169.926C253.989 169.362 254.133 168.87 254.421 168.45C254.709 168.03 255.099 167.706 255.591 167.478C256.083 167.25 256.629 167.136 257.229 167.136C258.045 167.136 258.783 167.352 259.443 167.784C260.115 168.204 260.589 168.792 260.865 169.548L259.713 170.088C259.473 169.548 259.125 169.128 258.669 168.828C258.225 168.516 257.727 168.36 257.175 168.36C256.635 168.36 256.203 168.498 255.879 168.774C255.555 169.05 255.393 169.398 255.393 169.818C255.393 170.142 255.477 170.4 255.645 170.592C255.813 170.784 256.005 170.928 256.221 171.024C256.449 171.12 256.647 171.192 256.815 171.24L258.417 171.708C259.197 171.936 259.803 172.29 260.235 172.77C260.679 173.25 260.901 173.814 260.901 174.462C260.901 174.99 260.751 175.464 260.451 175.884C260.163 176.304 259.761 176.634 259.245 176.874C258.729 177.102 258.135 177.216 257.463 177.216ZM263.327 179.34V178.71C263.687 178.614 263.951 178.428 264.119 178.152C264.287 177.876 264.371 177.492 264.371 177H263.687V175.02H265.127V176.532C265.127 177.312 264.977 177.936 264.677 178.404C264.377 178.884 263.927 179.196 263.327 179.34ZM33.386 205V195.352H34.736V196.936L34.556 196.702C34.784 196.246 35.126 195.886 35.582 195.622C36.05 195.358 36.614 195.226 37.274 195.226H37.886V196.576H37.04C36.344 196.576 35.786 196.792 35.366 197.224C34.946 197.656 34.736 198.268 34.736 199.06V205H33.386ZM43.86 205.216C42.96 205.216 42.144 205 41.412 204.568C40.692 204.124 40.122 203.518 39.702 202.75C39.282 201.982 39.072 201.112 39.072 200.14C39.072 199.168 39.276 198.31 39.684 197.566C40.092 196.81 40.644 196.216 41.34 195.784C42.048 195.352 42.84 195.136 43.716 195.136C44.412 195.136 45.03 195.268 45.57 195.532C46.122 195.784 46.59 196.132 46.974 196.576C47.358 197.008 47.652 197.5 47.856 198.052C48.06 198.592 48.162 199.15 48.162 199.726C48.162 199.846 48.156 199.984 48.144 200.14C48.132 200.284 48.114 200.434 48.09 200.59H39.936V199.33H47.316L46.668 199.87C46.776 199.21 46.698 198.622 46.434 198.106C46.182 197.578 45.816 197.164 45.336 196.864C44.856 196.552 44.316 196.396 43.716 196.396C43.116 196.396 42.558 196.552 42.042 196.864C41.538 197.176 41.142 197.614 40.854 198.178C40.566 198.73 40.452 199.39 40.512 200.158C40.452 200.926 40.572 201.598 40.872 202.174C41.184 202.738 41.604 203.176 42.132 203.488C42.672 203.8 43.248 203.956 43.86 203.956C44.568 203.956 45.162 203.788 45.642 203.452C46.122 203.116 46.512 202.696 46.812 202.192L47.964 202.804C47.772 203.236 47.478 203.638 47.082 204.01C46.686 204.37 46.212 204.664 45.66 204.892C45.12 205.108 44.52 205.216 43.86 205.216ZM51.5322 205V196.702H49.6063V195.352H51.5322V194.488C51.5322 193.816 51.6823 193.252 51.9823 192.796C52.2823 192.328 52.6783 191.974 53.1703 191.734C53.6623 191.494 54.1903 191.374 54.7543 191.374C54.8743 191.374 55.0123 191.386 55.1683 191.41C55.3243 191.422 55.4503 191.44 55.5463 191.464V192.688C55.4623 192.664 55.3483 192.652 55.2043 192.652C55.0603 192.64 54.9583 192.634 54.8983 192.634C54.3223 192.634 53.8423 192.772 53.4583 193.048C53.0743 193.324 52.8823 193.804 52.8823 194.488V195.352H55.2403V196.702H52.8823V205H51.5322ZM57.4329 205V195.352H58.7829V196.936L58.6029 196.702C58.8309 196.246 59.1729 195.886 59.6289 195.622C60.0969 195.358 60.6609 195.226 61.3209 195.226H61.9329V196.576H61.0869C60.3909 196.576 59.8329 196.792 59.4129 197.224C58.9929 197.656 58.7829 198.268 58.7829 199.06V205H57.4329ZM63.5149 205V195.352H64.8649V205H63.5149ZM63.5149 193.57V191.59H64.8649V193.57H63.5149ZM72.2002 208.96C71.5402 208.96 70.9282 208.858 70.3642 208.654C69.8122 208.45 69.3322 208.168 68.9242 207.808C68.5282 207.46 68.2222 207.052 68.0062 206.584L69.2482 205.918C69.4402 206.374 69.7822 206.77 70.2742 207.106C70.7662 207.442 71.3962 207.61 72.1642 207.61C72.7522 207.61 73.2922 207.496 73.7842 207.268C74.2762 207.04 74.6722 206.704 74.9722 206.26C75.2722 205.816 75.4222 205.27 75.4222 204.622V202.48L75.6382 202.678C75.3022 203.374 74.8042 203.914 74.1442 204.298C73.4842 204.67 72.7642 204.856 71.9842 204.856C71.0842 204.856 70.2742 204.64 69.5542 204.208C68.8342 203.776 68.2642 203.194 67.8442 202.462C67.4362 201.718 67.2322 200.896 67.2322 199.996C67.2322 199.084 67.4362 198.262 67.8442 197.53C68.2642 196.798 68.8282 196.216 69.5362 195.784C70.2562 195.352 71.0722 195.136 71.9842 195.136C72.7642 195.136 73.4722 195.316 74.1082 195.676C74.7562 196.036 75.2662 196.522 75.6382 197.134L75.4222 197.512V195.352H76.7722V204.622C76.7722 205.45 76.5742 206.188 76.1782 206.836C75.7942 207.496 75.2542 208.012 74.5582 208.384C73.8742 208.768 73.0882 208.96 72.2002 208.96ZM72.0562 203.506C72.6802 203.506 73.2442 203.35 73.7482 203.038C74.2522 202.714 74.6542 202.288 74.9542 201.76C75.2662 201.22 75.4222 200.632 75.4222 199.996C75.4222 199.36 75.2662 198.778 74.9542 198.25C74.6542 197.71 74.2522 197.284 73.7482 196.972C73.2442 196.648 72.6802 196.486 72.0562 196.486C71.4202 196.486 70.8442 196.648 70.3282 196.972C69.8122 197.284 69.4042 197.704 69.1042 198.232C68.8162 198.76 68.6722 199.348 68.6722 199.996C68.6722 200.632 68.8162 201.22 69.1042 201.76C69.4042 202.288 69.8062 202.714 70.3102 203.038C70.8262 203.35 71.4082 203.506 72.0562 203.506ZM83.9382 205.216C83.0382 205.216 82.2222 205 81.4902 204.568C80.7702 204.124 80.2002 203.518 79.7802 202.75C79.3602 201.982 79.1502 201.112 79.1502 200.14C79.1502 199.168 79.3542 198.31 79.7622 197.566C80.1702 196.81 80.7222 196.216 81.4182 195.784C82.1262 195.352 82.9182 195.136 83.7942 195.136C84.4902 195.136 85.1082 195.268 85.6482 195.532C86.2002 195.784 86.6682 196.132 87.0522 196.576C87.4362 197.008 87.7302 197.5 87.9342 198.052C88.1382 198.592 88.2402 199.15 88.2402 199.726C88.2402 199.846 88.2342 199.984 88.2222 200.14C88.2102 200.284 88.1922 200.434 88.1682 200.59H80.0142V199.33H87.3942L86.7462 199.87C86.8542 199.21 86.7762 198.622 86.5122 198.106C86.2602 197.578 85.8942 197.164 85.4142 196.864C84.9342 196.552 84.3942 196.396 83.7942 196.396C83.1942 196.396 82.6362 196.552 82.1202 196.864C81.6162 197.176 81.2202 197.614 80.9322 198.178C80.6442 198.73 80.5302 199.39 80.5902 200.158C80.5302 200.926 80.6502 201.598 80.9502 202.174C81.2622 202.738 81.6822 203.176 82.2102 203.488C82.7502 203.8 83.3262 203.956 83.9382 203.956C84.6462 203.956 85.2402 203.788 85.7202 203.452C86.2002 203.116 86.5902 202.696 86.8902 202.192L88.0422 202.804C87.8502 203.236 87.5562 203.638 87.1602 204.01C86.7642 204.37 86.2902 204.664 85.7382 204.892C85.1982 205.108 84.5982 205.216 83.9382 205.216ZM90.6204 205V195.352H91.9704V196.936L91.7904 196.702C92.0184 196.246 92.3604 195.886 92.8164 195.622C93.2844 195.358 93.8484 195.226 94.5084 195.226H95.1204V196.576H94.2744C93.5784 196.576 93.0204 196.792 92.6004 197.224C92.1804 197.656 91.9704 198.268 91.9704 199.06V205H90.6204ZM99.4924 205.216C98.8804 205.216 98.3344 205.102 97.8544 204.874C97.3744 204.634 96.9964 204.31 96.7204 203.902C96.4444 203.494 96.3064 203.026 96.3064 202.498C96.3064 201.994 96.4144 201.538 96.6304 201.13C96.8464 200.71 97.1824 200.356 97.6384 200.068C98.0944 199.78 98.6764 199.576 99.3844 199.456L103.164 198.826V200.05L99.7084 200.626C99.0124 200.746 98.5084 200.968 98.1964 201.292C97.8964 201.616 97.7464 202 97.7464 202.444C97.7464 202.876 97.9144 203.242 98.2504 203.542C98.5984 203.842 99.0424 203.992 99.5824 203.992C100.242 203.992 100.818 203.854 101.31 203.578C101.802 203.29 102.186 202.906 102.462 202.426C102.738 201.946 102.876 201.412 102.876 200.824V198.376C102.876 197.8 102.666 197.332 102.246 196.972C101.826 196.612 101.28 196.432 100.608 196.432C100.02 196.432 99.5044 196.582 99.0604 196.882C98.6164 197.17 98.2864 197.548 98.0704 198.016L96.8464 197.35C97.0264 196.942 97.3084 196.57 97.6924 196.234C98.0884 195.898 98.5384 195.634 99.0424 195.442C99.5464 195.238 100.068 195.136 100.608 195.136C101.316 195.136 101.94 195.274 102.48 195.55C103.032 195.826 103.458 196.21 103.758 196.702C104.07 197.182 104.226 197.74 104.226 198.376V205H102.876V203.074L103.074 203.272C102.906 203.632 102.642 203.962 102.282 204.262C101.934 204.55 101.52 204.784 101.04 204.964C100.572 205.132 100.056 205.216 99.4924 205.216ZM110.517 205.108C109.653 205.108 108.987 204.856 108.519 204.352C108.051 203.848 107.817 203.128 107.817 202.192V196.702H106.035V195.352H106.485C106.893 195.352 107.217 195.22 107.457 194.956C107.697 194.68 107.817 194.338 107.817 193.93V193.12H109.167V195.352H111.291V196.702H109.167V202.192C109.167 202.516 109.215 202.804 109.311 203.056C109.407 203.296 109.569 203.488 109.797 203.632C110.037 203.776 110.355 203.848 110.751 203.848C110.847 203.848 110.961 203.842 111.093 203.83C111.225 203.818 111.339 203.806 111.435 203.794V205C111.291 205.036 111.129 205.06 110.949 205.072C110.769 205.096 110.625 205.108 110.517 205.108ZM117.972 205.216C117.06 205.216 116.232 205 115.488 204.568C114.744 204.124 114.15 203.524 113.706 202.768C113.274 202 113.058 201.13 113.058 200.158C113.058 199.198 113.274 198.34 113.706 197.584C114.138 196.828 114.72 196.234 115.452 195.802C116.196 195.358 117.036 195.136 117.972 195.136C118.908 195.136 119.742 195.352 120.474 195.784C121.218 196.216 121.8 196.81 122.22 197.566C122.652 198.322 122.868 199.186 122.868 200.158C122.868 201.142 122.646 202.018 122.202 202.786C121.758 203.542 121.164 204.136 120.42 204.568C119.688 205 118.872 205.216 117.972 205.216ZM117.972 203.866C118.62 203.866 119.202 203.704 119.718 203.38C120.246 203.056 120.66 202.612 120.96 202.048C121.272 201.484 121.428 200.854 121.428 200.158C121.428 199.462 121.272 198.838 120.96 198.286C120.66 197.734 120.246 197.296 119.718 196.972C119.202 196.648 118.62 196.486 117.972 196.486C117.324 196.486 116.736 196.648 116.208 196.972C115.692 197.296 115.278 197.734 114.966 198.286C114.654 198.838 114.498 199.462 114.498 200.158C114.498 200.854 114.654 201.484 114.966 202.048C115.278 202.612 115.692 203.056 116.208 203.38C116.736 203.704 117.324 203.866 117.972 203.866ZM125.249 205V195.352H126.599V196.936L126.419 196.702C126.647 196.246 126.989 195.886 127.445 195.622C127.913 195.358 128.477 195.226 129.137 195.226H129.749V196.576H128.903C128.207 196.576 127.649 196.792 127.229 197.224C126.809 197.656 126.599 198.268 126.599 199.06V205H125.249ZM134.679 205.216C133.755 205.216 132.945 204.982 132.249 204.514C131.553 204.046 131.049 203.41 130.737 202.606L131.871 202.066C132.147 202.654 132.531 203.122 133.023 203.47C133.527 203.818 134.079 203.992 134.679 203.992C135.255 203.992 135.741 203.854 136.137 203.578C136.533 203.29 136.731 202.918 136.731 202.462C136.731 202.126 136.635 201.862 136.443 201.67C136.251 201.466 136.029 201.31 135.777 201.202C135.525 201.094 135.303 201.016 135.111 200.968L133.725 200.572C132.837 200.32 132.195 199.966 131.799 199.51C131.403 199.054 131.205 198.526 131.205 197.926C131.205 197.362 131.349 196.87 131.637 196.45C131.925 196.03 132.315 195.706 132.807 195.478C133.299 195.25 133.845 195.136 134.445 195.136C135.261 195.136 135.999 195.352 136.659 195.784C137.331 196.204 137.805 196.792 138.081 197.548L136.929 198.088C136.689 197.548 136.341 197.128 135.885 196.828C135.441 196.516 134.943 196.36 134.391 196.36C133.851 196.36 133.419 196.498 133.095 196.774C132.771 197.05 132.609 197.398 132.609 197.818C132.609 198.142 132.693 198.4 132.861 198.592C133.029 198.784 133.221 198.928 133.437 199.024C133.665 199.12 133.863 199.192 134.031 199.24L135.633 199.708C136.413 199.936 137.019 200.29 137.451 200.77C137.895 201.25 138.117 201.814 138.117 202.462C138.117 202.99 137.967 203.464 137.667 203.884C137.379 204.304 136.977 204.634 136.461 204.874C135.945 205.102 135.351 205.216 134.679 205.216ZM140.544 207.34V206.71C140.904 206.614 141.168 206.428 141.336 206.152C141.504 205.876 141.588 205.492 141.588 205H140.904V203.02H142.344V204.532C142.344 205.312 142.194 205.936 141.894 206.404C141.594 206.884 141.144 207.196 140.544 207.34ZM147.212 205L152.108 191.59H153.656L158.552 205H157.04L155.888 201.724H149.894L148.724 205H147.212ZM150.362 200.374H155.384L152.666 192.67H153.098L150.362 200.374ZM160.142 205V195.352H161.492V205H160.142ZM160.142 193.57V191.59H161.492V193.57H160.142ZM164.255 205V195.352H165.605V196.936L165.425 196.702C165.653 196.246 165.995 195.886 166.451 195.622C166.919 195.358 167.483 195.226 168.143 195.226H168.755V196.576H167.909C167.213 196.576 166.655 196.792 166.235 197.224C165.815 197.656 165.605 198.268 165.605 199.06V205H164.255ZM177.806 205.216C176.858 205.216 176.024 204.994 175.304 204.55C174.584 204.106 174.02 203.506 173.612 202.75C173.204 201.982 173 201.118 173 200.158C173 199.198 173.204 198.34 173.612 197.584C174.02 196.828 174.584 196.234 175.304 195.802C176.024 195.358 176.858 195.136 177.806 195.136C178.406 195.136 178.97 195.244 179.498 195.46C180.026 195.676 180.494 195.97 180.902 196.342C181.31 196.702 181.616 197.122 181.82 197.602L180.596 198.232C180.356 197.716 179.99 197.296 179.498 196.972C179.006 196.648 178.442 196.486 177.806 196.486C177.17 196.486 176.594 196.648 176.078 196.972C175.574 197.284 175.172 197.722 174.872 198.286C174.584 198.838 174.44 199.468 174.44 200.176C174.44 200.872 174.584 201.502 174.872 202.066C175.172 202.618 175.574 203.056 176.078 203.38C176.594 203.704 177.17 203.866 177.806 203.866C178.442 203.866 179 203.704 179.48 203.38C179.972 203.056 180.344 202.624 180.596 202.084L181.82 202.75C181.616 203.218 181.31 203.638 180.902 204.01C180.494 204.382 180.026 204.676 179.498 204.892C178.97 205.108 178.406 205.216 177.806 205.216ZM188.707 205.216C187.795 205.216 186.967 205 186.223 204.568C185.479 204.124 184.885 203.524 184.441 202.768C184.009 202 183.793 201.13 183.793 200.158C183.793 199.198 184.009 198.34 184.441 197.584C184.873 196.828 185.455 196.234 186.187 195.802C186.931 195.358 187.771 195.136 188.707 195.136C189.643 195.136 190.477 195.352 191.209 195.784C191.953 196.216 192.535 196.81 192.955 197.566C193.387 198.322 193.603 199.186 193.603 200.158C193.603 201.142 193.381 202.018 192.937 202.786C192.493 203.542 191.899 204.136 191.155 204.568C190.423 205 189.607 205.216 188.707 205.216ZM188.707 203.866C189.355 203.866 189.937 203.704 190.453 203.38C190.981 203.056 191.395 202.612 191.695 202.048C192.007 201.484 192.163 200.854 192.163 200.158C192.163 199.462 192.007 198.838 191.695 198.286C191.395 197.734 190.981 197.296 190.453 196.972C189.937 196.648 189.355 196.486 188.707 196.486C188.059 196.486 187.471 196.648 186.943 196.972C186.427 197.296 186.013 197.734 185.701 198.286C185.389 198.838 185.233 199.462 185.233 200.158C185.233 200.854 185.389 201.484 185.701 202.048C186.013 202.612 186.427 203.056 186.943 203.38C187.471 203.704 188.059 203.866 188.707 203.866ZM195.984 205V195.352H197.334V197.224L197.028 197.152C197.268 196.528 197.658 196.036 198.198 195.676C198.75 195.316 199.386 195.136 200.106 195.136C200.79 195.136 201.402 195.292 201.942 195.604C202.494 195.916 202.926 196.348 203.238 196.9C203.562 197.44 203.724 198.052 203.724 198.736V205H202.374V199.258C202.374 198.67 202.266 198.172 202.05 197.764C201.846 197.356 201.552 197.044 201.168 196.828C200.796 196.6 200.364 196.486 199.872 196.486C199.38 196.486 198.942 196.6 198.558 196.828C198.174 197.044 197.874 197.362 197.658 197.782C197.442 198.19 197.334 198.682 197.334 199.258V205H195.984ZM210.658 205.216C209.758 205.216 208.948 205 208.228 204.568C207.508 204.124 206.938 203.524 206.518 202.768C206.11 202 205.906 201.136 205.906 200.176C205.906 199.204 206.11 198.34 206.518 197.584C206.938 196.828 207.502 196.234 208.21 195.802C208.93 195.358 209.746 195.136 210.658 195.136C211.486 195.136 212.224 195.316 212.872 195.676C213.52 196.036 214.03 196.522 214.402 197.134L214.186 197.512V191.374H215.536V205H214.186V202.84L214.402 203.038C214.066 203.734 213.562 204.274 212.89 204.658C212.23 205.03 211.486 205.216 210.658 205.216ZM210.73 203.866C211.378 203.866 211.96 203.704 212.476 203.38C213.004 203.056 213.418 202.618 213.718 202.066C214.03 201.502 214.186 200.872 214.186 200.176C214.186 199.48 214.03 198.856 213.718 198.304C213.418 197.74 213.004 197.296 212.476 196.972C211.96 196.648 211.378 196.486 210.73 196.486C210.094 196.486 209.518 196.648 209.002 196.972C208.486 197.296 208.078 197.734 207.778 198.286C207.49 198.838 207.346 199.468 207.346 200.176C207.346 200.872 207.49 201.502 207.778 202.066C208.078 202.618 208.48 203.056 208.984 203.38C209.5 203.704 210.082 203.866 210.73 203.866ZM218.308 205V195.352H219.658V205H218.308ZM218.308 193.57V191.59H219.658V193.57H218.308ZM226.111 205.108C225.247 205.108 224.581 204.856 224.113 204.352C223.645 203.848 223.411 203.128 223.411 202.192V196.702H221.629V195.352H222.079C222.487 195.352 222.811 195.22 223.051 194.956C223.291 194.68 223.411 194.338 223.411 193.93V193.12H224.761V195.352H226.885V196.702H224.761V202.192C224.761 202.516 224.809 202.804 224.905 203.056C225.001 203.296 225.163 203.488 225.391 203.632C225.631 203.776 225.949 203.848 226.345 203.848C226.441 203.848 226.555 203.842 226.687 203.83C226.819 203.818 226.933 203.806 227.029 203.794V205C226.885 205.036 226.723 205.06 226.543 205.072C226.363 205.096 226.219 205.108 226.111 205.108ZM229.4 205V195.352H230.75V205H229.4ZM229.4 193.57V191.59H230.75V193.57H229.4ZM238.031 205.216C237.119 205.216 236.291 205 235.547 204.568C234.803 204.124 234.209 203.524 233.765 202.768C233.333 202 233.117 201.13 233.117 200.158C233.117 199.198 233.333 198.34 233.765 197.584C234.197 196.828 234.779 196.234 235.511 195.802C236.255 195.358 237.095 195.136 238.031 195.136C238.967 195.136 239.801 195.352 240.533 195.784C241.277 196.216 241.859 196.81 242.279 197.566C242.711 198.322 242.927 199.186 242.927 200.158C242.927 201.142 242.705 202.018 242.261 202.786C241.817 203.542 241.223 204.136 240.479 204.568C239.747 205 238.931 205.216 238.031 205.216ZM238.031 203.866C238.679 203.866 239.261 203.704 239.777 203.38C240.305 203.056 240.719 202.612 241.019 202.048C241.331 201.484 241.487 200.854 241.487 200.158C241.487 199.462 241.331 198.838 241.019 198.286C240.719 197.734 240.305 197.296 239.777 196.972C239.261 196.648 238.679 196.486 238.031 196.486C237.383 196.486 236.795 196.648 236.267 196.972C235.751 197.296 235.337 197.734 235.025 198.286C234.713 198.838 234.557 199.462 234.557 200.158C234.557 200.854 234.713 201.484 235.025 202.048C235.337 202.612 235.751 203.056 236.267 203.38C236.795 203.704 237.383 203.866 238.031 203.866ZM245.308 205V195.352H246.658V197.224L246.352 197.152C246.592 196.528 246.982 196.036 247.522 195.676C248.074 195.316 248.71 195.136 249.43 195.136C250.114 195.136 250.726 195.292 251.266 195.604C251.818 195.916 252.25 196.348 252.562 196.9C252.886 197.44 253.048 198.052 253.048 198.736V205H251.698V199.258C251.698 198.67 251.59 198.172 251.374 197.764C251.17 197.356 250.876 197.044 250.492 196.828C250.12 196.6 249.688 196.486 249.196 196.486C248.704 196.486 248.266 196.6 247.882 196.828C247.498 197.044 247.198 197.362 246.982 197.782C246.766 198.19 246.658 198.682 246.658 199.258V205H245.308ZM260.018 205.216C259.118 205.216 258.302 205 257.57 204.568C256.85 204.124 256.28 203.518 255.86 202.75C255.44 201.982 255.23 201.112 255.23 200.14C255.23 199.168 255.434 198.31 255.842 197.566C256.25 196.81 256.802 196.216 257.498 195.784C258.206 195.352 258.998 195.136 259.874 195.136C260.57 195.136 261.188 195.268 261.728 195.532C262.28 195.784 262.748 196.132 263.132 196.576C263.516 197.008 263.81 197.5 264.014 198.052C264.218 198.592 264.32 199.15 264.32 199.726C264.32 199.846 264.314 199.984 264.302 200.14C264.29 200.284 264.272 200.434 264.248 200.59H256.094V199.33H263.474L262.826 199.87C262.934 199.21 262.856 198.622 262.592 198.106C262.34 197.578 261.974 197.164 261.494 196.864C261.014 196.552 260.474 196.396 259.874 196.396C259.274 196.396 258.716 196.552 258.2 196.864C257.696 197.176 257.3 197.614 257.012 198.178C256.724 198.73 256.61 199.39 256.67 200.158C256.61 200.926 256.73 201.598 257.03 202.174C257.342 202.738 257.762 203.176 258.29 203.488C258.83 203.8 259.406 203.956 260.018 203.956C260.726 203.956 261.32 203.788 261.8 203.452C262.28 203.116 262.67 202.696 262.97 202.192L264.122 202.804C263.93 203.236 263.636 203.638 263.24 204.01C262.844 204.37 262.37 204.664 261.818 204.892C261.278 205.108 260.678 205.216 260.018 205.216ZM266.7 205V195.352H268.05V196.936L267.87 196.702C268.098 196.246 268.44 195.886 268.896 195.622C269.364 195.358 269.928 195.226 270.588 195.226H271.2V196.576H270.354C269.658 196.576 269.1 196.792 268.68 197.224C268.26 197.656 268.05 198.268 268.05 199.06V205H266.7ZM272.116 207.34V206.71C272.476 206.614 272.74 206.428 272.908 206.152C273.076 205.876 273.16 205.492 273.16 205H272.476V203.02H273.916V204.532C273.916 205.312 273.766 205.936 273.466 206.404C273.166 206.884 272.716 207.196 272.116 207.34ZM284.364 205.216C283.464 205.216 282.648 205 281.916 204.568C281.196 204.124 280.626 203.518 280.206 202.75C279.786 201.982 279.576 201.112 279.576 200.14C279.576 199.168 279.78 198.31 280.188 197.566C280.596 196.81 281.148 196.216 281.844 195.784C282.552 195.352 283.344 195.136 284.22 195.136C284.916 195.136 285.534 195.268 286.074 195.532C286.626 195.784 287.094 196.132 287.478 196.576C287.862 197.008 288.156 197.5 288.36 198.052C288.564 198.592 288.666 199.15 288.666 199.726C288.666 199.846 288.66 199.984 288.648 200.14C288.636 200.284 288.618 200.434 288.594 200.59H280.44V199.33H287.82L287.172 199.87C287.28 199.21 287.202 198.622 286.938 198.106C286.686 197.578 286.32 197.164 285.84 196.864C285.36 196.552 284.82 196.396 284.22 196.396C283.62 196.396 283.062 196.552 282.546 196.864C282.042 197.176 281.646 197.614 281.358 198.178C281.07 198.73 280.956 199.39 281.016 200.158C280.956 200.926 281.076 201.598 281.376 202.174C281.688 202.738 282.108 203.176 282.636 203.488C283.176 203.8 283.752 203.956 284.364 203.956C285.072 203.956 285.666 203.788 286.146 203.452C286.626 203.116 287.016 202.696 287.316 202.192L288.468 202.804C288.276 203.236 287.982 203.638 287.586 204.01C287.19 204.37 286.716 204.664 286.164 204.892C285.624 205.108 285.024 205.216 284.364 205.216ZM294.736 205.108C293.872 205.108 293.206 204.856 292.738 204.352C292.27 203.848 292.036 203.128 292.036 202.192V196.702H290.254V195.352H290.704C291.112 195.352 291.436 195.22 291.676 194.956C291.916 194.68 292.036 194.338 292.036 193.93V193.12H293.386V195.352H295.51V196.702H293.386V202.192C293.386 202.516 293.434 202.804 293.53 203.056C293.626 203.296 293.788 203.488 294.016 203.632C294.256 203.776 294.574 203.848 294.97 203.848C295.066 203.848 295.18 203.842 295.312 203.83C295.444 203.818 295.558 203.806 295.654 203.794V205C295.51 205.036 295.348 205.06 295.168 205.072C294.988 205.096 294.844 205.108 294.736 205.108ZM302.083 205.216C301.135 205.216 300.301 204.994 299.581 204.55C298.861 204.106 298.297 203.506 297.889 202.75C297.481 201.982 297.277 201.118 297.277 200.158C297.277 199.198 297.481 198.34 297.889 197.584C298.297 196.828 298.861 196.234 299.581 195.802C300.301 195.358 301.135 195.136 302.083 195.136C302.683 195.136 303.247 195.244 303.775 195.46C304.303 195.676 304.771 195.97 305.179 196.342C305.587 196.702 305.893 197.122 306.097 197.602L304.873 198.232C304.633 197.716 304.267 197.296 303.775 196.972C303.283 196.648 302.719 196.486 302.083 196.486C301.447 196.486 300.871 196.648 300.355 196.972C299.851 197.284 299.449 197.722 299.149 198.286C298.861 198.838 298.717 199.468 298.717 200.176C298.717 200.872 298.861 201.502 299.149 202.066C299.449 202.618 299.851 203.056 300.355 203.38C300.871 203.704 301.447 203.866 302.083 203.866C302.719 203.866 303.277 203.704 303.757 203.38C304.249 203.056 304.621 202.624 304.873 202.084L306.097 202.75C305.893 203.218 305.587 203.638 305.179 204.01C304.771 204.382 304.303 204.676 303.775 204.892C303.247 205.108 302.683 205.216 302.083 205.216Z" fill="#545971"/>
</svg>
