<svg width="360" height="244" viewBox="0 0 360 244" fill="none" xmlns="http://www.w3.org/2000/svg">
<rect x="32" y="32" width="64" height="64" rx="20" fill="#142257"/>
<path d="M49 53C49 52.4477 49.4477 52 50 52H62.0816C62.6339 52 63.0816 52.4477 63.0816 53V57.7568C63.0816 58.309 62.6339 58.7568 62.0816 58.7568H50C49.4477 58.7568 49 58.309 49 57.7568V53Z" fill="white"/>
<path d="M49 62.1216C49 61.5693 49.4477 61.1216 50 61.1216H55.9592C56.5115 61.1216 56.9592 61.5693 56.9592 62.1216V66.8784C56.9592 67.4307 56.5115 67.8784 55.9592 67.8784H50C49.4477 67.8784 49 67.4307 49 66.8784V62.1216Z" fill="white"/>
<path d="M58.7959 62.1216C58.7959 61.5693 59.2436 61.1216 59.7959 61.1216H71.8776C72.4298 61.1216 72.8776 61.5693 72.8776 62.1216V66.8784C72.8776 67.4307 72.4298 67.8784 71.8776 67.8784H59.7959C59.2436 67.8784 58.7959 67.4307 58.7959 66.8784V62.1216Z" fill="white"/>
<path d="M49 71.2432C49 70.691 49.4477 70.2432 50 70.2432H62.0816C62.6339 70.2432 63.0816 70.691 63.0816 71.2432V76C63.0816 76.5523 62.6339 77 62.0816 77H50C49.4477 77 49 76.5523 49 76V71.2432Z" fill="white"/>
<path d="M64.9184 71.2432C64.9184 70.691 65.3661 70.2432 65.9184 70.2432H78C78.5523 70.2432 79 70.691 79 71.2432V76C79 76.5523 78.5523 77 78 77H65.9184C65.3661 77 64.9184 76.5523 64.9184 76V71.2432Z" fill="white"/>
<path d="M33.728 138V120.12H36.848L43.544 129.216H42.056L48.608 120.12H51.728V138H48.44V123.84L49.712 124.152L42.92 133.2H42.536L35.912 124.152L36.992 123.84V138H33.728ZM61.2699 138.288C59.9899 138.288 58.8219 137.992 57.7659 137.4C56.7259 136.808 55.8939 136 55.2699 134.976C54.6619 133.952 54.3579 132.784 54.3579 131.472C54.3579 130.16 54.6619 128.992 55.2699 127.968C55.8939 126.944 56.7259 126.136 57.7659 125.544C58.8059 124.952 59.9739 124.656 61.2699 124.656C62.5499 124.656 63.7099 124.952 64.7499 125.544C65.7899 126.136 66.6139 126.944 67.2219 127.968C67.8459 128.976 68.1579 130.144 68.1579 131.472C68.1579 132.784 67.8459 133.952 67.2219 134.976C66.5979 136 65.7659 136.808 64.7259 137.4C63.6859 137.992 62.5339 138.288 61.2699 138.288ZM61.2699 135.408C61.9739 135.408 62.5899 135.24 63.1179 134.904C63.6619 134.568 64.0859 134.104 64.3899 133.512C64.7099 132.904 64.8699 132.224 64.8699 131.472C64.8699 130.704 64.7099 130.032 64.3899 129.456C64.0859 128.864 63.6619 128.4 63.1179 128.064C62.5899 127.712 61.9739 127.536 61.2699 127.536C60.5499 127.536 59.9179 127.712 59.3739 128.064C58.8299 128.4 58.3979 128.864 58.0779 129.456C57.7739 130.032 57.6219 130.704 57.6219 131.472C57.6219 132.224 57.7739 132.904 58.0779 133.512C58.3979 134.104 58.8299 134.568 59.3739 134.904C59.9179 135.24 60.5499 135.408 61.2699 135.408ZM70.5421 138V119.832H73.6861V138H70.5421ZM82.661 138.288C81.397 138.288 80.269 137.992 79.277 137.4C78.285 136.792 77.501 135.968 76.925 134.928C76.349 133.888 76.061 132.736 76.061 131.472C76.061 130.192 76.349 129.04 76.925 128.016C77.501 126.992 78.285 126.176 79.277 125.568C80.285 124.96 81.405 124.656 82.637 124.656C83.629 124.656 84.509 124.856 85.277 125.256C86.061 125.64 86.677 126.184 87.125 126.888L86.645 127.536V119.832H89.789V138H86.813V135.48L87.149 136.104C86.701 136.808 86.077 137.352 85.277 137.736C84.477 138.104 83.605 138.288 82.661 138.288ZM82.997 135.408C83.717 135.408 84.349 135.24 84.893 134.904C85.437 134.568 85.861 134.104 86.165 133.512C86.485 132.92 86.645 132.24 86.645 131.472C86.645 130.72 86.485 130.048 86.165 129.456C85.861 128.848 85.437 128.376 84.893 128.04C84.349 127.704 83.717 127.536 82.997 127.536C82.293 127.536 81.661 127.712 81.101 128.064C80.541 128.4 80.101 128.864 79.781 129.456C79.477 130.032 79.325 130.704 79.325 131.472C79.325 132.24 79.477 132.92 79.781 133.512C80.101 134.104 80.541 134.568 81.101 134.904C81.661 135.24 82.293 135.408 82.997 135.408ZM97.2436 138V120.12H103.892C105.108 120.12 106.18 120.344 107.108 120.792C108.052 121.224 108.788 121.864 109.316 122.712C109.844 123.544 110.108 124.56 110.108 125.76C110.108 126.992 109.812 128.04 109.22 128.904C108.644 129.768 107.86 130.408 106.868 130.824L110.972 138H107.276L102.884 130.152L104.996 131.4H100.508V138H97.2436ZM100.508 128.52H103.94C104.532 128.52 105.044 128.408 105.476 128.184C105.908 127.944 106.244 127.616 106.484 127.2C106.724 126.784 106.844 126.304 106.844 125.76C106.844 125.2 106.724 124.72 106.484 124.32C106.244 123.904 105.908 123.584 105.476 123.36C105.044 123.12 104.532 123 103.94 123H100.508V128.52ZM118.312 138.288C116.968 138.288 115.792 137.984 114.784 137.376C113.776 136.768 112.992 135.944 112.432 134.904C111.872 133.864 111.592 132.712 111.592 131.448C111.592 130.136 111.872 128.976 112.432 127.968C113.008 126.944 113.784 126.136 114.76 125.544C115.752 124.952 116.856 124.656 118.072 124.656C119.096 124.656 119.992 124.824 120.76 125.16C121.544 125.496 122.208 125.96 122.752 126.552C123.296 127.144 123.712 127.824 124 128.592C124.288 129.344 124.432 130.16 124.432 131.04C124.432 131.264 124.416 131.496 124.384 131.736C124.368 131.976 124.328 132.184 124.264 132.36H114.184V129.96H122.488L121 131.088C121.144 130.352 121.104 129.696 120.88 129.12C120.672 128.544 120.32 128.088 119.824 127.752C119.344 127.416 118.76 127.248 118.072 127.248C117.416 127.248 116.832 127.416 116.32 127.752C115.808 128.072 115.416 128.552 115.144 129.192C114.888 129.816 114.792 130.576 114.856 131.472C114.792 132.272 114.896 132.984 115.168 133.608C115.456 134.216 115.872 134.688 116.416 135.024C116.976 135.36 117.616 135.528 118.336 135.528C119.056 135.528 119.664 135.376 120.16 135.072C120.672 134.768 121.072 134.36 121.36 133.848L123.904 135.096C123.648 135.72 123.248 136.272 122.704 136.752C122.16 137.232 121.512 137.608 120.76 137.88C120.024 138.152 119.208 138.288 118.312 138.288ZM126.816 138V124.944H129.768V127.968L129.432 127.464C129.672 126.52 130.152 125.816 130.872 125.352C131.592 124.888 132.44 124.656 133.416 124.656C134.488 124.656 135.432 124.936 136.248 125.496C137.064 126.056 137.592 126.792 137.832 127.704L136.944 127.776C137.344 126.736 137.944 125.96 138.744 125.448C139.544 124.92 140.464 124.656 141.504 124.656C142.432 124.656 143.256 124.864 143.976 125.28C144.712 125.696 145.288 126.28 145.704 127.032C146.12 127.768 146.328 128.624 146.328 129.6V138H143.184V130.344C143.184 129.768 143.08 129.272 142.872 128.856C142.664 128.44 142.376 128.12 142.008 127.896C141.64 127.656 141.192 127.536 140.664 127.536C140.168 127.536 139.728 127.656 139.344 127.896C138.96 128.12 138.664 128.44 138.456 128.856C138.248 129.272 138.144 129.768 138.144 130.344V138H135V130.344C135 129.768 134.896 129.272 134.688 128.856C134.48 128.44 134.184 128.12 133.8 127.896C133.432 127.656 132.992 127.536 132.48 127.536C131.984 127.536 131.544 127.656 131.16 127.896C130.776 128.12 130.48 128.44 130.272 128.856C130.064 129.272 129.96 129.768 129.96 130.344V138H126.816ZM155.371 138.288C154.091 138.288 152.923 137.992 151.867 137.4C150.827 136.808 149.995 136 149.371 134.976C148.763 133.952 148.459 132.784 148.459 131.472C148.459 130.16 148.763 128.992 149.371 127.968C149.995 126.944 150.827 126.136 151.867 125.544C152.907 124.952 154.075 124.656 155.371 124.656C156.651 124.656 157.811 124.952 158.851 125.544C159.891 126.136 160.715 126.944 161.323 127.968C161.947 128.976 162.259 130.144 162.259 131.472C162.259 132.784 161.947 133.952 161.323 134.976C160.699 136 159.867 136.808 158.827 137.4C157.787 137.992 156.635 138.288 155.371 138.288ZM155.371 135.408C156.075 135.408 156.691 135.24 157.219 134.904C157.763 134.568 158.187 134.104 158.491 133.512C158.811 132.904 158.971 132.224 158.971 131.472C158.971 130.704 158.811 130.032 158.491 129.456C158.187 128.864 157.763 128.4 157.219 128.064C156.691 127.712 156.075 127.536 155.371 127.536C154.651 127.536 154.019 127.712 153.475 128.064C152.931 128.4 152.499 128.864 152.179 129.456C151.875 130.032 151.723 130.704 151.723 131.472C151.723 132.224 151.875 132.904 152.179 133.512C152.499 134.104 152.931 134.568 153.475 134.904C154.019 135.24 154.651 135.408 155.371 135.408ZM168.345 138L163.209 124.944H166.641L170.361 135.216H169.089L172.833 124.944H176.265L171.129 138H168.345ZM181.494 138.288C180.582 138.288 179.79 138.136 179.118 137.832C178.446 137.528 177.926 137.096 177.558 136.536C177.19 135.96 177.006 135.296 177.006 134.544C177.006 133.824 177.166 133.184 177.486 132.624C177.806 132.048 178.302 131.568 178.974 131.184C179.646 130.8 180.494 130.528 181.518 130.368L185.79 129.672V132.072L182.118 132.696C181.494 132.808 181.03 133.008 180.726 133.296C180.422 133.584 180.27 133.96 180.27 134.424C180.27 134.872 180.438 135.232 180.774 135.504C181.126 135.76 181.558 135.888 182.07 135.888C182.726 135.888 183.302 135.752 183.798 135.48C184.31 135.192 184.702 134.8 184.974 134.304C185.262 133.808 185.406 133.264 185.406 132.672V129.312C185.406 128.752 185.182 128.288 184.734 127.92C184.302 127.536 183.726 127.344 183.006 127.344C182.334 127.344 181.734 127.528 181.206 127.896C180.694 128.248 180.318 128.72 180.078 129.312L177.51 128.064C177.766 127.376 178.166 126.784 178.71 126.288C179.27 125.776 179.926 125.376 180.678 125.088C181.43 124.8 182.246 124.656 183.126 124.656C184.198 124.656 185.142 124.856 185.958 125.256C186.774 125.64 187.406 126.184 187.854 126.888C188.318 127.576 188.55 128.384 188.55 129.312V138H185.574V135.768L186.246 135.72C185.91 136.28 185.51 136.752 185.046 137.136C184.582 137.504 184.054 137.792 183.462 138C182.87 138.192 182.214 138.288 181.494 138.288ZM191.456 138V119.832H194.6V138H191.456Z" fill="#171921"/>
<path d="M33.584 177V163.59H38.192C39.068 163.59 39.836 163.764 40.496 164.112C41.156 164.448 41.666 164.928 42.026 165.552C42.398 166.164 42.584 166.878 42.584 167.694C42.584 168.642 42.332 169.452 41.828 170.124C41.336 170.796 40.664 171.27 39.812 171.546L42.944 177H41.252L37.976 171.222L38.948 171.78H35.024V177H33.584ZM35.024 170.43H38.264C38.84 170.43 39.344 170.322 39.776 170.106C40.208 169.878 40.544 169.56 40.784 169.152C41.024 168.732 41.144 168.24 41.144 167.676C41.144 167.112 41.024 166.626 40.784 166.218C40.544 165.81 40.208 165.498 39.776 165.282C39.344 165.054 38.84 164.94 38.264 164.94H35.024V170.43ZM48.7643 177.216C47.8643 177.216 47.0483 177 46.3163 176.568C45.5963 176.124 45.0263 175.518 44.6063 174.75C44.1863 173.982 43.9763 173.112 43.9763 172.14C43.9763 171.168 44.1803 170.31 44.5883 169.566C44.9963 168.81 45.5483 168.216 46.2443 167.784C46.9523 167.352 47.7443 167.136 48.6203 167.136C49.3163 167.136 49.9343 167.268 50.4743 167.532C51.0263 167.784 51.4943 168.132 51.8783 168.576C52.2623 169.008 52.5563 169.5 52.7603 170.052C52.9643 170.592 53.0663 171.15 53.0663 171.726C53.0663 171.846 53.0603 171.984 53.0483 172.14C53.0363 172.284 53.0183 172.434 52.9943 172.59H44.8403V171.33H52.2203L51.5723 171.87C51.6803 171.21 51.6023 170.622 51.3383 170.106C51.0863 169.578 50.7203 169.164 50.2403 168.864C49.7603 168.552 49.2203 168.396 48.6203 168.396C48.0203 168.396 47.4623 168.552 46.9463 168.864C46.4423 169.176 46.0463 169.614 45.7583 170.178C45.4703 170.73 45.3563 171.39 45.4163 172.158C45.3563 172.926 45.4763 173.598 45.7763 174.174C46.0883 174.738 46.5083 175.176 47.0363 175.488C47.5763 175.8 48.1523 175.956 48.7643 175.956C49.4723 175.956 50.0663 175.788 50.5463 175.452C51.0263 175.116 51.4163 174.696 51.7163 174.192L52.8683 174.804C52.6763 175.236 52.3823 175.638 51.9863 176.01C51.5903 176.37 51.1163 176.664 50.5643 176.892C50.0243 177.108 49.4243 177.216 48.7643 177.216ZM55.4465 177V167.352H56.7965V169.188L56.5805 168.918C56.8445 168.354 57.2345 167.916 57.7505 167.604C58.2785 167.292 58.8545 167.136 59.4785 167.136C60.2225 167.136 60.8945 167.346 61.4945 167.766C62.0945 168.186 62.5205 168.732 62.7725 169.404L62.3945 169.422C62.6345 168.678 63.0485 168.114 63.6365 167.73C64.2365 167.334 64.8965 167.136 65.6165 167.136C66.2645 167.136 66.8585 167.292 67.3985 167.604C67.9505 167.916 68.3885 168.348 68.7125 168.9C69.0485 169.44 69.2165 170.052 69.2165 170.736V177H67.8665V171.258C67.8665 170.67 67.7585 170.172 67.5425 169.764C67.3385 169.356 67.0565 169.044 66.6965 168.828C66.3365 168.6 65.9225 168.486 65.4545 168.486C64.9985 168.486 64.5845 168.6 64.2125 168.828C63.8405 169.044 63.5465 169.362 63.3305 169.782C63.1145 170.19 63.0065 170.682 63.0065 171.258V177H61.6565V171.258C61.6565 170.67 61.5485 170.172 61.3325 169.764C61.1285 169.356 60.8465 169.044 60.4865 168.828C60.1265 168.6 59.7125 168.486 59.2445 168.486C58.7765 168.486 58.3565 168.6 57.9845 168.828C57.6245 169.044 57.3365 169.362 57.1205 169.782C56.9045 170.19 56.7965 170.682 56.7965 171.258V177H55.4465ZM76.3122 177.216C75.4002 177.216 74.5722 177 73.8282 176.568C73.0842 176.124 72.4902 175.524 72.0462 174.768C71.6142 174 71.3982 173.13 71.3982 172.158C71.3982 171.198 71.6142 170.34 72.0462 169.584C72.4782 168.828 73.0602 168.234 73.7922 167.802C74.5362 167.358 75.3762 167.136 76.3122 167.136C77.2482 167.136 78.0822 167.352 78.8142 167.784C79.5582 168.216 80.1402 168.81 80.5602 169.566C80.9922 170.322 81.2082 171.186 81.2082 172.158C81.2082 173.142 80.9862 174.018 80.5422 174.786C80.0982 175.542 79.5042 176.136 78.7602 176.568C78.0282 177 77.2122 177.216 76.3122 177.216ZM76.3122 175.866C76.9602 175.866 77.5422 175.704 78.0582 175.38C78.5862 175.056 79.0002 174.612 79.3002 174.048C79.6122 173.484 79.7682 172.854 79.7682 172.158C79.7682 171.462 79.6122 170.838 79.3002 170.286C79.0002 169.734 78.5862 169.296 78.0582 168.972C77.5422 168.648 76.9602 168.486 76.3122 168.486C75.6642 168.486 75.0762 168.648 74.5482 168.972C74.0322 169.296 73.6182 169.734 73.3062 170.286C72.9942 170.838 72.8382 171.462 72.8382 172.158C72.8382 172.854 72.9942 173.484 73.3062 174.048C73.6182 174.612 74.0322 175.056 74.5482 175.38C75.0762 175.704 75.6642 175.866 76.3122 175.866ZM85.9873 177L82.2253 167.352H83.7373L86.9053 175.812H86.4193L89.6053 167.352H91.1353L87.3373 177H85.9873ZM92.7122 177V167.352H94.0622V177H92.7122ZM92.7122 165.57V163.59H94.0622V165.57H92.7122ZM96.8255 177V167.352H98.1755V169.224L97.8695 169.152C98.1095 168.528 98.4995 168.036 99.0395 167.676C99.5915 167.316 100.227 167.136 100.947 167.136C101.631 167.136 102.243 167.292 102.783 167.604C103.335 167.916 103.767 168.348 104.079 168.9C104.403 169.44 104.565 170.052 104.565 170.736V177H103.215V171.258C103.215 170.67 103.107 170.172 102.891 169.764C102.687 169.356 102.393 169.044 102.009 168.828C101.637 168.6 101.205 168.486 100.713 168.486C100.221 168.486 99.7835 168.6 99.3995 168.828C99.0155 169.044 98.7155 169.362 98.4995 169.782C98.2835 170.19 98.1755 170.682 98.1755 171.258V177H96.8255ZM111.716 180.96C111.056 180.96 110.444 180.858 109.88 180.654C109.328 180.45 108.848 180.168 108.44 179.808C108.044 179.46 107.738 179.052 107.522 178.584L108.764 177.918C108.956 178.374 109.298 178.77 109.79 179.106C110.282 179.442 110.912 179.61 111.68 179.61C112.268 179.61 112.808 179.496 113.3 179.268C113.792 179.04 114.188 178.704 114.488 178.26C114.788 177.816 114.938 177.27 114.938 176.622V174.48L115.154 174.678C114.818 175.374 114.32 175.914 113.66 176.298C113 176.67 112.28 176.856 111.5 176.856C110.6 176.856 109.79 176.64 109.07 176.208C108.35 175.776 107.78 175.194 107.36 174.462C106.952 173.718 106.748 172.896 106.748 171.996C106.748 171.084 106.952 170.262 107.36 169.53C107.78 168.798 108.344 168.216 109.052 167.784C109.772 167.352 110.588 167.136 111.5 167.136C112.28 167.136 112.988 167.316 113.624 167.676C114.272 168.036 114.782 168.522 115.154 169.134L114.938 169.512V167.352H116.288V176.622C116.288 177.45 116.09 178.188 115.694 178.836C115.31 179.496 114.77 180.012 114.074 180.384C113.39 180.768 112.604 180.96 111.716 180.96ZM111.572 175.506C112.196 175.506 112.76 175.35 113.264 175.038C113.768 174.714 114.17 174.288 114.47 173.76C114.782 173.22 114.938 172.632 114.938 171.996C114.938 171.36 114.782 170.778 114.47 170.25C114.17 169.71 113.768 169.284 113.264 168.972C112.76 168.648 112.196 168.486 111.572 168.486C110.936 168.486 110.36 168.648 109.844 168.972C109.328 169.284 108.92 169.704 108.62 170.232C108.332 170.76 108.188 171.348 108.188 171.996C108.188 172.632 108.332 173.22 108.62 173.76C108.92 174.288 109.322 174.714 109.826 175.038C110.342 175.35 110.924 175.506 111.572 175.506ZM124.91 177.216C124.298 177.216 123.752 177.102 123.272 176.874C122.792 176.634 122.414 176.31 122.138 175.902C121.862 175.494 121.724 175.026 121.724 174.498C121.724 173.994 121.832 173.538 122.048 173.13C122.264 172.71 122.6 172.356 123.056 172.068C123.512 171.78 124.094 171.576 124.802 171.456L128.582 170.826V172.05L125.126 172.626C124.43 172.746 123.926 172.968 123.614 173.292C123.314 173.616 123.164 174 123.164 174.444C123.164 174.876 123.332 175.242 123.668 175.542C124.016 175.842 124.46 175.992 125 175.992C125.66 175.992 126.236 175.854 126.728 175.578C127.22 175.29 127.604 174.906 127.88 174.426C128.156 173.946 128.294 173.412 128.294 172.824V170.376C128.294 169.8 128.084 169.332 127.664 168.972C127.244 168.612 126.698 168.432 126.026 168.432C125.438 168.432 124.922 168.582 124.478 168.882C124.034 169.17 123.704 169.548 123.488 170.016L122.264 169.35C122.444 168.942 122.726 168.57 123.11 168.234C123.506 167.898 123.956 167.634 124.46 167.442C124.964 167.238 125.486 167.136 126.026 167.136C126.734 167.136 127.358 167.274 127.898 167.55C128.45 167.826 128.876 168.21 129.176 168.702C129.488 169.182 129.644 169.74 129.644 170.376V177H128.294V175.074L128.492 175.272C128.324 175.632 128.06 175.962 127.7 176.262C127.352 176.55 126.938 176.784 126.458 176.964C125.99 177.132 125.474 177.216 124.91 177.216ZM132.421 177V167.352H133.771V169.224L133.465 169.152C133.705 168.528 134.095 168.036 134.635 167.676C135.187 167.316 135.823 167.136 136.543 167.136C137.227 167.136 137.839 167.292 138.379 167.604C138.931 167.916 139.363 168.348 139.675 168.9C139.999 169.44 140.161 170.052 140.161 170.736V177H138.811V171.258C138.811 170.67 138.703 170.172 138.487 169.764C138.283 169.356 137.989 169.044 137.605 168.828C137.233 168.6 136.801 168.486 136.309 168.486C135.817 168.486 135.379 168.6 134.995 168.828C134.611 169.044 134.311 169.362 134.095 169.782C133.879 170.19 133.771 170.682 133.771 171.258V177H132.421ZM147.096 177.216C146.196 177.216 145.386 177 144.666 176.568C143.946 176.124 143.376 175.524 142.956 174.768C142.548 174 142.344 173.136 142.344 172.176C142.344 171.204 142.548 170.34 142.956 169.584C143.376 168.828 143.94 168.234 144.648 167.802C145.368 167.358 146.184 167.136 147.096 167.136C147.924 167.136 148.662 167.316 149.31 167.676C149.958 168.036 150.468 168.522 150.84 169.134L150.624 169.512V163.374H151.974V177H150.624V174.84L150.84 175.038C150.504 175.734 150 176.274 149.328 176.658C148.668 177.03 147.924 177.216 147.096 177.216ZM147.168 175.866C147.816 175.866 148.398 175.704 148.914 175.38C149.442 175.056 149.856 174.618 150.156 174.066C150.468 173.502 150.624 172.872 150.624 172.176C150.624 171.48 150.468 170.856 150.156 170.304C149.856 169.74 149.442 169.296 148.914 168.972C148.398 168.648 147.816 168.486 147.168 168.486C146.532 168.486 145.956 168.648 145.44 168.972C144.924 169.296 144.516 169.734 144.216 170.286C143.928 170.838 143.784 171.468 143.784 172.176C143.784 172.872 143.928 173.502 144.216 174.066C144.516 174.618 144.918 175.056 145.422 175.38C145.938 175.704 146.52 175.866 147.168 175.866ZM162.214 177.216C161.266 177.216 160.432 176.994 159.712 176.55C158.992 176.106 158.428 175.506 158.02 174.75C157.612 173.982 157.408 173.118 157.408 172.158C157.408 171.198 157.612 170.34 158.02 169.584C158.428 168.828 158.992 168.234 159.712 167.802C160.432 167.358 161.266 167.136 162.214 167.136C162.814 167.136 163.378 167.244 163.906 167.46C164.434 167.676 164.902 167.97 165.31 168.342C165.718 168.702 166.024 169.122 166.228 169.602L165.004 170.232C164.764 169.716 164.398 169.296 163.906 168.972C163.414 168.648 162.85 168.486 162.214 168.486C161.578 168.486 161.002 168.648 160.486 168.972C159.982 169.284 159.58 169.722 159.28 170.286C158.992 170.838 158.848 171.468 158.848 172.176C158.848 172.872 158.992 173.502 159.28 174.066C159.58 174.618 159.982 175.056 160.486 175.38C161.002 175.704 161.578 175.866 162.214 175.866C162.85 175.866 163.408 175.704 163.888 175.38C164.38 175.056 164.752 174.624 165.004 174.084L166.228 174.75C166.024 175.218 165.718 175.638 165.31 176.01C164.902 176.382 164.434 176.676 163.906 176.892C163.378 177.108 162.814 177.216 162.214 177.216ZM168.597 177V163.374H169.947V177H168.597ZM177.102 177.216C176.202 177.216 175.386 177 174.654 176.568C173.934 176.124 173.364 175.518 172.944 174.75C172.524 173.982 172.314 173.112 172.314 172.14C172.314 171.168 172.518 170.31 172.926 169.566C173.334 168.81 173.886 168.216 174.582 167.784C175.29 167.352 176.082 167.136 176.958 167.136C177.654 167.136 178.272 167.268 178.812 167.532C179.364 167.784 179.832 168.132 180.216 168.576C180.6 169.008 180.894 169.5 181.098 170.052C181.302 170.592 181.404 171.15 181.404 171.726C181.404 171.846 181.398 171.984 181.386 172.14C181.374 172.284 181.356 172.434 181.332 172.59H173.178V171.33H180.558L179.91 171.87C180.018 171.21 179.94 170.622 179.676 170.106C179.424 169.578 179.058 169.164 178.578 168.864C178.098 168.552 177.558 168.396 176.958 168.396C176.358 168.396 175.8 168.552 175.284 168.864C174.78 169.176 174.384 169.614 174.096 170.178C173.808 170.73 173.694 171.39 173.754 172.158C173.694 172.926 173.814 173.598 174.114 174.174C174.426 174.738 174.846 175.176 175.374 175.488C175.914 175.8 176.49 175.956 177.102 175.956C177.81 175.956 178.404 175.788 178.884 175.452C179.364 175.116 179.754 174.696 180.054 174.192L181.206 174.804C181.014 175.236 180.72 175.638 180.324 176.01C179.928 176.37 179.454 176.664 178.902 176.892C178.362 177.108 177.762 177.216 177.102 177.216ZM186.399 177.216C185.787 177.216 185.241 177.102 184.761 176.874C184.281 176.634 183.903 176.31 183.627 175.902C183.351 175.494 183.213 175.026 183.213 174.498C183.213 173.994 183.321 173.538 183.537 173.13C183.753 172.71 184.089 172.356 184.545 172.068C185.001 171.78 185.583 171.576 186.291 171.456L190.071 170.826V172.05L186.615 172.626C185.919 172.746 185.415 172.968 185.103 173.292C184.803 173.616 184.653 174 184.653 174.444C184.653 174.876 184.821 175.242 185.157 175.542C185.505 175.842 185.949 175.992 186.489 175.992C187.149 175.992 187.725 175.854 188.217 175.578C188.709 175.29 189.093 174.906 189.369 174.426C189.645 173.946 189.783 173.412 189.783 172.824V170.376C189.783 169.8 189.573 169.332 189.153 168.972C188.733 168.612 188.187 168.432 187.515 168.432C186.927 168.432 186.411 168.582 185.967 168.882C185.523 169.17 185.193 169.548 184.977 170.016L183.753 169.35C183.933 168.942 184.215 168.57 184.599 168.234C184.995 167.898 185.445 167.634 185.949 167.442C186.453 167.238 186.975 167.136 187.515 167.136C188.223 167.136 188.847 167.274 189.387 167.55C189.939 167.826 190.365 168.21 190.665 168.702C190.977 169.182 191.133 169.74 191.133 170.376V177H189.783V175.074L189.981 175.272C189.813 175.632 189.549 175.962 189.189 176.262C188.841 176.55 188.427 176.784 187.947 176.964C187.479 177.132 186.963 177.216 186.399 177.216ZM193.909 177V167.352H195.259V169.224L194.953 169.152C195.193 168.528 195.583 168.036 196.123 167.676C196.675 167.316 197.311 167.136 198.031 167.136C198.715 167.136 199.327 167.292 199.867 167.604C200.419 167.916 200.851 168.348 201.163 168.9C201.487 169.44 201.649 170.052 201.649 170.736V177H200.299V171.258C200.299 170.67 200.191 170.172 199.975 169.764C199.771 169.356 199.477 169.044 199.093 168.828C198.721 168.6 198.289 168.486 197.797 168.486C197.305 168.486 196.867 168.6 196.483 168.828C196.099 169.044 195.799 169.362 195.583 169.782C195.367 170.19 195.259 170.682 195.259 171.258V177H193.909ZM204.228 177V167.352H205.578V177H204.228ZM204.228 165.57V163.59H205.578V165.57H204.228ZM208.341 177V167.352H209.691V169.224L209.385 169.152C209.625 168.528 210.015 168.036 210.555 167.676C211.107 167.316 211.743 167.136 212.463 167.136C213.147 167.136 213.759 167.292 214.299 167.604C214.851 167.916 215.283 168.348 215.595 168.9C215.919 169.44 216.081 170.052 216.081 170.736V177H214.731V171.258C214.731 170.67 214.623 170.172 214.407 169.764C214.203 169.356 213.909 169.044 213.525 168.828C213.153 168.6 212.721 168.486 212.229 168.486C211.737 168.486 211.299 168.6 210.915 168.828C210.531 169.044 210.231 169.362 210.015 169.782C209.799 170.19 209.691 170.682 209.691 171.258V177H208.341ZM223.231 180.96C222.571 180.96 221.959 180.858 221.395 180.654C220.843 180.45 220.363 180.168 219.955 179.808C219.559 179.46 219.253 179.052 219.037 178.584L220.279 177.918C220.471 178.374 220.813 178.77 221.305 179.106C221.797 179.442 222.427 179.61 223.195 179.61C223.783 179.61 224.323 179.496 224.815 179.268C225.307 179.04 225.703 178.704 226.003 178.26C226.303 177.816 226.453 177.27 226.453 176.622V174.48L226.669 174.678C226.333 175.374 225.835 175.914 225.175 176.298C224.515 176.67 223.795 176.856 223.015 176.856C222.115 176.856 221.305 176.64 220.585 176.208C219.865 175.776 219.295 175.194 218.875 174.462C218.467 173.718 218.263 172.896 218.263 171.996C218.263 171.084 218.467 170.262 218.875 169.53C219.295 168.798 219.859 168.216 220.567 167.784C221.287 167.352 222.103 167.136 223.015 167.136C223.795 167.136 224.503 167.316 225.139 167.676C225.787 168.036 226.297 168.522 226.669 169.134L226.453 169.512V167.352H227.803V176.622C227.803 177.45 227.605 178.188 227.209 178.836C226.825 179.496 226.285 180.012 225.589 180.384C224.905 180.768 224.119 180.96 223.231 180.96ZM223.087 175.506C223.711 175.506 224.275 175.35 224.779 175.038C225.283 174.714 225.685 174.288 225.985 173.76C226.297 173.22 226.453 172.632 226.453 171.996C226.453 171.36 226.297 170.778 225.985 170.25C225.685 169.71 225.283 169.284 224.779 168.972C224.275 168.648 223.711 168.486 223.087 168.486C222.451 168.486 221.875 168.648 221.359 168.972C220.843 169.284 220.435 169.704 220.135 170.232C219.847 170.76 219.703 171.348 219.703 171.996C219.703 172.632 219.847 173.22 220.135 173.76C220.435 174.288 220.837 174.714 221.341 175.038C221.857 175.35 222.439 175.506 223.087 175.506ZM233.636 177V167.352H234.986V169.188L234.77 168.918C235.034 168.354 235.424 167.916 235.94 167.604C236.468 167.292 237.044 167.136 237.668 167.136C238.412 167.136 239.084 167.346 239.684 167.766C240.284 168.186 240.71 168.732 240.962 169.404L240.584 169.422C240.824 168.678 241.238 168.114 241.826 167.73C242.426 167.334 243.086 167.136 243.806 167.136C244.454 167.136 245.048 167.292 245.588 167.604C246.14 167.916 246.578 168.348 246.902 168.9C247.238 169.44 247.406 170.052 247.406 170.736V177H246.056V171.258C246.056 170.67 245.948 170.172 245.732 169.764C245.528 169.356 245.246 169.044 244.886 168.828C244.526 168.6 244.112 168.486 243.644 168.486C243.188 168.486 242.774 168.6 242.402 168.828C242.03 169.044 241.736 169.362 241.52 169.782C241.304 170.19 241.196 170.682 241.196 171.258V177H239.846V171.258C239.846 170.67 239.738 170.172 239.522 169.764C239.318 169.356 239.036 169.044 238.676 168.828C238.316 168.6 237.902 168.486 237.434 168.486C236.966 168.486 236.546 168.6 236.174 168.828C235.814 169.044 235.526 169.362 235.31 169.782C235.094 170.19 234.986 170.682 234.986 171.258V177H233.636ZM249.984 177V167.352H251.334V177H249.984ZM249.984 165.57V163.59H251.334V165.57H249.984ZM254.097 177V163.374H255.447V177H254.097ZM262.566 177.216C261.666 177.216 260.856 177 260.136 176.568C259.416 176.124 258.846 175.524 258.426 174.768C258.018 174 257.814 173.136 257.814 172.176C257.814 171.204 258.018 170.34 258.426 169.584C258.846 168.828 259.41 168.234 260.118 167.802C260.838 167.358 261.654 167.136 262.566 167.136C263.394 167.136 264.132 167.316 264.78 167.676C265.428 168.036 265.938 168.522 266.31 169.134L266.094 169.512V163.374H267.444V177H266.094V174.84L266.31 175.038C265.974 175.734 265.47 176.274 264.798 176.658C264.138 177.03 263.394 177.216 262.566 177.216ZM262.638 175.866C263.286 175.866 263.868 175.704 264.384 175.38C264.912 175.056 265.326 174.618 265.626 174.066C265.938 173.502 266.094 172.872 266.094 172.176C266.094 171.48 265.938 170.856 265.626 170.304C265.326 169.74 264.912 169.296 264.384 168.972C263.868 168.648 263.286 168.486 262.638 168.486C262.002 168.486 261.426 168.648 260.91 168.972C260.394 169.296 259.986 169.734 259.686 170.286C259.398 170.838 259.254 171.468 259.254 172.176C259.254 172.872 259.398 173.502 259.686 174.066C259.986 174.618 260.388 175.056 260.892 175.38C261.408 175.704 261.99 175.866 262.638 175.866ZM274.608 177.216C273.708 177.216 272.892 177 272.16 176.568C271.44 176.124 270.87 175.518 270.45 174.75C270.03 173.982 269.82 173.112 269.82 172.14C269.82 171.168 270.024 170.31 270.432 169.566C270.84 168.81 271.392 168.216 272.088 167.784C272.796 167.352 273.588 167.136 274.464 167.136C275.16 167.136 275.778 167.268 276.318 167.532C276.87 167.784 277.338 168.132 277.722 168.576C278.106 169.008 278.4 169.5 278.604 170.052C278.808 170.592 278.91 171.15 278.91 171.726C278.91 171.846 278.904 171.984 278.892 172.14C278.88 172.284 278.862 172.434 278.838 172.59H270.684V171.33H278.064L277.416 171.87C277.524 171.21 277.446 170.622 277.182 170.106C276.93 169.578 276.564 169.164 276.084 168.864C275.604 168.552 275.064 168.396 274.464 168.396C273.864 168.396 273.306 168.552 272.79 168.864C272.286 169.176 271.89 169.614 271.602 170.178C271.314 170.73 271.2 171.39 271.26 172.158C271.2 172.926 271.32 173.598 271.62 174.174C271.932 174.738 272.352 175.176 272.88 175.488C273.42 175.8 273.996 175.956 274.608 175.956C275.316 175.956 275.91 175.788 276.39 175.452C276.87 175.116 277.26 174.696 277.56 174.192L278.712 174.804C278.52 175.236 278.226 175.638 277.83 176.01C277.434 176.37 276.96 176.664 276.408 176.892C275.868 177.108 275.268 177.216 274.608 177.216ZM283.414 177L280.102 167.352H281.632L284.368 175.794H283.828L286.402 167.352H287.752L290.326 175.794H289.786L292.54 167.352H294.052L290.74 177H289.39L286.888 168.738H287.266L284.764 177H283.414ZM294.967 179.34V178.71C295.327 178.614 295.591 178.428 295.759 178.152C295.927 177.876 296.011 177.492 296.011 177H295.327V175.02H296.767V176.532C296.767 177.312 296.617 177.936 296.317 178.404C296.017 178.884 295.567 179.196 294.967 179.34ZM33.584 205V191.59H38.192C39.068 191.59 39.836 191.764 40.496 192.112C41.156 192.448 41.666 192.928 42.026 193.552C42.398 194.164 42.584 194.878 42.584 195.694C42.584 196.642 42.332 197.452 41.828 198.124C41.336 198.796 40.664 199.27 39.812 199.546L42.944 205H41.252L37.976 199.222L38.948 199.78H35.024V205H33.584ZM35.024 198.43H38.264C38.84 198.43 39.344 198.322 39.776 198.106C40.208 197.878 40.544 197.56 40.784 197.152C41.024 196.732 41.144 196.24 41.144 195.676C41.144 195.112 41.024 194.626 40.784 194.218C40.544 193.81 40.208 193.498 39.776 193.282C39.344 193.054 38.84 192.94 38.264 192.94H35.024V198.43ZM48.7643 205.216C47.8643 205.216 47.0483 205 46.3163 204.568C45.5963 204.124 45.0263 203.518 44.6063 202.75C44.1863 201.982 43.9763 201.112 43.9763 200.14C43.9763 199.168 44.1803 198.31 44.5883 197.566C44.9963 196.81 45.5483 196.216 46.2443 195.784C46.9523 195.352 47.7443 195.136 48.6203 195.136C49.3163 195.136 49.9343 195.268 50.4743 195.532C51.0263 195.784 51.4943 196.132 51.8783 196.576C52.2623 197.008 52.5563 197.5 52.7603 198.052C52.9643 198.592 53.0663 199.15 53.0663 199.726C53.0663 199.846 53.0603 199.984 53.0483 200.14C53.0363 200.284 53.0183 200.434 52.9943 200.59H44.8403V199.33H52.2203L51.5723 199.87C51.6803 199.21 51.6023 198.622 51.3383 198.106C51.0863 197.578 50.7203 197.164 50.2403 196.864C49.7603 196.552 49.2203 196.396 48.6203 196.396C48.0203 196.396 47.4623 196.552 46.9463 196.864C46.4423 197.176 46.0463 197.614 45.7583 198.178C45.4703 198.73 45.3563 199.39 45.4163 200.158C45.3563 200.926 45.4763 201.598 45.7763 202.174C46.0883 202.738 46.5083 203.176 47.0363 203.488C47.5763 203.8 48.1523 203.956 48.7643 203.956C49.4723 203.956 50.0663 203.788 50.5463 203.452C51.0263 203.116 51.4163 202.696 51.7163 202.192L52.8683 202.804C52.6763 203.236 52.3823 203.638 51.9863 204.01C51.5903 204.37 51.1163 204.664 50.5643 204.892C50.0243 205.108 49.4243 205.216 48.7643 205.216ZM58.7945 205.216C57.8705 205.216 57.0605 204.982 56.3645 204.514C55.6685 204.046 55.1645 203.41 54.8525 202.606L55.9865 202.066C56.2625 202.654 56.6465 203.122 57.1385 203.47C57.6425 203.818 58.1945 203.992 58.7945 203.992C59.3705 203.992 59.8565 203.854 60.2525 203.578C60.6485 203.29 60.8465 202.918 60.8465 202.462C60.8465 202.126 60.7505 201.862 60.5585 201.67C60.3665 201.466 60.1445 201.31 59.8925 201.202C59.6405 201.094 59.4185 201.016 59.2265 200.968L57.8405 200.572C56.9525 200.32 56.3105 199.966 55.9145 199.51C55.5185 199.054 55.3205 198.526 55.3205 197.926C55.3205 197.362 55.4645 196.87 55.7525 196.45C56.0405 196.03 56.4305 195.706 56.9225 195.478C57.4145 195.25 57.9605 195.136 58.5605 195.136C59.3765 195.136 60.1145 195.352 60.7745 195.784C61.4465 196.204 61.9205 196.792 62.1965 197.548L61.0445 198.088C60.8045 197.548 60.4565 197.128 60.0005 196.828C59.5565 196.516 59.0585 196.36 58.5065 196.36C57.9665 196.36 57.5345 196.498 57.2105 196.774C56.8865 197.05 56.7245 197.398 56.7245 197.818C56.7245 198.142 56.8085 198.4 56.9765 198.592C57.1445 198.784 57.3365 198.928 57.5525 199.024C57.7805 199.12 57.9785 199.192 58.1465 199.24L59.7485 199.708C60.5285 199.936 61.1345 200.29 61.5665 200.77C62.0105 201.25 62.2325 201.814 62.2325 202.462C62.2325 202.99 62.0825 203.464 61.7825 203.884C61.4945 204.304 61.0925 204.634 60.5765 204.874C60.0605 205.102 59.4665 205.216 58.7945 205.216ZM68.2948 205.108C67.4308 205.108 66.7648 204.856 66.2968 204.352C65.8288 203.848 65.5947 203.128 65.5947 202.192V196.702H63.8127V195.352H64.2628C64.6708 195.352 64.9948 195.22 65.2348 194.956C65.4748 194.68 65.5947 194.338 65.5947 193.93V193.12H66.9448V195.352H69.0688V196.702H66.9448V202.192C66.9448 202.516 66.9928 202.804 67.0888 203.056C67.1848 203.296 67.3468 203.488 67.5748 203.632C67.8148 203.776 68.1328 203.848 68.5288 203.848C68.6248 203.848 68.7388 203.842 68.8708 203.83C69.0028 203.818 69.1168 203.806 69.2128 203.794V205C69.0688 205.036 68.9068 205.06 68.7268 205.072C68.5468 205.096 68.4028 205.108 68.2948 205.108ZM75.7497 205.216C74.8377 205.216 74.0097 205 73.2657 204.568C72.5217 204.124 71.9277 203.524 71.4837 202.768C71.0517 202 70.8357 201.13 70.8357 200.158C70.8357 199.198 71.0517 198.34 71.4837 197.584C71.9157 196.828 72.4977 196.234 73.2297 195.802C73.9737 195.358 74.8137 195.136 75.7497 195.136C76.6857 195.136 77.5197 195.352 78.2517 195.784C78.9957 196.216 79.5777 196.81 79.9977 197.566C80.4297 198.322 80.6457 199.186 80.6457 200.158C80.6457 201.142 80.4237 202.018 79.9797 202.786C79.5357 203.542 78.9417 204.136 78.1977 204.568C77.4657 205 76.6497 205.216 75.7497 205.216ZM75.7497 203.866C76.3977 203.866 76.9797 203.704 77.4957 203.38C78.0237 203.056 78.4377 202.612 78.7377 202.048C79.0497 201.484 79.2057 200.854 79.2057 200.158C79.2057 199.462 79.0497 198.838 78.7377 198.286C78.4377 197.734 78.0237 197.296 77.4957 196.972C76.9797 196.648 76.3977 196.486 75.7497 196.486C75.1017 196.486 74.5137 196.648 73.9857 196.972C73.4697 197.296 73.0557 197.734 72.7437 198.286C72.4317 198.838 72.2757 199.462 72.2757 200.158C72.2757 200.854 72.4317 201.484 72.7437 202.048C73.0557 202.612 73.4697 203.056 73.9857 203.38C74.5137 203.704 75.1017 203.866 75.7497 203.866ZM83.0266 205V195.352H84.3766V196.936L84.1966 196.702C84.4246 196.246 84.7666 195.886 85.2226 195.622C85.6906 195.358 86.2546 195.226 86.9146 195.226H87.5266V196.576H86.6806C85.9846 196.576 85.4266 196.792 85.0066 197.224C84.5866 197.656 84.3766 198.268 84.3766 199.06V205H83.0266ZM91.8987 205.216C91.2867 205.216 90.7407 205.102 90.2607 204.874C89.7807 204.634 89.4027 204.31 89.1267 203.902C88.8507 203.494 88.7127 203.026 88.7127 202.498C88.7127 201.994 88.8207 201.538 89.0367 201.13C89.2527 200.71 89.5887 200.356 90.0447 200.068C90.5007 199.78 91.0827 199.576 91.7907 199.456L95.5707 198.826V200.05L92.1147 200.626C91.4187 200.746 90.9147 200.968 90.6027 201.292C90.3027 201.616 90.1527 202 90.1527 202.444C90.1527 202.876 90.3207 203.242 90.6567 203.542C91.0047 203.842 91.4487 203.992 91.9887 203.992C92.6487 203.992 93.2247 203.854 93.7167 203.578C94.2087 203.29 94.5927 202.906 94.8687 202.426C95.1447 201.946 95.2827 201.412 95.2827 200.824V198.376C95.2827 197.8 95.0727 197.332 94.6527 196.972C94.2327 196.612 93.6867 196.432 93.0147 196.432C92.4267 196.432 91.9107 196.582 91.4667 196.882C91.0227 197.17 90.6927 197.548 90.4767 198.016L89.2527 197.35C89.4327 196.942 89.7147 196.57 90.0987 196.234C90.4947 195.898 90.9447 195.634 91.4487 195.442C91.9527 195.238 92.4747 195.136 93.0147 195.136C93.7227 195.136 94.3467 195.274 94.8867 195.55C95.4387 195.826 95.8647 196.21 96.1647 196.702C96.4767 197.182 96.6327 197.74 96.6327 198.376V205H95.2827V203.074L95.4807 203.272C95.3127 203.632 95.0487 203.962 94.6887 204.262C94.3407 204.55 93.9267 204.784 93.4467 204.964C92.9787 205.132 92.4627 205.216 91.8987 205.216ZM102.924 205.108C102.06 205.108 101.394 204.856 100.926 204.352C100.458 203.848 100.224 203.128 100.224 202.192V196.702H98.4417V195.352H98.8917C99.2997 195.352 99.6237 195.22 99.8637 194.956C100.104 194.68 100.224 194.338 100.224 193.93V193.12H101.574V195.352H103.698V196.702H101.574V202.192C101.574 202.516 101.622 202.804 101.718 203.056C101.814 203.296 101.976 203.488 102.204 203.632C102.444 203.776 102.762 203.848 103.158 203.848C103.254 203.848 103.368 203.842 103.5 203.83C103.632 203.818 103.746 203.806 103.842 203.794V205C103.698 205.036 103.536 205.06 103.356 205.072C103.176 205.096 103.032 205.108 102.924 205.108ZM106.212 205V195.352H107.562V205H106.212ZM106.212 193.57V191.59H107.562V193.57H106.212ZM114.843 205.216C113.931 205.216 113.103 205 112.359 204.568C111.615 204.124 111.021 203.524 110.577 202.768C110.145 202 109.929 201.13 109.929 200.158C109.929 199.198 110.145 198.34 110.577 197.584C111.009 196.828 111.591 196.234 112.323 195.802C113.067 195.358 113.907 195.136 114.843 195.136C115.779 195.136 116.613 195.352 117.345 195.784C118.089 196.216 118.671 196.81 119.091 197.566C119.523 198.322 119.739 199.186 119.739 200.158C119.739 201.142 119.517 202.018 119.073 202.786C118.629 203.542 118.035 204.136 117.291 204.568C116.559 205 115.743 205.216 114.843 205.216ZM114.843 203.866C115.491 203.866 116.073 203.704 116.589 203.38C117.117 203.056 117.531 202.612 117.831 202.048C118.143 201.484 118.299 200.854 118.299 200.158C118.299 199.462 118.143 198.838 117.831 198.286C117.531 197.734 117.117 197.296 116.589 196.972C116.073 196.648 115.491 196.486 114.843 196.486C114.195 196.486 113.607 196.648 113.079 196.972C112.563 197.296 112.149 197.734 111.837 198.286C111.525 198.838 111.369 199.462 111.369 200.158C111.369 200.854 111.525 201.484 111.837 202.048C112.149 202.612 112.563 203.056 113.079 203.38C113.607 203.704 114.195 203.866 114.843 203.866ZM122.12 205V195.352H123.47V197.224L123.164 197.152C123.404 196.528 123.794 196.036 124.334 195.676C124.886 195.316 125.522 195.136 126.242 195.136C126.926 195.136 127.538 195.292 128.078 195.604C128.63 195.916 129.062 196.348 129.374 196.9C129.698 197.44 129.86 198.052 129.86 198.736V205H128.51V199.258C128.51 198.67 128.402 198.172 128.186 197.764C127.982 197.356 127.688 197.044 127.304 196.828C126.932 196.6 126.5 196.486 126.008 196.486C125.516 196.486 125.078 196.6 124.694 196.828C124.31 197.044 124.01 197.362 123.794 197.782C123.578 198.19 123.47 198.682 123.47 199.258V205H122.12ZM138.287 205.216C137.675 205.216 137.129 205.102 136.649 204.874C136.169 204.634 135.791 204.31 135.515 203.902C135.239 203.494 135.101 203.026 135.101 202.498C135.101 201.994 135.209 201.538 135.425 201.13C135.641 200.71 135.977 200.356 136.433 200.068C136.889 199.78 137.471 199.576 138.179 199.456L141.959 198.826V200.05L138.503 200.626C137.807 200.746 137.303 200.968 136.991 201.292C136.691 201.616 136.541 202 136.541 202.444C136.541 202.876 136.709 203.242 137.045 203.542C137.393 203.842 137.837 203.992 138.377 203.992C139.037 203.992 139.613 203.854 140.105 203.578C140.597 203.29 140.981 202.906 141.257 202.426C141.533 201.946 141.671 201.412 141.671 200.824V198.376C141.671 197.8 141.461 197.332 141.041 196.972C140.621 196.612 140.075 196.432 139.403 196.432C138.815 196.432 138.299 196.582 137.855 196.882C137.411 197.17 137.081 197.548 136.865 198.016L135.641 197.35C135.821 196.942 136.103 196.57 136.487 196.234C136.883 195.898 137.333 195.634 137.837 195.442C138.341 195.238 138.863 195.136 139.403 195.136C140.111 195.136 140.735 195.274 141.275 195.55C141.827 195.826 142.253 196.21 142.553 196.702C142.865 197.182 143.021 197.74 143.021 198.376V205H141.671V203.074L141.869 203.272C141.701 203.632 141.437 203.962 141.077 204.262C140.729 204.55 140.315 204.784 139.835 204.964C139.367 205.132 138.851 205.216 138.287 205.216ZM145.798 205V195.352H147.148V197.224L146.842 197.152C147.082 196.528 147.472 196.036 148.012 195.676C148.564 195.316 149.2 195.136 149.92 195.136C150.604 195.136 151.216 195.292 151.756 195.604C152.308 195.916 152.74 196.348 153.052 196.9C153.376 197.44 153.538 198.052 153.538 198.736V205H152.188V199.258C152.188 198.67 152.08 198.172 151.864 197.764C151.66 197.356 151.366 197.044 150.982 196.828C150.61 196.6 150.178 196.486 149.686 196.486C149.194 196.486 148.756 196.6 148.372 196.828C147.988 197.044 147.688 197.362 147.472 197.782C147.256 198.19 147.148 198.682 147.148 199.258V205H145.798ZM160.472 205.216C159.572 205.216 158.762 205 158.042 204.568C157.322 204.124 156.752 203.524 156.332 202.768C155.924 202 155.72 201.136 155.72 200.176C155.72 199.204 155.924 198.34 156.332 197.584C156.752 196.828 157.316 196.234 158.024 195.802C158.744 195.358 159.56 195.136 160.472 195.136C161.3 195.136 162.038 195.316 162.686 195.676C163.334 196.036 163.844 196.522 164.216 197.134L164 197.512V191.374H165.35V205H164V202.84L164.216 203.038C163.88 203.734 163.376 204.274 162.704 204.658C162.044 205.03 161.3 205.216 160.472 205.216ZM160.544 203.866C161.192 203.866 161.774 203.704 162.29 203.38C162.818 203.056 163.232 202.618 163.532 202.066C163.844 201.502 164 200.872 164 200.176C164 199.48 163.844 198.856 163.532 198.304C163.232 197.74 162.818 197.296 162.29 196.972C161.774 196.648 161.192 196.486 160.544 196.486C159.908 196.486 159.332 196.648 158.816 196.972C158.3 197.296 157.892 197.734 157.592 198.286C157.304 198.838 157.16 199.468 157.16 200.176C157.16 200.872 157.304 201.502 157.592 202.066C157.892 202.618 158.294 203.056 158.798 203.38C159.314 203.704 159.896 203.866 160.544 203.866ZM171.379 205V191.59H175.987C176.863 191.59 177.631 191.764 178.291 192.112C178.951 192.448 179.461 192.928 179.821 193.552C180.193 194.164 180.379 194.878 180.379 195.694C180.379 196.51 180.193 197.224 179.821 197.836C179.461 198.448 178.951 198.928 178.291 199.276C177.643 199.612 176.875 199.78 175.987 199.78H172.819V205H171.379ZM172.819 198.43H176.059C176.635 198.43 177.139 198.322 177.571 198.106C178.003 197.878 178.339 197.56 178.579 197.152C178.819 196.732 178.939 196.24 178.939 195.676C178.939 195.112 178.819 194.626 178.579 194.218C178.339 193.81 178.003 193.498 177.571 193.282C177.139 193.054 176.635 192.94 176.059 192.94H172.819V198.43ZM182.747 205V195.352H184.097V196.936L183.917 196.702C184.145 196.246 184.487 195.886 184.943 195.622C185.411 195.358 185.975 195.226 186.635 195.226H187.247V196.576H186.401C185.705 196.576 185.147 196.792 184.727 197.224C184.307 197.656 184.097 198.268 184.097 199.06V205H182.747ZM193.221 205.216C192.321 205.216 191.505 205 190.773 204.568C190.053 204.124 189.483 203.518 189.063 202.75C188.643 201.982 188.433 201.112 188.433 200.14C188.433 199.168 188.637 198.31 189.045 197.566C189.453 196.81 190.005 196.216 190.701 195.784C191.409 195.352 192.201 195.136 193.077 195.136C193.773 195.136 194.391 195.268 194.931 195.532C195.483 195.784 195.951 196.132 196.335 196.576C196.719 197.008 197.013 197.5 197.217 198.052C197.421 198.592 197.523 199.15 197.523 199.726C197.523 199.846 197.517 199.984 197.505 200.14C197.493 200.284 197.475 200.434 197.451 200.59H189.297V199.33H196.677L196.029 199.87C196.137 199.21 196.059 198.622 195.795 198.106C195.543 197.578 195.177 197.164 194.697 196.864C194.217 196.552 193.677 196.396 193.077 196.396C192.477 196.396 191.919 196.552 191.403 196.864C190.899 197.176 190.503 197.614 190.215 198.178C189.927 198.73 189.813 199.39 189.873 200.158C189.813 200.926 189.933 201.598 190.233 202.174C190.545 202.738 190.965 203.176 191.493 203.488C192.033 203.8 192.609 203.956 193.221 203.956C193.929 203.956 194.523 203.788 195.003 203.452C195.483 203.116 195.873 202.696 196.173 202.192L197.325 202.804C197.133 203.236 196.839 203.638 196.443 204.01C196.047 204.37 195.573 204.664 195.021 204.892C194.481 205.108 193.881 205.216 193.221 205.216ZM202.302 205L198.54 195.352H200.052L203.22 203.812H202.734L205.92 195.352H207.45L203.652 205H202.302ZM213.243 205.216C212.343 205.216 211.527 205 210.795 204.568C210.075 204.124 209.505 203.518 209.085 202.75C208.665 201.982 208.455 201.112 208.455 200.14C208.455 199.168 208.659 198.31 209.067 197.566C209.475 196.81 210.027 196.216 210.723 195.784C211.431 195.352 212.223 195.136 213.099 195.136C213.795 195.136 214.413 195.268 214.953 195.532C215.505 195.784 215.973 196.132 216.357 196.576C216.741 197.008 217.035 197.5 217.239 198.052C217.443 198.592 217.545 199.15 217.545 199.726C217.545 199.846 217.539 199.984 217.527 200.14C217.515 200.284 217.497 200.434 217.473 200.59H209.319V199.33H216.699L216.051 199.87C216.159 199.21 216.081 198.622 215.817 198.106C215.565 197.578 215.199 197.164 214.719 196.864C214.239 196.552 213.699 196.396 213.099 196.396C212.499 196.396 211.941 196.552 211.425 196.864C210.921 197.176 210.525 197.614 210.237 198.178C209.949 198.73 209.835 199.39 209.895 200.158C209.835 200.926 209.955 201.598 210.255 202.174C210.567 202.738 210.987 203.176 211.515 203.488C212.055 203.8 212.631 203.956 213.243 203.956C213.951 203.956 214.545 203.788 215.025 203.452C215.505 203.116 215.895 202.696 216.195 202.192L217.347 202.804C217.155 203.236 216.861 203.638 216.465 204.01C216.069 204.37 215.595 204.664 215.043 204.892C214.503 205.108 213.903 205.216 213.243 205.216ZM219.925 205V195.352H221.275V197.224L220.969 197.152C221.209 196.528 221.599 196.036 222.139 195.676C222.691 195.316 223.327 195.136 224.047 195.136C224.731 195.136 225.343 195.292 225.883 195.604C226.435 195.916 226.867 196.348 227.179 196.9C227.503 197.44 227.665 198.052 227.665 198.736V205H226.315V199.258C226.315 198.67 226.207 198.172 225.991 197.764C225.787 197.356 225.493 197.044 225.109 196.828C224.737 196.6 224.305 196.486 223.813 196.486C223.321 196.486 222.883 196.6 222.499 196.828C222.115 197.044 221.815 197.362 221.599 197.782C221.383 198.19 221.275 198.682 221.275 199.258V205H219.925ZM233.933 205.108C233.069 205.108 232.403 204.856 231.935 204.352C231.467 203.848 231.233 203.128 231.233 202.192V196.702H229.451V195.352H229.901C230.309 195.352 230.633 195.22 230.873 194.956C231.113 194.68 231.233 194.338 231.233 193.93V193.12H232.583V195.352H234.707V196.702H232.583V202.192C232.583 202.516 232.631 202.804 232.727 203.056C232.823 203.296 232.985 203.488 233.213 203.632C233.453 203.776 233.771 203.848 234.167 203.848C234.263 203.848 234.377 203.842 234.509 203.83C234.641 203.818 234.755 203.806 234.851 203.794V205C234.707 205.036 234.545 205.06 234.365 205.072C234.185 205.096 234.041 205.108 233.933 205.108ZM237.222 205V195.352H238.572V205H237.222ZM237.222 193.57V191.59H238.572V193.57H237.222ZM245.853 205.216C244.941 205.216 244.113 205 243.369 204.568C242.625 204.124 242.031 203.524 241.587 202.768C241.155 202 240.939 201.13 240.939 200.158C240.939 199.198 241.155 198.34 241.587 197.584C242.019 196.828 242.601 196.234 243.333 195.802C244.077 195.358 244.917 195.136 245.853 195.136C246.789 195.136 247.623 195.352 248.355 195.784C249.099 196.216 249.681 196.81 250.101 197.566C250.533 198.322 250.749 199.186 250.749 200.158C250.749 201.142 250.527 202.018 250.083 202.786C249.639 203.542 249.045 204.136 248.301 204.568C247.569 205 246.753 205.216 245.853 205.216ZM245.853 203.866C246.501 203.866 247.083 203.704 247.599 203.38C248.127 203.056 248.541 202.612 248.841 202.048C249.153 201.484 249.309 200.854 249.309 200.158C249.309 199.462 249.153 198.838 248.841 198.286C248.541 197.734 248.127 197.296 247.599 196.972C247.083 196.648 246.501 196.486 245.853 196.486C245.205 196.486 244.617 196.648 244.089 196.972C243.573 197.296 243.159 197.734 242.847 198.286C242.535 198.838 242.379 199.462 242.379 200.158C242.379 200.854 242.535 201.484 242.847 202.048C243.159 202.612 243.573 203.056 244.089 203.38C244.617 203.704 245.205 203.866 245.853 203.866ZM253.13 205V195.352H254.48V197.224L254.174 197.152C254.414 196.528 254.804 196.036 255.344 195.676C255.896 195.316 256.532 195.136 257.252 195.136C257.936 195.136 258.548 195.292 259.088 195.604C259.64 195.916 260.072 196.348 260.384 196.9C260.708 197.44 260.87 198.052 260.87 198.736V205H259.52V199.258C259.52 198.67 259.412 198.172 259.196 197.764C258.992 197.356 258.698 197.044 258.314 196.828C257.942 196.6 257.51 196.486 257.018 196.486C256.526 196.486 256.088 196.6 255.704 196.828C255.32 197.044 255.02 197.362 254.804 197.782C254.588 198.19 254.48 198.682 254.48 199.258V205H253.13Z" fill="#545971"/>
</svg>
