<svg width="360" height="244" viewBox="0 0 360 244" fill="none" xmlns="http://www.w3.org/2000/svg">
<rect x="32" y="32" width="64" height="64" rx="20" fill="#142257"/>
<path d="M77.3534 51.3616L73.3741 47.5514C71.91 46.1495 69.5262 46.1495 68.0622 47.5514L62.7502 52.6377L66.7295 56.4479L70.7088 52.6377L77.3534 59C78.4081 57.9855 79.0002 56.6123 79.0002 55.1808C79.0002 53.7493 78.4081 52.3761 77.3534 51.3616Z" fill="white"/>
<path d="M52.2696 66.9822C53.2955 68.0059 54.9472 68.0059 55.9557 66.9822L60.2502 62.6961L56.5642 59L52.2696 63.2861C51.2438 64.3099 51.2438 65.9584 52.2696 66.9822Z" fill="white"/>
<path d="M69.5404 56.6679L74.7145 61.6822C74.8843 61.8462 75.0191 62.041 75.111 62.2553C75.2029 62.4696 75.2502 62.6993 75.2502 62.9313C75.2502 63.1633 75.2029 63.393 75.111 63.6074C75.0191 63.8217 74.8843 64.0164 74.7145 64.1805C74.5446 64.3445 74.3429 64.4746 74.121 64.5634C73.899 64.6522 73.6612 64.6979 73.4209 64.6979C73.1807 64.6979 72.9428 64.6522 72.7209 64.5634C72.499 64.4746 72.2973 64.3445 72.1274 64.1805L55.266 80.4635C53.8348 81.8455 51.5047 81.8455 50.0736 80.4635C48.6425 79.0815 48.6425 76.8313 50.0736 75.4492L63.0454 62.9225L57.2108 57.2881C56.9534 57.0425 56.749 56.7501 56.6096 56.4277C56.4701 56.1053 56.3983 55.7594 56.3983 55.41C56.3983 55.0606 56.4701 54.7146 56.6096 54.3922C56.749 54.0698 56.9534 53.7774 57.2108 53.5318C58.275 52.4865 60.018 52.4865 61.1005 53.5495L66.9351 59.1839L69.5404 56.6679Z" fill="white"/>
<path d="M33.728 138V120.12H40.4C41.616 120.12 42.688 120.344 43.616 120.792C44.56 121.224 45.296 121.864 45.824 122.712C46.352 123.544 46.616 124.56 46.616 125.76C46.616 126.944 46.344 127.96 45.8 128.808C45.272 129.64 44.544 130.28 43.616 130.728C42.688 131.176 41.616 131.4 40.4 131.4H36.992V138H33.728ZM36.992 128.52H40.448C41.04 128.52 41.552 128.408 41.984 128.184C42.416 127.944 42.752 127.616 42.992 127.2C43.232 126.784 43.352 126.304 43.352 125.76C43.352 125.2 43.232 124.72 42.992 124.32C42.752 123.904 42.416 123.584 41.984 123.36C41.552 123.12 41.04 123 40.448 123H36.992V128.52ZM49.0265 138V119.832H52.1705V138H49.0265ZM59.7294 138.288C58.7214 138.288 57.8414 138.064 57.0894 137.616C56.3534 137.168 55.7854 136.544 55.3854 135.744C55.0014 134.944 54.8094 134.008 54.8094 132.936V124.944H57.9534V132.672C57.9534 133.216 58.0574 133.696 58.2654 134.112C58.4894 134.512 58.8014 134.832 59.2014 135.072C59.6174 135.296 60.0814 135.408 60.5934 135.408C61.1054 135.408 61.5614 135.296 61.9614 135.072C62.3614 134.832 62.6734 134.504 62.8974 134.088C63.1214 133.672 63.2334 133.176 63.2334 132.6V124.944H66.3774V138H63.4014V135.432L63.6654 135.888C63.3614 136.688 62.8574 137.288 62.1534 137.688C61.4654 138.088 60.6574 138.288 59.7294 138.288ZM69.2999 138V124.944H72.2519V127.968L71.9159 127.464C72.1559 126.52 72.6359 125.816 73.3559 125.352C74.0759 124.888 74.9239 124.656 75.8999 124.656C76.9719 124.656 77.9159 124.936 78.7319 125.496C79.5479 126.056 80.0759 126.792 80.3159 127.704L79.4279 127.776C79.8279 126.736 80.4279 125.96 81.2279 125.448C82.0279 124.92 82.9479 124.656 83.9879 124.656C84.9159 124.656 85.7399 124.864 86.4599 125.28C87.1959 125.696 87.7719 126.28 88.1879 127.032C88.6039 127.768 88.8119 128.624 88.8119 129.6V138H85.6679V130.344C85.6679 129.768 85.5639 129.272 85.3559 128.856C85.1479 128.44 84.8599 128.12 84.4919 127.896C84.1239 127.656 83.6759 127.536 83.1479 127.536C82.6519 127.536 82.2119 127.656 81.8279 127.896C81.4439 128.12 81.1479 128.44 80.9399 128.856C80.7319 129.272 80.6279 129.768 80.6279 130.344V138H77.4839V130.344C77.4839 129.768 77.3799 129.272 77.1719 128.856C76.9639 128.44 76.6679 128.12 76.2839 127.896C75.9159 127.656 75.4759 127.536 74.9639 127.536C74.4679 127.536 74.0279 127.656 73.6439 127.896C73.2599 128.12 72.9639 128.44 72.7559 128.856C72.5479 129.272 72.4439 129.768 72.4439 130.344V138H69.2999ZM98.5998 138.288C97.6558 138.288 96.7838 138.104 95.9838 137.736C95.1998 137.352 94.5758 136.808 94.1118 136.104L94.4238 135.48V138H91.4718V119.832H94.6158V127.536L94.1358 126.888C94.5838 126.184 95.1918 125.64 95.9598 125.256C96.7278 124.856 97.6158 124.656 98.6238 124.656C99.8558 124.656 100.968 124.96 101.96 125.568C102.952 126.176 103.736 126.992 104.312 128.016C104.904 129.04 105.2 130.192 105.2 131.472C105.2 132.736 104.912 133.888 104.336 134.928C103.76 135.968 102.976 136.792 101.984 137.4C100.992 137.992 99.8638 138.288 98.5998 138.288ZM98.2398 135.408C98.9598 135.408 99.5998 135.24 100.16 134.904C100.72 134.568 101.152 134.104 101.456 133.512C101.776 132.92 101.936 132.24 101.936 131.472C101.936 130.704 101.776 130.032 101.456 129.456C101.152 128.864 100.72 128.4 100.16 128.064C99.5998 127.712 98.9598 127.536 98.2398 127.536C97.5518 127.536 96.9278 127.704 96.3678 128.04C95.8238 128.376 95.3918 128.848 95.0718 129.456C94.7678 130.048 94.6158 130.72 94.6158 131.472C94.6158 132.24 94.7678 132.92 95.0718 133.512C95.3918 134.104 95.8238 134.568 96.3678 134.904C96.9278 135.24 97.5518 135.408 98.2398 135.408ZM107.597 138V124.944H110.741V138H107.597ZM107.597 123.48V120.12H110.741V123.48H107.597ZM113.644 138V124.944H116.596V127.512L116.356 127.056C116.66 126.272 117.156 125.68 117.844 125.28C118.548 124.864 119.364 124.656 120.292 124.656C121.252 124.656 122.1 124.864 122.836 125.28C123.588 125.696 124.172 126.28 124.588 127.032C125.004 127.768 125.212 128.624 125.212 129.6V138H122.068V130.344C122.068 129.768 121.956 129.272 121.732 128.856C121.508 128.44 121.196 128.12 120.796 127.896C120.412 127.656 119.956 127.536 119.428 127.536C118.916 127.536 118.46 127.656 118.06 127.896C117.66 128.12 117.348 128.44 117.124 128.856C116.9 129.272 116.788 129.768 116.788 130.344V138H113.644ZM134.206 143.28C133.23 143.28 132.326 143.12 131.494 142.8C130.662 142.48 129.942 142.032 129.334 141.456C128.742 140.896 128.31 140.232 128.038 139.464L130.966 138.36C131.158 138.968 131.534 139.456 132.094 139.824C132.67 140.208 133.374 140.4 134.206 140.4C134.846 140.4 135.406 140.28 135.886 140.04C136.382 139.8 136.766 139.448 137.038 138.984C137.31 138.536 137.446 137.992 137.446 137.352V134.376L138.046 135.096C137.598 135.88 136.998 136.472 136.246 136.872C135.494 137.272 134.638 137.472 133.678 137.472C132.462 137.472 131.374 137.192 130.414 136.632C129.454 136.072 128.702 135.304 128.158 134.328C127.614 133.352 127.342 132.256 127.342 131.04C127.342 129.808 127.614 128.712 128.158 127.752C128.702 126.792 129.446 126.04 130.39 125.496C131.334 124.936 132.406 124.656 133.606 124.656C134.582 124.656 135.438 124.864 136.174 125.28C136.926 125.68 137.55 126.264 138.046 127.032L137.614 127.824V124.944H140.59V137.352C140.59 138.488 140.31 139.504 139.75 140.4C139.206 141.296 138.454 142 137.494 142.512C136.55 143.024 135.454 143.28 134.206 143.28ZM134.062 134.568C134.734 134.568 135.318 134.424 135.814 134.136C136.326 133.832 136.726 133.416 137.014 132.888C137.302 132.36 137.446 131.752 137.446 131.064C137.446 130.392 137.294 129.792 136.99 129.264C136.702 128.72 136.302 128.296 135.79 127.992C135.294 127.688 134.718 127.536 134.062 127.536C133.406 127.536 132.814 127.688 132.286 127.992C131.758 128.296 131.342 128.72 131.038 129.264C130.75 129.792 130.606 130.392 130.606 131.064C130.606 131.736 130.75 132.336 131.038 132.864C131.342 133.392 131.75 133.808 132.262 134.112C132.79 134.416 133.39 134.568 134.062 134.568ZM152.76 138.288C151.368 138.288 150.152 137.96 149.112 137.304C148.088 136.632 147.384 135.728 147 134.592L149.352 133.464C149.688 134.2 150.152 134.776 150.744 135.192C151.352 135.608 152.024 135.816 152.76 135.816C153.336 135.816 153.792 135.688 154.128 135.432C154.464 135.176 154.632 134.84 154.632 134.424C154.632 134.168 154.56 133.96 154.416 133.8C154.288 133.624 154.104 133.48 153.864 133.368C153.64 133.24 153.392 133.136 153.12 133.056L150.984 132.456C149.88 132.136 149.04 131.648 148.464 130.992C147.904 130.336 147.624 129.56 147.624 128.664C147.624 127.864 147.824 127.168 148.224 126.576C148.64 125.968 149.208 125.496 149.928 125.16C150.664 124.824 151.504 124.656 152.448 124.656C153.68 124.656 154.768 124.952 155.712 125.544C156.656 126.136 157.328 126.968 157.728 128.04L155.328 129.168C155.104 128.576 154.728 128.104 154.2 127.752C153.672 127.4 153.08 127.224 152.424 127.224C151.896 127.224 151.48 127.344 151.176 127.584C150.872 127.824 150.72 128.136 150.72 128.52C150.72 128.76 150.784 128.968 150.912 129.144C151.04 129.32 151.216 129.464 151.44 129.576C151.68 129.688 151.952 129.792 152.256 129.888L154.344 130.512C155.416 130.832 156.24 131.312 156.816 131.952C157.408 132.592 157.704 133.376 157.704 134.304C157.704 135.088 157.496 135.784 157.08 136.392C156.664 136.984 156.088 137.448 155.352 137.784C154.616 138.12 153.752 138.288 152.76 138.288ZM166.312 138.288C164.968 138.288 163.792 137.984 162.784 137.376C161.776 136.768 160.992 135.944 160.432 134.904C159.872 133.864 159.592 132.712 159.592 131.448C159.592 130.136 159.872 128.976 160.432 127.968C161.008 126.944 161.784 126.136 162.76 125.544C163.752 124.952 164.856 124.656 166.072 124.656C167.096 124.656 167.992 124.824 168.76 125.16C169.544 125.496 170.208 125.96 170.752 126.552C171.296 127.144 171.712 127.824 172 128.592C172.288 129.344 172.432 130.16 172.432 131.04C172.432 131.264 172.416 131.496 172.384 131.736C172.368 131.976 172.328 132.184 172.264 132.36H162.184V129.96H170.488L169 131.088C169.144 130.352 169.104 129.696 168.88 129.12C168.672 128.544 168.32 128.088 167.824 127.752C167.344 127.416 166.76 127.248 166.072 127.248C165.416 127.248 164.832 127.416 164.32 127.752C163.808 128.072 163.416 128.552 163.144 129.192C162.888 129.816 162.792 130.576 162.856 131.472C162.792 132.272 162.896 132.984 163.168 133.608C163.456 134.216 163.872 134.688 164.416 135.024C164.976 135.36 165.616 135.528 166.336 135.528C167.056 135.528 167.664 135.376 168.16 135.072C168.672 134.768 169.072 134.36 169.36 133.848L171.904 135.096C171.648 135.72 171.248 136.272 170.704 136.752C170.16 137.232 169.512 137.608 168.76 137.88C168.024 138.152 167.208 138.288 166.312 138.288ZM174.816 138V124.944H177.768V127.848L177.528 127.416C177.832 126.44 178.304 125.76 178.944 125.376C179.6 124.992 180.384 124.8 181.296 124.8H182.064V127.584H180.936C180.04 127.584 179.32 127.864 178.776 128.424C178.232 128.968 177.96 129.736 177.96 130.728V138H174.816ZM187.728 138L182.592 124.944H186.024L189.744 135.216H188.472L192.216 124.944H195.648L190.512 138H187.728ZM197.386 138V124.944H200.53V138H197.386ZM197.386 123.48V120.12H200.53V123.48H197.386ZM209.721 138.288C208.425 138.288 207.257 137.992 206.217 137.4C205.193 136.792 204.385 135.976 203.793 134.952C203.201 133.912 202.905 132.744 202.905 131.448C202.905 130.152 203.201 128.992 203.793 127.968C204.385 126.944 205.193 126.136 206.217 125.544C207.257 124.952 208.425 124.656 209.721 124.656C210.649 124.656 211.513 124.824 212.313 125.16C213.113 125.48 213.801 125.928 214.377 126.504C214.969 127.064 215.393 127.736 215.649 128.52L212.889 129.72C212.649 129.064 212.241 128.536 211.665 128.136C211.105 127.736 210.457 127.536 209.721 127.536C209.033 127.536 208.417 127.704 207.873 128.04C207.345 128.376 206.929 128.84 206.625 129.432C206.321 130.024 206.169 130.704 206.169 131.472C206.169 132.24 206.321 132.92 206.625 133.512C206.929 134.104 207.345 134.568 207.873 134.904C208.417 135.24 209.033 135.408 209.721 135.408C210.473 135.408 211.129 135.208 211.689 134.808C212.249 134.408 212.649 133.872 212.889 133.2L215.649 134.448C215.393 135.184 214.977 135.848 214.401 136.44C213.825 137.016 213.137 137.472 212.337 137.808C211.537 138.128 210.665 138.288 209.721 138.288ZM224.226 138.288C222.882 138.288 221.706 137.984 220.698 137.376C219.69 136.768 218.906 135.944 218.346 134.904C217.786 133.864 217.506 132.712 217.506 131.448C217.506 130.136 217.786 128.976 218.346 127.968C218.922 126.944 219.698 126.136 220.674 125.544C221.666 124.952 222.77 124.656 223.986 124.656C225.01 124.656 225.906 124.824 226.674 125.16C227.458 125.496 228.122 125.96 228.666 126.552C229.21 127.144 229.626 127.824 229.914 128.592C230.202 129.344 230.346 130.16 230.346 131.04C230.346 131.264 230.33 131.496 230.298 131.736C230.282 131.976 230.242 132.184 230.178 132.36H220.098V129.96H228.402L226.914 131.088C227.058 130.352 227.018 129.696 226.794 129.12C226.586 128.544 226.234 128.088 225.738 127.752C225.258 127.416 224.674 127.248 223.986 127.248C223.33 127.248 222.746 127.416 222.234 127.752C221.722 128.072 221.33 128.552 221.058 129.192C220.802 129.816 220.706 130.576 220.77 131.472C220.706 132.272 220.81 132.984 221.082 133.608C221.37 134.216 221.786 134.688 222.33 135.024C222.89 135.36 223.53 135.528 224.25 135.528C224.97 135.528 225.578 135.376 226.074 135.072C226.586 134.768 226.986 134.36 227.274 133.848L229.818 135.096C229.562 135.72 229.162 136.272 228.618 136.752C228.074 137.232 227.426 137.608 226.674 137.88C225.938 138.152 225.122 138.288 224.226 138.288ZM237.698 138.288C236.306 138.288 235.09 137.96 234.05 137.304C233.026 136.632 232.322 135.728 231.938 134.592L234.29 133.464C234.626 134.2 235.09 134.776 235.682 135.192C236.29 135.608 236.962 135.816 237.698 135.816C238.274 135.816 238.73 135.688 239.066 135.432C239.402 135.176 239.57 134.84 239.57 134.424C239.57 134.168 239.498 133.96 239.354 133.8C239.226 133.624 239.042 133.48 238.802 133.368C238.578 133.24 238.33 133.136 238.058 133.056L235.922 132.456C234.818 132.136 233.978 131.648 233.402 130.992C232.842 130.336 232.562 129.56 232.562 128.664C232.562 127.864 232.762 127.168 233.162 126.576C233.578 125.968 234.146 125.496 234.866 125.16C235.602 124.824 236.442 124.656 237.386 124.656C238.618 124.656 239.706 124.952 240.65 125.544C241.594 126.136 242.266 126.968 242.666 128.04L240.266 129.168C240.042 128.576 239.666 128.104 239.138 127.752C238.61 127.4 238.018 127.224 237.362 127.224C236.834 127.224 236.418 127.344 236.114 127.584C235.81 127.824 235.658 128.136 235.658 128.52C235.658 128.76 235.722 128.968 235.85 129.144C235.978 129.32 236.154 129.464 236.378 129.576C236.618 129.688 236.89 129.792 237.194 129.888L239.282 130.512C240.354 130.832 241.178 131.312 241.754 131.952C242.346 132.592 242.642 133.376 242.642 134.304C242.642 135.088 242.434 135.784 242.018 136.392C241.602 136.984 241.026 137.448 240.29 137.784C239.554 138.12 238.69 138.288 237.698 138.288Z" fill="#171921"/>
<path d="M33.584 177V163.59H37.994C39.326 163.59 40.484 163.866 41.468 164.418C42.452 164.958 43.214 165.732 43.754 166.74C44.294 167.736 44.564 168.918 44.564 170.286C44.564 171.642 44.294 172.824 43.754 173.832C43.214 174.84 42.452 175.62 41.468 176.172C40.484 176.724 39.326 177 37.994 177H33.584ZM35.024 175.65H37.994C39.026 175.65 39.92 175.434 40.676 175.002C41.432 174.558 42.014 173.934 42.422 173.13C42.842 172.326 43.052 171.378 43.052 170.286C43.052 169.194 42.842 168.252 42.422 167.46C42.002 166.656 41.414 166.038 40.658 165.606C39.902 165.162 39.014 164.94 37.994 164.94H35.024V175.65ZM46.7454 177V167.352H48.0954V168.936L47.9154 168.702C48.1434 168.246 48.4854 167.886 48.9414 167.622C49.4094 167.358 49.9734 167.226 50.6334 167.226H51.2454V168.576H50.3994C49.7034 168.576 49.1454 168.792 48.7254 169.224C48.3054 169.656 48.0954 170.268 48.0954 171.06V177H46.7454ZM55.6174 177.216C55.0054 177.216 54.4594 177.102 53.9794 176.874C53.4994 176.634 53.1214 176.31 52.8454 175.902C52.5694 175.494 52.4314 175.026 52.4314 174.498C52.4314 173.994 52.5394 173.538 52.7554 173.13C52.9714 172.71 53.3074 172.356 53.7634 172.068C54.2194 171.78 54.8014 171.576 55.5094 171.456L59.2894 170.826V172.05L55.8334 172.626C55.1374 172.746 54.6334 172.968 54.3214 173.292C54.0214 173.616 53.8714 174 53.8714 174.444C53.8714 174.876 54.0394 175.242 54.3754 175.542C54.7234 175.842 55.1674 175.992 55.7074 175.992C56.3674 175.992 56.9434 175.854 57.4354 175.578C57.9274 175.29 58.3114 174.906 58.5874 174.426C58.8634 173.946 59.0014 173.412 59.0014 172.824V170.376C59.0014 169.8 58.7914 169.332 58.3714 168.972C57.9514 168.612 57.4054 168.432 56.7334 168.432C56.1454 168.432 55.6294 168.582 55.1854 168.882C54.7414 169.17 54.4114 169.548 54.1954 170.016L52.9714 169.35C53.1514 168.942 53.4334 168.57 53.8174 168.234C54.2134 167.898 54.6634 167.634 55.1674 167.442C55.6714 167.238 56.1934 167.136 56.7334 167.136C57.4414 167.136 58.0654 167.274 58.6054 167.55C59.1574 167.826 59.5834 168.21 59.8834 168.702C60.1954 169.182 60.3514 169.74 60.3514 170.376V177H59.0014V175.074L59.1994 175.272C59.0314 175.632 58.7674 175.962 58.4074 176.262C58.0594 176.55 57.6454 176.784 57.1654 176.964C56.6974 177.132 56.1814 177.216 55.6174 177.216ZM63.1282 177V167.352H64.4782V177H63.1282ZM63.1282 165.57V163.59H64.4782V165.57H63.1282ZM67.2415 177V167.352H68.5915V169.224L68.2855 169.152C68.5255 168.528 68.9155 168.036 69.4555 167.676C70.0075 167.316 70.6435 167.136 71.3635 167.136C72.0475 167.136 72.6595 167.292 73.1995 167.604C73.7515 167.916 74.1835 168.348 74.4955 168.9C74.8195 169.44 74.9815 170.052 74.9815 170.736V177H73.6315V171.258C73.6315 170.67 73.5235 170.172 73.3075 169.764C73.1035 169.356 72.8095 169.044 72.4255 168.828C72.0535 168.6 71.6215 168.486 71.1295 168.486C70.6375 168.486 70.1995 168.6 69.8155 168.828C69.4315 169.044 69.1315 169.362 68.9155 169.782C68.6995 170.19 68.5915 170.682 68.5915 171.258V177H67.2415ZM80.6184 180.6V167.352H81.9684V169.512L81.7524 169.134C82.1364 168.522 82.6464 168.036 83.2824 167.676C83.9304 167.316 84.6684 167.136 85.4964 167.136C86.4084 167.136 87.2184 167.358 87.9264 167.802C88.6464 168.234 89.2104 168.828 89.6184 169.584C90.0384 170.34 90.2484 171.204 90.2484 172.176C90.2484 173.136 90.0384 174 89.6184 174.768C89.2104 175.524 88.6464 176.124 87.9264 176.568C87.2184 177 86.4084 177.216 85.4964 177.216C84.6684 177.216 83.9184 177.03 83.2464 176.658C82.5864 176.274 82.0884 175.734 81.7524 175.038L81.9684 174.84V180.6H80.6184ZM85.4244 175.866C86.0724 175.866 86.6484 175.704 87.1524 175.38C87.6684 175.056 88.0704 174.618 88.3584 174.066C88.6584 173.502 88.8084 172.872 88.8084 172.176C88.8084 171.468 88.6584 170.838 88.3584 170.286C88.0704 169.734 87.6684 169.296 87.1524 168.972C86.6484 168.648 86.0724 168.486 85.4244 168.486C84.7764 168.486 84.1884 168.648 83.6604 168.972C83.1444 169.296 82.7304 169.74 82.4184 170.304C82.1184 170.856 81.9684 171.48 81.9684 172.176C81.9684 172.872 82.1184 173.502 82.4184 174.066C82.7304 174.618 83.1444 175.056 83.6604 175.38C84.1884 175.704 84.7764 175.866 85.4244 175.866ZM92.6243 177V167.352H93.9743V177H92.6243ZM92.6243 165.57V163.59H93.9743V165.57H92.6243ZM96.7376 180.6V167.352H98.0876V169.512L97.8716 169.134C98.2556 168.522 98.7656 168.036 99.4016 167.676C100.05 167.316 100.788 167.136 101.616 167.136C102.528 167.136 103.338 167.358 104.046 167.802C104.766 168.234 105.33 168.828 105.738 169.584C106.158 170.34 106.368 171.204 106.368 172.176C106.368 173.136 106.158 174 105.738 174.768C105.33 175.524 104.766 176.124 104.046 176.568C103.338 177 102.528 177.216 101.616 177.216C100.788 177.216 100.038 177.03 99.3656 176.658C98.7056 176.274 98.2076 175.734 97.8716 175.038L98.0876 174.84V180.6H96.7376ZM101.544 175.866C102.192 175.866 102.768 175.704 103.272 175.38C103.788 175.056 104.19 174.618 104.478 174.066C104.778 173.502 104.928 172.872 104.928 172.176C104.928 171.468 104.778 170.838 104.478 170.286C104.19 169.734 103.788 169.296 103.272 168.972C102.768 168.648 102.192 168.486 101.544 168.486C100.896 168.486 100.308 168.648 99.7796 168.972C99.2636 169.296 98.8496 169.74 98.5376 170.304C98.2376 170.856 98.0876 171.48 98.0876 172.176C98.0876 172.872 98.2376 173.502 98.5376 174.066C98.8496 174.618 99.2636 175.056 99.7796 175.38C100.308 175.704 100.896 175.866 101.544 175.866ZM113.135 177.216C112.235 177.216 111.419 177 110.687 176.568C109.967 176.124 109.397 175.518 108.977 174.75C108.557 173.982 108.347 173.112 108.347 172.14C108.347 171.168 108.551 170.31 108.959 169.566C109.367 168.81 109.919 168.216 110.615 167.784C111.323 167.352 112.115 167.136 112.991 167.136C113.687 167.136 114.305 167.268 114.845 167.532C115.397 167.784 115.865 168.132 116.249 168.576C116.633 169.008 116.927 169.5 117.131 170.052C117.335 170.592 117.437 171.15 117.437 171.726C117.437 171.846 117.431 171.984 117.419 172.14C117.407 172.284 117.389 172.434 117.365 172.59H109.211V171.33H116.591L115.943 171.87C116.051 171.21 115.973 170.622 115.709 170.106C115.457 169.578 115.091 169.164 114.611 168.864C114.131 168.552 113.591 168.396 112.991 168.396C112.391 168.396 111.833 168.552 111.317 168.864C110.813 169.176 110.417 169.614 110.129 170.178C109.841 170.73 109.727 171.39 109.787 172.158C109.727 172.926 109.847 173.598 110.147 174.174C110.459 174.738 110.879 175.176 111.407 175.488C111.947 175.8 112.523 175.956 113.135 175.956C113.843 175.956 114.437 175.788 114.917 175.452C115.397 175.116 115.787 174.696 116.087 174.192L117.239 174.804C117.047 175.236 116.753 175.638 116.357 176.01C115.961 176.37 115.487 176.664 114.935 176.892C114.395 177.108 113.795 177.216 113.135 177.216ZM122.876 177V163.374H124.226V177H122.876ZM131.382 177.216C130.482 177.216 129.666 177 128.934 176.568C128.214 176.124 127.644 175.518 127.224 174.75C126.804 173.982 126.594 173.112 126.594 172.14C126.594 171.168 126.798 170.31 127.206 169.566C127.614 168.81 128.166 168.216 128.862 167.784C129.57 167.352 130.362 167.136 131.238 167.136C131.934 167.136 132.552 167.268 133.092 167.532C133.644 167.784 134.112 168.132 134.496 168.576C134.88 169.008 135.174 169.5 135.378 170.052C135.582 170.592 135.684 171.15 135.684 171.726C135.684 171.846 135.678 171.984 135.666 172.14C135.654 172.284 135.636 172.434 135.612 172.59H127.458V171.33H134.838L134.19 171.87C134.298 171.21 134.22 170.622 133.956 170.106C133.704 169.578 133.338 169.164 132.858 168.864C132.378 168.552 131.838 168.396 131.238 168.396C130.638 168.396 130.08 168.552 129.564 168.864C129.06 169.176 128.664 169.614 128.376 170.178C128.088 170.73 127.974 171.39 128.034 172.158C127.974 172.926 128.094 173.598 128.394 174.174C128.706 174.738 129.126 175.176 129.654 175.488C130.194 175.8 130.77 175.956 131.382 175.956C132.09 175.956 132.684 175.788 133.164 175.452C133.644 175.116 134.034 174.696 134.334 174.192L135.486 174.804C135.294 175.236 135 175.638 134.604 176.01C134.208 176.37 133.734 176.664 133.182 176.892C132.642 177.108 132.042 177.216 131.382 177.216ZM140.678 177.216C140.066 177.216 139.52 177.102 139.04 176.874C138.56 176.634 138.182 176.31 137.906 175.902C137.63 175.494 137.492 175.026 137.492 174.498C137.492 173.994 137.6 173.538 137.816 173.13C138.032 172.71 138.368 172.356 138.824 172.068C139.28 171.78 139.862 171.576 140.57 171.456L144.35 170.826V172.05L140.894 172.626C140.198 172.746 139.694 172.968 139.382 173.292C139.082 173.616 138.932 174 138.932 174.444C138.932 174.876 139.1 175.242 139.436 175.542C139.784 175.842 140.228 175.992 140.768 175.992C141.428 175.992 142.004 175.854 142.496 175.578C142.988 175.29 143.372 174.906 143.648 174.426C143.924 173.946 144.062 173.412 144.062 172.824V170.376C144.062 169.8 143.852 169.332 143.432 168.972C143.012 168.612 142.466 168.432 141.794 168.432C141.206 168.432 140.69 168.582 140.246 168.882C139.802 169.17 139.472 169.548 139.256 170.016L138.032 169.35C138.212 168.942 138.494 168.57 138.878 168.234C139.274 167.898 139.724 167.634 140.228 167.442C140.732 167.238 141.254 167.136 141.794 167.136C142.502 167.136 143.126 167.274 143.666 167.55C144.218 167.826 144.644 168.21 144.944 168.702C145.256 169.182 145.412 169.74 145.412 170.376V177H144.062V175.074L144.26 175.272C144.092 175.632 143.828 175.962 143.468 176.262C143.12 176.55 142.706 176.784 142.226 176.964C141.758 177.132 141.242 177.216 140.678 177.216ZM148.189 177V163.374H149.539V172.914L148.963 172.824L154.381 167.352H156.127L152.347 171.222L156.469 177H154.849L150.979 171.654L151.843 171.726L149.089 174.57L149.539 173.454V177H148.189ZM158.05 177V167.352H159.4V177H158.05ZM158.05 165.57V163.59H159.4V165.57H158.05ZM162.163 177V167.352H163.513V169.224L163.207 169.152C163.447 168.528 163.837 168.036 164.377 167.676C164.929 167.316 165.565 167.136 166.285 167.136C166.969 167.136 167.581 167.292 168.121 167.604C168.673 167.916 169.105 168.348 169.417 168.9C169.741 169.44 169.903 170.052 169.903 170.736V177H168.553V171.258C168.553 170.67 168.445 170.172 168.229 169.764C168.025 169.356 167.731 169.044 167.347 168.828C166.975 168.6 166.543 168.486 166.051 168.486C165.559 168.486 165.121 168.6 164.737 168.828C164.353 169.044 164.053 169.362 163.837 169.782C163.621 170.19 163.513 170.682 163.513 171.258V177H162.163ZM177.054 180.96C176.394 180.96 175.782 180.858 175.218 180.654C174.666 180.45 174.186 180.168 173.778 179.808C173.382 179.46 173.076 179.052 172.86 178.584L174.102 177.918C174.294 178.374 174.636 178.77 175.128 179.106C175.62 179.442 176.25 179.61 177.018 179.61C177.606 179.61 178.146 179.496 178.638 179.268C179.13 179.04 179.526 178.704 179.826 178.26C180.126 177.816 180.276 177.27 180.276 176.622V174.48L180.492 174.678C180.156 175.374 179.658 175.914 178.998 176.298C178.338 176.67 177.618 176.856 176.838 176.856C175.938 176.856 175.128 176.64 174.408 176.208C173.688 175.776 173.118 175.194 172.698 174.462C172.29 173.718 172.086 172.896 172.086 171.996C172.086 171.084 172.29 170.262 172.698 169.53C173.118 168.798 173.682 168.216 174.39 167.784C175.11 167.352 175.926 167.136 176.838 167.136C177.618 167.136 178.326 167.316 178.962 167.676C179.61 168.036 180.12 168.522 180.492 169.134L180.276 169.512V167.352H181.626V176.622C181.626 177.45 181.428 178.188 181.032 178.836C180.648 179.496 180.108 180.012 179.412 180.384C178.728 180.768 177.942 180.96 177.054 180.96ZM176.91 175.506C177.534 175.506 178.098 175.35 178.602 175.038C179.106 174.714 179.508 174.288 179.808 173.76C180.12 173.22 180.276 172.632 180.276 171.996C180.276 171.36 180.12 170.778 179.808 170.25C179.508 169.71 179.106 169.284 178.602 168.972C178.098 168.648 177.534 168.486 176.91 168.486C176.274 168.486 175.698 168.648 175.182 168.972C174.666 169.284 174.258 169.704 173.958 170.232C173.67 170.76 173.526 171.348 173.526 171.996C173.526 172.632 173.67 173.22 173.958 173.76C174.258 174.288 174.66 174.714 175.164 175.038C175.68 175.35 176.262 175.506 176.91 175.506ZM184.454 179.34V178.71C184.814 178.614 185.078 178.428 185.246 178.152C185.414 177.876 185.498 177.492 185.498 177H184.814V175.02H186.254V176.532C186.254 177.312 186.104 177.936 185.804 178.404C185.504 178.884 185.054 179.196 184.454 179.34ZM192.31 180.6V167.352H193.66V169.512L193.444 169.134C193.828 168.522 194.338 168.036 194.974 167.676C195.622 167.316 196.36 167.136 197.188 167.136C198.1 167.136 198.91 167.358 199.618 167.802C200.338 168.234 200.902 168.828 201.31 169.584C201.73 170.34 201.94 171.204 201.94 172.176C201.94 173.136 201.73 174 201.31 174.768C200.902 175.524 200.338 176.124 199.618 176.568C198.91 177 198.1 177.216 197.188 177.216C196.36 177.216 195.61 177.03 194.938 176.658C194.278 176.274 193.78 175.734 193.444 175.038L193.66 174.84V180.6H192.31ZM197.116 175.866C197.764 175.866 198.34 175.704 198.844 175.38C199.36 175.056 199.762 174.618 200.05 174.066C200.35 173.502 200.5 172.872 200.5 172.176C200.5 171.468 200.35 170.838 200.05 170.286C199.762 169.734 199.36 169.296 198.844 168.972C198.34 168.648 197.764 168.486 197.116 168.486C196.468 168.486 195.88 168.648 195.352 168.972C194.836 169.296 194.422 169.74 194.11 170.304C193.81 170.856 193.66 171.48 193.66 172.176C193.66 172.872 193.81 173.502 194.11 174.066C194.422 174.618 194.836 175.056 195.352 175.38C195.88 175.704 196.468 175.866 197.116 175.866ZM204.316 177V167.352H205.666V177H204.316ZM204.316 165.57V163.59H205.666V165.57H204.316ZM208.429 180.6V167.352H209.779V169.512L209.563 169.134C209.947 168.522 210.457 168.036 211.093 167.676C211.741 167.316 212.479 167.136 213.307 167.136C214.219 167.136 215.029 167.358 215.737 167.802C216.457 168.234 217.021 168.828 217.429 169.584C217.849 170.34 218.059 171.204 218.059 172.176C218.059 173.136 217.849 174 217.429 174.768C217.021 175.524 216.457 176.124 215.737 176.568C215.029 177 214.219 177.216 213.307 177.216C212.479 177.216 211.729 177.03 211.057 176.658C210.397 176.274 209.899 175.734 209.563 175.038L209.779 174.84V180.6H208.429ZM213.235 175.866C213.883 175.866 214.459 175.704 214.963 175.38C215.479 175.056 215.881 174.618 216.169 174.066C216.469 173.502 216.619 172.872 216.619 172.176C216.619 171.468 216.469 170.838 216.169 170.286C215.881 169.734 215.479 169.296 214.963 168.972C214.459 168.648 213.883 168.486 213.235 168.486C212.587 168.486 211.999 168.648 211.471 168.972C210.955 169.296 210.541 169.74 210.229 170.304C209.929 170.856 209.779 171.48 209.779 172.176C209.779 172.872 209.929 173.502 210.229 174.066C210.541 174.618 210.955 175.056 211.471 175.38C211.999 175.704 212.587 175.866 213.235 175.866ZM224.827 177.216C223.927 177.216 223.111 177 222.379 176.568C221.659 176.124 221.089 175.518 220.669 174.75C220.249 173.982 220.039 173.112 220.039 172.14C220.039 171.168 220.243 170.31 220.651 169.566C221.059 168.81 221.611 168.216 222.307 167.784C223.015 167.352 223.807 167.136 224.683 167.136C225.379 167.136 225.997 167.268 226.537 167.532C227.089 167.784 227.557 168.132 227.941 168.576C228.325 169.008 228.619 169.5 228.823 170.052C229.027 170.592 229.129 171.15 229.129 171.726C229.129 171.846 229.123 171.984 229.111 172.14C229.099 172.284 229.081 172.434 229.057 172.59H220.903V171.33H228.283L227.635 171.87C227.743 171.21 227.665 170.622 227.401 170.106C227.149 169.578 226.783 169.164 226.303 168.864C225.823 168.552 225.283 168.396 224.683 168.396C224.083 168.396 223.525 168.552 223.009 168.864C222.505 169.176 222.109 169.614 221.821 170.178C221.533 170.73 221.419 171.39 221.479 172.158C221.419 172.926 221.539 173.598 221.839 174.174C222.151 174.738 222.571 175.176 223.099 175.488C223.639 175.8 224.215 175.956 224.827 175.956C225.535 175.956 226.129 175.788 226.609 175.452C227.089 175.116 227.479 174.696 227.779 174.192L228.931 174.804C228.739 175.236 228.445 175.638 228.049 176.01C227.653 176.37 227.179 176.664 226.627 176.892C226.087 177.108 225.487 177.216 224.827 177.216ZM238.978 177.216C238.03 177.216 237.196 176.994 236.476 176.55C235.756 176.106 235.192 175.506 234.784 174.75C234.376 173.982 234.172 173.118 234.172 172.158C234.172 171.198 234.376 170.34 234.784 169.584C235.192 168.828 235.756 168.234 236.476 167.802C237.196 167.358 238.03 167.136 238.978 167.136C239.578 167.136 240.142 167.244 240.67 167.46C241.198 167.676 241.666 167.97 242.074 168.342C242.482 168.702 242.788 169.122 242.992 169.602L241.768 170.232C241.528 169.716 241.162 169.296 240.67 168.972C240.178 168.648 239.614 168.486 238.978 168.486C238.342 168.486 237.766 168.648 237.25 168.972C236.746 169.284 236.344 169.722 236.044 170.286C235.756 170.838 235.612 171.468 235.612 172.176C235.612 172.872 235.756 173.502 236.044 174.066C236.344 174.618 236.746 175.056 237.25 175.38C237.766 175.704 238.342 175.866 238.978 175.866C239.614 175.866 240.172 175.704 240.652 175.38C241.144 175.056 241.516 174.624 241.768 174.084L242.992 174.75C242.788 175.218 242.482 175.638 242.074 176.01C241.666 176.382 241.198 176.676 240.67 176.892C240.142 177.108 239.578 177.216 238.978 177.216ZM245.361 177V163.374H246.711V177H245.361ZM253.992 177.216C253.08 177.216 252.252 177 251.508 176.568C250.764 176.124 250.17 175.524 249.726 174.768C249.294 174 249.078 173.13 249.078 172.158C249.078 171.198 249.294 170.34 249.726 169.584C250.158 168.828 250.74 168.234 251.472 167.802C252.216 167.358 253.056 167.136 253.992 167.136C254.928 167.136 255.762 167.352 256.494 167.784C257.238 168.216 257.82 168.81 258.24 169.566C258.672 170.322 258.888 171.186 258.888 172.158C258.888 173.142 258.666 174.018 258.222 174.786C257.778 175.542 257.184 176.136 256.44 176.568C255.708 177 254.892 177.216 253.992 177.216ZM253.992 175.866C254.64 175.866 255.222 175.704 255.738 175.38C256.266 175.056 256.68 174.612 256.98 174.048C257.292 173.484 257.448 172.854 257.448 172.158C257.448 171.462 257.292 170.838 256.98 170.286C256.68 169.734 256.266 169.296 255.738 168.972C255.222 168.648 254.64 168.486 253.992 168.486C253.344 168.486 252.756 168.648 252.228 168.972C251.712 169.296 251.298 169.734 250.986 170.286C250.674 170.838 250.518 171.462 250.518 172.158C250.518 172.854 250.674 173.484 250.986 174.048C251.298 174.612 251.712 175.056 252.228 175.38C252.756 175.704 253.344 175.866 253.992 175.866ZM265.841 180.96C265.181 180.96 264.569 180.858 264.005 180.654C263.453 180.45 262.973 180.168 262.565 179.808C262.169 179.46 261.863 179.052 261.647 178.584L262.889 177.918C263.081 178.374 263.423 178.77 263.915 179.106C264.407 179.442 265.037 179.61 265.805 179.61C266.393 179.61 266.933 179.496 267.425 179.268C267.917 179.04 268.313 178.704 268.613 178.26C268.913 177.816 269.063 177.27 269.063 176.622V174.48L269.279 174.678C268.943 175.374 268.445 175.914 267.785 176.298C267.125 176.67 266.405 176.856 265.625 176.856C264.725 176.856 263.915 176.64 263.195 176.208C262.475 175.776 261.905 175.194 261.485 174.462C261.077 173.718 260.873 172.896 260.873 171.996C260.873 171.084 261.077 170.262 261.485 169.53C261.905 168.798 262.469 168.216 263.177 167.784C263.897 167.352 264.713 167.136 265.625 167.136C266.405 167.136 267.113 167.316 267.749 167.676C268.397 168.036 268.907 168.522 269.279 169.134L269.063 169.512V167.352H270.413V176.622C270.413 177.45 270.215 178.188 269.819 178.836C269.435 179.496 268.895 180.012 268.199 180.384C267.515 180.768 266.729 180.96 265.841 180.96ZM265.697 175.506C266.321 175.506 266.885 175.35 267.389 175.038C267.893 174.714 268.295 174.288 268.595 173.76C268.907 173.22 269.063 172.632 269.063 171.996C269.063 171.36 268.907 170.778 268.595 170.25C268.295 169.71 267.893 169.284 267.389 168.972C266.885 168.648 266.321 168.486 265.697 168.486C265.061 168.486 264.485 168.648 263.969 168.972C263.453 169.284 263.045 169.704 262.745 170.232C262.457 170.76 262.313 171.348 262.313 171.996C262.313 172.632 262.457 173.22 262.745 173.76C263.045 174.288 263.447 174.714 263.951 175.038C264.467 175.35 265.049 175.506 265.697 175.506ZM277.759 180.96C277.099 180.96 276.487 180.858 275.923 180.654C275.371 180.45 274.891 180.168 274.483 179.808C274.087 179.46 273.781 179.052 273.565 178.584L274.807 177.918C274.999 178.374 275.341 178.77 275.833 179.106C276.325 179.442 276.955 179.61 277.723 179.61C278.311 179.61 278.851 179.496 279.343 179.268C279.835 179.04 280.231 178.704 280.531 178.26C280.831 177.816 280.981 177.27 280.981 176.622V174.48L281.197 174.678C280.861 175.374 280.363 175.914 279.703 176.298C279.043 176.67 278.323 176.856 277.543 176.856C276.643 176.856 275.833 176.64 275.113 176.208C274.393 175.776 273.823 175.194 273.403 174.462C272.995 173.718 272.791 172.896 272.791 171.996C272.791 171.084 272.995 170.262 273.403 169.53C273.823 168.798 274.387 168.216 275.095 167.784C275.815 167.352 276.631 167.136 277.543 167.136C278.323 167.136 279.031 167.316 279.667 167.676C280.315 168.036 280.825 168.522 281.197 169.134L280.981 169.512V167.352H282.331V176.622C282.331 177.45 282.133 178.188 281.737 178.836C281.353 179.496 280.813 180.012 280.117 180.384C279.433 180.768 278.647 180.96 277.759 180.96ZM277.615 175.506C278.239 175.506 278.803 175.35 279.307 175.038C279.811 174.714 280.213 174.288 280.513 173.76C280.825 173.22 280.981 172.632 280.981 171.996C280.981 171.36 280.825 170.778 280.513 170.25C280.213 169.71 279.811 169.284 279.307 168.972C278.803 168.648 278.239 168.486 277.615 168.486C276.979 168.486 276.403 168.648 275.887 168.972C275.371 169.284 274.963 169.704 274.663 170.232C274.375 170.76 274.231 171.348 274.231 171.996C274.231 172.632 274.375 173.22 274.663 173.76C274.963 174.288 275.365 174.714 275.869 175.038C276.385 175.35 276.967 175.506 277.615 175.506ZM289.497 177.216C288.597 177.216 287.781 177 287.049 176.568C286.329 176.124 285.759 175.518 285.339 174.75C284.919 173.982 284.709 173.112 284.709 172.14C284.709 171.168 284.913 170.31 285.321 169.566C285.729 168.81 286.281 168.216 286.977 167.784C287.685 167.352 288.477 167.136 289.353 167.136C290.049 167.136 290.667 167.268 291.207 167.532C291.759 167.784 292.227 168.132 292.611 168.576C292.995 169.008 293.289 169.5 293.493 170.052C293.697 170.592 293.799 171.15 293.799 171.726C293.799 171.846 293.793 171.984 293.781 172.14C293.769 172.284 293.751 172.434 293.727 172.59H285.573V171.33H292.953L292.305 171.87C292.413 171.21 292.335 170.622 292.071 170.106C291.819 169.578 291.453 169.164 290.973 168.864C290.493 168.552 289.953 168.396 289.353 168.396C288.753 168.396 288.195 168.552 287.679 168.864C287.175 169.176 286.779 169.614 286.491 170.178C286.203 170.73 286.089 171.39 286.149 172.158C286.089 172.926 286.209 173.598 286.509 174.174C286.821 174.738 287.241 175.176 287.769 175.488C288.309 175.8 288.885 175.956 289.497 175.956C290.205 175.956 290.799 175.788 291.279 175.452C291.759 175.116 292.149 174.696 292.449 174.192L293.601 174.804C293.409 175.236 293.115 175.638 292.719 176.01C292.323 176.37 291.849 176.664 291.297 176.892C290.757 177.108 290.157 177.216 289.497 177.216ZM300.535 177.216C299.635 177.216 298.825 177 298.105 176.568C297.385 176.124 296.815 175.524 296.395 174.768C295.987 174 295.783 173.136 295.783 172.176C295.783 171.204 295.987 170.34 296.395 169.584C296.815 168.828 297.379 168.234 298.087 167.802C298.807 167.358 299.623 167.136 300.535 167.136C301.363 167.136 302.101 167.316 302.749 167.676C303.397 168.036 303.907 168.522 304.279 169.134L304.063 169.512V163.374H305.413V177H304.063V174.84L304.279 175.038C303.943 175.734 303.439 176.274 302.767 176.658C302.107 177.03 301.363 177.216 300.535 177.216ZM300.607 175.866C301.255 175.866 301.837 175.704 302.353 175.38C302.881 175.056 303.295 174.618 303.595 174.066C303.907 173.502 304.063 172.872 304.063 172.176C304.063 171.48 303.907 170.856 303.595 170.304C303.295 169.74 302.881 169.296 302.353 168.972C301.837 168.648 301.255 168.486 300.607 168.486C299.971 168.486 299.395 168.648 298.879 168.972C298.363 169.296 297.955 169.734 297.655 170.286C297.367 170.838 297.223 171.468 297.223 172.176C297.223 172.872 297.367 173.502 297.655 174.066C297.955 174.618 298.357 175.056 298.861 175.38C299.377 175.704 299.959 175.866 300.607 175.866ZM308.239 179.34V178.71C308.599 178.614 308.863 178.428 309.031 178.152C309.199 177.876 309.283 177.492 309.283 177H308.599V175.02H310.039V176.532C310.039 177.312 309.889 177.936 309.589 178.404C309.289 178.884 308.839 179.196 308.239 179.34ZM33.386 205V195.352H34.736V196.936L34.556 196.702C34.784 196.246 35.126 195.886 35.582 195.622C36.05 195.358 36.614 195.226 37.274 195.226H37.886V196.576H37.04C36.344 196.576 35.786 196.792 35.366 197.224C34.946 197.656 34.736 198.268 34.736 199.06V205H33.386ZM43.86 205.216C42.96 205.216 42.144 205 41.412 204.568C40.692 204.124 40.122 203.518 39.702 202.75C39.282 201.982 39.072 201.112 39.072 200.14C39.072 199.168 39.276 198.31 39.684 197.566C40.092 196.81 40.644 196.216 41.34 195.784C42.048 195.352 42.84 195.136 43.716 195.136C44.412 195.136 45.03 195.268 45.57 195.532C46.122 195.784 46.59 196.132 46.974 196.576C47.358 197.008 47.652 197.5 47.856 198.052C48.06 198.592 48.162 199.15 48.162 199.726C48.162 199.846 48.156 199.984 48.144 200.14C48.132 200.284 48.114 200.434 48.09 200.59H39.936V199.33H47.316L46.668 199.87C46.776 199.21 46.698 198.622 46.434 198.106C46.182 197.578 45.816 197.164 45.336 196.864C44.856 196.552 44.316 196.396 43.716 196.396C43.116 196.396 42.558 196.552 42.042 196.864C41.538 197.176 41.142 197.614 40.854 198.178C40.566 198.73 40.452 199.39 40.512 200.158C40.452 200.926 40.572 201.598 40.872 202.174C41.184 202.738 41.604 203.176 42.132 203.488C42.672 203.8 43.248 203.956 43.86 203.956C44.568 203.956 45.162 203.788 45.642 203.452C46.122 203.116 46.512 202.696 46.812 202.192L47.964 202.804C47.772 203.236 47.478 203.638 47.082 204.01C46.686 204.37 46.212 204.664 45.66 204.892C45.12 205.108 44.52 205.216 43.86 205.216ZM50.5423 208.6V195.352H51.8923V197.512L51.6763 197.134C52.0603 196.522 52.5703 196.036 53.2063 195.676C53.8543 195.316 54.5923 195.136 55.4203 195.136C56.3323 195.136 57.1423 195.358 57.8503 195.802C58.5703 196.234 59.1343 196.828 59.5423 197.584C59.9623 198.34 60.1723 199.204 60.1723 200.176C60.1723 201.136 59.9623 202 59.5423 202.768C59.1343 203.524 58.5703 204.124 57.8503 204.568C57.1423 205 56.3323 205.216 55.4203 205.216C54.5923 205.216 53.8423 205.03 53.1703 204.658C52.5103 204.274 52.0123 203.734 51.6763 203.038L51.8923 202.84V208.6H50.5423ZM55.3483 203.866C55.9963 203.866 56.5723 203.704 57.0763 203.38C57.5923 203.056 57.9943 202.618 58.2823 202.066C58.5823 201.502 58.7323 200.872 58.7323 200.176C58.7323 199.468 58.5823 198.838 58.2823 198.286C57.9943 197.734 57.5923 197.296 57.0763 196.972C56.5723 196.648 55.9963 196.486 55.3483 196.486C54.7003 196.486 54.1123 196.648 53.5843 196.972C53.0683 197.296 52.6543 197.74 52.3423 198.304C52.0423 198.856 51.8923 199.48 51.8923 200.176C51.8923 200.872 52.0423 201.502 52.3423 202.066C52.6543 202.618 53.0683 203.056 53.5843 203.38C54.1123 203.704 54.7003 203.866 55.3483 203.866ZM62.5481 205V191.374H63.8981V205H62.5481ZM69.4514 205.216C68.8394 205.216 68.2934 205.102 67.8134 204.874C67.3334 204.634 66.9554 204.31 66.6794 203.902C66.4034 203.494 66.2654 203.026 66.2654 202.498C66.2654 201.994 66.3734 201.538 66.5894 201.13C66.8054 200.71 67.1414 200.356 67.5974 200.068C68.0534 199.78 68.6354 199.576 69.3434 199.456L73.1234 198.826V200.05L69.6674 200.626C68.9714 200.746 68.4674 200.968 68.1554 201.292C67.8554 201.616 67.7054 202 67.7054 202.444C67.7054 202.876 67.8734 203.242 68.2094 203.542C68.5574 203.842 69.0014 203.992 69.5414 203.992C70.2014 203.992 70.7774 203.854 71.2694 203.578C71.7614 203.29 72.1454 202.906 72.4214 202.426C72.6974 201.946 72.8354 201.412 72.8354 200.824V198.376C72.8354 197.8 72.6254 197.332 72.2054 196.972C71.7854 196.612 71.2394 196.432 70.5674 196.432C69.9794 196.432 69.4634 196.582 69.0194 196.882C68.5754 197.17 68.2454 197.548 68.0294 198.016L66.8054 197.35C66.9854 196.942 67.2674 196.57 67.6514 196.234C68.0474 195.898 68.4974 195.634 69.0014 195.442C69.5054 195.238 70.0274 195.136 70.5674 195.136C71.2754 195.136 71.8994 195.274 72.4394 195.55C72.9914 195.826 73.4174 196.21 73.7174 196.702C74.0294 197.182 74.1854 197.74 74.1854 198.376V205H72.8354V203.074L73.0334 203.272C72.8654 203.632 72.6014 203.962 72.2414 204.262C71.8934 204.55 71.4794 204.784 70.9994 204.964C70.5314 205.132 70.0154 205.216 69.4514 205.216ZM81.3722 205.216C80.4242 205.216 79.5902 204.994 78.8702 204.55C78.1502 204.106 77.5862 203.506 77.1782 202.75C76.7702 201.982 76.5662 201.118 76.5662 200.158C76.5662 199.198 76.7702 198.34 77.1782 197.584C77.5862 196.828 78.1502 196.234 78.8702 195.802C79.5902 195.358 80.4242 195.136 81.3722 195.136C81.9722 195.136 82.5362 195.244 83.0642 195.46C83.5922 195.676 84.0602 195.97 84.4682 196.342C84.8762 196.702 85.1822 197.122 85.3862 197.602L84.1622 198.232C83.9222 197.716 83.5562 197.296 83.0642 196.972C82.5722 196.648 82.0082 196.486 81.3722 196.486C80.7362 196.486 80.1602 196.648 79.6442 196.972C79.1402 197.284 78.7382 197.722 78.4382 198.286C78.1502 198.838 78.0062 199.468 78.0062 200.176C78.0062 200.872 78.1502 201.502 78.4382 202.066C78.7382 202.618 79.1402 203.056 79.6442 203.38C80.1602 203.704 80.7362 203.866 81.3722 203.866C82.0082 203.866 82.5662 203.704 83.0462 203.38C83.5382 203.056 83.9102 202.624 84.1622 202.084L85.3862 202.75C85.1822 203.218 84.8762 203.638 84.4682 204.01C84.0602 204.382 83.5922 204.676 83.0642 204.892C82.5362 205.108 81.9722 205.216 81.3722 205.216ZM92.1471 205.216C91.2471 205.216 90.4311 205 89.6991 204.568C88.9791 204.124 88.4091 203.518 87.9891 202.75C87.5691 201.982 87.3591 201.112 87.3591 200.14C87.3591 199.168 87.5631 198.31 87.9711 197.566C88.3791 196.81 88.9311 196.216 89.6271 195.784C90.3351 195.352 91.1271 195.136 92.0031 195.136C92.6991 195.136 93.3171 195.268 93.8571 195.532C94.4091 195.784 94.8771 196.132 95.2611 196.576C95.6451 197.008 95.9391 197.5 96.1431 198.052C96.3471 198.592 96.4491 199.15 96.4491 199.726C96.4491 199.846 96.4431 199.984 96.4311 200.14C96.4191 200.284 96.4011 200.434 96.3771 200.59H88.2231V199.33H95.6031L94.9551 199.87C95.0631 199.21 94.9851 198.622 94.7211 198.106C94.4691 197.578 94.1031 197.164 93.6231 196.864C93.1431 196.552 92.6031 196.396 92.0031 196.396C91.4031 196.396 90.8451 196.552 90.3291 196.864C89.8251 197.176 89.4291 197.614 89.1411 198.178C88.8531 198.73 88.7391 199.39 88.7991 200.158C88.7391 200.926 88.8591 201.598 89.1591 202.174C89.4711 202.738 89.8911 203.176 90.4191 203.488C90.9591 203.8 91.5351 203.956 92.1471 203.956C92.8551 203.956 93.4491 203.788 93.9291 203.452C94.4091 203.116 94.7991 202.696 95.0991 202.192L96.2511 202.804C96.0591 203.236 95.7651 203.638 95.3691 204.01C94.9731 204.37 94.4991 204.664 93.9471 204.892C93.4071 205.108 92.8071 205.216 92.1471 205.216ZM105.578 205.108C104.714 205.108 104.048 204.856 103.58 204.352C103.112 203.848 102.878 203.128 102.878 202.192V196.702H101.096V195.352H101.546C101.954 195.352 102.278 195.22 102.518 194.956C102.758 194.68 102.878 194.338 102.878 193.93V193.12H104.228V195.352H106.352V196.702H104.228V202.192C104.228 202.516 104.276 202.804 104.372 203.056C104.468 203.296 104.63 203.488 104.858 203.632C105.098 203.776 105.416 203.848 105.812 203.848C105.908 203.848 106.022 203.842 106.154 203.83C106.286 203.818 106.4 203.806 106.496 203.794V205C106.352 205.036 106.19 205.06 106.01 205.072C105.83 205.096 105.686 205.108 105.578 205.108ZM108.866 205V191.374H110.216V197.224L109.91 197.152C110.15 196.528 110.54 196.036 111.08 195.676C111.632 195.316 112.268 195.136 112.988 195.136C113.672 195.136 114.284 195.292 114.824 195.604C115.376 195.916 115.808 196.348 116.12 196.9C116.444 197.44 116.606 198.052 116.606 198.736V205H115.256V199.258C115.256 198.67 115.148 198.172 114.932 197.764C114.716 197.356 114.416 197.044 114.032 196.828C113.66 196.6 113.234 196.486 112.754 196.486C112.274 196.486 111.842 196.6 111.458 196.828C111.074 197.044 110.768 197.362 110.54 197.782C110.324 198.19 110.216 198.682 110.216 199.258V205H108.866ZM123.577 205.216C122.677 205.216 121.861 205 121.129 204.568C120.409 204.124 119.839 203.518 119.419 202.75C118.999 201.982 118.789 201.112 118.789 200.14C118.789 199.168 118.993 198.31 119.401 197.566C119.809 196.81 120.361 196.216 121.057 195.784C121.765 195.352 122.557 195.136 123.433 195.136C124.129 195.136 124.747 195.268 125.287 195.532C125.839 195.784 126.307 196.132 126.691 196.576C127.075 197.008 127.369 197.5 127.573 198.052C127.777 198.592 127.879 199.15 127.879 199.726C127.879 199.846 127.873 199.984 127.861 200.14C127.849 200.284 127.831 200.434 127.807 200.59H119.653V199.33H127.033L126.385 199.87C126.493 199.21 126.415 198.622 126.151 198.106C125.899 197.578 125.533 197.164 125.053 196.864C124.573 196.552 124.033 196.396 123.433 196.396C122.833 196.396 122.275 196.552 121.759 196.864C121.255 197.176 120.859 197.614 120.571 198.178C120.283 198.73 120.169 199.39 120.229 200.158C120.169 200.926 120.289 201.598 120.589 202.174C120.901 202.738 121.321 203.176 121.849 203.488C122.389 203.8 122.965 203.956 123.577 203.956C124.285 203.956 124.879 203.788 125.359 203.452C125.839 203.116 126.229 202.696 126.529 202.192L127.681 202.804C127.489 203.236 127.195 203.638 126.799 204.01C126.403 204.37 125.929 204.664 125.377 204.892C124.837 205.108 124.237 205.216 123.577 205.216ZM133.318 208.6V195.352H134.668V197.512L134.452 197.134C134.836 196.522 135.346 196.036 135.982 195.676C136.63 195.316 137.368 195.136 138.196 195.136C139.108 195.136 139.918 195.358 140.626 195.802C141.346 196.234 141.91 196.828 142.318 197.584C142.738 198.34 142.948 199.204 142.948 200.176C142.948 201.136 142.738 202 142.318 202.768C141.91 203.524 141.346 204.124 140.626 204.568C139.918 205 139.108 205.216 138.196 205.216C137.368 205.216 136.618 205.03 135.946 204.658C135.286 204.274 134.788 203.734 134.452 203.038L134.668 202.84V208.6H133.318ZM138.124 203.866C138.772 203.866 139.348 203.704 139.852 203.38C140.368 203.056 140.77 202.618 141.058 202.066C141.358 201.502 141.508 200.872 141.508 200.176C141.508 199.468 141.358 198.838 141.058 198.286C140.77 197.734 140.368 197.296 139.852 196.972C139.348 196.648 138.772 196.486 138.124 196.486C137.476 196.486 136.888 196.648 136.36 196.972C135.844 197.296 135.43 197.74 135.118 198.304C134.818 198.856 134.668 199.48 134.668 200.176C134.668 200.872 134.818 201.502 135.118 202.066C135.43 202.618 135.844 203.056 136.36 203.38C136.888 203.704 137.476 203.866 138.124 203.866ZM145.324 205V195.352H146.674V205H145.324ZM145.324 193.57V191.59H146.674V193.57H145.324ZM149.437 208.6V195.352H150.787V197.512L150.571 197.134C150.955 196.522 151.465 196.036 152.101 195.676C152.749 195.316 153.487 195.136 154.315 195.136C155.227 195.136 156.037 195.358 156.745 195.802C157.465 196.234 158.029 196.828 158.437 197.584C158.857 198.34 159.067 199.204 159.067 200.176C159.067 201.136 158.857 202 158.437 202.768C158.029 203.524 157.465 204.124 156.745 204.568C156.037 205 155.227 205.216 154.315 205.216C153.487 205.216 152.737 205.03 152.065 204.658C151.405 204.274 150.907 203.734 150.571 203.038L150.787 202.84V208.6H149.437ZM154.243 203.866C154.891 203.866 155.467 203.704 155.971 203.38C156.487 203.056 156.889 202.618 157.177 202.066C157.477 201.502 157.627 200.872 157.627 200.176C157.627 199.468 157.477 198.838 157.177 198.286C156.889 197.734 156.487 197.296 155.971 196.972C155.467 196.648 154.891 196.486 154.243 196.486C153.595 196.486 153.007 196.648 152.479 196.972C151.963 197.296 151.549 197.74 151.237 198.304C150.937 198.856 150.787 199.48 150.787 200.176C150.787 200.872 150.937 201.502 151.237 202.066C151.549 202.618 151.963 203.056 152.479 203.38C153.007 203.704 153.595 203.866 154.243 203.866ZM165.835 205.216C164.935 205.216 164.119 205 163.387 204.568C162.667 204.124 162.097 203.518 161.677 202.75C161.257 201.982 161.047 201.112 161.047 200.14C161.047 199.168 161.251 198.31 161.659 197.566C162.067 196.81 162.619 196.216 163.315 195.784C164.023 195.352 164.815 195.136 165.691 195.136C166.387 195.136 167.005 195.268 167.545 195.532C168.097 195.784 168.565 196.132 168.949 196.576C169.333 197.008 169.627 197.5 169.831 198.052C170.035 198.592 170.137 199.15 170.137 199.726C170.137 199.846 170.131 199.984 170.119 200.14C170.107 200.284 170.089 200.434 170.065 200.59H161.911V199.33H169.291L168.643 199.87C168.751 199.21 168.673 198.622 168.409 198.106C168.157 197.578 167.791 197.164 167.311 196.864C166.831 196.552 166.291 196.396 165.691 196.396C165.091 196.396 164.533 196.552 164.017 196.864C163.513 197.176 163.117 197.614 162.829 198.178C162.541 198.73 162.427 199.39 162.487 200.158C162.427 200.926 162.547 201.598 162.847 202.174C163.159 202.738 163.579 203.176 164.107 203.488C164.647 203.8 165.223 203.956 165.835 203.956C166.543 203.956 167.137 203.788 167.617 203.452C168.097 203.116 168.487 202.696 168.787 202.192L169.939 202.804C169.747 203.236 169.453 203.638 169.057 204.01C168.661 204.37 168.187 204.664 167.635 204.892C167.095 205.108 166.495 205.216 165.835 205.216ZM175.575 205V191.374H176.925V205H175.575ZM179.689 205V195.352H181.039V205H179.689ZM179.689 193.57V191.59H181.039V193.57H179.689ZM183.802 205V195.352H185.152V197.224L184.846 197.152C185.086 196.528 185.476 196.036 186.016 195.676C186.568 195.316 187.204 195.136 187.924 195.136C188.608 195.136 189.22 195.292 189.76 195.604C190.312 195.916 190.744 196.348 191.056 196.9C191.38 197.44 191.542 198.052 191.542 198.736V205H190.192V199.258C190.192 198.67 190.084 198.172 189.868 197.764C189.664 197.356 189.37 197.044 188.986 196.828C188.614 196.6 188.182 196.486 187.69 196.486C187.198 196.486 186.76 196.6 186.376 196.828C185.992 197.044 185.692 197.362 185.476 197.782C185.26 198.19 185.152 198.682 185.152 199.258V205H183.802ZM198.512 205.216C197.612 205.216 196.796 205 196.064 204.568C195.344 204.124 194.774 203.518 194.354 202.75C193.934 201.982 193.724 201.112 193.724 200.14C193.724 199.168 193.928 198.31 194.336 197.566C194.744 196.81 195.296 196.216 195.992 195.784C196.7 195.352 197.492 195.136 198.368 195.136C199.064 195.136 199.682 195.268 200.222 195.532C200.774 195.784 201.242 196.132 201.626 196.576C202.01 197.008 202.304 197.5 202.508 198.052C202.712 198.592 202.814 199.15 202.814 199.726C202.814 199.846 202.808 199.984 202.796 200.14C202.784 200.284 202.766 200.434 202.742 200.59H194.588V199.33H201.968L201.32 199.87C201.428 199.21 201.35 198.622 201.086 198.106C200.834 197.578 200.468 197.164 199.988 196.864C199.508 196.552 198.968 196.396 198.368 196.396C197.768 196.396 197.21 196.552 196.694 196.864C196.19 197.176 195.794 197.614 195.506 198.178C195.218 198.73 195.104 199.39 195.164 200.158C195.104 200.926 195.224 201.598 195.524 202.174C195.836 202.738 196.256 203.176 196.784 203.488C197.324 203.8 197.9 203.956 198.512 203.956C199.22 203.956 199.814 203.788 200.294 203.452C200.774 203.116 201.164 202.696 201.464 202.192L202.616 202.804C202.424 203.236 202.13 203.638 201.734 204.01C201.338 204.37 200.864 204.664 200.312 204.892C199.772 205.108 199.172 205.216 198.512 205.216Z" fill="#545971"/>
</svg>
