<svg width="360" height="244" viewBox="0 0 360 244" fill="none" xmlns="http://www.w3.org/2000/svg">
<rect x="32" y="32" width="64" height="64" rx="20" fill="#142257"/>
<path d="M80.2948 53.9784H63.4752C62.9047 53.4193 62.1817 53.0412 61.3971 52.8913C60.6125 52.7415 59.8011 52.8267 59.0647 53.1361C58.3283 53.4455 57.6996 53.9655 57.2575 54.6308C56.8154 55.2961 56.5796 56.0771 56.5796 56.8759C56.5796 57.6747 56.8154 58.4557 57.2575 59.1211C57.6996 59.7864 58.3283 60.3063 59.0647 60.6158C59.8011 60.9252 60.6125 61.0104 61.3971 60.8605C62.1817 60.7107 62.9047 60.3325 63.4752 59.7735H80.2948C80.4485 59.7735 80.5959 59.7125 80.7046 59.6038C80.8133 59.4951 80.8744 59.3477 80.8744 59.194V54.5579C80.8744 54.4042 80.8133 54.2568 80.7046 54.1481C80.5959 54.0394 80.4485 53.9784 80.2948 53.9784Z" fill="white"/>
<path d="M65.6599 44.7295H54.2279C53.47 44.7295 52.743 45.0306 52.207 45.5666C51.6711 46.1026 51.37 46.8295 51.37 47.5875L50.8237 80.4132C50.8237 81.1712 51.1248 81.8981 51.6608 82.4341C52.1968 82.9701 52.9237 83.2712 53.6817 83.2712H65.1137C65.8717 83.2712 66.5986 82.9701 67.1346 82.4341C67.6706 81.8981 67.9717 81.1712 67.9717 80.4132L68.5179 61.8775H64.6975C63.3794 62.9422 61.6944 63.4438 60.0086 63.273C58.3229 63.1023 56.7726 62.2732 55.6948 60.9658C54.9878 60.1089 54.5149 59.0834 54.3221 57.9893C54.1293 56.8953 54.2232 55.7699 54.5948 54.7229C54.9663 53.676 55.6027 52.7431 56.442 52.0153C57.2812 51.2874 58.2948 50.7894 59.3838 50.5698C59.8037 50.4877 60.2305 50.4461 60.6584 50.4455C62.129 50.4424 63.5555 50.9472 64.6968 51.8745H68.5179V47.5875C68.5179 46.8295 68.2168 46.1026 67.6808 45.5666C67.1448 45.0306 66.4179 44.7295 65.6599 44.7295ZM59.3977 68.2667C60.0258 68.2637 60.6373 68.4688 61.1367 68.8497C61.6361 69.2307 61.9953 69.7662 62.1585 70.3728C62.3216 70.9794 62.2795 71.6229 62.0386 72.203C61.7977 72.7831 61.3715 73.2672 60.8267 73.5797V76.8407C60.8267 77.0302 60.7514 77.2119 60.6174 77.3459C60.4834 77.4799 60.3017 77.5552 60.1122 77.5552H58.6832C58.4937 77.5552 58.312 77.4799 58.178 77.3459C58.044 77.2119 57.9687 77.0302 57.9687 76.8407V73.5797C57.4239 73.2672 56.9978 72.7831 56.7569 72.203C56.5159 71.6229 56.4738 70.9794 56.6369 70.3728C56.8001 69.7662 57.1594 69.2307 57.6588 68.8497C58.1581 68.4688 58.7696 68.2637 59.3977 68.2667Z" fill="white"/>
<path d="M33.728 138V120.12H36.992V135.12H44.648V138H33.728ZM52.8793 138.288C51.5993 138.288 50.4313 137.992 49.3753 137.4C48.3353 136.808 47.5033 136 46.8793 134.976C46.2713 133.952 45.9673 132.784 45.9673 131.472C45.9673 130.16 46.2713 128.992 46.8793 127.968C47.5033 126.944 48.3353 126.136 49.3753 125.544C50.4153 124.952 51.5833 124.656 52.8793 124.656C54.1593 124.656 55.3193 124.952 56.3593 125.544C57.3993 126.136 58.2233 126.944 58.8313 127.968C59.4553 128.976 59.7673 130.144 59.7673 131.472C59.7673 132.784 59.4553 133.952 58.8313 134.976C58.2073 136 57.3753 136.808 56.3353 137.4C55.2953 137.992 54.1433 138.288 52.8793 138.288ZM52.8793 135.408C53.5833 135.408 54.1993 135.24 54.7273 134.904C55.2713 134.568 55.6953 134.104 55.9993 133.512C56.3193 132.904 56.4793 132.224 56.4793 131.472C56.4793 130.704 56.3193 130.032 55.9993 129.456C55.6953 128.864 55.2713 128.4 54.7273 128.064C54.1993 127.712 53.5833 127.536 52.8793 127.536C52.1593 127.536 51.5273 127.712 50.9833 128.064C50.4393 128.4 50.0073 128.864 49.6873 129.456C49.3833 130.032 49.2313 130.704 49.2313 131.472C49.2313 132.224 49.3833 132.904 49.6873 133.512C50.0073 134.104 50.4393 134.568 50.9833 134.904C51.5273 135.24 52.1593 135.408 52.8793 135.408ZM68.4395 138.288C67.1435 138.288 65.9755 137.992 64.9355 137.4C63.9115 136.792 63.1035 135.976 62.5115 134.952C61.9195 133.912 61.6235 132.744 61.6235 131.448C61.6235 130.152 61.9195 128.992 62.5115 127.968C63.1035 126.944 63.9115 126.136 64.9355 125.544C65.9755 124.952 67.1435 124.656 68.4395 124.656C69.3675 124.656 70.2315 124.824 71.0315 125.16C71.8315 125.48 72.5195 125.928 73.0955 126.504C73.6875 127.064 74.1115 127.736 74.3675 128.52L71.6075 129.72C71.3675 129.064 70.9595 128.536 70.3835 128.136C69.8235 127.736 69.1755 127.536 68.4395 127.536C67.7515 127.536 67.1355 127.704 66.5915 128.04C66.0635 128.376 65.6475 128.84 65.3435 129.432C65.0395 130.024 64.8875 130.704 64.8875 131.472C64.8875 132.24 65.0395 132.92 65.3435 133.512C65.6475 134.104 66.0635 134.568 66.5915 134.904C67.1355 135.24 67.7515 135.408 68.4395 135.408C69.1915 135.408 69.8475 135.208 70.4075 134.808C70.9675 134.408 71.3675 133.872 71.6075 133.2L74.3675 134.448C74.1115 135.184 73.6955 135.848 73.1195 136.44C72.5435 137.016 71.8555 137.472 71.0555 137.808C70.2555 138.128 69.3835 138.288 68.4395 138.288ZM76.7531 138V119.832H79.8971V131.736L78.6971 131.376L84.8411 124.944H88.7531L83.9291 130.2L88.8491 138H85.2491L80.9771 131.232L82.8491 130.848L78.9131 135.072L79.8971 133.152V138H76.7531ZM95.5726 138.288C94.1806 138.288 92.9646 137.96 91.9246 137.304C90.9006 136.632 90.1966 135.728 89.8126 134.592L92.1646 133.464C92.5006 134.2 92.9646 134.776 93.5566 135.192C94.1646 135.608 94.8366 135.816 95.5726 135.816C96.1486 135.816 96.6046 135.688 96.9406 135.432C97.2766 135.176 97.4446 134.84 97.4446 134.424C97.4446 134.168 97.3726 133.96 97.2286 133.8C97.1006 133.624 96.9166 133.48 96.6766 133.368C96.4526 133.24 96.2046 133.136 95.9326 133.056L93.7966 132.456C92.6926 132.136 91.8526 131.648 91.2766 130.992C90.7166 130.336 90.4366 129.56 90.4366 128.664C90.4366 127.864 90.6366 127.168 91.0366 126.576C91.4526 125.968 92.0206 125.496 92.7406 125.16C93.4766 124.824 94.3166 124.656 95.2606 124.656C96.4926 124.656 97.5806 124.952 98.5246 125.544C99.4686 126.136 100.141 126.968 100.541 128.04L98.1406 129.168C97.9166 128.576 97.5406 128.104 97.0126 127.752C96.4846 127.4 95.8926 127.224 95.2366 127.224C94.7086 127.224 94.2926 127.344 93.9886 127.584C93.6846 127.824 93.5326 128.136 93.5326 128.52C93.5326 128.76 93.5966 128.968 93.7246 129.144C93.8526 129.32 94.0286 129.464 94.2526 129.576C94.4926 129.688 94.7646 129.792 95.0686 129.888L97.1566 130.512C98.2286 130.832 99.0526 131.312 99.6286 131.952C100.221 132.592 100.517 133.376 100.517 134.304C100.517 135.088 100.309 135.784 99.8926 136.392C99.4766 136.984 98.9006 137.448 98.1646 137.784C97.4286 138.12 96.5646 138.288 95.5726 138.288ZM102.933 138V124.944H105.885V127.968L105.549 127.464C105.789 126.52 106.269 125.816 106.989 125.352C107.709 124.888 108.557 124.656 109.533 124.656C110.605 124.656 111.549 124.936 112.365 125.496C113.181 126.056 113.709 126.792 113.949 127.704L113.061 127.776C113.461 126.736 114.061 125.96 114.861 125.448C115.661 124.92 116.581 124.656 117.621 124.656C118.549 124.656 119.373 124.864 120.093 125.28C120.829 125.696 121.405 126.28 121.821 127.032C122.237 127.768 122.445 128.624 122.445 129.6V138H119.301V130.344C119.301 129.768 119.197 129.272 118.989 128.856C118.781 128.44 118.493 128.12 118.125 127.896C117.757 127.656 117.309 127.536 116.781 127.536C116.285 127.536 115.845 127.656 115.461 127.896C115.077 128.12 114.781 128.44 114.573 128.856C114.365 129.272 114.261 129.768 114.261 130.344V138H111.117V130.344C111.117 129.768 111.013 129.272 110.805 128.856C110.597 128.44 110.301 128.12 109.917 127.896C109.549 127.656 109.109 127.536 108.597 127.536C108.101 127.536 107.661 127.656 107.277 127.896C106.893 128.12 106.597 128.44 106.389 128.856C106.181 129.272 106.077 129.768 106.077 130.344V138H102.933ZM125.105 138V124.944H128.249V138H125.105ZM125.105 123.48V120.12H128.249V123.48H125.105ZM137.104 138.144C135.632 138.144 134.488 137.744 133.672 136.944C132.872 136.128 132.472 134.984 132.472 133.512V127.752H130.216V124.944H130.456C131.096 124.944 131.592 124.776 131.944 124.44C132.296 124.104 132.472 123.616 132.472 122.976V121.968H135.616V124.944H138.616V127.752H135.616V133.344C135.616 133.776 135.688 134.144 135.832 134.448C135.992 134.752 136.232 134.984 136.552 135.144C136.888 135.304 137.312 135.384 137.824 135.384C137.936 135.384 138.064 135.376 138.208 135.36C138.368 135.344 138.52 135.328 138.664 135.312V138C138.44 138.032 138.184 138.064 137.896 138.096C137.608 138.128 137.344 138.144 137.104 138.144ZM141.066 138V119.832H144.21V127.512L143.778 127.056C144.082 126.272 144.578 125.68 145.266 125.28C145.97 124.864 146.786 124.656 147.714 124.656C148.674 124.656 149.522 124.864 150.258 125.28C151.01 125.696 151.594 126.28 152.01 127.032C152.426 127.768 152.634 128.624 152.634 129.6V138H149.49V130.344C149.49 129.768 149.378 129.272 149.154 128.856C148.93 128.44 148.618 128.12 148.218 127.896C147.834 127.656 147.378 127.536 146.85 127.536C146.338 127.536 145.882 127.656 145.482 127.896C145.082 128.12 144.77 128.44 144.546 128.856C144.322 129.272 144.21 129.768 144.21 130.344V138H141.066Z" fill="#171921"/>
<path d="M33.584 177V163.59H35.024V175.65H40.964V177H33.584ZM47.4665 177.216C46.5545 177.216 45.7265 177 44.9825 176.568C44.2385 176.124 43.6445 175.524 43.2005 174.768C42.7685 174 42.5525 173.13 42.5525 172.158C42.5525 171.198 42.7685 170.34 43.2005 169.584C43.6325 168.828 44.2145 168.234 44.9465 167.802C45.6905 167.358 46.5305 167.136 47.4665 167.136C48.4025 167.136 49.2365 167.352 49.9685 167.784C50.7125 168.216 51.2945 168.81 51.7145 169.566C52.1465 170.322 52.3625 171.186 52.3625 172.158C52.3625 173.142 52.1405 174.018 51.6965 174.786C51.2525 175.542 50.6585 176.136 49.9145 176.568C49.1825 177 48.3665 177.216 47.4665 177.216ZM47.4665 175.866C48.1145 175.866 48.6965 175.704 49.2125 175.38C49.7405 175.056 50.1545 174.612 50.4545 174.048C50.7665 173.484 50.9225 172.854 50.9225 172.158C50.9225 171.462 50.7665 170.838 50.4545 170.286C50.1545 169.734 49.7405 169.296 49.2125 168.972C48.6965 168.648 48.1145 168.486 47.4665 168.486C46.8185 168.486 46.2305 168.648 45.7025 168.972C45.1865 169.296 44.7725 169.734 44.4605 170.286C44.1485 170.838 43.9925 171.462 43.9925 172.158C43.9925 172.854 44.1485 173.484 44.4605 174.048C44.7725 174.612 45.1865 175.056 45.7025 175.38C46.2305 175.704 46.8185 175.866 47.4665 175.866ZM59.1534 177.216C58.2054 177.216 57.3714 176.994 56.6514 176.55C55.9314 176.106 55.3674 175.506 54.9594 174.75C54.5514 173.982 54.3474 173.118 54.3474 172.158C54.3474 171.198 54.5514 170.34 54.9594 169.584C55.3674 168.828 55.9314 168.234 56.6514 167.802C57.3714 167.358 58.2054 167.136 59.1534 167.136C59.7534 167.136 60.3174 167.244 60.8454 167.46C61.3734 167.676 61.8414 167.97 62.2494 168.342C62.6574 168.702 62.9634 169.122 63.1674 169.602L61.9434 170.232C61.7034 169.716 61.3374 169.296 60.8454 168.972C60.3534 168.648 59.7894 168.486 59.1534 168.486C58.5174 168.486 57.9414 168.648 57.4254 168.972C56.9214 169.284 56.5194 169.722 56.2194 170.286C55.9314 170.838 55.7874 171.468 55.7874 172.176C55.7874 172.872 55.9314 173.502 56.2194 174.066C56.5194 174.618 56.9214 175.056 57.4254 175.38C57.9414 175.704 58.5174 175.866 59.1534 175.866C59.7894 175.866 60.3474 175.704 60.8274 175.38C61.3194 175.056 61.6914 174.624 61.9434 174.084L63.1674 174.75C62.9634 175.218 62.6574 175.638 62.2494 176.01C61.8414 176.382 61.3734 176.676 60.8454 176.892C60.3174 177.108 59.7534 177.216 59.1534 177.216ZM65.5364 177V163.374H66.8864V172.914L66.3104 172.824L71.7284 167.352H73.4744L69.6944 171.222L73.8164 177H72.1964L68.3264 171.654L69.1904 171.726L66.4364 174.57L66.8864 173.454V177H65.5364ZM78.6543 177V163.59H80.0943V177H78.6543ZM83.0618 177V167.352H84.4118V169.224L84.1058 169.152C84.3458 168.528 84.7358 168.036 85.2758 167.676C85.8278 167.316 86.4638 167.136 87.1838 167.136C87.8678 167.136 88.4798 167.292 89.0198 167.604C89.5718 167.916 90.0038 168.348 90.3158 168.9C90.6398 169.44 90.8018 170.052 90.8018 170.736V177H89.4518V171.258C89.4518 170.67 89.3438 170.172 89.1278 169.764C88.9238 169.356 88.6298 169.044 88.2458 168.828C87.8738 168.6 87.4418 168.486 86.9498 168.486C86.4578 168.486 86.0198 168.6 85.6358 168.828C85.2518 169.044 84.9518 169.362 84.7358 169.782C84.5198 170.19 84.4118 170.682 84.4118 171.258V177H83.0618ZM96.7281 177.216C95.8041 177.216 94.9941 176.982 94.2981 176.514C93.6021 176.046 93.0981 175.41 92.7861 174.606L93.9201 174.066C94.1961 174.654 94.5801 175.122 95.0721 175.47C95.5761 175.818 96.1281 175.992 96.7281 175.992C97.3041 175.992 97.7901 175.854 98.1861 175.578C98.5821 175.29 98.7801 174.918 98.7801 174.462C98.7801 174.126 98.6841 173.862 98.4921 173.67C98.3001 173.466 98.0781 173.31 97.8261 173.202C97.5741 173.094 97.3521 173.016 97.1601 172.968L95.7741 172.572C94.8861 172.32 94.2441 171.966 93.8481 171.51C93.4521 171.054 93.2541 170.526 93.2541 169.926C93.2541 169.362 93.3981 168.87 93.6861 168.45C93.9741 168.03 94.3641 167.706 94.8561 167.478C95.3481 167.25 95.8941 167.136 96.4941 167.136C97.3101 167.136 98.0481 167.352 98.7081 167.784C99.3801 168.204 99.8541 168.792 100.13 169.548L98.9781 170.088C98.7381 169.548 98.3901 169.128 97.9341 168.828C97.4901 168.516 96.9921 168.36 96.4401 168.36C95.9001 168.36 95.4681 168.498 95.1441 168.774C94.8201 169.05 94.6581 169.398 94.6581 169.818C94.6581 170.142 94.7421 170.4 94.9101 170.592C95.0781 170.784 95.2701 170.928 95.4861 171.024C95.7141 171.12 95.9121 171.192 96.0801 171.24L97.6821 171.708C98.4621 171.936 99.0681 172.29 99.5001 172.77C99.9441 173.25 100.166 173.814 100.166 174.462C100.166 174.99 100.016 175.464 99.7161 175.884C99.4281 176.304 99.0261 176.634 98.5101 176.874C97.9941 177.102 97.4001 177.216 96.7281 177.216ZM106.228 177.108C105.364 177.108 104.698 176.856 104.23 176.352C103.762 175.848 103.528 175.128 103.528 174.192V168.702H101.746V167.352H102.196C102.604 167.352 102.928 167.22 103.168 166.956C103.408 166.68 103.528 166.338 103.528 165.93V165.12H104.878V167.352H107.002V168.702H104.878V174.192C104.878 174.516 104.926 174.804 105.022 175.056C105.118 175.296 105.28 175.488 105.508 175.632C105.748 175.776 106.066 175.848 106.462 175.848C106.558 175.848 106.672 175.842 106.804 175.83C106.936 175.818 107.05 175.806 107.146 175.794V177C107.002 177.036 106.84 177.06 106.66 177.072C106.48 177.096 106.336 177.108 106.228 177.108ZM112.131 177.216C111.519 177.216 110.973 177.102 110.493 176.874C110.013 176.634 109.635 176.31 109.359 175.902C109.083 175.494 108.945 175.026 108.945 174.498C108.945 173.994 109.053 173.538 109.269 173.13C109.485 172.71 109.821 172.356 110.277 172.068C110.733 171.78 111.315 171.576 112.023 171.456L115.803 170.826V172.05L112.347 172.626C111.651 172.746 111.147 172.968 110.835 173.292C110.535 173.616 110.385 174 110.385 174.444C110.385 174.876 110.553 175.242 110.889 175.542C111.237 175.842 111.681 175.992 112.221 175.992C112.881 175.992 113.457 175.854 113.949 175.578C114.441 175.29 114.825 174.906 115.101 174.426C115.377 173.946 115.515 173.412 115.515 172.824V170.376C115.515 169.8 115.305 169.332 114.885 168.972C114.465 168.612 113.919 168.432 113.247 168.432C112.659 168.432 112.143 168.582 111.699 168.882C111.255 169.17 110.925 169.548 110.709 170.016L109.485 169.35C109.665 168.942 109.947 168.57 110.331 168.234C110.727 167.898 111.177 167.634 111.681 167.442C112.185 167.238 112.707 167.136 113.247 167.136C113.955 167.136 114.579 167.274 115.119 167.55C115.671 167.826 116.097 168.21 116.397 168.702C116.709 169.182 116.865 169.74 116.865 170.376V177H115.515V175.074L115.713 175.272C115.545 175.632 115.281 175.962 114.921 176.262C114.573 176.55 114.159 176.784 113.679 176.964C113.211 177.132 112.695 177.216 112.131 177.216ZM119.642 177V163.374H120.992V177H119.642ZM123.755 177V163.374H125.105V177H123.755ZM130.658 177.216C130.046 177.216 129.5 177.102 129.02 176.874C128.54 176.634 128.162 176.31 127.886 175.902C127.61 175.494 127.472 175.026 127.472 174.498C127.472 173.994 127.58 173.538 127.796 173.13C128.012 172.71 128.348 172.356 128.804 172.068C129.26 171.78 129.842 171.576 130.55 171.456L134.33 170.826V172.05L130.874 172.626C130.178 172.746 129.674 172.968 129.362 173.292C129.062 173.616 128.912 174 128.912 174.444C128.912 174.876 129.08 175.242 129.416 175.542C129.764 175.842 130.208 175.992 130.748 175.992C131.408 175.992 131.984 175.854 132.476 175.578C132.968 175.29 133.352 174.906 133.628 174.426C133.904 173.946 134.042 173.412 134.042 172.824V170.376C134.042 169.8 133.832 169.332 133.412 168.972C132.992 168.612 132.446 168.432 131.774 168.432C131.186 168.432 130.67 168.582 130.226 168.882C129.782 169.17 129.452 169.548 129.236 170.016L128.012 169.35C128.192 168.942 128.474 168.57 128.858 168.234C129.254 167.898 129.704 167.634 130.208 167.442C130.712 167.238 131.234 167.136 131.774 167.136C132.482 167.136 133.106 167.274 133.646 167.55C134.198 167.826 134.624 168.21 134.924 168.702C135.236 169.182 135.392 169.74 135.392 170.376V177H134.042V175.074L134.24 175.272C134.072 175.632 133.808 175.962 133.448 176.262C133.1 176.55 132.686 176.784 132.206 176.964C131.738 177.132 131.222 177.216 130.658 177.216ZM141.683 177.108C140.819 177.108 140.153 176.856 139.685 176.352C139.217 175.848 138.983 175.128 138.983 174.192V168.702H137.201V167.352H137.651C138.059 167.352 138.383 167.22 138.623 166.956C138.863 166.68 138.983 166.338 138.983 165.93V165.12H140.333V167.352H142.457V168.702H140.333V174.192C140.333 174.516 140.381 174.804 140.477 175.056C140.573 175.296 140.735 175.488 140.963 175.632C141.203 175.776 141.521 175.848 141.917 175.848C142.013 175.848 142.127 175.842 142.259 175.83C142.391 175.818 142.505 175.806 142.601 175.794V177C142.457 177.036 142.295 177.06 142.115 177.072C141.935 177.096 141.791 177.108 141.683 177.108ZM144.972 177V167.352H146.322V177H144.972ZM144.972 165.57V163.59H146.322V165.57H144.972ZM153.603 177.216C152.691 177.216 151.863 177 151.119 176.568C150.375 176.124 149.781 175.524 149.337 174.768C148.905 174 148.689 173.13 148.689 172.158C148.689 171.198 148.905 170.34 149.337 169.584C149.769 168.828 150.351 168.234 151.083 167.802C151.827 167.358 152.667 167.136 153.603 167.136C154.539 167.136 155.373 167.352 156.105 167.784C156.849 168.216 157.431 168.81 157.851 169.566C158.283 170.322 158.499 171.186 158.499 172.158C158.499 173.142 158.277 174.018 157.833 174.786C157.389 175.542 156.795 176.136 156.051 176.568C155.319 177 154.503 177.216 153.603 177.216ZM153.603 175.866C154.251 175.866 154.833 175.704 155.349 175.38C155.877 175.056 156.291 174.612 156.591 174.048C156.903 173.484 157.059 172.854 157.059 172.158C157.059 171.462 156.903 170.838 156.591 170.286C156.291 169.734 155.877 169.296 155.349 168.972C154.833 168.648 154.251 168.486 153.603 168.486C152.955 168.486 152.367 168.648 151.839 168.972C151.323 169.296 150.909 169.734 150.597 170.286C150.285 170.838 150.129 171.462 150.129 172.158C150.129 172.854 150.285 173.484 150.597 174.048C150.909 174.612 151.323 175.056 151.839 175.38C152.367 175.704 152.955 175.866 153.603 175.866ZM160.88 177V167.352H162.23V169.224L161.924 169.152C162.164 168.528 162.554 168.036 163.094 167.676C163.646 167.316 164.282 167.136 165.002 167.136C165.686 167.136 166.298 167.292 166.838 167.604C167.39 167.916 167.822 168.348 168.134 168.9C168.458 169.44 168.62 170.052 168.62 170.736V177H167.27V171.258C167.27 170.67 167.162 170.172 166.946 169.764C166.742 169.356 166.448 169.044 166.064 168.828C165.692 168.6 165.26 168.486 164.768 168.486C164.276 168.486 163.838 168.6 163.454 168.828C163.07 169.044 162.77 169.362 162.554 169.782C162.338 170.19 162.23 170.682 162.23 171.258V177H160.88ZM177.047 177.216C176.435 177.216 175.889 177.102 175.409 176.874C174.929 176.634 174.551 176.31 174.275 175.902C173.999 175.494 173.861 175.026 173.861 174.498C173.861 173.994 173.969 173.538 174.185 173.13C174.401 172.71 174.737 172.356 175.193 172.068C175.649 171.78 176.231 171.576 176.939 171.456L180.719 170.826V172.05L177.263 172.626C176.567 172.746 176.063 172.968 175.751 173.292C175.451 173.616 175.301 174 175.301 174.444C175.301 174.876 175.469 175.242 175.805 175.542C176.153 175.842 176.597 175.992 177.137 175.992C177.797 175.992 178.373 175.854 178.865 175.578C179.357 175.29 179.741 174.906 180.017 174.426C180.293 173.946 180.431 173.412 180.431 172.824V170.376C180.431 169.8 180.221 169.332 179.801 168.972C179.381 168.612 178.835 168.432 178.163 168.432C177.575 168.432 177.059 168.582 176.615 168.882C176.171 169.17 175.841 169.548 175.625 170.016L174.401 169.35C174.581 168.942 174.863 168.57 175.247 168.234C175.643 167.898 176.093 167.634 176.597 167.442C177.101 167.238 177.623 167.136 178.163 167.136C178.871 167.136 179.495 167.274 180.035 167.55C180.587 167.826 181.013 168.21 181.313 168.702C181.625 169.182 181.781 169.74 181.781 170.376V177H180.431V175.074L180.629 175.272C180.461 175.632 180.197 175.962 179.837 176.262C179.489 176.55 179.075 176.784 178.595 176.964C178.127 177.132 177.611 177.216 177.047 177.216ZM184.558 177V167.352H185.908V169.224L185.602 169.152C185.842 168.528 186.232 168.036 186.772 167.676C187.324 167.316 187.96 167.136 188.68 167.136C189.364 167.136 189.976 167.292 190.516 167.604C191.068 167.916 191.5 168.348 191.812 168.9C192.136 169.44 192.298 170.052 192.298 170.736V177H190.948V171.258C190.948 170.67 190.84 170.172 190.624 169.764C190.42 169.356 190.126 169.044 189.742 168.828C189.37 168.6 188.938 168.486 188.446 168.486C187.954 168.486 187.516 168.6 187.132 168.828C186.748 169.044 186.448 169.362 186.232 169.782C186.016 170.19 185.908 170.682 185.908 171.258V177H184.558ZM199.232 177.216C198.332 177.216 197.522 177 196.802 176.568C196.082 176.124 195.512 175.524 195.092 174.768C194.684 174 194.48 173.136 194.48 172.176C194.48 171.204 194.684 170.34 195.092 169.584C195.512 168.828 196.076 168.234 196.784 167.802C197.504 167.358 198.32 167.136 199.232 167.136C200.06 167.136 200.798 167.316 201.446 167.676C202.094 168.036 202.604 168.522 202.976 169.134L202.76 169.512V163.374H204.11V177H202.76V174.84L202.976 175.038C202.64 175.734 202.136 176.274 201.464 176.658C200.804 177.03 200.06 177.216 199.232 177.216ZM199.304 175.866C199.952 175.866 200.534 175.704 201.05 175.38C201.578 175.056 201.992 174.618 202.292 174.066C202.604 173.502 202.76 172.872 202.76 172.176C202.76 171.48 202.604 170.856 202.292 170.304C201.992 169.74 201.578 169.296 201.05 168.972C200.534 168.648 199.952 168.486 199.304 168.486C198.668 168.486 198.092 168.648 197.576 168.972C197.06 169.296 196.652 169.734 196.352 170.286C196.064 170.838 195.92 171.468 195.92 172.176C195.92 172.872 196.064 173.502 196.352 174.066C196.652 174.618 197.054 175.056 197.558 175.38C198.074 175.704 198.656 175.866 199.304 175.866ZM210.139 177V163.59H214.747C215.623 163.59 216.391 163.764 217.051 164.112C217.711 164.448 218.221 164.928 218.581 165.552C218.953 166.164 219.139 166.878 219.139 167.694C219.139 168.642 218.887 169.452 218.383 170.124C217.891 170.796 217.219 171.27 216.367 171.546L219.499 177H217.807L214.531 171.222L215.503 171.78H211.579V177H210.139ZM211.579 170.43H214.819C215.395 170.43 215.899 170.322 216.331 170.106C216.763 169.878 217.099 169.56 217.339 169.152C217.579 168.732 217.699 168.24 217.699 167.676C217.699 167.112 217.579 166.626 217.339 166.218C217.099 165.81 216.763 165.498 216.331 165.282C215.899 165.054 215.395 164.94 214.819 164.94H211.579V170.43ZM225.319 177.216C224.419 177.216 223.603 177 222.871 176.568C222.151 176.124 221.581 175.518 221.161 174.75C220.741 173.982 220.531 173.112 220.531 172.14C220.531 171.168 220.735 170.31 221.143 169.566C221.551 168.81 222.103 168.216 222.799 167.784C223.507 167.352 224.299 167.136 225.175 167.136C225.871 167.136 226.489 167.268 227.029 167.532C227.581 167.784 228.049 168.132 228.433 168.576C228.817 169.008 229.111 169.5 229.315 170.052C229.519 170.592 229.621 171.15 229.621 171.726C229.621 171.846 229.615 171.984 229.603 172.14C229.591 172.284 229.573 172.434 229.549 172.59H221.395V171.33H228.775L228.127 171.87C228.235 171.21 228.157 170.622 227.893 170.106C227.641 169.578 227.275 169.164 226.795 168.864C226.315 168.552 225.775 168.396 225.175 168.396C224.575 168.396 224.017 168.552 223.501 168.864C222.997 169.176 222.601 169.614 222.313 170.178C222.025 170.73 221.911 171.39 221.971 172.158C221.911 172.926 222.031 173.598 222.331 174.174C222.643 174.738 223.063 175.176 223.591 175.488C224.131 175.8 224.707 175.956 225.319 175.956C226.027 175.956 226.621 175.788 227.101 175.452C227.581 175.116 227.971 174.696 228.271 174.192L229.423 174.804C229.231 175.236 228.937 175.638 228.541 176.01C228.145 176.37 227.671 176.664 227.119 176.892C226.579 177.108 225.979 177.216 225.319 177.216ZM232.001 180.6V167.352H233.351V169.512L233.135 169.134C233.519 168.522 234.029 168.036 234.665 167.676C235.313 167.316 236.051 167.136 236.879 167.136C237.791 167.136 238.601 167.358 239.309 167.802C240.029 168.234 240.593 168.828 241.001 169.584C241.421 170.34 241.631 171.204 241.631 172.176C241.631 173.136 241.421 174 241.001 174.768C240.593 175.524 240.029 176.124 239.309 176.568C238.601 177 237.791 177.216 236.879 177.216C236.051 177.216 235.301 177.03 234.629 176.658C233.969 176.274 233.471 175.734 233.135 175.038L233.351 174.84V180.6H232.001ZM236.807 175.866C237.455 175.866 238.031 175.704 238.535 175.38C239.051 175.056 239.453 174.618 239.741 174.066C240.041 173.502 240.191 172.872 240.191 172.176C240.191 171.468 240.041 170.838 239.741 170.286C239.453 169.734 239.051 169.296 238.535 168.972C238.031 168.648 237.455 168.486 236.807 168.486C236.159 168.486 235.571 168.648 235.043 168.972C234.527 169.296 234.113 169.74 233.801 170.304C233.501 170.856 233.351 171.48 233.351 172.176C233.351 172.872 233.501 173.502 233.801 174.066C234.113 174.618 234.527 175.056 235.043 175.38C235.571 175.704 236.159 175.866 236.807 175.866ZM246.797 177.216C246.185 177.216 245.639 177.102 245.159 176.874C244.679 176.634 244.301 176.31 244.025 175.902C243.749 175.494 243.611 175.026 243.611 174.498C243.611 173.994 243.719 173.538 243.935 173.13C244.151 172.71 244.487 172.356 244.943 172.068C245.399 171.78 245.981 171.576 246.689 171.456L250.469 170.826V172.05L247.013 172.626C246.317 172.746 245.813 172.968 245.501 173.292C245.201 173.616 245.051 174 245.051 174.444C245.051 174.876 245.219 175.242 245.555 175.542C245.903 175.842 246.347 175.992 246.887 175.992C247.547 175.992 248.123 175.854 248.615 175.578C249.107 175.29 249.491 174.906 249.767 174.426C250.043 173.946 250.181 173.412 250.181 172.824V170.376C250.181 169.8 249.971 169.332 249.551 168.972C249.131 168.612 248.585 168.432 247.913 168.432C247.325 168.432 246.809 168.582 246.365 168.882C245.921 169.17 245.591 169.548 245.375 170.016L244.151 169.35C244.331 168.942 244.613 168.57 244.997 168.234C245.393 167.898 245.843 167.634 246.347 167.442C246.851 167.238 247.373 167.136 247.913 167.136C248.621 167.136 249.245 167.274 249.785 167.55C250.337 167.826 250.763 168.21 251.063 168.702C251.375 169.182 251.531 169.74 251.531 170.376V177H250.181V175.074L250.379 175.272C250.211 175.632 249.947 175.962 249.587 176.262C249.239 176.55 248.825 176.784 248.345 176.964C247.877 177.132 247.361 177.216 246.797 177.216ZM254.308 177V167.352H255.658V177H254.308ZM254.308 165.57V163.59H255.658V165.57H254.308ZM258.421 177V167.352H259.771V168.936L259.591 168.702C259.819 168.246 260.161 167.886 260.617 167.622C261.085 167.358 261.649 167.226 262.309 167.226H262.921V168.576H262.075C261.379 168.576 260.821 168.792 260.401 169.224C259.981 169.656 259.771 170.268 259.771 171.06V177H258.421ZM263.836 179.34V178.71C264.196 178.614 264.46 178.428 264.628 178.152C264.796 177.876 264.88 177.492 264.88 177H264.196V175.02H265.636V176.532C265.636 177.312 265.486 177.936 265.186 178.404C264.886 178.884 264.436 179.196 263.836 179.34ZM33.584 205V191.59H37.994C39.326 191.59 40.484 191.866 41.468 192.418C42.452 192.958 43.214 193.732 43.754 194.74C44.294 195.736 44.564 196.918 44.564 198.286C44.564 199.642 44.294 200.824 43.754 201.832C43.214 202.84 42.452 203.62 41.468 204.172C40.484 204.724 39.326 205 37.994 205H33.584ZM35.024 203.65H37.994C39.026 203.65 39.92 203.434 40.676 203.002C41.432 202.558 42.014 201.934 42.422 201.13C42.842 200.326 43.052 199.378 43.052 198.286C43.052 197.194 42.842 196.252 42.422 195.46C42.002 194.656 41.414 194.038 40.658 193.606C39.902 193.162 39.014 192.94 37.994 192.94H35.024V203.65ZM50.1654 205.216C49.4934 205.216 48.8814 205.06 48.3294 204.748C47.7774 204.424 47.3394 203.98 47.0154 203.416C46.7034 202.84 46.5474 202.18 46.5474 201.436V195.352H47.8974V201.274C47.8974 201.79 47.9994 202.246 48.2034 202.642C48.4194 203.026 48.7134 203.326 49.0854 203.542C49.4694 203.758 49.9074 203.866 50.3994 203.866C50.8914 203.866 51.3294 203.758 51.7134 203.542C52.0974 203.314 52.3974 202.996 52.6134 202.588C52.8294 202.168 52.9374 201.67 52.9374 201.094V195.352H54.2874V205H52.9374V203.128L53.2434 203.2C53.0154 203.824 52.6254 204.316 52.0734 204.676C51.5214 205.036 50.8854 205.216 50.1654 205.216ZM57.0637 208.6V195.352H58.4137V197.512L58.1977 197.134C58.5817 196.522 59.0917 196.036 59.7277 195.676C60.3757 195.316 61.1137 195.136 61.9417 195.136C62.8537 195.136 63.6637 195.358 64.3717 195.802C65.0917 196.234 65.6557 196.828 66.0637 197.584C66.4837 198.34 66.6937 199.204 66.6937 200.176C66.6937 201.136 66.4837 202 66.0637 202.768C65.6557 203.524 65.0917 204.124 64.3717 204.568C63.6637 205 62.8537 205.216 61.9417 205.216C61.1137 205.216 60.3637 205.03 59.6917 204.658C59.0317 204.274 58.5337 203.734 58.1977 203.038L58.4137 202.84V208.6H57.0637ZM61.8697 203.866C62.5177 203.866 63.0937 203.704 63.5977 203.38C64.1137 203.056 64.5157 202.618 64.8037 202.066C65.1037 201.502 65.2537 200.872 65.2537 200.176C65.2537 199.468 65.1037 198.838 64.8037 198.286C64.5157 197.734 64.1137 197.296 63.5977 196.972C63.0937 196.648 62.5177 196.486 61.8697 196.486C61.2217 196.486 60.6337 196.648 60.1057 196.972C59.5897 197.296 59.1757 197.74 58.8637 198.304C58.5637 198.856 58.4137 199.48 58.4137 200.176C58.4137 200.872 58.5637 201.502 58.8637 202.066C59.1757 202.618 59.5897 203.056 60.1057 203.38C60.6337 203.704 61.2217 203.866 61.8697 203.866ZM69.0696 205V191.374H70.4196V205H69.0696ZM73.1829 205V195.352H74.5329V205H73.1829ZM73.1829 193.57V191.59H74.5329V193.57H73.1829ZM81.7062 205.216C80.7582 205.216 79.9242 204.994 79.2042 204.55C78.4842 204.106 77.9202 203.506 77.5122 202.75C77.1042 201.982 76.9002 201.118 76.9002 200.158C76.9002 199.198 77.1042 198.34 77.5122 197.584C77.9202 196.828 78.4842 196.234 79.2042 195.802C79.9242 195.358 80.7582 195.136 81.7062 195.136C82.3062 195.136 82.8702 195.244 83.3982 195.46C83.9262 195.676 84.3942 195.97 84.8022 196.342C85.2102 196.702 85.5162 197.122 85.7202 197.602L84.4962 198.232C84.2562 197.716 83.8902 197.296 83.3982 196.972C82.9062 196.648 82.3422 196.486 81.7062 196.486C81.0702 196.486 80.4942 196.648 79.9782 196.972C79.4742 197.284 79.0722 197.722 78.7722 198.286C78.4842 198.838 78.3402 199.468 78.3402 200.176C78.3402 200.872 78.4842 201.502 78.7722 202.066C79.0722 202.618 79.4742 203.056 79.9782 203.38C80.4942 203.704 81.0702 203.866 81.7062 203.866C82.3422 203.866 82.9002 203.704 83.3802 203.38C83.8722 203.056 84.2442 202.624 84.4962 202.084L85.7202 202.75C85.5162 203.218 85.2102 203.638 84.8022 204.01C84.3942 204.382 83.9262 204.676 83.3982 204.892C82.8702 205.108 82.3062 205.216 81.7062 205.216ZM90.7033 205.216C90.0913 205.216 89.5453 205.102 89.0653 204.874C88.5853 204.634 88.2073 204.31 87.9313 203.902C87.6553 203.494 87.5173 203.026 87.5173 202.498C87.5173 201.994 87.6253 201.538 87.8413 201.13C88.0573 200.71 88.3933 200.356 88.8493 200.068C89.3053 199.78 89.8873 199.576 90.5953 199.456L94.3753 198.826V200.05L90.9193 200.626C90.2233 200.746 89.7193 200.968 89.4073 201.292C89.1073 201.616 88.9573 202 88.9573 202.444C88.9573 202.876 89.1253 203.242 89.4613 203.542C89.8093 203.842 90.2533 203.992 90.7933 203.992C91.4533 203.992 92.0293 203.854 92.5213 203.578C93.0133 203.29 93.3973 202.906 93.6733 202.426C93.9493 201.946 94.0873 201.412 94.0873 200.824V198.376C94.0873 197.8 93.8773 197.332 93.4573 196.972C93.0373 196.612 92.4913 196.432 91.8193 196.432C91.2313 196.432 90.7153 196.582 90.2713 196.882C89.8273 197.17 89.4973 197.548 89.2813 198.016L88.0573 197.35C88.2373 196.942 88.5193 196.57 88.9033 196.234C89.2993 195.898 89.7493 195.634 90.2533 195.442C90.7573 195.238 91.2793 195.136 91.8193 195.136C92.5273 195.136 93.1513 195.274 93.6913 195.55C94.2433 195.826 94.6693 196.21 94.9693 196.702C95.2813 197.182 95.4373 197.74 95.4373 198.376V205H94.0873V203.074L94.2853 203.272C94.1173 203.632 93.8533 203.962 93.4933 204.262C93.1453 204.55 92.7313 204.784 92.2513 204.964C91.7833 205.132 91.2673 205.216 90.7033 205.216ZM101.728 205.108C100.864 205.108 100.198 204.856 99.7303 204.352C99.2623 203.848 99.0283 203.128 99.0283 202.192V196.702H97.2463V195.352H97.6963C98.1043 195.352 98.4283 195.22 98.6683 194.956C98.9083 194.68 99.0283 194.338 99.0283 193.93V193.12H100.378V195.352H102.502V196.702H100.378V202.192C100.378 202.516 100.426 202.804 100.522 203.056C100.618 203.296 100.78 203.488 101.008 203.632C101.248 203.776 101.566 203.848 101.962 203.848C102.058 203.848 102.172 203.842 102.304 203.83C102.436 203.818 102.55 203.806 102.646 203.794V205C102.502 205.036 102.34 205.06 102.16 205.072C101.98 205.096 101.836 205.108 101.728 205.108ZM105.017 205V195.352H106.367V205H105.017ZM105.017 193.57V191.59H106.367V193.57H105.017ZM113.648 205.216C112.736 205.216 111.908 205 111.164 204.568C110.42 204.124 109.826 203.524 109.382 202.768C108.95 202 108.734 201.13 108.734 200.158C108.734 199.198 108.95 198.34 109.382 197.584C109.814 196.828 110.396 196.234 111.128 195.802C111.872 195.358 112.712 195.136 113.648 195.136C114.584 195.136 115.418 195.352 116.15 195.784C116.894 196.216 117.476 196.81 117.896 197.566C118.328 198.322 118.544 199.186 118.544 200.158C118.544 201.142 118.322 202.018 117.878 202.786C117.434 203.542 116.84 204.136 116.096 204.568C115.364 205 114.548 205.216 113.648 205.216ZM113.648 203.866C114.296 203.866 114.878 203.704 115.394 203.38C115.922 203.056 116.336 202.612 116.636 202.048C116.948 201.484 117.104 200.854 117.104 200.158C117.104 199.462 116.948 198.838 116.636 198.286C116.336 197.734 115.922 197.296 115.394 196.972C114.878 196.648 114.296 196.486 113.648 196.486C113 196.486 112.412 196.648 111.884 196.972C111.368 197.296 110.954 197.734 110.642 198.286C110.33 198.838 110.174 199.462 110.174 200.158C110.174 200.854 110.33 201.484 110.642 202.048C110.954 202.612 111.368 203.056 111.884 203.38C112.412 203.704 113 203.866 113.648 203.866ZM120.925 205V195.352H122.275V197.224L121.969 197.152C122.209 196.528 122.599 196.036 123.139 195.676C123.691 195.316 124.327 195.136 125.047 195.136C125.731 195.136 126.343 195.292 126.883 195.604C127.435 195.916 127.867 196.348 128.179 196.9C128.503 197.44 128.665 198.052 128.665 198.736V205H127.315V199.258C127.315 198.67 127.207 198.172 126.991 197.764C126.787 197.356 126.493 197.044 126.109 196.828C125.737 196.6 125.305 196.486 124.813 196.486C124.321 196.486 123.883 196.6 123.499 196.828C123.115 197.044 122.815 197.362 122.599 197.782C122.383 198.19 122.275 198.682 122.275 199.258V205H120.925ZM131.297 207.34V206.71C131.657 206.614 131.921 206.428 132.089 206.152C132.257 205.876 132.341 205.492 132.341 205H131.657V203.02H133.097V204.532C133.097 205.312 132.947 205.936 132.647 206.404C132.347 206.884 131.897 207.196 131.297 207.34ZM139.352 205V191.59H140.792V203.65H146.732V205H139.352ZM153.234 205.216C152.322 205.216 151.494 205 150.75 204.568C150.006 204.124 149.412 203.524 148.968 202.768C148.536 202 148.32 201.13 148.32 200.158C148.32 199.198 148.536 198.34 148.968 197.584C149.4 196.828 149.982 196.234 150.714 195.802C151.458 195.358 152.298 195.136 153.234 195.136C154.17 195.136 155.004 195.352 155.736 195.784C156.48 196.216 157.062 196.81 157.482 197.566C157.914 198.322 158.13 199.186 158.13 200.158C158.13 201.142 157.908 202.018 157.464 202.786C157.02 203.542 156.426 204.136 155.682 204.568C154.95 205 154.134 205.216 153.234 205.216ZM153.234 203.866C153.882 203.866 154.464 203.704 154.98 203.38C155.508 203.056 155.922 202.612 156.222 202.048C156.534 201.484 156.69 200.854 156.69 200.158C156.69 199.462 156.534 198.838 156.222 198.286C155.922 197.734 155.508 197.296 154.98 196.972C154.464 196.648 153.882 196.486 153.234 196.486C152.586 196.486 151.998 196.648 151.47 196.972C150.954 197.296 150.54 197.734 150.228 198.286C149.916 198.838 149.76 199.462 149.76 200.158C149.76 200.854 149.916 201.484 150.228 202.048C150.54 202.612 150.954 203.056 151.47 203.38C151.998 203.704 152.586 203.866 153.234 203.866ZM164.921 205.216C163.973 205.216 163.139 204.994 162.419 204.55C161.699 204.106 161.135 203.506 160.727 202.75C160.319 201.982 160.115 201.118 160.115 200.158C160.115 199.198 160.319 198.34 160.727 197.584C161.135 196.828 161.699 196.234 162.419 195.802C163.139 195.358 163.973 195.136 164.921 195.136C165.521 195.136 166.085 195.244 166.613 195.46C167.141 195.676 167.609 195.97 168.017 196.342C168.425 196.702 168.731 197.122 168.935 197.602L167.711 198.232C167.471 197.716 167.105 197.296 166.613 196.972C166.121 196.648 165.557 196.486 164.921 196.486C164.285 196.486 163.709 196.648 163.193 196.972C162.689 197.284 162.287 197.722 161.987 198.286C161.699 198.838 161.555 199.468 161.555 200.176C161.555 200.872 161.699 201.502 161.987 202.066C162.287 202.618 162.689 203.056 163.193 203.38C163.709 203.704 164.285 203.866 164.921 203.866C165.557 203.866 166.115 203.704 166.595 203.38C167.087 203.056 167.459 202.624 167.711 202.084L168.935 202.75C168.731 203.218 168.425 203.638 168.017 204.01C167.609 204.382 167.141 204.676 166.613 204.892C166.085 205.108 165.521 205.216 164.921 205.216ZM171.304 205V191.374H172.654V200.914L172.078 200.824L177.496 195.352H179.242L175.462 199.222L179.584 205H177.964L174.094 199.654L174.958 199.726L172.204 202.57L172.654 201.454V205H171.304ZM184.422 205V191.59H189.03C189.906 191.59 190.674 191.764 191.334 192.112C191.994 192.448 192.504 192.928 192.864 193.552C193.236 194.164 193.422 194.878 193.422 195.694C193.422 196.642 193.17 197.452 192.666 198.124C192.174 198.796 191.502 199.27 190.65 199.546L193.782 205H192.09L188.814 199.222L189.786 199.78H185.862V205H184.422ZM185.862 198.43H189.102C189.678 198.43 190.182 198.322 190.614 198.106C191.046 197.878 191.382 197.56 191.622 197.152C191.862 196.732 191.982 196.24 191.982 195.676C191.982 195.112 191.862 194.626 191.622 194.218C191.382 193.81 191.046 193.498 190.614 193.282C190.182 193.054 189.678 192.94 189.102 192.94H185.862V198.43ZM199.602 205.216C198.702 205.216 197.886 205 197.154 204.568C196.434 204.124 195.864 203.518 195.444 202.75C195.024 201.982 194.814 201.112 194.814 200.14C194.814 199.168 195.018 198.31 195.426 197.566C195.834 196.81 196.386 196.216 197.082 195.784C197.79 195.352 198.582 195.136 199.458 195.136C200.154 195.136 200.772 195.268 201.312 195.532C201.864 195.784 202.332 196.132 202.716 196.576C203.1 197.008 203.394 197.5 203.598 198.052C203.802 198.592 203.904 199.15 203.904 199.726C203.904 199.846 203.898 199.984 203.886 200.14C203.874 200.284 203.856 200.434 203.832 200.59H195.678V199.33H203.058L202.41 199.87C202.518 199.21 202.44 198.622 202.176 198.106C201.924 197.578 201.558 197.164 201.078 196.864C200.598 196.552 200.058 196.396 199.458 196.396C198.858 196.396 198.3 196.552 197.784 196.864C197.28 197.176 196.884 197.614 196.596 198.178C196.308 198.73 196.194 199.39 196.254 200.158C196.194 200.926 196.314 201.598 196.614 202.174C196.926 202.738 197.346 203.176 197.874 203.488C198.414 203.8 198.99 203.956 199.602 203.956C200.31 203.956 200.904 203.788 201.384 203.452C201.864 203.116 202.254 202.696 202.554 202.192L203.706 202.804C203.514 203.236 203.22 203.638 202.824 204.01C202.428 204.37 201.954 204.664 201.402 204.892C200.862 205.108 200.262 205.216 199.602 205.216ZM206.284 205V191.374H207.634V200.914L207.058 200.824L212.476 195.352H214.222L210.442 199.222L214.564 205H212.944L209.074 199.654L209.938 199.726L207.184 202.57L207.634 201.454V205H206.284ZM220.362 205.216C219.462 205.216 218.646 205 217.914 204.568C217.194 204.124 216.624 203.518 216.204 202.75C215.784 201.982 215.574 201.112 215.574 200.14C215.574 199.168 215.778 198.31 216.186 197.566C216.594 196.81 217.146 196.216 217.842 195.784C218.55 195.352 219.342 195.136 220.218 195.136C220.914 195.136 221.532 195.268 222.072 195.532C222.624 195.784 223.092 196.132 223.476 196.576C223.86 197.008 224.154 197.5 224.358 198.052C224.562 198.592 224.664 199.15 224.664 199.726C224.664 199.846 224.658 199.984 224.646 200.14C224.634 200.284 224.616 200.434 224.592 200.59H216.438V199.33H223.818L223.17 199.87C223.278 199.21 223.2 198.622 222.936 198.106C222.684 197.578 222.318 197.164 221.838 196.864C221.358 196.552 220.818 196.396 220.218 196.396C219.618 196.396 219.06 196.552 218.544 196.864C218.04 197.176 217.644 197.614 217.356 198.178C217.068 198.73 216.954 199.39 217.014 200.158C216.954 200.926 217.074 201.598 217.374 202.174C217.686 202.738 218.106 203.176 218.634 203.488C219.174 203.8 219.75 203.956 220.362 203.956C221.07 203.956 221.664 203.788 222.144 203.452C222.624 203.116 223.014 202.696 223.314 202.192L224.466 202.804C224.274 203.236 223.98 203.638 223.584 204.01C223.188 204.37 222.714 204.664 222.162 204.892C221.622 205.108 221.022 205.216 220.362 205.216ZM227.242 208.96C227.05 208.96 226.852 208.942 226.648 208.906C226.456 208.882 226.264 208.834 226.072 208.762V207.502C226.192 207.514 226.342 207.532 226.522 207.556C226.714 207.592 226.906 207.61 227.098 207.61C227.686 207.61 228.136 207.484 228.448 207.232C228.76 206.992 229.066 206.524 229.366 205.828L229.978 204.388L229.942 205.576L225.856 195.352H227.314L230.662 203.794H230.284L233.614 195.352H235.108L230.698 206.224C230.506 206.692 230.26 207.136 229.96 207.556C229.672 207.976 229.306 208.312 228.862 208.564C228.418 208.828 227.878 208.96 227.242 208.96ZM236.695 205V195.352H238.045V205H236.695ZM236.695 193.57V191.59H238.045V193.57H236.695ZM240.808 205V195.352H242.158V197.224L241.852 197.152C242.092 196.528 242.482 196.036 243.022 195.676C243.574 195.316 244.21 195.136 244.93 195.136C245.614 195.136 246.226 195.292 246.766 195.604C247.318 195.916 247.75 196.348 248.062 196.9C248.386 197.44 248.548 198.052 248.548 198.736V205H247.198V199.258C247.198 198.67 247.09 198.172 246.874 197.764C246.67 197.356 246.376 197.044 245.992 196.828C245.62 196.6 245.188 196.486 244.696 196.486C244.204 196.486 243.766 196.6 243.382 196.828C242.998 197.044 242.698 197.362 242.482 197.782C242.266 198.19 242.158 198.682 242.158 199.258V205H240.808ZM255.698 208.96C255.038 208.96 254.426 208.858 253.862 208.654C253.31 208.45 252.83 208.168 252.422 207.808C252.026 207.46 251.72 207.052 251.504 206.584L252.746 205.918C252.938 206.374 253.28 206.77 253.772 207.106C254.264 207.442 254.894 207.61 255.662 207.61C256.25 207.61 256.79 207.496 257.282 207.268C257.774 207.04 258.17 206.704 258.47 206.26C258.77 205.816 258.92 205.27 258.92 204.622V202.48L259.136 202.678C258.8 203.374 258.302 203.914 257.642 204.298C256.982 204.67 256.262 204.856 255.482 204.856C254.582 204.856 253.772 204.64 253.052 204.208C252.332 203.776 251.762 203.194 251.342 202.462C250.934 201.718 250.73 200.896 250.73 199.996C250.73 199.084 250.934 198.262 251.342 197.53C251.762 196.798 252.326 196.216 253.034 195.784C253.754 195.352 254.57 195.136 255.482 195.136C256.262 195.136 256.97 195.316 257.606 195.676C258.254 196.036 258.764 196.522 259.136 197.134L258.92 197.512V195.352H260.27V204.622C260.27 205.45 260.072 206.188 259.676 206.836C259.292 207.496 258.752 208.012 258.056 208.384C257.372 208.768 256.586 208.96 255.698 208.96ZM255.554 203.506C256.178 203.506 256.742 203.35 257.246 203.038C257.75 202.714 258.152 202.288 258.452 201.76C258.764 201.22 258.92 200.632 258.92 199.996C258.92 199.36 258.764 198.778 258.452 198.25C258.152 197.71 257.75 197.284 257.246 196.972C256.742 196.648 256.178 196.486 255.554 196.486C254.918 196.486 254.342 196.648 253.826 196.972C253.31 197.284 252.902 197.704 252.602 198.232C252.314 198.76 252.17 199.348 252.17 199.996C252.17 200.632 252.314 201.22 252.602 201.76C252.902 202.288 253.304 202.714 253.808 203.038C254.324 203.35 254.906 203.506 255.554 203.506Z" fill="#545971"/>
</svg>
