<svg width="360" height="244" viewBox="0 0 360 244" fill="none" xmlns="http://www.w3.org/2000/svg">
<rect x="32" y="32" width="64" height="64" rx="20" fill="#142257"/>
<g clip-path="url(#clip0_806_5679)">
<path d="M57.9111 58.9068L51.6114 58.9068L51.2617 59.58L57.5258 59.58L54.788 64.3623H48.7776L48.4279 65.0355H54.4027L51.8813 69.4399H46.1115L47.6632 66.4568V65.0355H47.6817V64.3623H47.6632V59.58H47.6817V58.9068H47.6632V58.5489H47.6817V57.2195H52.4682L54.2344 53.8242H60.8207L57.9111 58.9068Z" fill="white"/>
<path d="M61.5964 53.8242L58.6868 58.9068H64.1568L67.0664 53.8242H61.5964Z" fill="white"/>
<path d="M67.842 53.8242L64.9324 58.9068L70.8217 58.9068L72.1227 56.3683L80.9616 74.1767H84.3524L73.7655 53.8242H67.842Z" fill="white"/>
<path d="M70.4767 59.58L64.5471 59.58L61.8094 64.3623H68.0258L70.4767 59.58Z" fill="white"/>
<path d="M67.6808 65.0355H61.424L58.9027 69.4399H65.4236L67.6808 65.0355Z" fill="white"/>
<path d="M65.0786 70.113H58.5173L56.191 74.1767H62.996L65.0786 70.113Z" fill="white"/>
<path d="M55.4153 74.1767L57.7417 70.113H52.2716L49.9453 74.1767H55.4153Z" fill="white"/>
<path d="M49.1697 74.1767L51.496 70.113H45.7613L43.6475 74.1767H49.1697Z" fill="white"/>
<path d="M58.3014 59.58H63.7714L61.0337 64.3623H55.5637L58.3014 59.58Z" fill="white"/>
<path d="M55.1783 65.0355L52.657 69.4399H58.127L60.6484 65.0355H55.1783Z" fill="white"/>
<path d="M68.8872 66.472H71.855V69.4398H68.8872V66.472Z" fill="white"/>
<path d="M68.8872 70.1819H71.855V73.1497H68.8872V70.1819Z" fill="white"/>
<path d="M75.5645 66.472H72.5967V69.4398H75.5645V66.472Z" fill="white"/>
<path d="M72.5967 70.1819H75.5645V73.1497H72.5967V70.1819Z" fill="white"/>
</g>
<path d="M33.728 138V120.12H40.376C41.592 120.12 42.664 120.344 43.592 120.792C44.536 121.224 45.272 121.864 45.8 122.712C46.328 123.544 46.592 124.56 46.592 125.76C46.592 126.992 46.296 128.04 45.704 128.904C45.128 129.768 44.344 130.408 43.352 130.824L47.456 138H43.76L39.368 130.152L41.48 131.4H36.992V138H33.728ZM36.992 128.52H40.424C41.016 128.52 41.528 128.408 41.96 128.184C42.392 127.944 42.728 127.616 42.968 127.2C43.208 126.784 43.328 126.304 43.328 125.76C43.328 125.2 43.208 124.72 42.968 124.32C42.728 123.904 42.392 123.584 41.96 123.36C41.528 123.12 41.016 123 40.424 123H36.992V128.52ZM54.9886 138.288C53.7086 138.288 52.5406 137.992 51.4846 137.4C50.4446 136.808 49.6126 136 48.9886 134.976C48.3806 133.952 48.0766 132.784 48.0766 131.472C48.0766 130.16 48.3806 128.992 48.9886 127.968C49.6126 126.944 50.4446 126.136 51.4846 125.544C52.5246 124.952 53.6926 124.656 54.9886 124.656C56.2686 124.656 57.4286 124.952 58.4686 125.544C59.5086 126.136 60.3326 126.944 60.9406 127.968C61.5646 128.976 61.8766 130.144 61.8766 131.472C61.8766 132.784 61.5646 133.952 60.9406 134.976C60.3166 136 59.4846 136.808 58.4446 137.4C57.4046 137.992 56.2526 138.288 54.9886 138.288ZM54.9886 135.408C55.6926 135.408 56.3086 135.24 56.8366 134.904C57.3806 134.568 57.8046 134.104 58.1086 133.512C58.4286 132.904 58.5886 132.224 58.5886 131.472C58.5886 130.704 58.4286 130.032 58.1086 129.456C57.8046 128.864 57.3806 128.4 56.8366 128.064C56.3086 127.712 55.6926 127.536 54.9886 127.536C54.2686 127.536 53.6366 127.712 53.0926 128.064C52.5486 128.4 52.1166 128.864 51.7966 129.456C51.4926 130.032 51.3406 130.704 51.3406 131.472C51.3406 132.224 51.4926 132.904 51.7966 133.512C52.1166 134.104 52.5486 134.568 53.0926 134.904C53.6366 135.24 54.2686 135.408 54.9886 135.408ZM70.6449 138.288C69.3649 138.288 68.1969 137.992 67.1409 137.4C66.1009 136.808 65.2689 136 64.6449 134.976C64.0369 133.952 63.7329 132.784 63.7329 131.472C63.7329 130.16 64.0369 128.992 64.6449 127.968C65.2689 126.944 66.1009 126.136 67.1409 125.544C68.1809 124.952 69.3489 124.656 70.6449 124.656C71.9249 124.656 73.0849 124.952 74.1249 125.544C75.1649 126.136 75.9889 126.944 76.5969 127.968C77.2209 128.976 77.5329 130.144 77.5329 131.472C77.5329 132.784 77.2209 133.952 76.5969 134.976C75.9729 136 75.1409 136.808 74.1009 137.4C73.0609 137.992 71.9089 138.288 70.6449 138.288ZM70.6449 135.408C71.3489 135.408 71.9649 135.24 72.4929 134.904C73.0369 134.568 73.4609 134.104 73.7649 133.512C74.0849 132.904 74.2449 132.224 74.2449 131.472C74.2449 130.704 74.0849 130.032 73.7649 129.456C73.4609 128.864 73.0369 128.4 72.4929 128.064C71.9649 127.712 71.3489 127.536 70.6449 127.536C69.9249 127.536 69.2929 127.712 68.7489 128.064C68.2049 128.4 67.7729 128.864 67.4529 129.456C67.1489 130.032 66.9969 130.704 66.9969 131.472C66.9969 132.224 67.1489 132.904 67.4529 133.512C67.7729 134.104 68.2049 134.568 68.7489 134.904C69.2929 135.24 69.9249 135.408 70.6449 135.408ZM81.1479 138V127.752H78.8439V124.944H81.1479V124.512C81.1479 123.52 81.3479 122.68 81.7479 121.992C82.1639 121.288 82.7399 120.752 83.4759 120.384C84.2119 120.016 85.0839 119.832 86.0919 119.832C86.2839 119.832 86.4919 119.848 86.7159 119.88C86.9559 119.896 87.1559 119.92 87.3159 119.952V122.664C87.1559 122.632 87.0039 122.616 86.8599 122.616C86.7319 122.6 86.6119 122.592 86.4999 122.592C85.7959 122.592 85.2519 122.752 84.8679 123.072C84.4839 123.376 84.2919 123.856 84.2919 124.512V124.944H87.1959V127.752H84.2919V138H81.1479ZM89.1515 138V124.944H92.2955V138H89.1515ZM89.1515 123.48V120.12H92.2955V123.48H89.1515ZM95.1984 138V124.944H98.1504V127.512L97.9104 127.056C98.2144 126.272 98.7104 125.68 99.3984 125.28C100.102 124.864 100.918 124.656 101.846 124.656C102.806 124.656 103.654 124.864 104.39 125.28C105.142 125.696 105.726 126.28 106.142 127.032C106.558 127.768 106.766 128.624 106.766 129.6V138H103.622V130.344C103.622 129.768 103.51 129.272 103.286 128.856C103.062 128.44 102.75 128.12 102.35 127.896C101.966 127.656 101.51 127.536 100.982 127.536C100.47 127.536 100.014 127.656 99.6144 127.896C99.2144 128.12 98.9024 128.44 98.6784 128.856C98.4544 129.272 98.3424 129.768 98.3424 130.344V138H95.1984ZM115.761 143.28C114.785 143.28 113.881 143.12 113.049 142.8C112.217 142.48 111.497 142.032 110.889 141.456C110.297 140.896 109.865 140.232 109.593 139.464L112.521 138.36C112.713 138.968 113.089 139.456 113.649 139.824C114.225 140.208 114.929 140.4 115.761 140.4C116.401 140.4 116.961 140.28 117.441 140.04C117.937 139.8 118.321 139.448 118.593 138.984C118.865 138.536 119.001 137.992 119.001 137.352V134.376L119.601 135.096C119.153 135.88 118.553 136.472 117.801 136.872C117.049 137.272 116.193 137.472 115.233 137.472C114.017 137.472 112.929 137.192 111.969 136.632C111.009 136.072 110.257 135.304 109.713 134.328C109.169 133.352 108.897 132.256 108.897 131.04C108.897 129.808 109.169 128.712 109.713 127.752C110.257 126.792 111.001 126.04 111.945 125.496C112.889 124.936 113.961 124.656 115.161 124.656C116.137 124.656 116.993 124.864 117.729 125.28C118.481 125.68 119.105 126.264 119.601 127.032L119.169 127.824V124.944H122.145V137.352C122.145 138.488 121.865 139.504 121.305 140.4C120.761 141.296 120.009 142 119.049 142.512C118.105 143.024 117.009 143.28 115.761 143.28ZM115.617 134.568C116.289 134.568 116.873 134.424 117.369 134.136C117.881 133.832 118.281 133.416 118.569 132.888C118.857 132.36 119.001 131.752 119.001 131.064C119.001 130.392 118.849 129.792 118.545 129.264C118.257 128.72 117.857 128.296 117.345 127.992C116.849 127.688 116.273 127.536 115.617 127.536C114.961 127.536 114.369 127.688 113.841 127.992C113.313 128.296 112.897 128.72 112.593 129.264C112.305 129.792 112.161 130.392 112.161 131.064C112.161 131.736 112.305 132.336 112.593 132.864C112.897 133.392 113.305 133.808 113.817 134.112C114.345 134.416 114.945 134.568 115.617 134.568ZM129.347 138V124.944H132.299V127.848L132.059 127.416C132.363 126.44 132.835 125.76 133.475 125.376C134.131 124.992 134.915 124.8 135.827 124.8H136.595V127.584H135.467C134.571 127.584 133.851 127.864 133.307 128.424C132.763 128.968 132.491 129.736 132.491 130.728V138H129.347ZM144.515 138.288C143.171 138.288 141.995 137.984 140.987 137.376C139.979 136.768 139.195 135.944 138.635 134.904C138.075 133.864 137.795 132.712 137.795 131.448C137.795 130.136 138.075 128.976 138.635 127.968C139.211 126.944 139.987 126.136 140.963 125.544C141.955 124.952 143.059 124.656 144.275 124.656C145.299 124.656 146.195 124.824 146.963 125.16C147.747 125.496 148.411 125.96 148.955 126.552C149.499 127.144 149.915 127.824 150.203 128.592C150.491 129.344 150.635 130.16 150.635 131.04C150.635 131.264 150.619 131.496 150.587 131.736C150.571 131.976 150.531 132.184 150.467 132.36H140.387V129.96H148.691L147.203 131.088C147.347 130.352 147.307 129.696 147.083 129.12C146.875 128.544 146.523 128.088 146.027 127.752C145.547 127.416 144.963 127.248 144.275 127.248C143.619 127.248 143.035 127.416 142.523 127.752C142.011 128.072 141.619 128.552 141.347 129.192C141.091 129.816 140.995 130.576 141.059 131.472C140.995 132.272 141.099 132.984 141.371 133.608C141.659 134.216 142.075 134.688 142.619 135.024C143.179 135.36 143.819 135.528 144.539 135.528C145.259 135.528 145.867 135.376 146.363 135.072C146.875 134.768 147.275 134.36 147.563 133.848L150.107 135.096C149.851 135.72 149.451 136.272 148.907 136.752C148.363 137.232 147.715 137.608 146.963 137.88C146.227 138.152 145.411 138.288 144.515 138.288ZM153.019 142.8V124.944H155.971V127.536L155.683 126.888C156.131 126.184 156.739 125.64 157.507 125.256C158.275 124.856 159.163 124.656 160.171 124.656C161.403 124.656 162.515 124.96 163.507 125.568C164.499 126.176 165.283 126.992 165.859 128.016C166.451 129.04 166.747 130.192 166.747 131.472C166.747 132.736 166.459 133.888 165.883 134.928C165.307 135.968 164.523 136.792 163.531 137.4C162.539 137.992 161.411 138.288 160.147 138.288C159.203 138.288 158.331 138.104 157.531 137.736C156.747 137.352 156.123 136.808 155.659 136.104L156.163 135.48V142.8H153.019ZM159.787 135.408C160.507 135.408 161.147 135.24 161.707 134.904C162.267 134.568 162.699 134.104 163.003 133.512C163.323 132.92 163.483 132.24 163.483 131.472C163.483 130.704 163.323 130.032 163.003 129.456C162.699 128.864 162.267 128.4 161.707 128.064C161.147 127.712 160.507 127.536 159.787 127.536C159.099 127.536 158.475 127.704 157.915 128.04C157.371 128.376 156.939 128.848 156.619 129.456C156.315 130.048 156.163 130.72 156.163 131.472C156.163 132.24 156.315 132.92 156.619 133.512C156.939 134.104 157.371 134.568 157.915 134.904C158.475 135.24 159.099 135.408 159.787 135.408ZM173.104 138.288C172.192 138.288 171.4 138.136 170.728 137.832C170.056 137.528 169.536 137.096 169.168 136.536C168.8 135.96 168.616 135.296 168.616 134.544C168.616 133.824 168.776 133.184 169.096 132.624C169.416 132.048 169.912 131.568 170.584 131.184C171.256 130.8 172.104 130.528 173.128 130.368L177.4 129.672V132.072L173.728 132.696C173.104 132.808 172.64 133.008 172.336 133.296C172.032 133.584 171.88 133.96 171.88 134.424C171.88 134.872 172.048 135.232 172.384 135.504C172.736 135.76 173.168 135.888 173.68 135.888C174.336 135.888 174.912 135.752 175.408 135.48C175.92 135.192 176.312 134.8 176.584 134.304C176.872 133.808 177.016 133.264 177.016 132.672V129.312C177.016 128.752 176.792 128.288 176.344 127.92C175.912 127.536 175.336 127.344 174.616 127.344C173.944 127.344 173.344 127.528 172.816 127.896C172.304 128.248 171.928 128.72 171.688 129.312L169.12 128.064C169.376 127.376 169.776 126.784 170.32 126.288C170.88 125.776 171.536 125.376 172.288 125.088C173.04 124.8 173.856 124.656 174.736 124.656C175.808 124.656 176.752 124.856 177.568 125.256C178.384 125.64 179.016 126.184 179.464 126.888C179.928 127.576 180.16 128.384 180.16 129.312V138H177.184V135.768L177.856 135.72C177.52 136.28 177.12 136.752 176.656 137.136C176.192 137.504 175.664 137.792 175.072 138C174.48 138.192 173.824 138.288 173.104 138.288ZM183.066 138V124.944H186.21V138H183.066ZM183.066 123.48V120.12H186.21V123.48H183.066ZM189.112 138V124.944H192.064V127.848L191.824 127.416C192.128 126.44 192.6 125.76 193.24 125.376C193.896 124.992 194.68 124.8 195.592 124.8H196.36V127.584H195.232C194.336 127.584 193.616 127.864 193.072 128.424C192.528 128.968 192.256 129.736 192.256 130.728V138H189.112Z" fill="#171921"/>
<path d="M33.584 177V163.59H38.192C39.068 163.59 39.836 163.764 40.496 164.112C41.156 164.448 41.666 164.928 42.026 165.552C42.398 166.164 42.584 166.878 42.584 167.694C42.584 168.642 42.332 169.452 41.828 170.124C41.336 170.796 40.664 171.27 39.812 171.546L42.944 177H41.252L37.976 171.222L38.948 171.78H35.024V177H33.584ZM35.024 170.43H38.264C38.84 170.43 39.344 170.322 39.776 170.106C40.208 169.878 40.544 169.56 40.784 169.152C41.024 168.732 41.144 168.24 41.144 167.676C41.144 167.112 41.024 166.626 40.784 166.218C40.544 165.81 40.208 165.498 39.776 165.282C39.344 165.054 38.84 164.94 38.264 164.94H35.024V170.43ZM48.8903 177.216C47.9783 177.216 47.1503 177 46.4063 176.568C45.6623 176.124 45.0683 175.524 44.6243 174.768C44.1923 174 43.9763 173.13 43.9763 172.158C43.9763 171.198 44.1923 170.34 44.6243 169.584C45.0563 168.828 45.6383 168.234 46.3703 167.802C47.1143 167.358 47.9543 167.136 48.8903 167.136C49.8263 167.136 50.6603 167.352 51.3923 167.784C52.1363 168.216 52.7183 168.81 53.1383 169.566C53.5703 170.322 53.7863 171.186 53.7863 172.158C53.7863 173.142 53.5643 174.018 53.1203 174.786C52.6763 175.542 52.0823 176.136 51.3383 176.568C50.6063 177 49.7903 177.216 48.8903 177.216ZM48.8903 175.866C49.5383 175.866 50.1203 175.704 50.6363 175.38C51.1643 175.056 51.5783 174.612 51.8783 174.048C52.1903 173.484 52.3463 172.854 52.3463 172.158C52.3463 171.462 52.1903 170.838 51.8783 170.286C51.5783 169.734 51.1643 169.296 50.6363 168.972C50.1203 168.648 49.5383 168.486 48.8903 168.486C48.2423 168.486 47.6543 168.648 47.1263 168.972C46.6103 169.296 46.1963 169.734 45.8843 170.286C45.5723 170.838 45.4163 171.462 45.4163 172.158C45.4163 172.854 45.5723 173.484 45.8843 174.048C46.1963 174.612 46.6103 175.056 47.1263 175.38C47.6543 175.704 48.2423 175.866 48.8903 175.866ZM60.6853 177.216C59.7733 177.216 58.9453 177 58.2013 176.568C57.4573 176.124 56.8633 175.524 56.4193 174.768C55.9873 174 55.7713 173.13 55.7713 172.158C55.7713 171.198 55.9873 170.34 56.4193 169.584C56.8513 168.828 57.4333 168.234 58.1653 167.802C58.9093 167.358 59.7493 167.136 60.6853 167.136C61.6213 167.136 62.4553 167.352 63.1873 167.784C63.9313 168.216 64.5133 168.81 64.9333 169.566C65.3653 170.322 65.5813 171.186 65.5813 172.158C65.5813 173.142 65.3593 174.018 64.9153 174.786C64.4713 175.542 63.8773 176.136 63.1333 176.568C62.4013 177 61.5853 177.216 60.6853 177.216ZM60.6853 175.866C61.3333 175.866 61.9153 175.704 62.4313 175.38C62.9593 175.056 63.3733 174.612 63.6733 174.048C63.9853 173.484 64.1413 172.854 64.1413 172.158C64.1413 171.462 63.9853 170.838 63.6733 170.286C63.3733 169.734 62.9593 169.296 62.4313 168.972C61.9153 168.648 61.3333 168.486 60.6853 168.486C60.0373 168.486 59.4493 168.648 58.9213 168.972C58.4053 169.296 57.9913 169.734 57.6793 170.286C57.3673 170.838 57.2113 171.462 57.2113 172.158C57.2113 172.854 57.3673 173.484 57.6793 174.048C57.9913 174.612 58.4053 175.056 58.9213 175.38C59.4493 175.704 60.0373 175.866 60.6853 175.866ZM68.6006 177V168.702H66.6746V167.352H68.6006V166.488C68.6006 165.816 68.7506 165.252 69.0506 164.796C69.3506 164.328 69.7466 163.974 70.2386 163.734C70.7306 163.494 71.2586 163.374 71.8226 163.374C71.9426 163.374 72.0806 163.386 72.2366 163.41C72.3926 163.422 72.5186 163.44 72.6146 163.464V164.688C72.5306 164.664 72.4166 164.652 72.2726 164.652C72.1286 164.64 72.0266 164.634 71.9666 164.634C71.3906 164.634 70.9106 164.772 70.5266 165.048C70.1426 165.324 69.9506 165.804 69.9506 166.488V167.352H72.3086V168.702H69.9506V177H68.6006ZM77.7356 177V163.374H79.0856V177H77.7356ZM86.2409 177.216C85.3409 177.216 84.5249 177 83.7929 176.568C83.0729 176.124 82.5029 175.518 82.0829 174.75C81.6629 173.982 81.4529 173.112 81.4529 172.14C81.4529 171.168 81.6569 170.31 82.0649 169.566C82.4729 168.81 83.0249 168.216 83.7209 167.784C84.4289 167.352 85.2209 167.136 86.0969 167.136C86.7929 167.136 87.4109 167.268 87.9509 167.532C88.5029 167.784 88.9709 168.132 89.3549 168.576C89.7389 169.008 90.0329 169.5 90.2369 170.052C90.4409 170.592 90.5429 171.15 90.5429 171.726C90.5429 171.846 90.5369 171.984 90.5249 172.14C90.5129 172.284 90.4949 172.434 90.4709 172.59H82.3169V171.33H89.6969L89.0489 171.87C89.1569 171.21 89.0789 170.622 88.8149 170.106C88.5629 169.578 88.1969 169.164 87.7169 168.864C87.2369 168.552 86.6969 168.396 86.0969 168.396C85.4969 168.396 84.9389 168.552 84.4229 168.864C83.9189 169.176 83.5229 169.614 83.2349 170.178C82.9469 170.73 82.8329 171.39 82.8929 172.158C82.8329 172.926 82.9529 173.598 83.2529 174.174C83.5649 174.738 83.9849 175.176 84.5129 175.488C85.0529 175.8 85.6289 175.956 86.2409 175.956C86.9489 175.956 87.5429 175.788 88.0229 175.452C88.5029 175.116 88.8929 174.696 89.1929 174.192L90.3449 174.804C90.1529 175.236 89.8589 175.638 89.4629 176.01C89.0669 176.37 88.5929 176.664 88.0409 176.892C87.5009 177.108 86.9009 177.216 86.2409 177.216ZM95.5373 177.216C94.9253 177.216 94.3793 177.102 93.8993 176.874C93.4193 176.634 93.0413 176.31 92.7653 175.902C92.4893 175.494 92.3513 175.026 92.3513 174.498C92.3513 173.994 92.4593 173.538 92.6753 173.13C92.8913 172.71 93.2273 172.356 93.6833 172.068C94.1393 171.78 94.7213 171.576 95.4293 171.456L99.2093 170.826V172.05L95.7533 172.626C95.0573 172.746 94.5533 172.968 94.2413 173.292C93.9413 173.616 93.7913 174 93.7913 174.444C93.7913 174.876 93.9593 175.242 94.2953 175.542C94.6433 175.842 95.0873 175.992 95.6273 175.992C96.2873 175.992 96.8633 175.854 97.3553 175.578C97.8473 175.29 98.2313 174.906 98.5073 174.426C98.7833 173.946 98.9213 173.412 98.9213 172.824V170.376C98.9213 169.8 98.7113 169.332 98.2913 168.972C97.8713 168.612 97.3253 168.432 96.6533 168.432C96.0653 168.432 95.5493 168.582 95.1053 168.882C94.6613 169.17 94.3313 169.548 94.1153 170.016L92.8913 169.35C93.0713 168.942 93.3533 168.57 93.7373 168.234C94.1333 167.898 94.5833 167.634 95.0873 167.442C95.5913 167.238 96.1133 167.136 96.6533 167.136C97.3613 167.136 97.9853 167.274 98.5253 167.55C99.0773 167.826 99.5033 168.21 99.8033 168.702C100.115 169.182 100.271 169.74 100.271 170.376V177H98.9213V175.074L99.1193 175.272C98.9513 175.632 98.6873 175.962 98.3273 176.262C97.9793 176.55 97.5653 176.784 97.0853 176.964C96.6173 177.132 96.1013 177.216 95.5373 177.216ZM103.048 177V163.374H104.398V172.914L103.822 172.824L109.24 167.352H110.986L107.206 171.222L111.328 177H109.708L105.838 171.654L106.702 171.726L103.948 174.57L104.398 173.454V177H103.048ZM116.257 177.216C115.333 177.216 114.523 176.982 113.827 176.514C113.131 176.046 112.627 175.41 112.315 174.606L113.449 174.066C113.725 174.654 114.109 175.122 114.601 175.47C115.105 175.818 115.657 175.992 116.257 175.992C116.833 175.992 117.319 175.854 117.715 175.578C118.111 175.29 118.309 174.918 118.309 174.462C118.309 174.126 118.213 173.862 118.021 173.67C117.829 173.466 117.607 173.31 117.355 173.202C117.103 173.094 116.881 173.016 116.689 172.968L115.303 172.572C114.415 172.32 113.773 171.966 113.377 171.51C112.981 171.054 112.783 170.526 112.783 169.926C112.783 169.362 112.927 168.87 113.215 168.45C113.503 168.03 113.893 167.706 114.385 167.478C114.877 167.25 115.423 167.136 116.023 167.136C116.839 167.136 117.577 167.352 118.237 167.784C118.909 168.204 119.383 168.792 119.659 169.548L118.507 170.088C118.267 169.548 117.919 169.128 117.463 168.828C117.019 168.516 116.521 168.36 115.969 168.36C115.429 168.36 114.997 168.498 114.673 168.774C114.349 169.05 114.187 169.398 114.187 169.818C114.187 170.142 114.271 170.4 114.439 170.592C114.607 170.784 114.799 170.928 115.015 171.024C115.243 171.12 115.441 171.192 115.609 171.24L117.211 171.708C117.991 171.936 118.597 172.29 119.029 172.77C119.473 173.25 119.695 173.814 119.695 174.462C119.695 174.99 119.545 175.464 119.245 175.884C118.957 176.304 118.555 176.634 118.039 176.874C117.523 177.102 116.929 177.216 116.257 177.216ZM122.122 179.34V178.71C122.482 178.614 122.746 178.428 122.914 178.152C123.082 177.876 123.166 177.492 123.166 177H122.482V175.02H123.922V176.532C123.922 177.312 123.772 177.936 123.472 178.404C123.172 178.884 122.722 179.196 122.122 179.34ZM133.668 177.108C132.804 177.108 132.138 176.856 131.67 176.352C131.202 175.848 130.968 175.128 130.968 174.192V168.702H129.186V167.352H129.636C130.044 167.352 130.368 167.22 130.608 166.956C130.848 166.68 130.968 166.338 130.968 165.93V165.12H132.318V167.352H134.442V168.702H132.318V174.192C132.318 174.516 132.366 174.804 132.462 175.056C132.558 175.296 132.72 175.488 132.948 175.632C133.188 175.776 133.506 175.848 133.902 175.848C133.998 175.848 134.112 175.842 134.244 175.83C134.376 175.818 134.49 175.806 134.586 175.794V177C134.442 177.036 134.28 177.06 134.1 177.072C133.92 177.096 133.776 177.108 133.668 177.108ZM136.956 177V167.352H138.306V177H136.956ZM136.956 165.57V163.59H138.306V165.57H136.956ZM141.07 177V163.374H142.42V177H141.07ZM149.575 177.216C148.675 177.216 147.859 177 147.127 176.568C146.407 176.124 145.837 175.518 145.417 174.75C144.997 173.982 144.787 173.112 144.787 172.14C144.787 171.168 144.991 170.31 145.399 169.566C145.807 168.81 146.359 168.216 147.055 167.784C147.763 167.352 148.555 167.136 149.431 167.136C150.127 167.136 150.745 167.268 151.285 167.532C151.837 167.784 152.305 168.132 152.689 168.576C153.073 169.008 153.367 169.5 153.571 170.052C153.775 170.592 153.877 171.15 153.877 171.726C153.877 171.846 153.871 171.984 153.859 172.14C153.847 172.284 153.829 172.434 153.805 172.59H145.651V171.33H153.031L152.383 171.87C152.491 171.21 152.413 170.622 152.149 170.106C151.897 169.578 151.531 169.164 151.051 168.864C150.571 168.552 150.031 168.396 149.431 168.396C148.831 168.396 148.273 168.552 147.757 168.864C147.253 169.176 146.857 169.614 146.569 170.178C146.281 170.73 146.167 171.39 146.227 172.158C146.167 172.926 146.287 173.598 146.587 174.174C146.899 174.738 147.319 175.176 147.847 175.488C148.387 175.8 148.963 175.956 149.575 175.956C150.283 175.956 150.877 175.788 151.357 175.452C151.837 175.116 152.227 174.696 152.527 174.192L153.679 174.804C153.487 175.236 153.193 175.638 152.797 176.01C152.401 176.37 151.927 176.664 151.375 176.892C150.835 177.108 150.235 177.216 149.575 177.216ZM159.316 177V167.352H160.666V168.936L160.486 168.702C160.714 168.246 161.056 167.886 161.512 167.622C161.98 167.358 162.544 167.226 163.204 167.226H163.816V168.576H162.97C162.274 168.576 161.716 168.792 161.296 169.224C160.876 169.656 160.666 170.268 160.666 171.06V177H159.316ZM169.79 177.216C168.89 177.216 168.074 177 167.342 176.568C166.622 176.124 166.052 175.518 165.632 174.75C165.212 173.982 165.002 173.112 165.002 172.14C165.002 171.168 165.206 170.31 165.614 169.566C166.022 168.81 166.574 168.216 167.27 167.784C167.978 167.352 168.77 167.136 169.646 167.136C170.342 167.136 170.96 167.268 171.5 167.532C172.052 167.784 172.52 168.132 172.904 168.576C173.288 169.008 173.582 169.5 173.786 170.052C173.99 170.592 174.092 171.15 174.092 171.726C174.092 171.846 174.086 171.984 174.074 172.14C174.062 172.284 174.044 172.434 174.02 172.59H165.866V171.33H173.246L172.598 171.87C172.706 171.21 172.628 170.622 172.364 170.106C172.112 169.578 171.746 169.164 171.266 168.864C170.786 168.552 170.246 168.396 169.646 168.396C169.046 168.396 168.488 168.552 167.972 168.864C167.468 169.176 167.072 169.614 166.784 170.178C166.496 170.73 166.382 171.39 166.442 172.158C166.382 172.926 166.502 173.598 166.802 174.174C167.114 174.738 167.534 175.176 168.062 175.488C168.602 175.8 169.178 175.956 169.79 175.956C170.498 175.956 171.092 175.788 171.572 175.452C172.052 175.116 172.442 174.696 172.742 174.192L173.894 174.804C173.702 175.236 173.408 175.638 173.012 176.01C172.616 176.37 172.142 176.664 171.59 176.892C171.05 177.108 170.45 177.216 169.79 177.216ZM176.472 180.6V167.352H177.822V169.512L177.606 169.134C177.99 168.522 178.5 168.036 179.136 167.676C179.784 167.316 180.522 167.136 181.35 167.136C182.262 167.136 183.072 167.358 183.78 167.802C184.5 168.234 185.064 168.828 185.472 169.584C185.892 170.34 186.102 171.204 186.102 172.176C186.102 173.136 185.892 174 185.472 174.768C185.064 175.524 184.5 176.124 183.78 176.568C183.072 177 182.262 177.216 181.35 177.216C180.522 177.216 179.772 177.03 179.1 176.658C178.44 176.274 177.942 175.734 177.606 175.038L177.822 174.84V180.6H176.472ZM181.278 175.866C181.926 175.866 182.502 175.704 183.006 175.38C183.522 175.056 183.924 174.618 184.212 174.066C184.512 173.502 184.662 172.872 184.662 172.176C184.662 171.468 184.512 170.838 184.212 170.286C183.924 169.734 183.522 169.296 183.006 168.972C182.502 168.648 181.926 168.486 181.278 168.486C180.63 168.486 180.042 168.648 179.514 168.972C178.998 169.296 178.584 169.74 178.272 170.304C177.972 170.856 177.822 171.48 177.822 172.176C177.822 172.872 177.972 173.502 178.272 174.066C178.584 174.618 178.998 175.056 179.514 175.38C180.042 175.704 180.63 175.866 181.278 175.866ZM188.478 177V163.374H189.828V177H188.478ZM195.381 177.216C194.769 177.216 194.223 177.102 193.743 176.874C193.263 176.634 192.885 176.31 192.609 175.902C192.333 175.494 192.195 175.026 192.195 174.498C192.195 173.994 192.303 173.538 192.519 173.13C192.735 172.71 193.071 172.356 193.527 172.068C193.983 171.78 194.565 171.576 195.273 171.456L199.053 170.826V172.05L195.597 172.626C194.901 172.746 194.397 172.968 194.085 173.292C193.785 173.616 193.635 174 193.635 174.444C193.635 174.876 193.803 175.242 194.139 175.542C194.487 175.842 194.931 175.992 195.471 175.992C196.131 175.992 196.707 175.854 197.199 175.578C197.691 175.29 198.075 174.906 198.351 174.426C198.627 173.946 198.765 173.412 198.765 172.824V170.376C198.765 169.8 198.555 169.332 198.135 168.972C197.715 168.612 197.169 168.432 196.497 168.432C195.909 168.432 195.393 168.582 194.949 168.882C194.505 169.17 194.175 169.548 193.959 170.016L192.735 169.35C192.915 168.942 193.197 168.57 193.581 168.234C193.977 167.898 194.427 167.634 194.931 167.442C195.435 167.238 195.957 167.136 196.497 167.136C197.205 167.136 197.829 167.274 198.369 167.55C198.921 167.826 199.347 168.21 199.647 168.702C199.959 169.182 200.115 169.74 200.115 170.376V177H198.765V175.074L198.963 175.272C198.795 175.632 198.531 175.962 198.171 176.262C197.823 176.55 197.409 176.784 196.929 176.964C196.461 177.132 195.945 177.216 195.381 177.216ZM207.302 177.216C206.354 177.216 205.52 176.994 204.8 176.55C204.08 176.106 203.516 175.506 203.108 174.75C202.7 173.982 202.496 173.118 202.496 172.158C202.496 171.198 202.7 170.34 203.108 169.584C203.516 168.828 204.08 168.234 204.8 167.802C205.52 167.358 206.354 167.136 207.302 167.136C207.902 167.136 208.466 167.244 208.994 167.46C209.522 167.676 209.99 167.97 210.398 168.342C210.806 168.702 211.112 169.122 211.316 169.602L210.092 170.232C209.852 169.716 209.486 169.296 208.994 168.972C208.502 168.648 207.938 168.486 207.302 168.486C206.666 168.486 206.09 168.648 205.574 168.972C205.07 169.284 204.668 169.722 204.368 170.286C204.08 170.838 203.936 171.468 203.936 172.176C203.936 172.872 204.08 173.502 204.368 174.066C204.668 174.618 205.07 175.056 205.574 175.38C206.09 175.704 206.666 175.866 207.302 175.866C207.938 175.866 208.496 175.704 208.976 175.38C209.468 175.056 209.84 174.624 210.092 174.084L211.316 174.75C211.112 175.218 210.806 175.638 210.398 176.01C209.99 176.382 209.522 176.676 208.994 176.892C208.466 177.108 207.902 177.216 207.302 177.216ZM218.077 177.216C217.177 177.216 216.361 177 215.629 176.568C214.909 176.124 214.339 175.518 213.919 174.75C213.499 173.982 213.289 173.112 213.289 172.14C213.289 171.168 213.493 170.31 213.901 169.566C214.309 168.81 214.861 168.216 215.557 167.784C216.265 167.352 217.057 167.136 217.933 167.136C218.629 167.136 219.247 167.268 219.787 167.532C220.339 167.784 220.807 168.132 221.191 168.576C221.575 169.008 221.869 169.5 222.073 170.052C222.277 170.592 222.379 171.15 222.379 171.726C222.379 171.846 222.373 171.984 222.361 172.14C222.349 172.284 222.331 172.434 222.307 172.59H214.153V171.33H221.533L220.885 171.87C220.993 171.21 220.915 170.622 220.651 170.106C220.399 169.578 220.033 169.164 219.553 168.864C219.073 168.552 218.533 168.396 217.933 168.396C217.333 168.396 216.775 168.552 216.259 168.864C215.755 169.176 215.359 169.614 215.071 170.178C214.783 170.73 214.669 171.39 214.729 172.158C214.669 172.926 214.789 173.598 215.089 174.174C215.401 174.738 215.821 175.176 216.349 175.488C216.889 175.8 217.465 175.956 218.077 175.956C218.785 175.956 219.379 175.788 219.859 175.452C220.339 175.116 220.729 174.696 221.029 174.192L222.181 174.804C221.989 175.236 221.695 175.638 221.299 176.01C220.903 176.37 220.429 176.664 219.877 176.892C219.337 177.108 218.737 177.216 218.077 177.216ZM224.759 177V167.352H226.109V169.188L225.893 168.918C226.157 168.354 226.547 167.916 227.063 167.604C227.591 167.292 228.167 167.136 228.791 167.136C229.535 167.136 230.207 167.346 230.807 167.766C231.407 168.186 231.833 168.732 232.085 169.404L231.707 169.422C231.947 168.678 232.361 168.114 232.949 167.73C233.549 167.334 234.209 167.136 234.929 167.136C235.577 167.136 236.171 167.292 236.711 167.604C237.263 167.916 237.701 168.348 238.025 168.9C238.361 169.44 238.529 170.052 238.529 170.736V177H237.179V171.258C237.179 170.67 237.071 170.172 236.855 169.764C236.651 169.356 236.369 169.044 236.009 168.828C235.649 168.6 235.235 168.486 234.767 168.486C234.311 168.486 233.897 168.6 233.525 168.828C233.153 169.044 232.859 169.362 232.643 169.782C232.427 170.19 232.319 170.682 232.319 171.258V177H230.969V171.258C230.969 170.67 230.861 170.172 230.645 169.764C230.441 169.356 230.159 169.044 229.799 168.828C229.439 168.6 229.025 168.486 228.557 168.486C228.089 168.486 227.669 168.6 227.297 168.828C226.937 169.044 226.649 169.362 226.433 169.782C226.217 170.19 226.109 170.682 226.109 171.258V177H224.759ZM245.499 177.216C244.599 177.216 243.783 177 243.051 176.568C242.331 176.124 241.761 175.518 241.341 174.75C240.921 173.982 240.711 173.112 240.711 172.14C240.711 171.168 240.915 170.31 241.323 169.566C241.731 168.81 242.283 168.216 242.979 167.784C243.687 167.352 244.479 167.136 245.355 167.136C246.051 167.136 246.669 167.268 247.209 167.532C247.761 167.784 248.229 168.132 248.613 168.576C248.997 169.008 249.291 169.5 249.495 170.052C249.699 170.592 249.801 171.15 249.801 171.726C249.801 171.846 249.795 171.984 249.783 172.14C249.771 172.284 249.753 172.434 249.729 172.59H241.575V171.33H248.955L248.307 171.87C248.415 171.21 248.337 170.622 248.073 170.106C247.821 169.578 247.455 169.164 246.975 168.864C246.495 168.552 245.955 168.396 245.355 168.396C244.755 168.396 244.197 168.552 243.681 168.864C243.177 169.176 242.781 169.614 242.493 170.178C242.205 170.73 242.091 171.39 242.151 172.158C242.091 172.926 242.211 173.598 242.511 174.174C242.823 174.738 243.243 175.176 243.771 175.488C244.311 175.8 244.887 175.956 245.499 175.956C246.207 175.956 246.801 175.788 247.281 175.452C247.761 175.116 248.151 174.696 248.451 174.192L249.603 174.804C249.411 175.236 249.117 175.638 248.721 176.01C248.325 176.37 247.851 176.664 247.299 176.892C246.759 177.108 246.159 177.216 245.499 177.216ZM252.181 177V167.352H253.531V169.224L253.225 169.152C253.465 168.528 253.855 168.036 254.395 167.676C254.947 167.316 255.583 167.136 256.303 167.136C256.987 167.136 257.599 167.292 258.139 167.604C258.691 167.916 259.123 168.348 259.435 168.9C259.759 169.44 259.921 170.052 259.921 170.736V177H258.571V171.258C258.571 170.67 258.463 170.172 258.247 169.764C258.043 169.356 257.749 169.044 257.365 168.828C256.993 168.6 256.561 168.486 256.069 168.486C255.577 168.486 255.139 168.6 254.755 168.828C254.371 169.044 254.071 169.362 253.855 169.782C253.639 170.19 253.531 170.682 253.531 171.258V177H252.181ZM266.189 177.108C265.325 177.108 264.659 176.856 264.191 176.352C263.723 175.848 263.489 175.128 263.489 174.192V168.702H261.707V167.352H262.157C262.565 167.352 262.889 167.22 263.129 166.956C263.369 166.68 263.489 166.338 263.489 165.93V165.12H264.839V167.352H266.963V168.702H264.839V174.192C264.839 174.516 264.887 174.804 264.983 175.056C265.079 175.296 265.241 175.488 265.469 175.632C265.709 175.776 266.027 175.848 266.423 175.848C266.519 175.848 266.633 175.842 266.765 175.83C266.897 175.818 267.011 175.806 267.107 175.794V177C266.963 177.036 266.801 177.06 266.621 177.072C266.441 177.096 266.297 177.108 266.189 177.108ZM269.532 179.34V178.71C269.892 178.614 270.156 178.428 270.324 178.152C270.492 177.876 270.576 177.492 270.576 177H269.892V175.02H271.332V176.532C271.332 177.312 271.182 177.936 270.882 178.404C270.582 178.884 270.132 179.196 269.532 179.34ZM277.388 177V167.352H278.738V168.936L278.558 168.702C278.786 168.246 279.128 167.886 279.584 167.622C280.052 167.358 280.616 167.226 281.276 167.226H281.888V168.576H281.042C280.346 168.576 279.788 168.792 279.368 169.224C278.948 169.656 278.738 170.268 278.738 171.06V177H277.388ZM287.988 177.216C287.076 177.216 286.248 177 285.504 176.568C284.76 176.124 284.166 175.524 283.722 174.768C283.29 174 283.074 173.13 283.074 172.158C283.074 171.198 283.29 170.34 283.722 169.584C284.154 168.828 284.736 168.234 285.468 167.802C286.212 167.358 287.052 167.136 287.988 167.136C288.924 167.136 289.758 167.352 290.49 167.784C291.234 168.216 291.816 168.81 292.236 169.566C292.668 170.322 292.884 171.186 292.884 172.158C292.884 173.142 292.662 174.018 292.218 174.786C291.774 175.542 291.18 176.136 290.436 176.568C289.704 177 288.888 177.216 287.988 177.216ZM287.988 175.866C288.636 175.866 289.218 175.704 289.734 175.38C290.262 175.056 290.676 174.612 290.976 174.048C291.288 173.484 291.444 172.854 291.444 172.158C291.444 171.462 291.288 170.838 290.976 170.286C290.676 169.734 290.262 169.296 289.734 168.972C289.218 168.648 288.636 168.486 287.988 168.486C287.34 168.486 286.752 168.648 286.224 168.972C285.708 169.296 285.294 169.734 284.982 170.286C284.67 170.838 284.514 171.462 284.514 172.158C284.514 172.854 284.67 173.484 284.982 174.048C285.294 174.612 285.708 175.056 286.224 175.38C286.752 175.704 287.34 175.866 287.988 175.866ZM299.783 177.216C298.871 177.216 298.043 177 297.299 176.568C296.555 176.124 295.961 175.524 295.517 174.768C295.085 174 294.869 173.13 294.869 172.158C294.869 171.198 295.085 170.34 295.517 169.584C295.949 168.828 296.531 168.234 297.263 167.802C298.007 167.358 298.847 167.136 299.783 167.136C300.719 167.136 301.553 167.352 302.285 167.784C303.029 168.216 303.611 168.81 304.031 169.566C304.463 170.322 304.679 171.186 304.679 172.158C304.679 173.142 304.457 174.018 304.013 174.786C303.569 175.542 302.975 176.136 302.231 176.568C301.499 177 300.683 177.216 299.783 177.216ZM299.783 175.866C300.431 175.866 301.013 175.704 301.529 175.38C302.057 175.056 302.471 174.612 302.771 174.048C303.083 173.484 303.239 172.854 303.239 172.158C303.239 171.462 303.083 170.838 302.771 170.286C302.471 169.734 302.057 169.296 301.529 168.972C301.013 168.648 300.431 168.486 299.783 168.486C299.135 168.486 298.547 168.648 298.019 168.972C297.503 169.296 297.089 169.734 296.777 170.286C296.465 170.838 296.309 171.462 296.309 172.158C296.309 172.854 296.465 173.484 296.777 174.048C297.089 174.612 297.503 175.056 298.019 175.38C298.547 175.704 299.135 175.866 299.783 175.866ZM307.698 177V168.702H305.772V167.352H307.698V166.488C307.698 165.816 307.848 165.252 308.148 164.796C308.448 164.328 308.844 163.974 309.336 163.734C309.828 163.494 310.356 163.374 310.92 163.374C311.04 163.374 311.178 163.386 311.334 163.41C311.49 163.422 311.616 163.44 311.712 163.464V164.688C311.628 164.664 311.514 164.652 311.37 164.652C311.226 164.64 311.124 164.634 311.064 164.634C310.488 164.634 310.008 164.772 309.624 165.048C309.24 165.324 309.048 165.804 309.048 166.488V167.352H311.406V168.702H309.048V177H307.698ZM37.796 205.216C36.848 205.216 36.014 204.994 35.294 204.55C34.574 204.106 34.01 203.506 33.602 202.75C33.194 201.982 32.99 201.118 32.99 200.158C32.99 199.198 33.194 198.34 33.602 197.584C34.01 196.828 34.574 196.234 35.294 195.802C36.014 195.358 36.848 195.136 37.796 195.136C38.396 195.136 38.96 195.244 39.488 195.46C40.016 195.676 40.484 195.97 40.892 196.342C41.3 196.702 41.606 197.122 41.81 197.602L40.586 198.232C40.346 197.716 39.98 197.296 39.488 196.972C38.996 196.648 38.432 196.486 37.796 196.486C37.16 196.486 36.584 196.648 36.068 196.972C35.564 197.284 35.162 197.722 34.862 198.286C34.574 198.838 34.43 199.468 34.43 200.176C34.43 200.872 34.574 201.502 34.862 202.066C35.162 202.618 35.564 203.056 36.068 203.38C36.584 203.704 37.16 203.866 37.796 203.866C38.432 203.866 38.99 203.704 39.47 203.38C39.962 203.056 40.334 202.624 40.586 202.084L41.81 202.75C41.606 203.218 41.3 203.638 40.892 204.01C40.484 204.382 40.016 204.676 39.488 204.892C38.96 205.108 38.396 205.216 37.796 205.216ZM44.179 205V191.374H45.529V205H44.179ZM52.6843 205.216C51.7843 205.216 50.9683 205 50.2363 204.568C49.5163 204.124 48.9463 203.518 48.5263 202.75C48.1063 201.982 47.8963 201.112 47.8963 200.14C47.8963 199.168 48.1003 198.31 48.5083 197.566C48.9163 196.81 49.4683 196.216 50.1643 195.784C50.8723 195.352 51.6643 195.136 52.5403 195.136C53.2363 195.136 53.8543 195.268 54.3943 195.532C54.9463 195.784 55.4143 196.132 55.7983 196.576C56.1823 197.008 56.4763 197.5 56.6803 198.052C56.8843 198.592 56.9863 199.15 56.9863 199.726C56.9863 199.846 56.9803 199.984 56.9683 200.14C56.9563 200.284 56.9383 200.434 56.9143 200.59H48.7603V199.33H56.1403L55.4923 199.87C55.6003 199.21 55.5223 198.622 55.2583 198.106C55.0063 197.578 54.6403 197.164 54.1603 196.864C53.6803 196.552 53.1403 196.396 52.5403 196.396C51.9403 196.396 51.3823 196.552 50.8663 196.864C50.3623 197.176 49.9663 197.614 49.6783 198.178C49.3903 198.73 49.2763 199.39 49.3363 200.158C49.2763 200.926 49.3963 201.598 49.6963 202.174C50.0083 202.738 50.4283 203.176 50.9563 203.488C51.4963 203.8 52.0723 203.956 52.6843 203.956C53.3923 203.956 53.9863 203.788 54.4663 203.452C54.9463 203.116 55.3363 202.696 55.6363 202.192L56.7883 202.804C56.5963 203.236 56.3023 203.638 55.9062 204.01C55.5103 204.37 55.0363 204.664 54.4843 204.892C53.9443 205.108 53.3443 205.216 52.6843 205.216ZM61.9807 205.216C61.3687 205.216 60.8227 205.102 60.3427 204.874C59.8627 204.634 59.4847 204.31 59.2087 203.902C58.9327 203.494 58.7947 203.026 58.7947 202.498C58.7947 201.994 58.9027 201.538 59.1187 201.13C59.3347 200.71 59.6707 200.356 60.1267 200.068C60.5827 199.78 61.1647 199.576 61.8727 199.456L65.6527 198.826V200.05L62.1967 200.626C61.5007 200.746 60.9967 200.968 60.6847 201.292C60.3847 201.616 60.2347 202 60.2347 202.444C60.2347 202.876 60.4027 203.242 60.7387 203.542C61.0867 203.842 61.5307 203.992 62.0707 203.992C62.7307 203.992 63.3067 203.854 63.7987 203.578C64.2907 203.29 64.6747 202.906 64.9507 202.426C65.2267 201.946 65.3647 201.412 65.3647 200.824V198.376C65.3647 197.8 65.1547 197.332 64.7347 196.972C64.3147 196.612 63.7687 196.432 63.0967 196.432C62.5087 196.432 61.9927 196.582 61.5487 196.882C61.1047 197.17 60.7747 197.548 60.5587 198.016L59.3347 197.35C59.5147 196.942 59.7967 196.57 60.1807 196.234C60.5767 195.898 61.0267 195.634 61.5307 195.442C62.0347 195.238 62.5567 195.136 63.0967 195.136C63.8047 195.136 64.4287 195.274 64.9687 195.55C65.5207 195.826 65.9467 196.21 66.2467 196.702C66.5587 197.182 66.7147 197.74 66.7147 198.376V205H65.3647V203.074L65.5627 203.272C65.3947 203.632 65.1307 203.962 64.7707 204.262C64.4227 204.55 64.0087 204.784 63.5287 204.964C63.0607 205.132 62.5447 205.216 61.9807 205.216ZM69.4915 205V195.352H70.8415V197.224L70.5355 197.152C70.7755 196.528 71.1655 196.036 71.7055 195.676C72.2575 195.316 72.8935 195.136 73.6135 195.136C74.2975 195.136 74.9095 195.292 75.4495 195.604C76.0015 195.916 76.4335 196.348 76.7455 196.9C77.0695 197.44 77.2315 198.052 77.2315 198.736V205H75.8815V199.258C75.8815 198.67 75.7735 198.172 75.5575 197.764C75.3535 197.356 75.0595 197.044 74.6755 196.828C74.3035 196.6 73.8715 196.486 73.3795 196.486C72.8875 196.486 72.4495 196.6 72.0655 196.828C71.6815 197.044 71.3815 197.362 71.1655 197.782C70.9495 198.19 70.8415 198.682 70.8415 199.258V205H69.4915ZM79.8098 205V195.352H81.1598V205H79.8098ZM79.8098 193.57V191.59H81.1598V193.57H79.8098ZM83.9231 205V195.352H85.2731V197.224L84.9671 197.152C85.2071 196.528 85.5971 196.036 86.1371 195.676C86.6891 195.316 87.3251 195.136 88.0451 195.136C88.7291 195.136 89.3411 195.292 89.8811 195.604C90.4331 195.916 90.8651 196.348 91.1771 196.9C91.5011 197.44 91.6631 198.052 91.6631 198.736V205H90.3131V199.258C90.3131 198.67 90.2051 198.172 89.9891 197.764C89.7851 197.356 89.4911 197.044 89.1071 196.828C88.7351 196.6 88.3031 196.486 87.8111 196.486C87.3191 196.486 86.8811 196.6 86.4971 196.828C86.1131 197.044 85.8131 197.362 85.5971 197.782C85.3811 198.19 85.2731 198.682 85.2731 199.258V205H83.9231ZM98.8135 208.96C98.1535 208.96 97.5415 208.858 96.9775 208.654C96.4255 208.45 95.9455 208.168 95.5375 207.808C95.1415 207.46 94.8355 207.052 94.6195 206.584L95.8615 205.918C96.0535 206.374 96.3955 206.77 96.8875 207.106C97.3795 207.442 98.0095 207.61 98.7775 207.61C99.3655 207.61 99.9055 207.496 100.397 207.268C100.889 207.04 101.285 206.704 101.585 206.26C101.885 205.816 102.035 205.27 102.035 204.622V202.48L102.251 202.678C101.915 203.374 101.417 203.914 100.757 204.298C100.097 204.67 99.3775 204.856 98.5975 204.856C97.6975 204.856 96.8875 204.64 96.1675 204.208C95.4475 203.776 94.8775 203.194 94.4575 202.462C94.0495 201.718 93.8455 200.896 93.8455 199.996C93.8455 199.084 94.0495 198.262 94.4575 197.53C94.8775 196.798 95.4415 196.216 96.1495 195.784C96.8695 195.352 97.6855 195.136 98.5975 195.136C99.3775 195.136 100.085 195.316 100.721 195.676C101.369 196.036 101.879 196.522 102.251 197.134L102.035 197.512V195.352H103.385V204.622C103.385 205.45 103.187 206.188 102.791 206.836C102.407 207.496 101.867 208.012 101.171 208.384C100.487 208.768 99.7015 208.96 98.8135 208.96ZM98.6695 203.506C99.2935 203.506 99.8575 203.35 100.361 203.038C100.865 202.714 101.267 202.288 101.567 201.76C101.879 201.22 102.035 200.632 102.035 199.996C102.035 199.36 101.879 198.778 101.567 198.25C101.267 197.71 100.865 197.284 100.361 196.972C99.8575 196.648 99.2935 196.486 98.6695 196.486C98.0335 196.486 97.4575 196.648 96.9415 196.972C96.4255 197.284 96.0175 197.704 95.7175 198.232C95.4295 198.76 95.2855 199.348 95.2855 199.996C95.2855 200.632 95.4295 201.22 95.7175 201.76C96.0175 202.288 96.4195 202.714 96.9235 203.038C97.4395 203.35 98.0215 203.506 98.6695 203.506ZM112.008 205.216C111.396 205.216 110.85 205.102 110.37 204.874C109.89 204.634 109.512 204.31 109.236 203.902C108.96 203.494 108.822 203.026 108.822 202.498C108.822 201.994 108.93 201.538 109.146 201.13C109.362 200.71 109.698 200.356 110.154 200.068C110.61 199.78 111.192 199.576 111.9 199.456L115.68 198.826V200.05L112.224 200.626C111.528 200.746 111.024 200.968 110.712 201.292C110.412 201.616 110.262 202 110.262 202.444C110.262 202.876 110.43 203.242 110.766 203.542C111.114 203.842 111.558 203.992 112.098 203.992C112.758 203.992 113.334 203.854 113.826 203.578C114.318 203.29 114.702 202.906 114.978 202.426C115.254 201.946 115.392 201.412 115.392 200.824V198.376C115.392 197.8 115.182 197.332 114.762 196.972C114.342 196.612 113.796 196.432 113.124 196.432C112.536 196.432 112.02 196.582 111.576 196.882C111.132 197.17 110.802 197.548 110.586 198.016L109.362 197.35C109.542 196.942 109.824 196.57 110.208 196.234C110.604 195.898 111.054 195.634 111.558 195.442C112.062 195.238 112.584 195.136 113.124 195.136C113.832 195.136 114.456 195.274 114.996 195.55C115.548 195.826 115.974 196.21 116.274 196.702C116.586 197.182 116.742 197.74 116.742 198.376V205H115.392V203.074L115.59 203.272C115.422 203.632 115.158 203.962 114.798 204.262C114.45 204.55 114.036 204.784 113.556 204.964C113.088 205.132 112.572 205.216 112.008 205.216ZM119.519 205V195.352H120.869V197.224L120.563 197.152C120.803 196.528 121.193 196.036 121.733 195.676C122.285 195.316 122.921 195.136 123.641 195.136C124.325 195.136 124.937 195.292 125.477 195.604C126.029 195.916 126.461 196.348 126.773 196.9C127.097 197.44 127.259 198.052 127.259 198.736V205H125.909V199.258C125.909 198.67 125.801 198.172 125.585 197.764C125.381 197.356 125.087 197.044 124.703 196.828C124.331 196.6 123.899 196.486 123.407 196.486C122.915 196.486 122.477 196.6 122.093 196.828C121.709 197.044 121.409 197.362 121.193 197.782C120.977 198.19 120.869 198.682 120.869 199.258V205H119.519ZM134.193 205.216C133.293 205.216 132.483 205 131.763 204.568C131.043 204.124 130.473 203.524 130.053 202.768C129.645 202 129.441 201.136 129.441 200.176C129.441 199.204 129.645 198.34 130.053 197.584C130.473 196.828 131.037 196.234 131.745 195.802C132.465 195.358 133.281 195.136 134.193 195.136C135.021 195.136 135.759 195.316 136.407 195.676C137.055 196.036 137.565 196.522 137.937 197.134L137.721 197.512V191.374H139.071V205H137.721V202.84L137.937 203.038C137.601 203.734 137.097 204.274 136.425 204.658C135.765 205.03 135.021 205.216 134.193 205.216ZM134.265 203.866C134.913 203.866 135.495 203.704 136.011 203.38C136.539 203.056 136.953 202.618 137.253 202.066C137.565 201.502 137.721 200.872 137.721 200.176C137.721 199.48 137.565 198.856 137.253 198.304C136.953 197.74 136.539 197.296 136.011 196.972C135.495 196.648 134.913 196.486 134.265 196.486C133.629 196.486 133.053 196.648 132.537 196.972C132.021 197.296 131.613 197.734 131.313 198.286C131.025 198.838 130.881 199.468 130.881 200.176C130.881 200.872 131.025 201.502 131.313 202.066C131.613 202.618 132.015 203.056 132.519 203.38C133.035 203.704 133.617 203.866 134.265 203.866ZM144.902 205V195.352H146.252V197.188L146.036 196.918C146.3 196.354 146.69 195.916 147.206 195.604C147.734 195.292 148.31 195.136 148.934 195.136C149.678 195.136 150.35 195.346 150.95 195.766C151.55 196.186 151.976 196.732 152.228 197.404L151.85 197.422C152.09 196.678 152.504 196.114 153.092 195.73C153.692 195.334 154.352 195.136 155.072 195.136C155.72 195.136 156.314 195.292 156.854 195.604C157.406 195.916 157.844 196.348 158.168 196.9C158.504 197.44 158.672 198.052 158.672 198.736V205H157.322V199.258C157.322 198.67 157.214 198.172 156.998 197.764C156.794 197.356 156.512 197.044 156.152 196.828C155.792 196.6 155.378 196.486 154.91 196.486C154.454 196.486 154.04 196.6 153.668 196.828C153.296 197.044 153.002 197.362 152.786 197.782C152.57 198.19 152.462 198.682 152.462 199.258V205H151.112V199.258C151.112 198.67 151.004 198.172 150.788 197.764C150.584 197.356 150.302 197.044 149.942 196.828C149.582 196.6 149.168 196.486 148.7 196.486C148.232 196.486 147.812 196.6 147.44 196.828C147.08 197.044 146.792 197.362 146.576 197.782C146.36 198.19 146.252 198.682 146.252 199.258V205H144.902ZM164.039 205.216C163.427 205.216 162.881 205.102 162.401 204.874C161.921 204.634 161.543 204.31 161.267 203.902C160.991 203.494 160.853 203.026 160.853 202.498C160.853 201.994 160.961 201.538 161.177 201.13C161.393 200.71 161.729 200.356 162.185 200.068C162.641 199.78 163.223 199.576 163.931 199.456L167.711 198.826V200.05L164.255 200.626C163.559 200.746 163.055 200.968 162.743 201.292C162.443 201.616 162.293 202 162.293 202.444C162.293 202.876 162.461 203.242 162.797 203.542C163.145 203.842 163.589 203.992 164.129 203.992C164.789 203.992 165.365 203.854 165.857 203.578C166.349 203.29 166.733 202.906 167.009 202.426C167.285 201.946 167.423 201.412 167.423 200.824V198.376C167.423 197.8 167.213 197.332 166.793 196.972C166.373 196.612 165.827 196.432 165.155 196.432C164.567 196.432 164.051 196.582 163.607 196.882C163.163 197.17 162.833 197.548 162.617 198.016L161.393 197.35C161.573 196.942 161.855 196.57 162.239 196.234C162.635 195.898 163.085 195.634 163.589 195.442C164.093 195.238 164.615 195.136 165.155 195.136C165.863 195.136 166.487 195.274 167.027 195.55C167.579 195.826 168.005 196.21 168.305 196.702C168.617 197.182 168.773 197.74 168.773 198.376V205H167.423V203.074L167.621 203.272C167.453 203.632 167.189 203.962 166.829 204.262C166.481 204.55 166.067 204.784 165.587 204.964C165.119 205.132 164.603 205.216 164.039 205.216ZM171.55 205V195.352H172.9V205H171.55ZM171.55 193.57V191.59H172.9V193.57H171.55ZM175.663 205V195.352H177.013V197.224L176.707 197.152C176.947 196.528 177.337 196.036 177.877 195.676C178.429 195.316 179.065 195.136 179.785 195.136C180.469 195.136 181.081 195.292 181.621 195.604C182.173 195.916 182.605 196.348 182.917 196.9C183.241 197.44 183.403 198.052 183.403 198.736V205H182.053V199.258C182.053 198.67 181.945 198.172 181.729 197.764C181.525 197.356 181.231 197.044 180.847 196.828C180.475 196.6 180.043 196.486 179.551 196.486C179.059 196.486 178.621 196.6 178.237 196.828C177.853 197.044 177.553 197.362 177.337 197.782C177.121 198.19 177.013 198.682 177.013 199.258V205H175.663ZM189.672 205.108C188.808 205.108 188.142 204.856 187.674 204.352C187.206 203.848 186.972 203.128 186.972 202.192V196.702H185.19V195.352H185.64C186.048 195.352 186.372 195.22 186.612 194.956C186.852 194.68 186.972 194.338 186.972 193.93V193.12H188.322V195.352H190.446V196.702H188.322V202.192C188.322 202.516 188.37 202.804 188.466 203.056C188.562 203.296 188.724 203.488 188.952 203.632C189.192 203.776 189.51 203.848 189.906 203.848C190.002 203.848 190.116 203.842 190.248 203.83C190.38 203.818 190.494 203.806 190.59 203.794V205C190.446 205.036 190.284 205.06 190.104 205.072C189.924 205.096 189.78 205.108 189.672 205.108ZM197.001 205.216C196.101 205.216 195.285 205 194.553 204.568C193.833 204.124 193.263 203.518 192.843 202.75C192.423 201.982 192.213 201.112 192.213 200.14C192.213 199.168 192.417 198.31 192.825 197.566C193.233 196.81 193.785 196.216 194.481 195.784C195.189 195.352 195.981 195.136 196.857 195.136C197.553 195.136 198.171 195.268 198.711 195.532C199.263 195.784 199.731 196.132 200.115 196.576C200.499 197.008 200.793 197.5 200.997 198.052C201.201 198.592 201.303 199.15 201.303 199.726C201.303 199.846 201.297 199.984 201.285 200.14C201.273 200.284 201.255 200.434 201.231 200.59H193.077V199.33H200.457L199.809 199.87C199.917 199.21 199.839 198.622 199.575 198.106C199.323 197.578 198.957 197.164 198.477 196.864C197.997 196.552 197.457 196.396 196.857 196.396C196.257 196.396 195.699 196.552 195.183 196.864C194.679 197.176 194.283 197.614 193.995 198.178C193.707 198.73 193.593 199.39 193.653 200.158C193.593 200.926 193.713 201.598 194.013 202.174C194.325 202.738 194.745 203.176 195.273 203.488C195.813 203.8 196.389 203.956 197.001 203.956C197.709 203.956 198.303 203.788 198.783 203.452C199.263 203.116 199.653 202.696 199.953 202.192L201.105 202.804C200.913 203.236 200.619 203.638 200.223 204.01C199.827 204.37 199.353 204.664 198.801 204.892C198.261 205.108 197.661 205.216 197.001 205.216ZM203.683 205V195.352H205.033V197.224L204.727 197.152C204.967 196.528 205.357 196.036 205.897 195.676C206.449 195.316 207.085 195.136 207.805 195.136C208.489 195.136 209.101 195.292 209.641 195.604C210.193 195.916 210.625 196.348 210.937 196.9C211.261 197.44 211.423 198.052 211.423 198.736V205H210.073V199.258C210.073 198.67 209.965 198.172 209.749 197.764C209.545 197.356 209.251 197.044 208.867 196.828C208.495 196.6 208.063 196.486 207.571 196.486C207.079 196.486 206.641 196.6 206.257 196.828C205.873 197.044 205.573 197.362 205.357 197.782C205.141 198.19 205.033 198.682 205.033 199.258V205H203.683ZM216.791 205.216C216.179 205.216 215.633 205.102 215.153 204.874C214.673 204.634 214.295 204.31 214.019 203.902C213.743 203.494 213.605 203.026 213.605 202.498C213.605 201.994 213.713 201.538 213.929 201.13C214.145 200.71 214.481 200.356 214.937 200.068C215.393 199.78 215.975 199.576 216.683 199.456L220.463 198.826V200.05L217.007 200.626C216.311 200.746 215.807 200.968 215.495 201.292C215.195 201.616 215.045 202 215.045 202.444C215.045 202.876 215.213 203.242 215.549 203.542C215.897 203.842 216.341 203.992 216.881 203.992C217.541 203.992 218.117 203.854 218.609 203.578C219.101 203.29 219.485 202.906 219.761 202.426C220.037 201.946 220.175 201.412 220.175 200.824V198.376C220.175 197.8 219.965 197.332 219.545 196.972C219.125 196.612 218.579 196.432 217.907 196.432C217.319 196.432 216.803 196.582 216.359 196.882C215.915 197.17 215.585 197.548 215.369 198.016L214.145 197.35C214.325 196.942 214.607 196.57 214.991 196.234C215.387 195.898 215.837 195.634 216.341 195.442C216.845 195.238 217.367 195.136 217.907 195.136C218.615 195.136 219.239 195.274 219.779 195.55C220.331 195.826 220.757 196.21 221.057 196.702C221.369 197.182 221.525 197.74 221.525 198.376V205H220.175V203.074L220.373 203.272C220.205 203.632 219.941 203.962 219.581 204.262C219.233 204.55 218.819 204.784 218.339 204.964C217.871 205.132 217.355 205.216 216.791 205.216ZM224.302 205V195.352H225.652V197.224L225.346 197.152C225.586 196.528 225.976 196.036 226.516 195.676C227.068 195.316 227.704 195.136 228.424 195.136C229.108 195.136 229.72 195.292 230.26 195.604C230.812 195.916 231.244 196.348 231.556 196.9C231.88 197.44 232.042 198.052 232.042 198.736V205H230.692V199.258C230.692 198.67 230.584 198.172 230.368 197.764C230.164 197.356 229.87 197.044 229.486 196.828C229.114 196.6 228.682 196.486 228.19 196.486C227.698 196.486 227.26 196.6 226.876 196.828C226.492 197.044 226.192 197.362 225.976 197.782C225.76 198.19 225.652 198.682 225.652 199.258V205H224.302ZM239.03 205.216C238.082 205.216 237.248 204.994 236.528 204.55C235.808 204.106 235.244 203.506 234.836 202.75C234.428 201.982 234.224 201.118 234.224 200.158C234.224 199.198 234.428 198.34 234.836 197.584C235.244 196.828 235.808 196.234 236.528 195.802C237.248 195.358 238.082 195.136 239.03 195.136C239.63 195.136 240.194 195.244 240.722 195.46C241.25 195.676 241.718 195.97 242.126 196.342C242.534 196.702 242.84 197.122 243.044 197.602L241.82 198.232C241.58 197.716 241.214 197.296 240.722 196.972C240.23 196.648 239.666 196.486 239.03 196.486C238.394 196.486 237.818 196.648 237.302 196.972C236.798 197.284 236.396 197.722 236.096 198.286C235.808 198.838 235.664 199.468 235.664 200.176C235.664 200.872 235.808 201.502 236.096 202.066C236.396 202.618 236.798 203.056 237.302 203.38C237.818 203.704 238.394 203.866 239.03 203.866C239.666 203.866 240.224 203.704 240.704 203.38C241.196 203.056 241.568 202.624 241.82 202.084L243.044 202.75C242.84 203.218 242.534 203.638 242.126 204.01C241.718 204.382 241.25 204.676 240.722 204.892C240.194 205.108 239.63 205.216 239.03 205.216ZM249.805 205.216C248.905 205.216 248.089 205 247.357 204.568C246.637 204.124 246.067 203.518 245.647 202.75C245.227 201.982 245.017 201.112 245.017 200.14C245.017 199.168 245.221 198.31 245.629 197.566C246.037 196.81 246.589 196.216 247.285 195.784C247.993 195.352 248.785 195.136 249.661 195.136C250.357 195.136 250.975 195.268 251.515 195.532C252.067 195.784 252.535 196.132 252.919 196.576C253.303 197.008 253.597 197.5 253.801 198.052C254.005 198.592 254.107 199.15 254.107 199.726C254.107 199.846 254.101 199.984 254.089 200.14C254.077 200.284 254.059 200.434 254.035 200.59H245.881V199.33H253.261L252.613 199.87C252.721 199.21 252.643 198.622 252.379 198.106C252.127 197.578 251.761 197.164 251.281 196.864C250.801 196.552 250.261 196.396 249.661 196.396C249.061 196.396 248.503 196.552 247.987 196.864C247.483 197.176 247.087 197.614 246.799 198.178C246.511 198.73 246.397 199.39 246.457 200.158C246.397 200.926 246.517 201.598 246.817 202.174C247.129 202.738 247.549 203.176 248.077 203.488C248.617 203.8 249.193 203.956 249.805 203.956C250.513 203.956 251.107 203.788 251.587 203.452C252.067 203.116 252.457 202.696 252.757 202.192L253.909 202.804C253.717 203.236 253.423 203.638 253.027 204.01C252.631 204.37 252.157 204.664 251.605 204.892C251.065 205.108 250.465 205.216 249.805 205.216Z" fill="#545971"/>
<defs>
<clipPath id="clip0_806_5679">
<rect width="40" height="40" fill="white" transform="translate(44 44)"/>
</clipPath>
</defs>
</svg>
