<svg width="7" height="6" viewBox="0 0 7 6" fill="none" xmlns="http://www.w3.org/2000/svg">
<path d="M3.54694 5.352C3.03494 5.352 2.57627 5.23467 2.17094 5C1.7656 4.76533 1.4456 4.44533 1.21094 4.04C0.976271 3.63467 0.858938 3.176 0.858938 2.664C0.858938 2.17333 0.970938 1.736 1.19494 1.352C1.4296 0.957333 1.7496 0.648 2.15494 0.424C2.56027 0.189333 3.02427 0.0719995 3.54694 0.0719995C4.0376 0.0719995 4.47494 0.189333 4.85894 0.424C5.24294 0.648 5.54694 0.957333 5.77094 1.352C6.0056 1.74667 6.12827 2.184 6.13894 2.664C6.13894 3.176 6.0216 3.63467 5.78694 4.04C5.56294 4.44533 5.2536 4.76533 4.85894 5C4.47494 5.23467 4.0376 5.352 3.54694 5.352Z" fill="#9EA3B5"/>
</svg>
